<svg xmlns="http://www.w3.org/2000/svg" id="Layer_1" data-name="Layer 1" viewBox="0 0 841.89 595.28"><defs><style>.cls-1{fill:#fff}</style></defs><title>web</title><path d="M629.93,91.51C516.38-22,332.56-22.07,219,91.51s-113.57,297.36,0,410.93,297.37,113.58,410.94,0S743.5,205.08,629.93,91.51ZM617.78,461a290.83,290.83,0,0,0-43.4-32.14c10.12-34.95,16.11-73.41,17.53-113.39h85.43A251.25,251.25,0,0,1,617.78,461ZM171.58,315.49H257c1.42,40,7.41,78.44,17.53,113.39A290.83,290.83,0,0,0,231.14,461,251.25,251.25,0,0,1,171.58,315.49Zm59.56-182.56a291.34,291.34,0,0,0,43.4,32.14c-10.11,35-16.11,73.41-17.53,113.39H171.58A251.25,251.25,0,0,1,231.14,132.93Zm174.8,36A251.54,251.54,0,0,1,319.63,147c15.7-40.43,44.64-88.92,86.31-100.94Zm0,37.1v72.46H294.06a436.8,436.8,0,0,1,14.05-96A288.63,288.63,0,0,0,405.94,206Zm0,109.49V388a288.63,288.63,0,0,0-97.83,23.55,436.71,436.71,0,0,1-14.05-96Zm0,109.56V547.86c-41.67-12-70.61-60.5-86.31-100.94A251.54,251.54,0,0,1,405.94,425.05Zm37,0a251.54,251.54,0,0,1,86.31,21.87c-15.7,40.43-44.64,88.92-86.31,100.94Zm0-37.1V315.49H554.86a436.71,436.71,0,0,1-14.05,96A288.63,288.63,0,0,0,443,388Zm0-109.49V206a288.63,288.63,0,0,0,97.83-23.55,436.8,436.8,0,0,1,14.05,96Zm0-109.56V46.09c41.67,12,70.61,60.51,86.31,100.94A251.54,251.54,0,0,1,443,168.9ZM526.15,64.58a252.51,252.51,0,0,1,65.64,41.92A254.13,254.13,0,0,1,562,129.11C552.77,106.25,541,84,526.15,64.58ZM286.92,129.11a254.13,254.13,0,0,1-29.79-22.61,252.51,252.51,0,0,1,65.64-41.92c-14.83,19.45-26.62,41.67-35.85,64.53Zm0,335.73c9.23,22.86,21,45.08,35.85,64.53a252.51,252.51,0,0,1-65.64-41.92A254.13,254.13,0,0,1,286.92,464.84Zm275.08,0a254.13,254.13,0,0,1,29.79,22.61,252.51,252.51,0,0,1-65.64,41.92C541,509.92,552.77,487.7,562,464.84Zm29.91-186.38c-1.42-40-7.41-78.44-17.53-113.39a291.43,291.43,0,0,0,43.41-32.14,251.3,251.3,0,0,1,59.55,145.53Z" class="cls-1"/></svg>