<svg xmlns="http://www.w3.org/2000/svg" xmlns:xlink="http://www.w3.org/1999/xlink" id="Layer_1" x="0" y="0" version="1.1" viewBox="0 0 864.6 1204.7" xml:space="preserve" style="enable-background:new 0 0 864.6 1204.7"><style type="text/css">.st0{fill:none;stroke:#fff;stroke-width:4;stroke-miterlimit:10}.st1{fill:#1f3247}.st2{fill:#fff}.st3{fill:#343a55}.st4{fill:#2c3451}.st5{fill:#758fb3}.st6{fill:#657faa}.st7{fill:#91aece}.st8{fill:#d19e66}.st9{fill:#c49b68}.st10{fill:#fcfcfc}.st11{fill:#607e55}.st12{display:none}.st13{display:inline;fill:#c2cbd7}.st14{fill:#a8b6c6}.st14,.st15{display:inline}.st16{fill:#758fb3}.st16,.st17,.st18{display:inline}.st17{fill:#657faa}.st18{fill:#343a55}.st19{fill:#91aece}.st19,.st20,.st21{display:inline}.st20{fill:#2c3451}.st21{fill:#fff}.st22{fill:#edd9ca}.st23{fill:#d8e1ea}.st24{fill:#c8ccc6}.st25{fill:#c2cbd7}.st26{fill:#dae5ef}.st27{fill:#bacbd8}.st28{opacity:.2;fill:#343a55}.st29{display:none;fill:#2c3451}.st30,.st31{fill:#0c0c0c}.st31{opacity:.46;stroke:#8d334f;stroke-miterlimit:10}.st32{opacity:.34;fill:#0c0c0c}.st33{opacity:.57}.st33,.st34,.st35{fill:#0c0c0c}.st34{opacity:.4}.st35{display:inline;opacity:.6}.st36,.st37,.st38{display:inline;fill:#0c0c0c}.st39{fill:#0c0c0c}.st37{opacity:.4;stroke:#aa4666;stroke-miterlimit:10}.st38{opacity:.71}.st39{display:none;opacity:.4}.st40,.st41{opacity:.61;fill:#0c0c0c}.st41{display:inline;opacity:.58}.st42,.st43{opacity:.69;fill:#ccc}.st43{opacity:.5}.st44{fill:#0f0904}.st45{fill:#fff;stroke:#000;stroke-width:8.4557;stroke-miterlimit:10}.st46{opacity:.5;fill:#e5ace5}.st47{fill:#091307}.st48{fill:#020202}.st49,.st50{stroke:#000;stroke-miterlimit:10}.st49{fill:none;stroke-width:1.3459;stroke-linecap:round;stroke-linejoin:round}.st50{stroke-width:.5}.st51{fill:#1f140f}.st52{fill:#88868b}.st53{opacity:.81;fill:#fff}.st54,.st55{opacity:.11;fill:#fff}.st55{opacity:.3}</style><polygon points="743.3 462.9 743.3 1025.4 121.4 1025.4 121.4 462.9 432.4 242.1" class="st0"/><rect width="621.9" height="155.6" x="121.4" y="869.8" class="st1"/><g><path d="M431.9,286.6L431.9,286.6c-1.2,0-2.1-1-2.1-2.1v-6.4c0-1.2,1-2.1,2.1-2.1l0,0c1.2,0,2.1,1,2.1,2.1v6.4 C434,285.7,433.1,286.6,431.9,286.6z" class="st2"/><path d="M431.9,306.3c-6.3,0-11.3-5-11.3-11.3c0-2.9,1.1-5.7,3.2-7.8l0.2-0.2c0.6-0.6,1.5-1.5,1.5-3.4 c0-0.9,0-2.5,0-2.5c0-1.9,1.5-3.4,3.4-3.4l6.1,0c1.8,0,3.4,1.5,3.4,3.4c0,0,0,1.6,0,2.5c0,1.9,1,2.8,1.5,3.4l0.2,0.2 c2.1,2.1,3.2,4.9,3.2,7.8C443.2,301.2,438.1,306.3,431.9,306.3C432,306.3,431.9,306.3,431.9,306.3z M426.4,281.2c0,0,0,1.6,0,2.5 c0,2.3-1.2,3.4-1.8,4l-0.1,0.1c-1.9,1.9-2.9,4.5-2.9,7.2c0,5.7,4.6,10.3,10.3,10.3c5.7,0,10.3-4.7,10.3-10.3c0-2.7-1-5.3-2.9-7.2 l-0.1-0.1c-0.6-0.6-1.8-1.8-1.8-4c0-0.9,0-2.5,0-2.5c0-1.3-1.1-2.4-2.4-2.4l-6.1,0C427.5,278.7,426.4,279.8,426.4,281.2 L426.4,281.2z" class="st2"/><path d="M431.9,293l-0.3-0.2c-1.8-1.3-3.7-1.9-5.7-1.8l-1,0.1l5-6.6l0.7,0.6l-3.8,5c1.7,0.1,3.4,0.7,5,1.8 c1.4-1.2,3.1-1.8,5-1.8l-3.8-5l0.7-0.6l5,6.6l-1.1-0.1c-2.3-0.2-4.2,0.4-5.6,1.8L431.9,293z" class="st2"/><rect width=".9" height="7.5" x="431.4" y="284.9" class="st2"/><path d="M441.4,278.3c-1.8-3.5-5.4-5.8-9.5-5.8c-4.1,0-7.7,2.4-9.5,5.8H441.4z" class="st3"/><path d="M478.6,343.8h-93.3l-9.8-22.4l0.1-0.2c6.7-21.4,20.6-36,41.5-43.3l0.2,0l29.8,0c19.4,8.8,33.3,23.4,41.5,43.3 l0.1,0.2l-0.1,0.2L478.6,343.8z M385.8,342.8H478l9.5-21.5c-8-19.6-21.8-33.9-40.8-42.6h-29.4c-20.5,7.2-34.2,21.5-40.8,42.5 L385.8,342.8z" class="st2"/><path d="M455,343.8h-46.1l-4.8-22.4l0-0.1c1.6-15.5,8.5-30.1,20.3-43.3l0.1-0.2h14.9l0.1,0.2 c9.5,12.5,16.3,27,20.3,43.2l0,0.1l0,0.1L455,343.8z M409.6,342.8h44.6l4.6-21.5c-3.9-15.9-10.6-30.3-19.9-42.6h-14 c-11.6,13-18.3,27.3-19.9,42.5L409.6,342.8z" class="st2"/><rect width="112" height=".9" x="375.9" y="320.9" class="st2"/><rect width=".9" height="29.4" x="431.4" y="243.1" class="st4"/></g><g><g><g><path d="M414.1,897.5h-11l-0.1-0.4l-9.4-42H409L414.1,897.5z M403.8,896.6h9.3l-5-40.5h-13.4L403.8,896.6z" class="st4"/><path d="M279.8,897.5h-11l5.2-42.4h15.4L279.8,897.5z M269.8,896.6h9.3l9.1-40.5h-13.4L269.8,896.6z" class="st4"/></g><g><path d="M391.3,897.5h-7.8l-6.5-42.4h10.8l0,0.4L391.3,897.5z M384.3,896.6h6.1l-3.4-40.5h-8.9L384.3,896.6z" class="st2"/><path d="M299.4,897.5h-7.8l3.5-42.4h10.8L299.4,897.5z M292.5,896.6h6l6.2-40.5h-8.9L292.5,896.6z" class="st2"/></g><path d="M410,762.1l9.3-93c0.7-7-5.2-12.8-11.9-11.8c-49,7.2-83.8,7.2-131.9,0c-6.8-1-12.6,4.8-11.9,11.8l9.3,92.9 c0.1,1.2,0,2.4-0.2,3.5c-1.1,5.1-4.4,19.5-4.7,20.5c-0.3,0.7,1.9,7.3,3.8,12.7c1.5,4.4,5.7,7.3,10.2,7.2l59.1-2c0.2,0,0.5,0,0.7,0 l59.1,2c4.6,0.2,8.7-2.7,10.2-7.2c1.9-5.5,4.1-12.1,3.8-12.7c-0.4-0.9-3.6-15.4-4.7-20.5C410,764.4,409.9,763.3,410,762.1z" class="st5"/><path d="M267,755l11.9,9.3c2.8,2.3,3.1,3.6,3.4,7.4l3.9,30.3h-18L267,755z" class="st6"/><path d="M415.9,755l-11.9,9.3c-2.8,2.3-3.1,3.6-3.4,7.4l-3.9,30.3l18,1.4L415.9,755z" class="st6"/><path d="M425.5,754.2h-7.2c-2,0-3.7,1.4-4.1,3.4l-5.6,44.7c-0.4,2-3.9-2-5.9-2H280.3c-2,0-5.6,5-5.9,3l-5.6-45.7 c-0.4-2-2.1-3.4-4.1-3.4h-7.2c-2.3,0-4.2,1.9-4.2,4.2l8.1,96.1c0,5.3,4.3,9.5,9.5,9.5h142.7c5.2,0,9.4-4.2,9.4-9.4l6.7-96.2 C429.7,756.1,427.8,754.2,425.5,754.2z" class="st3"/><path d="M404.1,835H278.8c-2.4,0-4.4-2-4.4-4.4v-27.3c0-2.4,2-4.4,4.4-4.4c41.8-3.1,83.6-3.1,125.4,0 c2.4,0,4.4,2,4.4,4.4v27.3C408.6,833.1,406.6,835,404.1,835z" class="st7"/><rect width="124.9" height=".9" x="279" y="801.6" class="st4"/></g><g><path d="M299,742.2c-12.9-4-40.6,2.3-43.6,9.1c-3,6.8,20.2,52.3,32.1,54.6c11.9,2.3,45.5-5.1,45.7-11.7 C332.6,778.9,311.9,746.2,299,742.2z" class="st8"/><path d="M290.4,804.8l-0.9-0.3c1.7-4.6-4.5-21.2-13.2-35.7c-6.7-11.2-13-17.9-17.3-18.5l0.1-0.9 c6.5,0.9,14.7,13.6,18,19C285.1,781.6,292.4,799.4,290.4,804.8z" class="st4"/></g></g><g><g><rect width="147.6" height="56.4" x="508.9" y="806.2" class="st3"/><rect width="127.4" height="36.8" x="519" y="816" class="st2"/><path d="M594.3,827.5h-23.2c-0.9,0-1.7-0.8-1.7-1.7v-2.5c0-0.9,0.8-1.7,1.7-1.7h23.2c0.9,0,1.7,0.8,1.7,1.7v2.5 C596,826.8,595.2,827.5,594.3,827.5z" class="st9"/><g><path d="M641.4,904.4h-9.3l-7.7-43.5h12.8L641.4,904.4z M633.1,903.3h7l-4-41.2h-10.3L633.1,903.3z" class="st2"/><path d="M533.3,904.4h-9.3l4.2-43.5H541L533.3,904.4z M525.3,903.3h7l7.3-41.2h-10.3L525.3,903.3z" class="st10"/></g></g><g><g><path d="M528.7,788.5v4.4c0,5.1,3.1,9.6,7.5,11.7v1.7H547v-1.7c4.4-2.1,7.5-6.5,7.5-11.7v-4.4H528.7z" class="st2"/><path d="M533,802.4c-4.6-1.7-11.5-5.6-12-9.5c-0.2-1.9,0.9-3.6,2.7-4.2c2.1-0.7,4.3,0.3,5.8,1.3l-0.6,1 c-1-0.7-3-1.7-4.8-1.2c-1.3,0.4-2.1,1.6-1.9,3c0.4,2.9,6,6.6,11.3,8.6L533,802.4z" class="st2"/></g><g><circle cx="586.2" cy="778.1" r="10.7" class="st11"/><path d="M637.3,776.9c0,5.9-4.8,10.7-10.7,10.7c-5.9,0-10.7-4.8-10.7-10.7c0-5.9,4.8-10.7,10.7-10.7 C632.5,766.2,637.3,771,637.3,776.9z" class="st11"/><path d="M620.8,782.6c0,5.9-4.8,10.7-10.7,10.7c-5.9,0-10.7-4.8-10.7-10.7c0-5.9,4.8-10.7,10.7-10.7 C616,772,620.8,776.7,620.8,782.6z" class="st11"/><path d="M619.6,806.2c11.1-4.5,19.7-14.4,23.1-26.8h-72.3c3.4,12.4,12,22.4,23.1,26.8H619.6z" class="st8"/><path d="M619.8,779.6c-1.1-3.5-3.6-5.1-3.7-5.1l0.6-1c0.1,0.1,3,1.8,4.2,5.7L619.8,779.6z" class="st4"/></g></g></g><g><g class="st12"><rect width="850" height="500" x="-94" y="273.2" class="st13"/><rect width="809.6" height=".8" x="-122.3" y="431.4" class="st14"/></g><g><g class="st12"><g class="st15"><path d="M657.4,841.6h-9l-0.1-0.3l-7.7-34.3h12.5L657.4,841.6z M649,840.8h7.6l-4-33.1h-10.9L649,840.8z" class="st4"/><path d="M547.8,841.6h-9L543,807h12.5L547.8,841.6z M539.7,840.8h7.6l7.4-33.1h-10.9L539.7,840.8z" class="st4"/></g><g class="st15"><path d="M638.8,841.6h-6.4l-5.3-34.6h8.8l0,0.3L638.8,841.6z M633.1,840.8h4.9l-2.8-33.1H628L633.1,840.8z" class="st2"/><path d="M563.8,841.6h-6.4l2.9-34.6h8.8L563.8,841.6z M558.2,840.8h4.9l5.1-33.1H561L558.2,840.8z" class="st2"/></g><path d="M654.1,731.1l7.6-75.9c0.6-5.7-4.2-10.4-9.7-9.6c-40,5.9-68.4,5.9-107.6,0c-5.5-0.8-10.3,3.9-9.7,9.6 l7.6,75.8c0.1,1,0,1.9-0.2,2.9c-0.9,4.1-3.6,16-3.9,16.7c-0.2,0.5,1.6,5.9,3.1,10.4c1.3,3.6,4.6,6,8.4,5.8l48.2-1.6 c0.2,0,0.4,0,0.6,0l48.2,1.6c3.7,0.1,7.1-2.2,8.4-5.8c1.5-4.5,3.3-9.9,3.1-10.4c-0.3-0.8-2.9-12.6-3.9-16.7 C654,733,654,732,654.1,731.1z" class="st16"/><path d="M537.4,725.3l9.7,7.6c2.3,1.9,2.5,2.9,2.8,6.1l3.2,24.7h-14.7L537.4,725.3z" class="st17"/><path d="M658.8,725.3l-9.7,7.6c-2.3,1.9-2.5,2.9-2.8,6.1l-3.2,24.7l14.7,1.1L658.8,725.3z" class="st17"/><path d="M666.7,724.7h-5.9c-1.6,0-3.1,1.2-3.4,2.8l-4.6,36.4c-0.3,1.6-3.2-1.6-4.8-1.6h-99.8 c-1.6,0-4.5,4.1-4.8,2.5l-4.6-37.3c-0.3-1.6-1.7-2.8-3.4-2.8h-5.9c-1.9,0-3.4,1.5-3.4,3.4l6.6,78.4c0,4.3,3.5,7.8,7.8,7.8h116.5 c4.3,0,7.7-3.5,7.7-7.7l5.5-78.5C670.1,726.2,668.6,724.7,666.7,724.7z" class="st18"/><path d="M649.3,790.6H547c-2,0-3.6-1.6-3.6-3.6v-22.3c0-2,1.6-3.6,3.6-3.6c34.1-2.5,68.2-2.5,102.3,0 c2,0,3.6,1.6,3.6,3.6V787C652.9,789,651.3,790.6,649.3,790.6z" class="st19"/><rect width="101.9" height=".8" x="547.2" y="763.3" class="st20"/></g><g class="st12"><path d="M373.9,450L373.9,450c-0.9,0-1.7-0.8-1.7-1.7v-5.2c0-0.9,0.8-1.7,1.7-1.7l0,0c0.9,0,1.7,0.8,1.7,1.7v5.2 C375.6,449.2,374.8,450,373.9,450z" class="st21"/><path d="M373.9,465.9c-5.1,0-9.2-4.1-9.2-9.1c0-2.4,0.9-4.6,2.6-6.3l0.1-0.1c0.5-0.5,1.2-1.2,1.2-2.7c0-0.7,0-2,0-2 c0-1.5,1.2-2.7,2.7-2.7l4.9,0c1.5,0,2.7,1.2,2.7,2.7c0,0,0,1.3,0,2c0,1.5,0.8,2.3,1.2,2.8l0.1,0.1c1.7,1.7,2.6,4,2.6,6.3 C383,461.8,378.9,465.9,373.9,465.9C373.9,465.9,373.9,465.9,373.9,465.9z M369.4,445.5c0,0,0,1.3,0,2c0,1.8-1,2.8-1.5,3.3 l-0.1,0.1c-1.5,1.6-2.4,3.6-2.4,5.8c0,4.6,3.8,8.4,8.4,8.4c4.6,0,8.4-3.8,8.4-8.4c0-2.2-0.8-4.3-2.4-5.8l-0.1-0.1 c-0.5-0.5-1.4-1.4-1.5-3.3c0-0.7,0-2,0-2c0-1.1-0.9-2-2-2l-4.9,0C370.3,443.6,369.4,444.5,369.4,445.5L369.4,445.5z" class="st21"/><path d="M373.9,455.2l-0.3-0.2c-1.4-1.1-3-1.6-4.6-1.5l-0.8,0.1l4.1-5.4l0.6,0.5l-3.1,4.1c1.4,0.1,2.8,0.5,4,1.4 c1.1-1,2.5-1.5,4.1-1.5l-3.1-4.1l0.6-0.5l4.1,5.4l-0.9-0.1c-1.9-0.2-3.4,0.3-4.5,1.4L373.9,455.2z" class="st21"/><rect width=".8" height="6.1" x="373.5" y="448.6" class="st21"/><path d="M381.6,443.2c-1.5-2.8-4.4-4.7-7.7-4.7c-3.3,0-6.3,1.9-7.7,4.7H381.6z" class="st18"/><path d="M411.7,496.2h-75.6l-8-18.1l0-0.1c5.4-17.4,16.7-29.2,33.6-35.1l0.1,0l24.1,0c15.7,7.1,27,18.9,33.6,35 l0.1,0.1l-0.1,0.1L411.7,496.2z M336.6,495.5h74.6l7.7-17.4c-6.5-15.8-17.6-27.4-33.1-34.5H362c-16.6,5.8-27.7,17.4-33.1,34.4 L336.6,495.5z" class="st21"/><path d="M392.6,496.2h-37.3l-3.9-18.1l0-0.1c1.3-12.6,6.8-24.4,16.4-35.1l0.1-0.1h12.1l0.1,0.1 c7.7,10.1,13.2,21.9,16.4,35l0,0.1l0,0.1L392.6,496.2z M355.8,495.5h36.1l3.7-17.4c-3.1-12.9-8.6-24.5-16.1-34.5h-11.4 c-9.4,10.5-14.8,22.1-16.1,34.4L355.8,495.5z" class="st21"/><rect width="90.7" height=".8" x="328.5" y="477.7" class="st21"/><rect width=".8" height="23.8" x="373.5" y="414.8" class="st20"/></g><g class="st12"><g class="st15"><path d="M331,591.7h-58.3v-80.8H331V591.7z M273.4,590.9h56.8v-79.3h-56.8V590.9z" class="st4"/><rect width="41.5" height="62.6" x="281.1" y="520" class="st2"/><path d="M309.5,562.8c-0.2-7.6-3.1-16.4-10.8-19.5c-1.9-0.8-4.4-1.1-6.3-0.1c-1.8,0.9-3.2,2.7-4.1,4.5 c-3.2,7-1.7,15.7,3.3,21.5c2.9,3.4,7.3,6.6,12,6.7c0.9,0,1.8-0.1,2.6-0.5c3.1-1.4,3.2-6.7,3.3-9.6 C309.5,564.8,309.5,563.8,309.5,562.8z" class="st22"/><path d="M313.7,528.4c-1.6-2-4.6-2.5-7-3c-3.3-0.6-6.7-1.2-10.1-1.3c-2.2-0.1-4.8-0.2-6.3,1.7 c-0.8,1-1.4,2.7-0.8,4c0.7,1.4,2.4,2,3.8,2.4c1.8,0.6,3.7,1,5.6,1.3c3.8,0.6,7.6,0.8,11.5,0.6c1.4-0.1,3.2-0.5,3.9-1.8 c0.5-1,0.4-2.2-0.1-3.1C314,528.9,313.8,528.6,313.7,528.4z" class="st23"/><path d="M318.1,539.2c-1.7-1.4-4.9-1.7-6.7-0.2c-2.1,1.7-1.5,5,0.8,6.1c1.4,0.7,3.4,1.1,4.9,0.7 c1.3-0.3,1.7-1.3,2.1-2.5c0.2-0.6,0.3-1.2,0.3-1.8C319.3,540.6,318.8,539.8,318.1,539.2z" class="st24"/></g><g class="st15"><rect width="48.5" height="50.2" x="364.5" y="559.9" class="st2"/><rect width=".7" height="57.8" x="388.4" y="545.5" class="st25" transform="matrix(0.3393 -0.9407 0.9407 0.3393 -283.4268 745.2003)"/><path d="M365.2,602.5c-6,0-10.8-4.9-10.8-10.8c0-6,4.9-10.8,10.8-10.8c6,0,10.8,4.9,10.8,10.8 C376.1,597.6,371.2,602.5,365.2,602.5z M365.2,581.5c-5.6,0-10.1,4.5-10.1,10.1c0,5.6,4.5,10.1,10.1,10.1 c5.6,0,10.1-4.5,10.1-10.1C375.3,586,370.8,581.5,365.2,581.5z" class="st25"/><path d="M391.2,597.5c-2.6,0-4.8-2.2-4.8-4.8c0-2.6,2.2-4.8,4.8-4.8c2.6,0,4.8,2.2,4.8,4.8 C396,595.4,393.9,597.5,391.2,597.5z M391.2,588.7c-2.2,0-4.1,1.8-4.1,4.1c0,2.2,1.8,4.1,4.1,4.1c2.2,0,4.1-1.8,4.1-4.1 C395.3,590.5,393.5,588.7,391.2,588.7z" class="st25"/><path d="M417.7,571c-11.1,0-20.1-9-20.1-20.1c0-11.1,9-20.1,20.1-20.1c11.1,0,20.1,9,20.1,20.1 C437.8,561.9,428.8,571,417.7,571z M417.7,531.5c-10.7,0-19.4,8.7-19.4,19.4c0,10.7,8.7,19.4,19.4,19.4 c10.7,0,19.4-8.7,19.4-19.4C437,540.2,428.3,531.5,417.7,531.5z" class="st25"/><rect width="38" height=".8" x="379.7" y="604.6" class="st25" transform="matrix(0.9126 -0.4088 0.4088 0.9126 -212.4818 215.8521)"/><rect width=".8" height="68.9" x="386.2" y="550" class="st25" transform="matrix(0.853 -0.5219 0.5219 0.853 -248.2153 287.6226)"/><rect width="63.6" height=".8" x="357.3" y="576.6" class="st25" transform="matrix(0.8252 -0.5649 0.5649 0.8252 -257.8935 320.6216)"/><path d="M420.1,617.4h-62.6v-64.8h62.6V617.4z M358.2,616.7h61.1v-63.3h-61.1V616.7z" class="st4"/></g></g><g><path d="M672.9,576.8H477.2v-72.2h195.7V576.8z M483.2,570.8h183.7v-60.2H483.2V570.8z" class="st2"/><rect width="14" height="50.6" x="653" y="520.2" class="st9"/><rect width="11" height="39.7" x="486.5" y="530.4" class="st9" transform="matrix(-0.9862 0.1658 -0.1658 -0.9862 1068.3392 1011.4046)"/><rect width="5.5" height="53.9" x="496.5" y="516.9" class="st5" transform="matrix(-0.9862 0.1658 -0.1658 -0.9862 1081.7065 997.2678)"/><rect width="3.6" height="53.9" x="517.6" y="517" class="st2" transform="matrix(-0.9862 0.1658 -0.1658 -0.9862 1121.8962 994.2258)"/><rect width="5.5" height="53.9" x="512" y="516.9" class="st9" transform="matrix(-0.9862 0.1658 -0.1658 -0.9862 1112.5709 994.6909)"/><rect width="5.5" height="53.9" x="521.4" y="516.9" class="st9" transform="matrix(-0.9862 0.1658 -0.1658 -0.9862 1131.1648 993.1385)"/><rect width="10" height="47" x="502.6" y="523.3" class="st3" transform="matrix(-0.9862 0.1658 -0.1658 -0.9862 1098.8405 1001.8853)"/><rect width="7" height="45.5" x="640.3" y="525.3" class="st9"/><rect width="4.8" height="61" x="578.4" y="526.3" class="st9" transform="matrix(-1.836970e-16 1 -1 -1.836970e-16 1137.5698 -24.0758)"/><rect width="2.4" height="67.1" x="582.7" y="519.6" class="st2" transform="matrix(-1.836970e-16 1 -1 -1.836970e-16 1137.0073 -30.7813)"/><rect width="7" height="50.6" x="621.6" y="520.2" class="st5"/><rect width="9.9" height="43.5" x="582.8" y="525.2" class="st5" transform="matrix(-1.836970e-16 1 -1 -1.836970e-16 1134.7361 -40.8634)"/><rect width="11.6" height="49.4" x="628.6" y="521.4" class="st2"/><rect width="11.6" height="59.5" x="578.8" y="535.3" class="st3" transform="matrix(-1.836970e-16 1 -1 -1.836970e-16 1149.62 -19.6474)"/><rect width="5.7" height="54.5" x="647.2" y="516.3" class="st3"/><g><g><rect width=".8" height="11.6" x="560.4" y="559.2" class="st2"/><rect width=".8" height="11.6" x="564.4" y="559.2" class="st2"/></g><g><rect width=".8" height="11.6" x="604.1" y="559.2" class="st2"/><rect width=".8" height="11.6" x="608.1" y="559.2" class="st2"/></g></g><rect width="14" height=".8" x="653" y="525.7" class="st4"/><rect width="14" height=".8" x="653" y="565.3" class="st4"/><rect width="14" height=".8" x="653" y="528.1" class="st4"/><rect width="14" height=".8" x="653" y="562.9" class="st4"/><rect width="11" height=".7" x="484.1" y="535.6" class="st4" transform="matrix(0.986 -0.1667 0.1667 0.986 -82.507 89.1239)"/><rect width="11" height=".7" x="488.9" y="564.5" class="st4" transform="matrix(0.986 -0.1667 0.1667 0.986 -87.2646 90.3404)"/></g><g class="st12"><g class="st15"><polygon points="-62.3 841.2 -66.2 841.2 -67.3 608.5 -61.2 608.5" class="st5"/><polygon points="-49.3 605.2 -60.3 605.2 -68.2 605.2 -79.2 605.2 -99.6 841.2 -95.5 841.2 -73.6 615.3 -64.2 615.3 -54.9 615.3 -32.9 841.2 -28.9 841.2" class="st3"/><path d="M-62.2,610.3c0,1.1-0.9,2.1-2.1,2.1c-1.1,0-2.1-0.9-2.1-2.1s0.9-2.1,2.1-2.1 C-63.1,608.2-62.2,609.1-62.2,610.3z" class="st2"/></g><g class="st15"><rect width="9.6" height="52" x="-69" y="553.3" class="st2"/><g><polygon points="-109.2 532.9 -117.4 583.7 -11.1 583.7 -19.3 532.9" class="st8"/><rect width="91.5" height=".8" x="-110" y="537.3" class="st4"/></g><rect width=".8" height="75" x="-32.7" y="583.7" class="st2"/><path d="M-32.3,665.8L-32.3,665.8c-0.5,0-0.9-0.4-0.9-0.9v-7.4c0-0.5,0.4-0.9,0.9-0.9l0,0c0.5,0,0.9,0.4,0.9,0.9 v7.4C-31.4,665.4-31.8,665.8-32.3,665.8z" class="st3"/></g></g><g class="st12"><g class="st15"><path d="M195.9,754.9H192c-0.8,0-1.5-0.7-1.5-1.5v-9.2c0-0.8,0.7-1.5,1.5-1.5h3.9c0.8,0,1.5,0.7,1.5,1.5v9.2 C197.4,754.2,196.8,754.9,195.9,754.9z" class="st2"/><path d="M191.5,818.6H44.4c-1.1,0-2-0.9-2-2v-80.5c0-1.1,0.9-2,2-2h147.1c1.1,0,2,0.9,2,2v80.5 C193.5,817.7,192.6,818.6,191.5,818.6z" class="st2"/><rect width="151.1" height=".8" x="42.4" y="737.4" class="st4"/><g><path d="M57.2,812.7c-1.2,0-2.2-1-2.2-2.2V745c0-1.2,1-2.2,2.2-2.2c1.2,0,2.2,1,2.2,2.2v65.6 C59.4,811.8,58.4,812.7,57.2,812.7z M57.2,743.6c-0.8,0-1.4,0.6-1.4,1.4v65.6c0,0.8,0.6,1.4,1.4,1.4c0.8,0,1.4-0.6,1.4-1.4V745 C58.6,744.2,58,743.6,57.2,743.6z" class="st25"/><path d="M69.4,812.7c-1.2,0-2.2-1-2.2-2.2V745c0-1.2,1-2.2,2.2-2.2c1.2,0,2.2,1,2.2,2.2v65.6 C71.5,811.8,70.5,812.7,69.4,812.7z M69.4,743.6c-0.8,0-1.4,0.6-1.4,1.4v65.6c0,0.8,0.6,1.4,1.4,1.4c0.8,0,1.4-0.6,1.4-1.4V745 C70.8,744.2,70.1,743.6,69.4,743.6z" class="st25"/><path d="M81.5,812.7c-1.2,0-2.2-1-2.2-2.2V745c0-1.2,1-2.2,2.2-2.2c1.2,0,2.2,1,2.2,2.2v65.6 C83.7,811.8,82.7,812.7,81.5,812.7z M81.5,743.6c-0.8,0-1.4,0.6-1.4,1.4v65.6c0,0.8,0.6,1.4,1.4,1.4c0.8,0,1.4-0.6,1.4-1.4V745 C82.9,744.2,82.3,743.6,81.5,743.6z" class="st25"/><path d="M93.6,812.7c-1.2,0-2.2-1-2.2-2.2V745c0-1.2,1-2.2,2.2-2.2c1.2,0,2.2,1,2.2,2.2v65.6 C95.8,811.8,94.8,812.7,93.6,812.7z M93.6,743.6c-0.8,0-1.4,0.6-1.4,1.4v65.6c0,0.8,0.6,1.4,1.4,1.4c0.8,0,1.4-0.6,1.4-1.4V745 C95,744.2,94.4,743.6,93.6,743.6z" class="st25"/><path d="M105.8,812.7c-1.2,0-2.2-1-2.2-2.2V745c0-1.2,1-2.2,2.2-2.2s2.2,1,2.2,2.2v65.6 C107.9,811.8,107,812.7,105.8,812.7z M105.8,743.6c-0.8,0-1.4,0.6-1.4,1.4v65.6c0,0.8,0.6,1.4,1.4,1.4c0.8,0,1.4-0.6,1.4-1.4 V745C107.2,744.2,106.6,743.6,105.8,743.6z" class="st25"/><path d="M117.9,812.7c-1.2,0-2.2-1-2.2-2.2V745c0-1.2,1-2.2,2.2-2.2c1.2,0,2.2,1,2.2,2.2v65.6 C120.1,811.8,119.1,812.7,117.9,812.7z M117.9,743.6c-0.8,0-1.4,0.6-1.4,1.4v65.6c0,0.8,0.6,1.4,1.4,1.4c0.8,0,1.4-0.6,1.4-1.4 V745C119.3,744.2,118.7,743.6,117.9,743.6z" class="st25"/><path d="M130.1,812.7c-1.2,0-2.2-1-2.2-2.2V745c0-1.2,1-2.2,2.2-2.2c1.2,0,2.2,1,2.2,2.2v65.6 C132.2,811.8,131.2,812.7,130.1,812.7z M130.1,743.6c-0.8,0-1.4,0.6-1.4,1.4v65.6c0,0.8,0.6,1.4,1.4,1.4c0.8,0,1.4-0.6,1.4-1.4 V745C131.5,744.2,130.8,743.6,130.1,743.6z" class="st25"/><path d="M142.2,812.7c-1.2,0-2.2-1-2.2-2.2V745c0-1.2,1-2.2,2.2-2.2s2.2,1,2.2,2.2v65.6 C144.4,811.8,143.4,812.7,142.2,812.7z M142.2,743.6c-0.8,0-1.4,0.6-1.4,1.4v65.6c0,0.8,0.6,1.4,1.4,1.4c0.8,0,1.4-0.6,1.4-1.4 V745C143.6,744.2,143,743.6,142.2,743.6z" class="st25"/><path d="M154.3,812.7c-1.2,0-2.2-1-2.2-2.2V745c0-1.2,1-2.2,2.2-2.2c1.2,0,2.2,1,2.2,2.2v65.6 C156.5,811.8,155.5,812.7,154.3,812.7z M154.3,743.6c-0.8,0-1.4,0.6-1.4,1.4v65.6c0,0.8,0.6,1.4,1.4,1.4c0.8,0,1.4-0.6,1.4-1.4 V745C155.7,744.2,155.1,743.6,154.3,743.6z" class="st25"/><path d="M166.5,812.7c-1.2,0-2.2-1-2.2-2.2V745c0-1.2,1-2.2,2.2-2.2s2.2,1,2.2,2.2v65.6 C168.6,811.8,167.7,812.7,166.5,812.7z M166.5,743.6c-0.8,0-1.4,0.6-1.4,1.4v65.6c0,0.8,0.6,1.4,1.4,1.4c0.8,0,1.4-0.6,1.4-1.4 V745C167.9,744.2,167.2,743.6,166.5,743.6z" class="st25"/><path d="M178.6,812.7c-1.2,0-2.2-1-2.2-2.2V745c0-1.2,1-2.2,2.2-2.2c1.2,0,2.2,1,2.2,2.2v65.6 C180.8,811.8,179.8,812.7,178.6,812.7z M178.6,743.6c-0.8,0-1.4,0.6-1.4,1.4v65.6c0,0.8,0.6,1.4,1.4,1.4c0.8,0,1.4-0.6,1.4-1.4 V745C180,744.2,179.4,743.6,178.6,743.6z" class="st25"/></g><rect width=".8" height="12.2" x="193.1" y="742.7" class="st25"/></g><g class="st15"><g><rect width="216.1" height="229.2" x="9.5" y="478.4" class="st2"/><g><g><path d="M144.9,537.1c-1-2.1-3.1-3.5-5.6-3.5c-1.4,0-2.8,0.5-3.8,1.3c-0.6-4.9-4.8-8.7-9.8-8.7 c-4,0-7.5,2.4-9,5.9c-1.5-1.5-3.5-2.4-5.8-2.4c-1.2,0-2.4,0.3-3.4,0.7c-1.1-6.3-6.5-11-13.1-11c-1.5,0-2.9,0.3-4.3,0.7 c-2.9-6.4-9.3-10.9-16.8-10.9c-7.3,0-13.6,4.3-16.6,10.5c-2.3-1.5-5.1-2.5-8.1-2.5c-7.4,0-13.5,5.6-14.3,12.8 c-0.7-0.2-1.4-0.3-2.2-0.3c-4.3,0-7.8,3.3-8.1,7.4H144.9z" class="st26"/><path d="M64,528.6c-2.5-5.7-7.4-8.6-7.5-8.6l0.4-0.7c0.2,0.1,5.2,3,7.8,8.9L64,528.6z" class="st2"/><path d="M85.4,523.2l-0.5-0.6c0.1-0.1,2.2-1.8,5.1-2.9l0.3,0.7C87.5,521.5,85.4,523.2,85.4,523.2z" class="st2"/><path d="M105,532.8l-0.6-0.5c0.1-0.1,1.3-1.4,2.9-2.2l0.3,0.7C106.2,531.5,105,532.8,105,532.8z" class="st2"/></g><g><path d="M225.6,555.6c-13.4,0.1-24.9,8.1-30.1,19.6c-2.4-0.8-5-1.3-7.7-1.3c-11.8,0-21.6,8.6-23.6,19.8 c-1.9-0.8-3.9-1.3-6.1-1.3c-4.1,0-7.7,1.7-10.4,4.3c-2.8-6.2-9-10.5-16.2-10.5c-9.1,0-16.6,6.8-17.6,15.6 c-1.9-1.5-4.3-2.4-6.9-2.4c-4.4,0-8.2,2.6-10,6.4h128.6V555.6z" class="st26"/><path d="M204.2,580.6c0,0-3.8-3.2-8.8-5l0.3-0.7c5.1,1.8,8.9,5,9,5.1L204.2,580.6z" class="st2"/><path d="M168.9,597.9c0,0-2.1-2.4-4.8-3.7l0.3-0.7c2.8,1.4,5,3.8,5.1,3.9L168.9,597.9z" class="st2"/></g></g><g><path d="M78,707.6c-2-5.6-4.9-10.7-8.5-15.3c-5.6-7.7-4.5-15.1-3.1-18.6c2-5,3-10.5,3-16.2 c0-10.8-3.8-20.7-10.2-28.4c-4.1-5.6-3.6-13.1-2.3-16.5c1.4-3.8,2.2-7.9,2.2-12.2c0-19.1-15.5-34.6-34.6-34.6 c-5.4,0-10.5,1.2-15.1,3.5v138.4H78z" class="st26"/><rect width="1" height="127.1" x="19.9" y="580.6" class="st27"/><rect width="25.2" height="1" x="17.1" y="608.6" class="st27" transform="matrix(0.7427 -0.6696 0.6696 0.7427 -400.1673 176.5951)"/><rect width="39.4" height="1" x="15.3" y="689.8" class="st27" transform="matrix(0.7423 -0.6701 0.6701 0.7423 -453.554 201.3538)"/></g><path d="M233.1,715.4H2V470.5h231V715.4z M2.8,714.7h229.5V471.3H2.8V714.7z" class="st4"/><g><rect width=".8" height="236.1" x="48.4" y="475.4" class="st25"/><rect width=".8" height="236.1" x="185.8" y="475.4" class="st25"/></g><g><path d="M253.1,464.8c-1.9,0-3.4-1.5-3.4-3.4c0-1.9,1.5-3.4,3.4-3.4c1.9,0,3.4,1.5,3.4,3.4 C256.5,463.3,254.9,464.8,253.1,464.8z M253.1,458.7c-1.5,0-2.7,1.2-2.7,2.7c0,1.5,1.2,2.7,2.7,2.7c1.5,0,2.7-1.2,2.7-2.7 C255.7,459.9,254.5,458.7,253.1,458.7z" class="st4"/><path d="M-18.3,464.8c-1.9,0-3.4-1.5-3.4-3.4c0-1.9,1.5-3.4,3.4-3.4c1.9,0,3.4,1.5,3.4,3.4 C-14.9,463.3-16.4,464.8-18.3,464.8z M-18.3,458.7c-1.5,0-2.7,1.2-2.7,2.7c0,1.5,1.2,2.7,2.7,2.7c1.5,0,2.7-1.2,2.7-2.7 C-15.7,459.9-16.8,458.7-18.3,458.7z" class="st4"/><rect width="265.3" height=".8" x="-15.3" y="461" class="st4"/></g><g><g><rect width=".8" height="4" x="-1.8" y="461.4" class="st4"/><rect width=".8" height="4" x="44.3" y="461.4" class="st4"/><rect width=".8" height="4" x="67.4" y="461.4" class="st4"/><rect width=".8" height="4" x="90.5" y="461.4" class="st4"/><rect width=".8" height="4" x="214.9" y="461.4" class="st4"/><rect width=".8" height="4" x="237.9" y="461.4" class="st4"/><rect width=".8" height="4" x="21.3" y="461.4" class="st4"/></g><rect width="29.6" height="327.4" x="211.6" y="465.4" class="st28"/><rect width="98.5" height="327.4" x="-4.6" y="465.4" class="st28"/></g></g><g><g><path d="M137.9,674.7c0,0-6.3-9.9-18.6-11.4c0,0,19.1-8.3,28.7,11.4L137.9,674.7z" class="st11"/><path d="M160.2,674.7c0,0,6.5-21.3,29.1-29c0,0-13.4,11.5-15.9,29H160.2z" class="st11"/><path d="M143.7,674.7c0,0-9.2-22.2,2-60.1c0,0,16.2,27,20.3,60.1L143.7,674.7z" class="st11"/><path d="M140.1,674.7c0.6-7.9-2.6-15.9-7.1-24c9.5,6.4,16.7,14.2,20.8,24H140.1z" class="st11"/><path d="M156.7,674.7c-0.1-13.5,8.4-35.2,15.9-46.1l-2.4,46.1H156.7z" class="st11"/><path d="M147.7,673.6c-3-6.1-8.9-9-9-9.1l0.3-0.7c0.3,0.1,6.2,3.1,9.3,9.4L147.7,673.6z" class="st4"/><path d="M156.9,673.5c-0.5-9.8,4-21.3,4.1-21.4l0.7,0.3c0,0.1-4.5,11.5-4,21.1L156.9,673.5z" class="st4"/><path d="M153.4,673.6c-2.8-9.8-13.3-17-13.4-17l0.4-0.6c0.1,0.1,10.8,7.4,13.7,17.4L153.4,673.6z" class="st4"/><rect width="16.3" height=".7" x="162.6" y="665" class="st4" transform="matrix(5.220146e-02 -0.9986 0.9986 5.220146e-02 -502.5864 801.1417)"/></g><g><path d="M137.2,674.5V699c0,4.7,3.9,8.6,8.6,8.6H165c4.7,0,8.6-3.9,8.6-8.6v-24.5H137.2z" class="st9"/><rect width="39.8" height="9.1" x="135.5" y="673.5" class="st9"/><rect width="36.4" height=".8" x="137.2" y="682.2" class="st4"/></g></g></g></g><g class="st12"><g class="st15"><rect width="95.8" height="36.6" x="416.5" y="777.9" class="st3"/><rect width="82.7" height="23.9" x="423" y="784.2" class="st2"/><path d="M471.3,791.7h-13.8c-0.9,0-1.7-0.8-1.7-1.7v-0.4c0-0.9,0.8-1.7,1.7-1.7h13.8c0.9,0,1.7,0.8,1.7,1.7v0.4 C473,790.9,472.2,791.7,471.3,791.7z" class="st9"/><g><path d="M502.4,841.6h-6l-5-28.2h8.3L502.4,841.6z M497,840.8h4.6l-2.6-26.7h-6.7L497,840.8z" class="st4"/><path d="M432.3,841.6h-6l2.7-28.2h8.3L432.3,841.6z M427.1,840.8h4.6l4.7-26.7h-6.7L427.1,840.8z" class="st4"/></g></g><g class="st15"><g><path d="M429.3,766.3v2.8c0,3.3,2,6.2,4.8,7.6v1.1h7v-1.1c2.8-1.3,4.8-4.2,4.8-7.6v-2.8H429.3z" class="st2"/><path d="M432.1,775.4c-3-1.1-7.5-3.6-7.8-6.2c-0.2-1.2,0.6-2.3,1.8-2.7c1.4-0.5,2.8,0.2,3.8,0.8l-0.4,0.6 c-0.7-0.4-2-1.1-3.1-0.7c-0.9,0.3-1.4,1.1-1.3,1.9c0.2,1.9,3.9,4.3,7.3,5.6L432.1,775.4z" class="st2"/></g><g><circle cx="466.6" cy="759.6" r="6.9" class="st11"/><path d="M499.8,758.8c0,3.8-3.1,6.9-6.9,6.9c-3.8,0-6.9-3.1-6.9-6.9c0-3.8,3.1-6.9,6.9-6.9 C496.7,751.9,499.8,755,499.8,758.8z" class="st11"/><path d="M489.1,762.5c0,3.8-3.1,6.9-6.9,6.9c-3.8,0-6.9-3.1-6.9-6.9c0-3.8,3.1-6.9,6.9-6.9 C486,755.6,489.1,758.7,489.1,762.5z" class="st11"/><path d="M488.3,777.9c7.2-2.9,12.8-9.3,15-17.4h-46.9c2.2,8.1,7.8,14.5,15,17.4H488.3z" class="st8"/><path d="M488.4,760.6c-0.7-2.3-2.4-3.3-2.4-3.3l0.4-0.6c0.1,0,1.9,1.2,2.7,3.7L488.4,760.6z" class="st4"/></g></g></g><g class="st12"><g class="st15"><g><path d="M389.9,841.6h-9l-0.1-0.3l-7.7-34.3h12.5L389.9,841.6z M381.5,840.8h7.6l-4-33.1h-10.9L381.5,840.8z" class="st4"/><path d="M280.3,841.6h-9l4.2-34.6h12.5L280.3,841.6z M272.1,840.8h7.6l7.4-33.1h-10.9L272.1,840.8z" class="st4"/></g><g><path d="M371.3,841.6h-6.4l-5.3-34.6h8.8l0,0.3L371.3,841.6z M365.6,840.8h4.9l-2.8-33.1h-7.2L365.6,840.8z" class="st2"/><path d="M296.3,841.6h-6.4l2.9-34.6h8.8L296.3,841.6z M290.7,840.8h4.9l5.1-33.1h-7.2L290.7,840.8z" class="st2"/></g><path d="M386.5,731.1l7.6-75.9c0.6-5.7-4.2-10.4-9.7-9.6c-40,5.9-68.4,5.9-107.6,0c-5.5-0.8-10.3,3.9-9.7,9.6 l7.6,75.8c0.1,1,0,1.9-0.2,2.9c-0.9,4.1-3.6,16-3.9,16.7c-0.2,0.5,1.6,5.9,3.1,10.4c1.3,3.6,4.6,6,8.4,5.8l48.2-1.6 c0.2,0,0.4,0,0.6,0l48.2,1.6c3.7,0.1,7.1-2.2,8.4-5.8c1.5-4.5,3.3-9.9,3.1-10.4c-0.3-0.8-2.9-12.6-3.9-16.7 C386.5,733,386.4,732,386.5,731.1z" class="st5"/><path d="M269.9,725.3l9.7,7.6c2.3,1.9,2.5,2.9,2.8,6.1l3.2,24.7h-14.7L269.9,725.3z" class="st6"/><path d="M391.3,725.3l-9.7,7.6c-2.3,1.9-2.5,2.9-2.8,6.1l-3.2,24.7l14.7,1.1L391.3,725.3z" class="st6"/><path d="M399.2,724.7h-5.9c-1.6,0-3.1,1.2-3.4,2.8l-4.6,36.4c-0.3,1.6-3.2-1.6-4.8-1.6h-99.8 c-1.6,0-4.5,4.1-4.8,2.5l-4.6-37.3c-0.3-1.6-1.7-2.8-3.4-2.8H262c-1.9,0-3.4,1.5-3.4,3.4l6.6,78.4c0,4.3,3.5,7.8,7.8,7.8h116.5 c4.3,0,7.7-3.5,7.7-7.7l5.5-78.5C402.6,726.2,401.1,724.7,399.2,724.7z" class="st3"/><path d="M381.8,790.6H279.5c-2,0-3.6-1.6-3.6-3.6v-22.3c0-2,1.6-3.6,3.6-3.6c34.1-2.5,68.2-2.5,102.3,0 c2,0,3.6,1.6,3.6,3.6V787C385.4,789,383.7,790.6,381.8,790.6z" class="st7"/><rect width="101.9" height=".8" x="279.6" y="763.3" class="st4"/></g><g class="st15"><path d="M296,714.9c-10.5-3.3-33.2,1.9-35.6,7.5c-2.5,5.5,16.5,42.7,26.2,44.6c9.7,1.9,37.1-4.2,37.3-9.5 C323.4,744.8,306.5,718.1,296,714.9z" class="st8"/><path d="M289,765.9l-0.7-0.3c1.4-3.7-3.7-17.3-10.7-29.1c-5.5-9.1-10.6-14.6-14.1-15.1l0.1-0.7 c5.3,0.7,12,11.1,14.7,15.5C284.7,747,290.6,761.5,289,765.9z" class="st4"/></g></g><rect width="809.6" height=".8" x="-122.3" y="840.8" class="st29"/></g></g><g><g class="st12"><g class="st15"><path d="M-453.7,342.1v9.1c0,0,2.8,2.8,10.2,0v-9.1H-453.7z" class="st30"/><path d="M-136.6,342.1v9.1c0,0,2.8,2.8,10.2,0v-9.1H-136.6z" class="st30"/><g><path d="M-289.2,272.3c-0.6-14.4-1.7-89-1.7-89c-7.5-2.2-128.9-0.9-132.8-0.7c-3.9,0.2-5,1.3-5,1.3 s-4.7,1.6-6.9,36.3l-1.2,43.8c0,0,3-1.4,13.1-1.5S-288,267.7-289.2,272.3z" class="st30"/><path d="M-289.2,272.7c-1.1-13.4-2-89.4-2-89.4c7.5-2.2,128.9-0.9,132.8-0.7c3.9,0.2,5,1.3,5,1.3s4.7,1.6,6.9,36.3 l1.2,43.8c0,0-2.9-0.6-13-0.6C-168.4,263.3-290.5,268.2-289.2,272.7z" class="st30"/><line x1="-290.9" x2="-289.2" y1="183.3" y2="272.7" class="st31"/><path d="M-435.7,222.6c0,0,38.2,33.3,144.7,31.5c0,0,126.9,2.7,145.8-26V264l-143.4,10.4L-436.9,264L-435.7,222.6z" class="st32"/></g><g><path d="M-435.7,222.6c0,0-8.9-0.8-12.9,1c-4.1,1.8-16.1,4.9-22.7,13.5c0,0,8.3-5,26.4-0.3l0.6,30.9l8.7-4.1V222.6 z" class="st30"/></g><g><path d="M-146.4,221.2c0,0,9.8,0.5,13.9,1.8c4.2,1.4,14.1,4.4,21.7,12.7c0,0-6.8-3.7-24.9,1.1l-0.2,30.4l-9.4-4.1 L-146.4,221.2z" class="st30"/></g><path d="M-435.7,222.6c0,0-4.2,9.2-9.2,14.2c0,0,1.1,1.2,0.6,30.9c0,0,3-3.6,8.7-4.1V222.6z" class="st33"/><path d="M-146.4,221.2c0,0,5.4,10.5,10.5,15.6c0,0-0.6,0.6,0,30.4c0,0-3.8-3-9.5-3.6L-146.4,221.2z" class="st33"/><g><path d="M-110,239.2c0,0,0,91.3,0,97.1c0,5.8-3,5.8-3,5.8s-346.1,0-350.5,0c-4.4,0-6.1-3-6.6-8.3 c-0.6-5.3-1.7-89.9-1.7-93.2c0,0-1.1-4.2,2.8-4.7c3.9-0.6,11.5-2.9,24.2,0.9c0,0,0.6,1.7,0.6,5.3c0,3.7,0,58.1,0,58.1h309.5 c0,0-2.6-61.8-0.9-63.4s11.3-4.3,24-1.8C-111.8,235-110,234.6-110,239.2z" class="st30"/></g><path d="M-442.3,303.7c0,0,74.9,10.8,305.7,5.7l1.7-9.1L-442.3,303.7z" class="st34"/><g><path d="M-421.7,342.1v9c0,0,2.7,2.7,10,0v-9H-421.7z" class="st30"/><path d="M-170.3,342.1v9c0,0,2.7,2.7,10,0v-9H-170.3z" class="st30"/></g><g><path d="M-442.3,303.7c0,0,82.9,4.5,153.7-1.5c0,0,1.6-35.4-2.4-37.9c-3.1-2-3.3-1.7-19.9-1.9 c-17.5-0.2-109.8-0.1-114.5,0c-4.7,0.1-12.5,1.2-16.9,3.7c-4.4,2.5-4.2,7.2-4.2,7.2s1.1,13.6,1.1,17.4 C-445.3,294.5-446.7,303.5-442.3,303.7z" class="st30"/><path d="M-136.8,302.2c0,0-81.6,5.9-152.4-0.2c1.2,0.1-1.2-35.5,0.9-37.7c2.6-2.7,6-2.6,22-2.1 c17.5,0.6,109.8-0.1,114.5,0c4.7,0.1,9.2,0.1,13.6,2.6c4.4,2.5,4.2,7.2,4.2,7.2s0.3,13.2,0.3,17.1S-132.4,302-136.8,302.2z" class="st30"/></g></g><g class="st15"><path d="M-133.6,203.6c0,0-44.8,4.3-49.5,8.2c-4.7,3.9-23.2,32.2-26.6,50.7h52.8 C-156.8,262.7-122.9,200.1-133.6,203.6z" class="st30"/></g><path d="M-154,205.9c0,0-11.9,2.7-23.2,29.7c0,0-8.7,15.6-4.7,26.9h-11.9l24.4-54.3L-154,205.9z" class="st35"/><path d="M-171.5,205.3c0,0-44.8,4.3-49.5,8.2c-4.7,3.9-23.2,32.2-26.6,50.7h52.8 C-194.6,264.2-160.7,201.5-171.5,205.3z" class="st36"/><line x1="-289.2" x2="-289.2" y1="302.1" y2="267.2" class="st37"/><path d="M-222.4,215c-20.4,24.9-25.1,49.2-25.1,49.2h21c0,0-6.9-10.7,2.6-29.5c9.5-18.9,18.1-25,18.1-25 S-220.5,211-222.4,215z" class="st38"/></g><g><g><polygon points="334.6 924.2 326.2 924.2 207.2 941.3 453.6 941.3" class="st39"/><g><g><rect width="8.4" height="83.9" x="326.2" y="840.3" class="st30"/><g><polygon points="445.3 941.3 453.6 941.3 434.5 836.8 426.2 837.9 428.5 856.7 232.3 856.7 234.6 837.9 226.4 836.8 207.2 941.3 215.5 941.3 231.2 865.6 429.6 865.6" class="st30"/><path d="M497.7,841.7H163.5c-0.5,0-0.9-0.4-0.9-0.9v-13.3c0-0.5,0.4-0.9,0.9-0.9h334.2c0.5,0,0.9,0.4,0.9,0.9 v13.3C498.6,841.3,498.2,841.7,497.7,841.7z" class="st30"/></g></g><g><polygon points="426.7 841.7 435.4 841.7 437.7 854.6 428.2 854.3" class="st40"/><polygon points="234.2 841.7 225.5 841.7 224.3 848.1 233.3 848.4" class="st40"/></g></g></g><g class="st12"><g class="st15"><g><path d="M268.5,763c0,0-32.9-47.3-51.1-29.4c0,0,6.3-0.4,12.9,5.9c6.6,6.4,26.1,22.7,35.3,25.8L268.5,763z" class="st30"/><path d="M259.2,763c0,0,32.9-47.3,51.1-29.4c0,0-6.3-0.4-12.9,5.9c-6.6,6.4-26.1,22.7-35.3,25.8L259.2,763z" class="st30"/><path d="M263.9,764.4c0,0,6.3-57.3,30.8-50.3c0,0-5.8,2.7-8.5,11.4c-2.7,8.7-12.1,32.4-18.7,39.5L263.9,764.4z" class="st30"/><path d="M264.2,764.4c0,0-6.3-57.3-30.8-50.3c0,0,5.8,2.7,8.5,11.4c2.7,8.7,12.1,32.4,18.7,39.5L264.2,764.4z" class="st30"/><path d="M260.6,764.4c0,0-11.9-56.4,13.6-57.3c0,0-4.6,4.3-4.5,13.5c0.1,9.2-1.4,34.6-5.5,43.4L260.6,764.4z" class="st30"/></g><path d="M273,793.6c2.3-2.3,3.7-5.5,3.7-9.1c0-5.1-3-9.5-7.4-11.6c1.6-1.5,2.6-3.6,2.6-6c0-0.3,0-0.7-0.1-1h0.1 c-0.2-5.9,0.9-7.2,0.9-7.2h-18c0,0,1.1,1.3,0.9,7.2h0c0,0.3-0.1,0.6-0.1,1c0,2.4,1,4.5,2.6,6c-4.3,2.1-7.4,6.5-7.4,11.6 c0,3.5,1.4,6.7,3.7,9.1c-3.6,4.2-6,10.8-6,18.2c0,12.6,7.4,14.7,15.8,14.7s14.4-2.1,14.4-14.7C279,804.4,276.6,797.8,273,793.6z" class="st30"/><g><path d="M271.6,758.8c0,0,6-10.3,9.6-20.1l4.2-3.2c0,0-7.8,16.6-13.4,23.3" class="st34"/><path d="M268.6,741c0,0-0.7,10.6-2.7,17.9h0.9c0,0,4-12.9,3.2-22L268.6,741z" class="st34"/><path d="M256.3,758.8c0,0-5.8-9.9-9.4-19.7l-4.5-3.4c0,0,7.8,16.5,13.4,23.2" class="st34"/><path d="M259.6,758.9c0,0-2-9.5-1.8-22.8l-1-2.5c0,0,0,17.1,2.5,25.2" class="st34"/></g></g><path d="M266,758.9c0,0,2.2,59.2-10.5,66.2c0,0,5.8,2.9,14.9,1c9.1-1.9,8.6-11.7,8.6-14.2c0,0,1.3-9.5-6-18.2 c0,0,5-4.1,3.5-11.6c-1.5-7.4-7.1-9.1-7.1-9.1s2.4-1.4,2.6-6.5c0.2-5.1,0-6.1,1-7.6H266z" class="st41"/></g></g></g><g><g><path d="M357.5,808.8c0,5.1,2.5,7.8,5.1,9.4c6.8,4.3,17.3,0.9,14.8-5.4c-1.3-3-6.8-6.8-6.8-6.8S357.7,808,357.5,808.8 z" class="st2"/><path d="M369.5,820.7c-2.6,0-5.1-0.7-7.2-2c-3.6-2.3-5.4-5.5-5.4-9.9l0-0.1l0-0.1c0.1-0.4,0.5-0.7,2.5-1.2 c1.1-0.3,2.6-0.6,4.5-0.9c3.2-0.6,6.5-1.1,6.5-1.1l0.2,0l0.2,0.1c0.2,0.2,5.7,3.9,7,7c0.9,2.3,0.3,4.5-1.7,6c-1.6,1.2-3.9,2-6.4,2 C369.7,820.7,369.6,820.7,369.5,820.7z M358.1,809c0.1,3.9,1.6,6.7,4.9,8.7c4.3,2.7,9.9,2.1,12.6,0c1.1-0.9,2.3-2.4,1.3-4.8 c-1.1-2.5-5.5-5.7-6.5-6.4C365,807.4,359.2,808.5,358.1,809z"/></g><path d="M367.3,811.6c3.5-1,5.9-2.1,5.2-3.4c-2.3-2.5-15.1,0.3-14.3,2.5C359.7,812.7,365.5,812.1,367.3,811.6z" class="st42"/><g><path d="M353.2,807.4l-13-1.6c0,0-4.2,6.3-2.7,9.8c1.9,4.5,12.3,6.1,15.6,2.5C356.3,814.4,353.2,807.4,353.2,807.4z" class="st2"/><path d="M347.2,820.6c-0.8,0-1.6-0.1-2.4-0.2c-3-0.5-6.6-1.9-7.8-4.6c-1.6-3.7,2.5-10,2.7-10.3l0.2-0.3l13.7,1.7l0.1,0.3 c0.1,0.3,3.2,7.4-0.2,11.2C352.1,820,349.6,820.6,347.2,820.6z M340.5,806.3c-0.8,1.2-3.7,6.2-2.5,9c0.8,1.9,3.5,3.4,6.9,4 c3.3,0.5,6.4-0.1,7.7-1.6c2.6-2.9,0.7-8.5,0.1-9.8L340.5,806.3z"/></g><path d="M345.9,811.8c-2.6-0.9-5.8-3.5-5.7-5.1c0.9-2.1,13.7,2.5,13.4,3.8C352.4,812.5,347.3,812.3,345.9,811.8z" class="st42"/><g><path d="M355.2,775c0,0-7.6-0.9-11.1-1.6c-3.5-0.6-9.6-1.6-13.7-3.1c-4.1-1.6-5.5,1.6-6.1,4.7c-0.7,4,1.7,5,7.9,6.9 c6,1.9,24.2,3.8,24.2,3.8L355.2,775z" class="st2"/><path d="M356.9,786.2l-0.5-0.1c-0.7-0.1-18.2-1.9-24.2-3.8c-3-0.9-5.3-1.7-6.6-2.7c-1.4-1.1-1.9-2.5-1.5-4.7 c0.5-2.7,1.4-4.3,2.8-5.1c1.1-0.6,2.4-0.6,3.9,0c3.5,1.4,8.5,2.2,12.1,2.9c0.5,0.1,1,0.2,1.5,0.3c3.4,0.6,11,1.6,11,1.6l0.3,0 L356.9,786.2z M328.5,770.3c-0.5,0-0.9,0.1-1.3,0.3c-1.1,0.6-1.9,2.1-2.3,4.5c-0.7,3.6,1.3,4.5,7.6,6.4c5.3,1.6,20.5,3.4,23.5,3.7 l-1.1-9.8c-1.5-0.2-7.7-1-10.7-1.5c-0.4-0.1-0.9-0.2-1.4-0.3c-3.7-0.6-8.7-1.5-12.3-2.9C329.6,770.4,329,770.3,328.5,770.3z"/></g><path d="M341.1,773.3l0.5,10l-2.4-0.3c-2.4-3.2-2.4-6.8-0.3-10.1L341.1,773.3z" class="st43"/><g><path d="M364.1,775c0,0,7.2-0.9,10.5-1.5s9.1-1.5,13-3.1c3.9-1.6,5.2,1.5,5.8,4.6c0.7,3.9-1.7,4.9-7.4,6.8 c-5.7,1.8-22.9,3.7-22.9,3.7L364.1,775z" class="st2"/><path d="M362.5,786l1.2-11.4l0.4,0c0.1,0,7.2-0.9,10.4-1.5c0.4-0.1,0.9-0.2,1.4-0.3c3.4-0.6,8.2-1.5,11.5-2.8 c1.4-0.6,2.7-0.6,3.7-0.1c1.3,0.7,2.2,2.4,2.7,5c0.4,2.1-0.1,3.5-1.4,4.6c-1.3,1.1-3.4,1.8-6.3,2.7c-5.7,1.8-22.3,3.7-23,3.7 L362.5,786z M364.5,775.4l-1,9.6c3-0.3,17.2-2,22.2-3.6c5.9-1.9,7.8-2.8,7.1-6.3c-0.4-2.4-1.2-3.8-2.2-4.4 c-0.8-0.4-1.8-0.4-2.9,0.1c-3.4,1.4-8.2,2.2-11.7,2.9c-0.5,0.1-1,0.2-1.4,0.3C371.8,774.4,366,775.2,364.5,775.4z"/></g><path d="M380.1,782.7c1.7-2.2,0.8-8.2-2.7-9.3l-1.8,0.3l2.3,9.4C377.8,783.1,376.9,783.2,380.1,782.7z" class="st43"/><g><path d="M342.2,792.7c0,0-0.2-2.3-2-3.6c-1.3-1-3.9-2-6.6-1.5c-3.1,0.6-5.6,4.1-4.9,6.9c0.6,2.7,2,3.7,3.4,4.5 c1.4,0.9,3.5,1.8,5.7,1.2c3.3-0.9,4.3-4,4.3-4L342.2,792.7z" class="st2"/><path d="M336.4,800.9c-2,0-3.7-0.9-4.4-1.4c-1.5-1-2.9-2.1-3.5-4.8c-0.3-1.4,0-2.9,0.9-4.4c1-1.6,2.6-2.7,4.3-3 c2.6-0.5,5.3,0.4,6.9,1.5c1.8,1.4,2.1,3.8,2.1,3.9l0,0l0,3.6l0,0.1c0,0.1-1.1,3.3-4.6,4.2C337.4,800.8,336.9,800.9,336.4,800.9z M335.2,787.9c-0.5,0-0.9,0-1.4,0.1c-1.4,0.3-2.9,1.3-3.8,2.7c-0.8,1.2-1.1,2.6-0.8,3.8c0.6,2.5,1.8,3.4,3.2,4.3 c0.9,0.6,3.1,1.8,5.4,1.1c2.8-0.8,3.9-3.3,4-3.7l0-3.5c0-0.2-0.3-2.2-1.8-3.3C338.9,788.6,337.1,787.9,335.2,787.9z"/></g><path d="M339.7,789.2c2.3,1.3,1.7,3.9,0.5,6.3c-0.6,2.6-1.1,4.7-4.1,4.6c-4.6-0.3-1.4-5.2,0.1-7.4 C337.4,790.8,338.6,789.3,339.7,789.2z" class="st42"/><g><path d="M340.6,773.7c0.7,6.8,0.4,9.6,0,15.7c-0.5,7.6-5.1,9.6-2.6,14c3,4.7,10.8,6.5,19,6.6 c8.4,0.1,16.4-1.7,17.9-5.6c3-7.8,6.1-28.6-1.1-34C368.9,766.8,339.6,764.5,340.6,773.7z" class="st2"/><path d="M357.7,810.5c-0.2,0-0.5,0-0.7,0c-5.7-0.1-15.8-1.1-19.4-6.8l0,0c-1.5-2.6-0.6-4.5,0.5-6.9c0.8-1.8,1.9-4.1,2.1-7.4 c0-0.6,0.1-1.2,0.1-1.8c0.3-4.9,0.5-7.8-0.1-13.8c-0.2-2,0.8-3.6,3-4.8c4.7-2.5,13.3-2.3,16.7-2.1c6.5,0.4,12.2,1.7,14.2,3.1 c4.2,3.1,4.8,10.7,4.6,16.5c-0.3,7.1-1.9,14.3-3.3,18c-0.8,2-3,3.6-6.6,4.6C365.6,810.1,361.8,810.5,357.7,810.5z M338.4,803.2 c3.4,5.4,13.1,6.3,18.6,6.4c4.3,0.1,8.3-0.4,11.4-1.3c3.3-0.9,5.4-2.3,6-4c1.4-3.6,3-10.8,3.2-17.8c0.3-7.9-1.2-13.5-4.2-15.7 c-1.8-1.4-7.4-2.6-13.6-3c-7-0.4-13.1,0.3-16.2,2c-1.9,1-2.7,2.3-2.5,3.9c0.6,6.1,0.4,9,0.1,13.9c0,0.6-0.1,1.2-0.1,1.8 c-0.2,3.5-1.3,5.9-2.2,7.7C337.8,799.5,337.1,801,338.4,803.2z"/></g><path d="M341.1,772.3c3.9,3.1,10.3,5.1,16.6,5.1c12.2,0,17.8-4.2,17-5c-1.4-3.3-10.6-2.4-17.9-2.2 C348,770.4,342.4,768.5,341.1,772.3z" class="st43"/><g><path d="M390.5,762.3c1.3-0.7,7-5.8,7.4-7.5c-2.9,0.1-4.2-0.3-4.2-0.3c1.5-1.2,3.3-3.8,4.4-6.3c0,0-2.8,0.5-4.1-1.3 c-1.3-1.8-2.3-17.4-3.9-20.2c-0.8-2.7-4.5-6.3-3.9-8.5c2.7-3.9,6.1-24.7,0.2-40.3s-19.5-36.5-27-35.5c-7.5,1.1-4.9,11.3-6.2,23.3 C352.1,677.5,364,707,364,707c-2.2,0.2-6.9,0-8.5-0.8s-4-3.2-4-3.2c-0.6,1.6-0.7,3.2-0.3,4.6c-2.8-0.5-4.3-0.6-5.7-2.7 c-1.1-3.1-25.5-55-28.2-57.3c-2.7-2.3-5,2.7-5.4,3.5s-4.7,11.5-5.1,18.3c-0.4,6.8-2.8,25.6,8.2,38.1 c11.1,12.5,12.8,12.6,13.1,13.1c0.3,0.4,0.1,0.4,0.7,1.2c0.2,0.2-3.6,6.3-4.5,13.2c-0.7,5.2-4,17.4-6.6,18.9 c1.3,0.6,2.4,1.1,3.3,1.8c-0.7,0.8-1.6,1.6-2.7,2.2c2.4,2.8,5.4,5.7,8.3,7.2c11,5.5,18.1,9.1,31.7,8.6 C380.9,772.8,390.5,762.3,390.5,762.3z" class="st2"/><path d="M356.2,774.1c-12.2,0-19.2-3.5-29.6-8.7l0,0c-3.2-1.6-6.4-4.9-8.5-7.3l-0.4-0.4l0.5-0.3c0.9-0.5,1.6-1.1,2.2-1.7 c-0.7-0.5-1.6-0.9-2.8-1.4l-0.9-0.4l0.9-0.5c1-0.6,2.4-3.5,3.7-7.7c1.1-3.6,2.2-8,2.6-10.8c0.7-5.3,3.1-10.2,4.1-12.2 c0.2-0.3,0.3-0.6,0.4-0.8c-0.3-0.4-0.4-0.6-0.4-0.7c0-0.1-0.1-0.2-0.2-0.3c0,0-0.1-0.1-0.2-0.2c-0.9-0.6-3.7-2.5-12.9-12.9 c-10.2-11.6-9.1-28.3-8.5-36.4c0.1-0.8,0.1-1.5,0.1-2.1c0.4-6.9,4.6-17.6,5.1-18.5c0-0.1,0.1-0.2,0.2-0.3c0.6-1.1,1.9-3.7,3.8-4.1 c0.8-0.1,1.5,0.1,2.2,0.7c1.6,1.3,8.9,16.2,14.9,28.5c6.4,13.2,12.8,27.1,13.5,29c1.1,1.7,2.3,1.9,4.5,2.3c0,0,0,0,0,0 c-0.2-1.3-0.1-2.7,0.5-4.1l0.3-0.7l0.6,0.6c0,0,2.4,2.3,3.8,3.1c1.2,0.7,5,0.9,7.5,0.8c-0.8-2-3.2-8.3-5.6-15.6 c-3.8-11.8-5.4-20.3-4.9-25.4c0.3-3.2,0.4-6.3,0.4-9.1c0.1-7.7,0.2-13.8,6.2-14.6c1.9-0.3,4.3,0.7,7,3c2.4,2,4.9,4.9,7.6,8.7 c5,7,10,16.2,13,24.1c3.5,9.2,3.5,19.5,3.2,24.8c-0.4,7-1.8,13.6-3.4,15.9c-0.3,1.1,0.9,2.8,1.9,4.5c0.8,1.2,1.6,2.5,1.9,3.6 c0.9,1.6,1.5,6.4,2.2,11.1c0.5,3.9,1.1,8.2,1.7,9c1.1,1.5,3.6,1.1,3.6,1.1l0.9-0.1l-0.4,0.8c-0.9,1.9-2.3,4.3-3.8,5.8 c0.7,0.1,1.6,0.1,3,0.1l0.7,0l-0.2,0.6c-0.5,1.9-6.1,6.9-7.6,7.8c-0.4,0.4-2.8,2.9-7.7,5.4c-4.8,2.5-13,5.6-24.6,6 C357.8,774.1,357,774.1,356.2,774.1z M319.3,757.8c2,2.3,4.9,5.2,7.8,6.6l0,0c10.2,5.1,17.2,8.6,29.1,8.6c0.7,0,1.5,0,2.3,0 c11.4-0.4,19.4-3.4,24.1-5.9c5.1-2.7,7.5-5.3,7.5-5.3l0.1-0.1l0.1,0c1.1-0.6,5.6-4.6,6.8-6.6c-2.4,0-3.5-0.3-3.5-0.3l-0.9-0.3 l0.8-0.6c1.2-0.9,2.8-3.1,3.9-5.4c-1,0-2.8-0.2-3.7-1.6c-0.7-0.9-1.1-4.2-1.9-9.5c-0.6-4.4-1.3-9.4-2.1-10.8l0,0l0-0.1 c-0.3-1-1.1-2.2-1.8-3.4c-1.3-2-2.5-3.8-2-5.4l0-0.1l0-0.1c2.5-3.6,6.1-24.1,0.2-39.9c-6.2-16.6-19.7-36.1-26.4-35.1 c-5.1,0.7-5.2,6.1-5.3,13.7c0,2.8-0.1,5.9-0.4,9.1c-1.2,11.7,10.6,40.9,10.7,41.1l0.3,0.6l-0.7,0c-2.2,0.2-7.1,0-8.7-0.9 c-1.1-0.6-2.7-1.9-3.5-2.7c-0.3,1.2-0.4,2.4,0,3.5l0.2,0.8l-0.8-0.2c-0.3-0.1-0.5-0.1-0.8-0.1c-2.3-0.4-3.8-0.7-5.2-2.8l0,0l0-0.1 c-0.5-1.4-6.8-15-13.5-28.9c-8.1-16.8-13.5-27.3-14.6-28.2c-0.5-0.4-0.9-0.5-1.4-0.5c-1.4,0.3-2.6,2.6-3.1,3.5 c-0.1,0.1-0.1,0.2-0.2,0.3c-0.5,0.9-4.7,11.3-5,18c0,0.6-0.1,1.3-0.1,2.1c-0.6,7.9-1.7,24.4,8.3,35.7 c9.1,10.3,11.8,12.1,12.7,12.7c0.2,0.1,0.4,0.2,0.5,0.4c0.2,0.2,0.2,0.4,0.3,0.5c0.1,0.2,0.1,0.3,0.5,0.7c0.2,0.3,0.1,0.4-0.4,1.6 c-1,2-3.3,6.8-4,11.9c-0.6,4.7-3.5,15.7-6.1,18.7c1.1,0.5,2,1,2.7,1.5l0.4,0.3l-0.3,0.4C321,756.6,320.2,757.2,319.3,757.8z"/></g><path d="M329.6,721.9l-0.7-0.5c2.5-3,5.3-5.7,8.3-8.1l0.6,0.7C334.8,716.3,332.1,719,329.6,721.9z"/><path d="M337.6,714l-0.3-0.8l1.6-0.6c-0.4-0.4-0.8-1-1-1.5c-0.2-0.7-0.2-1.8-0.2-1.9l0-0.6l0.6,0.2c2.1,0.7,5.3,1.6,5.9,1.5 c0.3,0,0.5-0.1,0.6-0.2c-0.3-0.6-1-1.7-1-2.4c-0.1-0.9-0.1-1.4,0.2-2.1l0.2-0.4l0.4,0.2c1.1,0.5,4.3,1.1,5.5,1.3l-0.2,0.8 c0,0-3.5-0.6-5.2-1.2c-0.1,0.3-0.1,0.6,0,1.3c0.1,0.6,0.8,1.9,1.1,2.4l0.1,0.2l-0.1,0.2c0,0.1-0.4,0.6-1.5,0.7 c-0.8,0.1-4.2-0.9-5.6-1.4c0,0.4,0.1,0.8,0.1,1.1c0.1,0.4,0.8,1.2,1.2,1.6l0.4,0.5L337.6,714z"/><path d="M383.7,714.6c0.8,0.8,1.6,1.6,2.4,2.4c0.4,0.5,0.8,1,1.2,1.4c-0.2,0.5-0.3,0.9-0.5,1.4 c-0.2-0.3-0.4-0.6-0.7-0.9c-2.3-2.8-4.7-5.5-8-7.3c-0.6-0.3-1.1-0.7-1.7-1c0-0.1,0-0.2,0.1-0.3c0.5,0,1,0.1,1.7,0.2 c0-1.2,0.2-2.3,0.1-3.5c-0.3-5.4-2.2-10.3-4.6-15c-3.1-6.3-6.4-12.5-9.2-18.9c-2.7-6-4.5-12.2-4.6-18.8c0-1.6,0.2-3.3,0.6-4.9 c0.1,0.4,0.2,0.8,0.3,1.2c-0.1,0.2-0.2,0.5-0.2,0.7c0.1,4.2,0.8,8.4,1.9,12.5c1.3,4.8,3,9.3,5.3,13.8c2.4,4.6,4.6,9.3,6.9,14 c3,5.9,5.1,12,4.7,18.7c0,0.4,0.4,1,0.7,1.3C381.4,712.6,382.6,713.6,383.7,714.6z" class="st44"/><path d="M335.8,712.3c-2.8-2.9-5.3-6-7.3-9.5c-2.9-5.2-3.8-11-5.1-16.7c-1.6-7.2-3.4-14.4-5-21.6 c-0.5-2.3-0.8-4.6-1.1-6.8c0.2,0,0.4-0.1,0.6-0.1c0.2,1,0.4,1.9,0.6,2.9c1.7,7.1,3.5,14.2,5.2,21.3c1,4,1.7,8.1,2.6,12.2 c1,4.6,3,8.7,5.9,12.5c1.7,2.2,4.1,4.8,5.8,7c-0.3,0.3-1.3,1.2-1.5,0.3C336.6,713.5,336.1,712.4,335.8,712.3z" class="st44"/><path d="M360.8,652" class="st44"/><g><path d="M341.8,818.7c-0.4-2.1-0.5-3.9,0.7-4.7" class="st2"/><path d="M341.8,819.2c-0.3,0-0.5-0.2-0.5-0.4c-0.4-2.1-0.5-4.1,0.9-5.2c0.2-0.2,0.6-0.1,0.8,0.1c0.2,0.2,0.1,0.6-0.1,0.7 c-1,0.8-0.8,2.6-0.5,4.2C342.3,818.9,342.1,819.2,341.8,819.2C341.8,819.2,341.8,819.2,341.8,819.2z"/></g><g><path d="M347.1,820c0.9-0.7,1.6-3.9,0.3-5.4" class="st2"/><path d="M347.1,820.6c-0.2,0-0.3-0.1-0.4-0.2c-0.2-0.2-0.1-0.6,0.1-0.7c0.3-0.2,0.6-0.9,0.8-1.9c0.2-1.1,0-2.2-0.5-2.7 c-0.2-0.2-0.1-0.6,0.1-0.7c0.2-0.2,0.6-0.1,0.8,0.1c0.7,0.8,0.9,2.1,0.7,3.5c-0.1,0.9-0.5,2.1-1.2,2.6 C347.3,820.5,347.2,820.6,347.1,820.6z"/></g><g><path d="M370.1,819.4c0.3-1.7-0.6-3.8-1.4-4.7" class="st2"/><path d="M370.1,820C370.1,820,370,819.9,370.1,820c-0.4-0.1-0.6-0.3-0.6-0.6c0.3-1.6-0.6-3.5-1.3-4.3c-0.2-0.2-0.2-0.6,0-0.8 c0.2-0.2,0.6-0.2,0.8,0c1,1.1,1.9,3.3,1.6,5.2C370.6,819.8,370.4,820,370.1,820z"/></g><g><path d="M374.9,818.9c1-1,0.5-4.9-1.6-5.3" class="st2"/><path d="M374.9,819.4c-0.1,0-0.3-0.1-0.4-0.2c-0.2-0.2-0.2-0.5,0-0.7c0.3-0.3,0.5-1.5,0.1-2.6c-0.3-1-0.8-1.6-1.5-1.8 c-0.3-0.1-0.5-0.3-0.4-0.6c0.1-0.3,0.4-0.5,0.6-0.4c1,0.2,1.9,1.1,2.3,2.5c0.4,1.2,0.4,2.9-0.4,3.7 C375.2,819.4,375,819.4,374.9,819.4z"/></g><g><path d="M391.9,771.9c-1.3,0-1.7,0.4-3.1,0.9" class="st2"/><path d="M388.8,773.3c-0.2,0-0.4-0.1-0.4-0.3c-0.1-0.2,0-0.5,0.3-0.6c0.3-0.1,0.6-0.3,0.9-0.4c0.8-0.3,1.3-0.6,2.4-0.6 c0.3,0,0.5,0.2,0.5,0.5c0,0.3-0.2,0.5-0.5,0.4c-0.8,0-1.2,0.2-2,0.5c-0.3,0.1-0.6,0.3-0.9,0.4 C388.9,773.3,388.9,773.3,388.8,773.3z"/></g><g><path d="M393.3,775.1c-0.5,1.1-1.8,1.2-2.8,1.5" class="st2"/><path d="M390.4,777.1c-0.2,0-0.4-0.1-0.5-0.3c-0.1-0.2,0.1-0.5,0.3-0.6c0.2-0.1,0.5-0.1,0.7-0.2c0.8-0.2,1.6-0.4,1.9-1.1 c0.1-0.2,0.4-0.4,0.6-0.3c0.2,0.1,0.4,0.4,0.3,0.6c-0.5,1.1-1.6,1.4-2.5,1.6c-0.2,0.1-0.4,0.1-0.6,0.2 C390.5,777.1,390.5,777.1,390.4,777.1z"/></g><g><path d="M324.4,775c0.9,1.2,2.4,1.5,3.4,1.7" class="st2"/><path d="M327.8,777.1C327.8,777.1,327.8,777.1,327.8,777.1c-0.2,0-0.2,0-0.3-0.1c-1-0.2-2.6-0.5-3.5-1.8c-0.2-0.2-0.1-0.5,0.1-0.6 c0.2-0.1,0.5-0.1,0.7,0.1c0.7,1,2,1.2,2.9,1.4c0.1,0,0.1,0,0.2,0c0.3,0.1,0.4,0.3,0.4,0.6C328.2,776.9,328,777.1,327.8,777.1z"/></g><g><path d="M325.5,772.1c1.4-0.4,3.1,0.8,3.4,1.1" class="st2"/><path d="M328.8,773.7c-0.1,0-0.3,0-0.3-0.1c-0.2-0.2-1.7-1.4-2.9-1c-0.3,0.1-0.5-0.1-0.6-0.3c-0.1-0.2,0.1-0.5,0.3-0.6 c1.7-0.5,3.5,0.9,3.9,1.3c0.2,0.2,0.2,0.5,0,0.7C329.1,773.6,329,773.7,328.8,773.7z"/></g><path d="M391.1,792.5" class="st45"/><path d="M360.9,650.7c0,0,12.1,18.7,13.7,21.8c1.6,3.1,4.5,9.4,6.7,14.1c2.2,4.7,3.9,22.2-0.4,25.6 c-0.5,0.4-1.1-0.8-1.4-1.5c0.4-5.2-0.7-10.1-2.7-14.9c-2.4-5.6-6.5-12.9-10.6-21.9C362,664.5,360.2,654.1,360.9,650.7z" class="st46"/><path d="M317.3,657.7c0,0,1.8,9.9,2.7,13.5c0.9,3.5,2.5,10.5,3.2,13.7c0.7,3.2,2,9.8,3.1,12.9 c1.6,5.2,6.1,10.8,6.1,10.8c1.9,2.5,4.2,4.1,4.4,5.1l-2.2,1.9c0.3,0.5-10-4.4-14.2-13.1c-1.6-4-3.6-11.5-4.8-20.4 c-1-7.5,0.1-11.1,0.5-15C316.4,663.9,317.3,657.7,317.3,657.7z" class="st46"/><g><path d="M375.9,732.7" class="st47"/><g><g><g><g><g><ellipse cx="344.8" cy="739.2" rx="8.3" ry="8"/></g><ellipse cx="347.6" cy="736.3" class="st48" rx="2" ry="1.8"/><ellipse cx="347.6" cy="740.2" class="st2" rx="2.1" ry="1.8" transform="matrix(0.9779 -0.2089 0.2089 0.9779 -146.9788 88.9451)"/></g></g></g></g><g><path d="M343.2,731.4c-0.1,0-0.2,0.1-0.3,0.1C343,731.5,343.1,731.5,343.2,731.4z" class="st44"/><path d="M342.6,731.8c-0.1,0-0.2,0.1-0.3,0.1C342.4,731.9,342.5,731.8,342.6,731.8z" class="st44"/><g><path d="M359.7,757.1c-4.3,0-6.5-1.7-7.7-3.2c-1.2-1.6-1.5-3.1-1.5-3.2c0-0.2,0.1-0.4,0.3-0.4c0.2,0,0.4,0.1,0.4,0.3l0,0 c0,0,0.2,1.4,1.4,2.9c1.5,1.9,3.9,2.8,7,2.8c3.2,0,5.5-1,7-2.8c1.1-1.4,1.3-2.8,1.4-2.9c0-0.2,0.2-0.3,0.4-0.3 c0.2,0,0.4,0.2,0.3,0.4c0,0.1-0.2,1.6-1.5,3.2C366.3,755.4,364,757.1,359.7,757.1z"/><path d="M359.7,762" class="st49"/><path d="M359.7,759.5c-0.2,0-0.4-0.2-0.4-0.4v-8.2c-0.4-0.3-0.8-0.7-1.1-1.2c-0.7-0.9-0.6-1.2-0.5-1.4c0.1-0.1,0.2-0.4,2-0.4 c1.8,0,2,0.3,2,0.4c0.2,0.3,0,0.7-0.5,1.4c-0.3,0.4-0.7,0.8-1.1,1.2v8.2C360.1,759.3,360,759.5,359.7,759.5z M358.5,748.7 c0.2,0.4,0.7,1,1.2,1.5c0.5-0.5,1.1-1.2,1.3-1.5C360.4,748.6,359,748.6,358.5,748.7z M361.2,748.8L361.2,748.8L361.2,748.8z M358.3,748.8L358.3,748.8L358.3,748.8z"/><path d="M359.7,759.5C359.7,759.5,359.7,759.5,359.7,759.5c-0.5,0-1.8-0.1-2-0.8c-0.2-0.5-0.1-1.3,0-1.9l0-0.1 c0-0.1,0.1-0.2,0.1-0.3c0.1-0.1,0.2-0.1,0.3-0.1c1.1,0.1,2.2,0.1,3.3,0c0.1,0,0.2,0,0.3,0.1c0.1,0.1,0.1,0.2,0.1,0.3 c0,0.1,0,0.3,0,0.4c0.1,0.5,0.1,1.1-0.1,1.6c0,0,0,0,0,0C361.5,759.3,360.6,759.5,359.7,759.5z M358.4,757.1 c0,0.5-0.1,1.1,0,1.4c0,0.1,0.5,0.3,1.3,0.3c0.8,0,1.3-0.2,1.4-0.3c0.1-0.4,0.1-0.9,0-1.3c0,0,0,0,0,0 C360.2,757.2,359.3,757.2,358.4,757.1z"/><path d="M371.4,751.7C371.4,751.7,371.4,751.7,371.4,751.7c-2.2-0.1-4-0.8-5.3-2.4c-0.1-0.2-0.1-0.4,0-0.5 c0.2-0.1,0.4-0.1,0.5,0c1.2,1.4,2.7,2,4.8,2.1c0.2,0,0.4,0.2,0.4,0.4C371.8,751.5,371.6,751.7,371.4,751.7z"/><path d="M348,752.3c-0.2,0-0.3-0.1-0.4-0.3c0-0.2,0.1-0.4,0.3-0.4c1.8-0.3,3.2-1.2,4.3-2.9c0.1-0.2,0.3-0.2,0.5-0.1 c0.2,0.1,0.2,0.3,0.1,0.5C351.7,750.9,350.1,752,348,752.3C348.1,752.3,348.1,752.3,348,752.3z"/></g><g><g><g><g><g><ellipse cx="373.7" cy="738.8" rx="8.3" ry="8"/></g><ellipse cx="376.5" cy="736" rx="2" ry="1.8"/><ellipse cx="371.8" cy="740.2" class="st2" rx="2.1" ry="1.8" transform="matrix(0.9779 -0.2089 0.2089 0.9779 -146.4445 94.0037)"/></g></g></g></g><g><path d="M338.3,746c-0.1,0-0.2,0-0.3-0.1c-0.1-0.1-0.1-0.4,0.1-0.5c1.9-1.5,5.6-2.9,8.9-2.8c3.1,0.1,4.4,0.6,5.3,1 c0.2,0.1,0.2,0.3,0.2,0.4c-0.1,0.2-0.3,0.2-0.5,0.2c-0.9-0.4-2-0.9-5-0.9c-3.2-0.1-6.7,1.3-8.5,2.6 C338.4,746,338.4,746,338.3,746z"/><path d="M351.7,744.1c-1.5,1.4-2.9,2.5-4.3,3.2c-2.1,0.3-4,0.3-5.9,0.1c-0.9-0.2-2-0.7-2.7-1.7 C342.6,743,348.4,742.6,351.7,744.1z" class="st2"/></g><g><path d="M380.3,746c-0.1,0-0.2,0-0.2-0.1c-1.8-1.4-5.3-2.7-8.5-2.6c-3,0.1-4.2,0.5-5,0.9c-0.2,0.1-0.4,0-0.5-0.2 c-0.1-0.2,0-0.4,0.2-0.4c0.9-0.4,2.2-0.9,5.3-1c3.4-0.1,7,1.3,8.9,2.8c0.1,0.1,0.2,0.3,0.1,0.5C380.5,745.9,380.4,746,380.3,746 z"/><path d="M366.8,744.1c1.5,1.4,2.9,2.5,4.3,3.2c2.1,0.3,4,0.3,5.9,0.1c0.9-0.2,2-0.7,2.7-1.7 C376,743,370.1,742.6,366.8,744.1z" class="st2"/></g></g></g><g><path d="M341.2,771.5c2.4,0.9,7.8,2,10,2.3c0,0,1.3,6,10,5.1c6.5-0.7,6.4-5.7,6.4-5.7c0.4,0,7.3-1.8,7.4-1.8 c1.2,0,1.5-0.1,2.3-0.1c1.1,0,1.9-0.4,2.8,0.3c2.9,2.6,3.7,9.7,1.8,11.5c-0.3,0.3-2.4,0.6-3.1,0.8c1,4.7-0.5,11.4-0.9,12.2 c-0.4,1.9-9.7,4.9-18.7,4.3c-9.1-0.6-17.9-3.8-19.8-6c-0.1-0.1-0.3-0.3-0.3-0.4c-0.5-1.9,1.7-5.7,1.4-10.1c-1,0.1-2.4-0.2-3-0.4 c-0.1,0-0.2-0.2-0.1-0.3c2.8-4.1,0.9-8.7-1-11.6c-0.4-0.5,1.7-0.1,2.7,0C340.3,771.6,340.6,771.3,341.2,771.5" class="st50"/></g></g><g><path d="M396.9,816.5c0,1.8-1.5,3.3-3.3,3.3h-70.7c-1.8,0-3.3-1.5-3.3-3.3v-51.6c0-1.8,1.5-3.3,3.3-3.3h70.7 c1.8,0,3.3,1.5,3.3,3.3V816.5z" class="st51"/><path d="M320.4,765.6v28.9c0,13.1,1.5,23.8,3.3,23.8h69c1.8,0,3.3-10.7,3.3-23.8v-28.9H320.4z" class="st52"/><rect width="10.7" height="2.5" x="331.1" y="819" class="st52"/><rect width="10.7" height="2.5" x="372.7" y="819" class="st52"/><path d="M311.6,822.5H405c0,0-1.3,4.1-3.6,5.6h-81.3C320.1,828.1,312.4,827.4,311.6,822.5z" class="st51"/></g><g><path d="M360.7,791.4c-0.6,0.4-0.9,1-1,1.6c-0.1,0.7-0.1,1.4,0.2,2c0.2,0.6,0.6,1.1,1,1.6c0.6,0.7,1.4,1.4,2.3,1.5 c1.3,0.1,2.4-1,3-2.2c0.4-0.8,0.7-1.6,0.6-2.5c0-0.9-0.5-1.8-1.2-2.2c-0.9-0.6-1.5-0.1-2.3,0C362.3,791.2,361.6,790.8,360.7,791.4z" class="st2"/><path d="M351.7,792.4c-0.7,0.7-1.1,1.9-1.1,2.6c0,0.7,0.3,1.3,0.6,1.8c0.3,0.5,0.6,0.9,1.1,1.2c0.4,0.3,1,0.4,1.5,0.4 c1.8,0.1,3.8-0.4,4.7-1.9c0.5-0.8,0.5-1.6,0.3-2.4c-0.2-0.9-0.2-1.9-0.8-2.6c-0.3-0.4-0.8-0.6-1.3-0.6c-1-0.1-1.8,0.5-2.8,0.6 c-0.4,0-0.9,0-1.3,0.1C352.3,791.9,352,792.1,351.7,792.4z" class="st2"/><path d="M358.4,796.1c-0.2,0.7-0.8,1.3-1.4,1.5c-0.1,0-0.3,0.1-0.4-0.1c-0.1-0.1,0-0.3,0.2-0.4c0.4-0.4,0.7-0.7,1-1.2 c0.2-0.3,0.3-0.6,0.4-0.9c0.1-0.1,0.2-0.9,0.4-0.9C358.8,794.2,358.5,795.9,358.4,796.1z" class="st53"/><path d="M360.6,795.1c0.3,0.3,0.6,0.7,0.9,1c0.2,0.2,0.4,0.5,0.5,0.7c0.1,0.1,0.1,0.3,0.2,0.5c-0.1,0.1-0.2,0-0.2,0 c-0.5-0.3-1.1-0.8-1.4-1.3c-0.1-0.2-0.2-0.4-0.2-0.6C360.2,795.1,360.3,794.8,360.6,795.1z" class="st53"/><path d="M351.8,793.1c0.1,0,0.1,0,0.2,0c0.4,0,0.3,0.8,0.4,1c0.1,0.4,0.2,0.9,0.5,1.2c0.2,0.1,0.4,0.3,0.5,0.5 c0.1,0.2,0,0.4-0.2,0.5c-0.4,0.3-0.8,0.3-1.2,0c-0.3-0.2-0.5-0.6-0.6-0.9c-0.2-0.4-0.2-0.9-0.1-1.3 C351.3,793.8,351.5,793.3,351.8,793.1z" class="st54"/><path d="M355.1,791.9c0,0,0.1,0,0.1,0c0,0,0,0.1,0,0.1c-0.2,0.2-0.4,0.3-0.7,0.4c-0.1,0-0.3,0.1-0.4,0 c-0.2,0-0.3-0.1-0.5-0.2c0,0-0.1-0.1-0.1-0.1c0,0,0-0.1,0-0.1c0,0,0.1,0,0.1,0c0.1,0,0.3,0.1,0.4,0.1c0.1,0,0.2,0,0.3,0 C354.6,792,354.9,792,355.1,791.9z" class="st53"/><path d="M365,792.1c0.1,0.2,0.3,0.5,0.4,0.7c0.1,0.3,0,0.6,0,0.9c0,0.2,0.1,0.4,0.2,0.5c0.2,0.1,0.4,0,0.5-0.2 c0.2-0.2,0.3-0.5,0.3-0.8s-0.1-0.6-0.2-0.9c-0.2-0.4-0.5-0.7-0.9-0.8C364.9,791.4,364.9,791.8,365,792.1z" class="st54"/><path d="M354.6,792.3c-0.1,0-0.3,0-0.5,0c0.2-1,0.7-1.9,1-2.9c0.5-1.4,1-2.9,1.5-4.3c0.3-0.7,0.5-1.4,0.5-2.2 c0.1-0.1,0.3,0,0.3,0.1c0.1,0.1,0,0.2,0,0.4c-0.2,1.3-0.7,2.6-1.1,3.8c-0.3,0.7-0.5,1.3-0.8,2c-0.3,0.7-0.5,1.5-0.7,2.2 c0,0.2-0.1,0.3-0.1,0.5C354.8,792,354.8,792.2,354.6,792.3C354.7,792.3,354.6,792.3,354.6,792.3z" class="st2"/><path d="M362.4,791.6C362.4,791.6,362.4,791.6,362.4,791.6c0.3-0.1,0.6,0,0.9-0.1c0.2,0,0.4-0.2,0.7-0.2 c0,0,0.1,0,0.1,0c0,0,0,0,0,0.1c-0.2,0.2-0.5,0.3-0.9,0.3C363,791.8,362.3,791.8,362.4,791.6z" class="st53"/><path d="M363.3,791.8c0.1,0,0.1-0.1,0.2-0.1c0,0,0,0,0,0c0,0,0-0.1,0-0.1c-0.4-0.8-1.1-1.6-1.6-2.4 c-0.4-0.6-0.8-1.2-1.3-1.8c-0.8-1.2-1.7-2.5-2.5-3.7c-0.1-0.1-0.4-0.8-0.6-0.6c-0.2,0.2,0.3,0.8,0.4,1c0.8,1.2,1.7,2.5,2.5,3.7 c0.8,1.2,1.7,2.4,2.5,3.7c0.1,0.1,0.1,0.2,0.1,0.3c0,0,0.1,0.1,0.1,0.1C363.2,791.9,363.2,791.9,363.3,791.8z" class="st2"/><path d="M363.8,791.3c0.1-0.1,0.2-0.1,0.3-0.1c0.1,0,0.2,0.1,0.2,0.1c0,0.1,0,0.1-0.1,0.2c-0.4,0.5-1.2,0.6-1.8,0.3 c-0.1,0-0.1-0.1-0.2-0.1c0-0.1,0-0.1,0-0.2c0.1,0,0.1,0,0.2,0c0.1,0.1,0.3,0.1,0.4,0.2C363.1,791.8,363.6,791.4,363.8,791.3z" class="st2"/><path d="M363.8,791.3c0.1-0.1,0.2-0.1,0.3-0.1c0.1,0,0.2,0.1,0.2,0.1c0,0.1,0,0.1-0.1,0.2c-0.4,0.5-1.2,0.6-1.8,0.3 c-0.1,0-0.1-0.1-0.2-0.1c0-0.1,0-0.1,0-0.2c0.1,0,0.1,0,0.2,0c0.1,0.1,0.3,0.1,0.4,0.2C363.1,791.8,363.6,791.4,363.8,791.3z" class="st53"/><path d="M357.7,783.2C357.7,783.2,357.8,783.2,357.7,783.2c0.1,0,0.1,0,0.1,0c0,0.1,0.1,0.1,0.1,0.2c0,0,0,0,0,0.1 c0,0,0,0,0,0.1c-0.1,0.1-0.1,0.1-0.2,0.1c-0.1,0-0.2,0-0.2-0.1c0,0.2-0.1,0.3-0.2,0.4c-0.1,0.1-0.2,0.2-0.2,0.3 c0,0.1-0.1,0.2-0.2,0.2c0.1-0.3,0.2-0.6,0.2-0.9C357.2,783.4,357.5,783.3,357.7,783.2z" class="st2"/><path d="M357.7,783.2C357.7,783.2,357.8,783.2,357.7,783.2c0.1,0,0.1,0,0.1,0c0,0.1,0.1,0.1,0.1,0.2c0,0,0,0,0,0.1 c0,0,0,0,0,0.1c-0.1,0.1-0.1,0.1-0.2,0.1c-0.1,0-0.2,0-0.2-0.1c0,0.2-0.1,0.3-0.2,0.4c-0.1,0.1-0.2,0.2-0.2,0.3 c0,0.1-0.1,0.2-0.2,0.2c0.1-0.3,0.2-0.6,0.2-0.9C357.2,783.4,357.5,783.3,357.7,783.2z" class="st55"/><path d="M359,782.4c0.1,0.3-0.2,0.5-0.5,0.6c-0.7,0.2-1.5,0.6-2.2,0.7c-0.2,0-0.8,0.1-0.6-0.3c0.1-0.2,0.7-0.3,1-0.3 c0.4-0.1,0.9-0.3,1.3-0.4c0.3-0.1,0.7-0.3,1-0.3C359,782.3,359,782.4,359,782.4z" class="st2"/><path d="M354.4,792.2c0.1,0,0.1,0,0.2,0c0.1,0,0.2-0.1,0.3-0.1c0.1-0.1,0.2-0.2,0.3-0.2c0,0-0.1,0.2-0.1,0.2 c0,0-0.1,0.1-0.1,0.1c-0.1,0.1-0.2,0.2-0.3,0.2c-0.3,0.1-0.5,0.1-0.8,0.1c-0.2,0-0.9-0.1-0.7-0.4c0.2-0.3,0.5-0.1,0.8,0 C354.2,792.2,354.3,792.2,354.4,792.2z" class="st2"/><path d="M354.4,792.2c0.1,0,0.1,0,0.2,0c0.1,0,0.2-0.1,0.3-0.1c0.1-0.1,0.2-0.2,0.3-0.2c0,0-0.1,0.2-0.1,0.2 c0,0-0.1,0.1-0.1,0.1c-0.1,0.1-0.2,0.2-0.3,0.2c-0.3,0.1-0.5,0.1-0.8,0.1c-0.2,0-0.9-0.1-0.7-0.4c0.2-0.3,0.5-0.1,0.8,0 C354.2,792.2,354.3,792.2,354.4,792.2z" class="st53"/><path d="M356.4,791.4c-0.1,0-0.2,0.1-0.2,0.2c0,0,0,0,0,0.1c0,0,0,0.1,0.1,0.1c0.2,0.1,0.4,0,0.6,0.1 c0.2,0.1,0.3,0.2,0.5,0.4c0.2,0.2,0.6,0.2,0.6-0.1c0-0.1-0.1-0.2-0.2-0.3C357.4,791.4,356.9,791.1,356.4,791.4z" class="st54"/></g></svg>