<svg id="Layer_1" data-name="Layer 1" xmlns="http://www.w3.org/2000/svg" viewBox="0 0 841.89 595.28"><defs><style>.cls-1{fill:#5c4638;}</style></defs><title>codechef-1-01</title><path class="cls-1" d="M408.15,6.56a224.87,224.87,0,0,0-26.71,2.31c-13.13,1.31-26.24,7.88-40.67,14.45C322.39,31.19,304,39.06,286.93,40.38c-28.88,9.19-38.07,22.31-46,32.81a4.57,4.57,0,0,1-1.31,2.62c-10.5,21-11.83,42-7.89,63,3.94,13.13,9.19,25,13.13,36.78,9.19,24.94,18.4,48.57,22.34,76.14a147.86,147.86,0,0,1,10.47,28.88c6.57,21,13.16,44.63,32.85,63l.14-.07c.43.44.73.94,1.17,1.38l.52-.24-.52-14.2c15.76-23.63,38.05-39.38,69.56-45.95a166.72,166.72,0,0,1,40.36-3.1,212.82,212.82,0,0,1,43.67,5.72c35.45,9.19,63,27.58,64.32,43.33.67,8.62,1,16.88.79,25.16,0,1.55-.11,3.12-.17,4.69l3.31,1.65a15.5,15.5,0,0,0,5-4.62l.07-.06c0-.06.09-.15.14-.21a35.8,35.8,0,0,0,2.68-4.69c.46-.91.91-2.1,1.35-3.13,5-11.23,8.79-28,13.06-47.68,1.31-6.56,2.65-11.8,4-17.06,10.5-23.63,24.92-44.62,39.36-64.31,23.63-32.82,45.95-63,43.32-98.48C599.36,37.74,539,24.61,507.46,18c-5.26-1.31-7.85-1.31-11.79-2.62-32.49-5.91-60.57-9.6-87.52-8.86Zm122.43,349.1q.2-11.94-.79-23.85c-1.31-17.07-28.87-35.45-65.63-44.64a231,231,0,0,0-42.36-5.72,163.6,163.6,0,0,0-37.74,3.1c-30.2,6.56-53.81,22.32-68.25,45.94l1.24,34.75c16.2-8.64,42.07-21.24,76.21-24.27,1.61-.14,3.32-.14,5-.24A86,86,0,0,1,409,339.66c39,0,79.35,13,118.4,40a189.82,189.82,0,0,0,1.72-20l1.07.55c.07-1.51.35-3.08.38-4.58ZM408.12,7.87c3-.08,6.16.24,9.2.28-5.59-.06-11.14.06-16.68.38,2.5-.15,5-.59,7.47-.66Zm12.09.38a378.19,378.19,0,0,1,49.5,4.38A401.41,401.41,0,0,0,420.21,8.25ZM388.3,9.59c-1.85.22-3.71.33-5.55.59C362.92,13,339.67,27.21,316,35.55c8.61-3.21,17.34-7.18,26.09-10.93,13.13-6.56,27.55-13.13,39.37-14.44C383.72,9.84,386,9.86,388.3,9.59Zm-5.55,5.83c3.94,0,9.19,0,13.13,1.31a24.26,24.26,0,0,0-9-.35A28.48,28.48,0,0,1,394.57,18c14.07,24.31-10.35,128.17-16.48,197.85,3.79,25,7.62,48.46,11.24,66-17.07-43.32-34.15-119.48-36.78-178.55-1.31-23.63,0-44.63,5.28-60.39s13.1-26.26,24.92-27.57ZM458.89,22c-19.69,51.2-22.3,148.32-23.61,178.51-1.31,13.13,0,42,1.31,63,0,5.25,1.31,10.5,1.31,15.75,0-5.25-1.31-9.19-1.31-14.44C426.08,186.07,412.94,91.58,458.89,22Zm81.38,9.17C533.7,83.68,506.16,108.64,497,159.84c-2.63,40.7-7.9,87.94-9.21,128.64-1.31-40.7,0-84,6.55-127.33C500.88,116.52,515.32,71.87,540.27,31.17Zm-252,10.51a107.44,107.44,0,0,0-20.81,9.24A99.72,99.72,0,0,1,288.23,41.68Zm5.11,4.8a20.79,20.79,0,0,1,14.58,5.72c-.17-.1-.19-.08-.35-.17a38.66,38.66,0,0,1,9.55,9.34c-4.94,23.48,6.2,73.6,1,113.36,1.86,37.6,1.75,77.22,20.62,108.27-23.79-36.68-28.55-83.46-32.09-127.12-2.74-26.48-4.94-50.91-11.27-70.49-3.5-7.4-6.52-14-9.31-20-.6-.89-1.09-1.9-1.72-2.75a14.12,14.12,0,0,1-3.93-9.17c0-1.31,1.3-3.93,2.62-3.93,1.31-1.32,3.92-1.34,5.23-2.66A25,25,0,0,1,293.34,46.48ZM260.66,61.37a35.73,35.73,0,0,0-3.41,1.48c4.29-.83,8.78.82,12.61,7.72-4.55,21.64,10.6,81.78,10.41,123.91,7.59,44.87,13.35,93.47,38.16,124.19-28.88-32.82-40.69-90.58-49.88-139.15-7.88-38.06-14.44-70.87-27.57-81.38-1.31-2.62-2.62-4-2.62-6.58,0-3.94,0-9.19,2.62-14.44-6.73,15.38-9.83,30.77-9,46.15a93.27,93.27,0,0,1,9-46.15c0-1.31,1.31-1.31,1.31-2.62.29-.39.76-.85,1.07-1.24A21.16,21.16,0,0,1,248.84,67c1.35-1.5,2.34-2.89,3.86-4.41-1.28,1.34-2.12,2.65-3.24,4a20,20,0,0,1,2-1.27A11.88,11.88,0,0,1,260.66,61.37Zm-9.17,4c-.09.18-.18.27-.28.45.31-.24.59-.51.9-.73ZM609.86,92.87c0,.13-.1.25-.14.38a16.21,16.21,0,0,1,2.76-.38,9.79,9.79,0,0,0-2.79.48c-21,64.14-45.83,128.3-70.7,192.44l0,.07c-2.13,11.29-5.69,21.46-13.1,28.88,10.5-11.81,11.78-28.91,13.1-49.91,1.31-19.69,1.32-40.69,11.82-61.7a4.87,4.87,0,0,1,1.27-3.86.43.43,0,0,0,0-.07c2.36-8.55,4.9-16.71,7.69-24.71,10.15-31.31,27.66-76.85,48.87-81.1.4-.13.83-.44,1.21-.52ZM338.11,400.05l-7.86,2.62c3.94,5.25,6.55,9.2,9.17,10.51s5.26,2.63,9.2,2.63c1.32,0,3.93,0,5.24-1.32l19.72-6.55c1.31,0,2.62-1.31,3.93-1.31,2.62,0,3.92,0,6.55,1.31l6.58,6.55,6.55-1.31c-2.63-3.93-6.54-7.85-9.17-9.16s-5.26-2.66-9.2-2.66H376.2l-21,7.9h-3.93c-2.62,0-5.23,0-6.55-1.32a50.3,50.3,0,0,1-6.58-7.89Zm-63,13.14c-6.56,3.93-15.75,10.49-28.88,15.75s-23.63,10.5-28.89,15.75-7.85,10.5-7.85,15.75c0,2.63,1.3,4,3.92,5.27,1.31,1.32,4,1.31,5.28,2.62,18.38,7.88,36.74,17.05,53.8,26.23a28.93,28.93,0,0,1,6.59,5.28,4.8,4.8,0,0,0,3.93,1.31,14.17,14.17,0,0,0,9.17-3.93c2.62-2.63,4-5.27,4-7.89s-1.34-3.93-4-5.24c0,0-10.51-5.26-28.89-13.14a289.11,289.11,0,0,1-28.85-14.44c3.94-6.56,11.8-11.81,23.61-17.06,13.13-5.25,22.33-10.5,26.27-14.44a4.82,4.82,0,0,0,1.31-3.93,9.08,9.08,0,0,0-9.21-7.9Zm273.06,0a9.91,9.91,0,0,0-5.24,2.61c-1.31,2.63-2.65,4-2.65,5.28v1.31c3.94,3.94,9.22,6.54,17.09,9.17,6.57,1.31,13.12,4,19.69,5.27,7.87,2.63,13.12,6.54,15.75,11.79V450c0,1.31-2.64,3.92-7.9,6.55-2.62,1.31-7.87,5.26-14.44,10.51C563.9,471,560,474.88,556,476.19c-5.25,2.63-9.17,5.27-10.48,7.9a4.79,4.79,0,0,0-1.31,3.92c0,2.63,1.31,2.62,2.62,5.24s3.93,2.66,5.24,2.66,2.62-1.35,3.93-1.35c6.56-3.94,15.76-9.18,26.26-18.37,11.82-9.19,21-15.74,26.27-19.68,5.25-2.63,7.86-5.26,7.86-9.2,0-1.31,0-3.93-2.62-5.24-9.19-10.5-22.3-17.05-38.06-22.3-2.62-1.32-6.56-2.65-14.44-4-3.93-1.31-7.88-2.62-10.51-2.62ZM476,432.87c-6.56,0-11.81,1.33-15.75,5.27-5.25,3.94-6.55,10.5-5.24,18.37,0,6.56,2.61,11.81,6.55,17.06s9.19,7.9,14.44,7.9c3.94,0,6.57-1.35,10.51-2.66,6.57-3.94,9.2-10.49,9.2-22.3,0-9.19-2.64-15.74-6.58-19.68a22.17,22.17,0,0,0-13.13-4ZM367,434.18c-6.57,0-11.82,1.33-15.76,5.27-5.25,3.94-6.55,10.49-5.24,18.37,0,6.56,2.61,11.81,6.55,17.06s9.19,7.9,14.45,7.9c3.93,0,6.57-1.34,10.51-2.66,6.56-3.94,9.17-10.49,9.17-22.3,0-10.5-2.61-17.06-6.55-19.68a22.21,22.21,0,0,0-13.14-4ZM367,450a6.21,6.21,0,0,1,6.58,6.55c0,3.94-4,6.55-6.58,6.55a6.55,6.55,0,0,1,0-13.1Zm106.33,1.31a6.2,6.2,0,0,1,6.58,6.55c0,2.63-2.64,6.55-6.58,6.55a6.55,6.55,0,0,1,0-13.1ZM407.7,502.46l3.93,7.86c1.31,2.62,2.61,3.95,5.24,6.58,1.31,1.31,4,3.93,6.59,3.93h2.61c2.63,0,3.93,0,5.24-1.31s4-1.31,5.28-2.62l3.93-3.93c1.31-1.31,2.62-2.65,2.62-4,1.31-1.32,1.3-2.62,2.62-3.93a4.53,4.53,0,0,1,1.31-2.62c-1.32,2.62-3.93,5.23-5.24,7.86-2.63,1.31-3.93,4-6.55,4-2.63,1.31-5.27,1.31-7.9,1.31s-5.23,0-6.54-1.31c-2.63,0-4-1.31-5.28-2.62l-3.93-4C410.32,506.38,409,503.77,407.7,502.46Zm-21,24.95c-27.57,0-44.62,36.75-84,3.93-10.51,64.33,67,69.58,99.78,42C424.78,553.67,418.18,526.1,386.68,527.41Zm69.59,0c-31.51-1.31-38.07,26.26-15.75,46,32.82,27.57,110.25,22.31,99.75-42C500.89,564.16,485.15,527.41,456.27,527.41Z"/></svg>