<svg id="Layer_1" data-name="Layer 1" xmlns="http://www.w3.org/2000/svg" viewBox="0 0 841.89 595.28"><defs><style>.cls-1{fill:#fff;}</style></defs><title>github</title><path class="cls-1" d="M432.63,12.51c-164.57,0-297.87,131.06-297.87,292.7,0,129.35,85.34,239,203.67,277.71,14.89,2.76,20.35-6.3,20.35-14.07,0-7-.25-25.37-.37-49.77-82.86,17.65-100.33-39.27-100.33-39.27C244.53,446,224.94,437,224.94,437c-27-18.14,2.09-17.77,2.09-17.77,29.91,2,45.62,30.16,45.62,30.16,26.56,44.75,69.73,31.82,86.75,24.35,2.68-18.94,10.35-31.82,18.87-39.15-66.15-7.32-135.68-32.49-135.68-144.64,0-31.94,11.54-58.05,30.66-78.53-3.36-7.4-13.41-37.16,2.6-77.47,0,0,24.95-7.85,81.91,30a285.6,285.6,0,0,1,148.94,0c56.59-37.86,81.54-30,81.54-30,16,40.31,6,70.07,3,77.47,19,20.48,30.53,46.59,30.53,78.53,0,112.45-69.63,137.2-135.9,144.4,10.42,8.78,20.1,26.73,20.1,54.16,0,39.17-.37,70.64-.37,80.15,0,7.67,5.21,16.83,20.48,13.9,119.17-38.43,204.43-148.19,204.43-277.34C730.49,143.57,597.13,12.51,432.63,12.51Z"/></svg>