<svg xmlns="http://www.w3.org/2000/svg" xmlns:xlink="http://www.w3.org/1999/xlink" id="Layer_1" x="0" y="0" version="1.1" viewBox="0 0 864.6 1204.7" xml:space="preserve" style="enable-background:new 0 0 864.6 1204.7"><style type="text/css">.st0,.st1{fill:#020202}.st1{display:none}.st2{fill:#fb9390}</style><g><g><path d="M331.7,620.2c-0.1,0.1-0.1,0.3,0,0.5c0.1,0.2,0.2,0.1,0.2-0.1C331.9,620.3,331.8,620.2,331.7,620.2z" class="st0"/><path d="M431.9,587c0-0.4,0-0.4-0.1-0.2c-0.1,0.3-0.1,0.4,0,0.5C431.9,587.5,431.9,587.4,431.9,587z" class="st0"/><path d="M438.1,587.8c0-0.4,0-0.4-0.1-0.2c-0.1,0.3-0.1,0.5,0,0.6C438.2,588.4,438.2,588.3,438.1,587.8z" class="st0"/><path d="M480.4,586.8c-0.1,0.1-0.1,0.3,0,0.5c0.1,0.2,0.2,0.1,0.2-0.1C480.6,586.8,480.5,586.7,480.4,586.8z" class="st0"/><path d="M421.2,583.2c0-0.2-0.1-0.3-0.1-0.3C421.1,583.1,421.1,583.2,421.2,583.2z" class="st0"/><path d="M437.4,584.8c-0.1,0.2,0,0.3,0.1,0.3C437.5,584.8,437.4,584.8,437.4,584.8z" class="st0"/><path d="M436.2,588c-0.1,0.3-0.1,0.4,0,0.4c0.2,0,0.3-0.5,0.1-0.5C436.3,587.9,436.2,587.9,436.2,588z" class="st0"/><path d="M332.3,619.9c-0.1,0.3-0.1,0.4,0,0.6c0.1,0.2,0.2,0.1,0.1-0.4C332.4,619.7,332.4,619.7,332.3,619.9z" class="st0"/><path d="M481,586.4c-0.1,0.3-0.1,0.4,0,0.6c0.1,0.2,0.2,0.1,0.1-0.4C481.1,586.2,481.1,586.2,481,586.4z" class="st0"/><path d="M563.3,555.4c0,0.1,0,0.1,0,0.1c0-0.3,0-0.6-0.1-0.6c0,0,0-0.1,0-0.1c-0.3-1.2-0.6-2.4-0.9-3.6 c-8.6-35.9-51.3-30.7-51.3-30.7s-57.8,7.4-107.3,14.8c0,0.1,0,0.2,0,0.3c0,0.7-0.2,1.1-0.9,1.5c0-0.5-0.1-0.8-0.2-1.1 c-0.1-0.1-0.1-0.3-0.1-0.5c-12.7,1.9-24.8,3.8-35.2,5.5c0,0.5-0.1,1-0.1,1.4c-0.1,0.1-0.1,0.2-0.2,0.4c-0.1,0.1-0.1,0.2-0.2,0.3 c-0.2,0.3-0.4,0.6-0.4,0.7c0,0.1-0.1,0.3-0.2,0.4c0,0-0.5,0.1-0.5,0.1c0-0.1,0-0.1,0-0.2c-0.1-0.1-0.1-0.2-0.2-0.3 c0,0,0-0.1,0-0.1c0,0,0.1-0.1,0.1-0.1l-0.2,0c-0.1-0.2-0.2-0.5-0.2-1c0-0.4-0.1-0.9-0.2-1.3c0-0.1,0-0.1-0.1-0.2 c-11.4,1.9-20.6,3.7-25.9,5.1c-3.9,1-7.1,2.9-9.7,5.3c0,0.2,0,0.5,0,0.9c0,0-0.1,0-0.1,0.1c-0.1,0-0.1,0-0.2,0.1 c-0.1,0.1-0.1,0.1-0.2,0c-0.1-0.1-0.6,0.1-0.7,0.4c0,0.1-0.1,0.2-0.2,0.3c-0.1,0.2-0.1,0.2-0.2-0.1c-15.3,16.9-9.1,55.8-9.1,55.8 s-0.1,4.7,0.9,12.6c0.1,0,0.2,0.1,0.3,0.1c0,0,0,0.1,0.1,0.1c0,0-0.1,0.1-0.2,0c0,0-0.1,0-0.1,0c0,0.1,0,0.2,0,0.2 c0,0,0,0,0.1,0.1c0,0.1,0.2,0.2,0.3,0.2c0.1,0,0.1,0.1,0.1,0.1c0,0,0,0.1-0.1,0.1c0,0-0.1,0-0.1,0c-0.1,0-0.2,0-0.2,0.1 c0,0,0,0,0,0.1c0.1,0.4,0.1,0.9,0.2,1.3c0,0,0.1,0.1,0.2,0.1c0.1,0.1,0.2,0.4,0.3,0.5c-0.1,0.3-0.1,0.4,0,0.5c0,0.1,0,0.3,0,0.7 c-0.1-0.1-0.2-0.2-0.3-0.2c0,0.3,0.1,0.5,0.1,0.8c0.1,0,0.1,0,0.1,0c0,0.1,0,0.1,0,0.2c0,0-0.1,0-0.1,0c1.1,6.3,2.8,14.1,5.7,22.8 c6.3,18.8,46.7,13.8,62.5,11.1c0-0.1-0.1-0.2,0-0.2c0.1-0.1,0.2,0,0.3,0.2c3.8-0.7,6.1-1.2,6.1-1.2l45.6-5.6 c0.1-0.1,0.2-0.1,0.2,0l4.4-0.5c0-0.1,0-0.4,0-0.8c0.1,0.1,0.2,0,0.3-0.5c0.1-0.3,0.2-0.5,0.1-0.7c0.2,0,0.3,0,0.3,0.1 c0.1,0.1,0.2,0.1,0.3,0.1c0.1,0,0.2,0,0.2,0.1c0,0.3,0,0.6,0,0.9c0,0.1-0.1,0.2-0.2,0.1c0-0.1,0-0.2,0-0.4c0-0.3,0-0.3-0.2-0.3 c-0.2,0-0.3,0.5-0.2,1c0,0.1,0,0.2,0,0.3l21.2-2.6c0,0,0-0.1,0-0.1c0,0,0,0.1,0,0.1l19.4-2.4c0,0,0-0.1-0.1-0.1c0,0,0-0.1,0-0.1 c0.1,0,0.2-0.1,0.3,0c0.1,0,0.1,0,0.2-0.1c0.1,0.1,0.2,0.2,0.2,0.1c0,0,0-0.2-0.1-0.3c0.3,0.1,0.3,0.2,0.2,0.5l15.1-1.8l17.4,9.9 c0,0,0-0.1,0-0.2c0,0.1,0,0.1,0,0.2l29.3,16.7l-2.6-9c0,0-0.1,0-0.1,0c0,0,0,0,0.1-0.1l-6.8-23.9 C582.7,639.3,571.8,591,563.3,555.4z M319.8,622.9c0,0.1,0,0.1,0,0.2C319.7,623,319.7,622.9,319.8,622.9z M319.8,623.6 c0,0.1,0,0.1,0,0.2C319.8,623.7,319.8,623.6,319.8,623.6c0-0.1,0-0.1,0-0.1C319.9,623.4,319.9,623.5,319.8,623.6z M319.8,619.7 c-0.3,0-0.4-0.2-0.4-0.7c0,0,0,0,0.1,0.1c0,0.1,0.2,0.2,0.3,0.3C319.9,619.5,319.9,619.6,319.8,619.7 C319.9,619.7,319.9,619.7,319.8,619.7z M320.1,616.2c0.1,0,0.1,0,0.1,0.1C320.2,616.3,320.1,616.2,320.1,616.2z M321.4,624.6 c-0.1,0-0.2-0.1-0.2-0.2c0-0.1,0-0.2,0.1-0.2c0,0,0,0,0,0.1c0,0.1,0.1,0.1,0.1,0.1C321.6,624.6,321.6,624.7,321.4,624.6z M321.1,620.7c-0.1-0.2-0.1-0.3,0-0.3c0.1,0,0.1,0.1,0.2,0.1C321.2,620.6,321.1,620.6,321.1,620.7z M321.3,619.8 c0,0.1-0.3,0.1-0.4,0c0,0,0-0.1,0-0.1c0-0.1,0-0.1,0-0.2c0-0.2,0.1-0.3,0.4-0.1c0,0.1,0.1,0.2,0.1,0.2 C321.4,619.5,321.4,619.6,321.3,619.8z M321.9,622.2C321.9,622.2,321.9,622.2,321.9,622.2c0-0.1-0.1-0.2-0.1-0.3 c0-0.1,0-0.1,0-0.1c0-0.1,0-0.2,0-0.3c0,0.2,0.1,0.3,0.1,0.4C321.9,622,321.9,622.1,321.9,622.2z M323.3,627.3 c-0.1-0.1-0.1-0.2-0.1-0.2C323.2,627.1,323.2,627.2,323.3,627.3L323.3,627.3z M333.8,610.6c0,0,0-0.1,0-0.2c0-0.2,0-0.2,0.1-0.3 c0.1,0,0.1,0.1,0.2,0.1c0,0,0,0.1,0,0.2c-0.1,0.2-0.1,0.2,0,0.3c-0.1,0-0.2,0-0.2,0C333.8,610.8,333.8,610.7,333.8,610.6z M335,618.2c-0.1,0-0.1,0-0.2,0c0,0-0.1,0-0.1,0c-0.1,0-0.2,0-0.2,0c0-0.1,0-0.1,0-0.2c0.1,0,0.2,0,0.2-0.1c0.2-0.2,0.2-0.2,0.4,0 C335.1,618.1,335.1,618.2,335,618.2z M334.2,617c-0.1,0.1-0.1,0.4-0.1,0.6c0-0.1,0-0.2,0-0.4c0-0.2,0-0.3,0-0.4 c0.1-0.1,0.2-0.1,0.3-0.1C334.3,616.8,334.2,616.9,334.2,617z M333.5,610.8c0,0.1,0,0.2-0.1,0.2 C333.2,611,333.2,610.9,333.5,610.8z M333.4,612.3c0,0.1,0,0.1,0,0.2C333.4,612.4,333.4,612.4,333.4,612.3z M332.9,605.4 c0,0.2,0,0.5,0.1,0.6c0.1,0.2,0.1,0.5,0,0.6c0-0.2-0.1-0.4-0.2-0.5c-0.2-0.1-0.2-0.2,0-0.5C332.8,605.5,332.9,605.4,332.9,605.4z M331.1,592.5c0.1-0.2,0.2-0.2,0.2-0.1c0,0.1,0,0.5,0,0.6c0,0-0.1,0-0.1,0C331,592.9,331,592.7,331.1,592.5z M330.8,591.4 c0.1,0,0.1,0.1,0,0.2C330.8,591.5,330.8,591.4,330.8,591.4z M331.6,602c0,0,0,0.1,0,0.1C331.6,602.1,331.6,602.1,331.6,602z M332.4,612.9C332.4,612.9,332.4,613,332.4,612.9C332.3,613,332.3,612.9,332.4,612.9z M330.4,597.6c0.1,0,0.1,0.1,0.1,0.1 C330.3,597.7,330.3,597.6,330.4,597.6z M330.5,602.2c0,0.1,0,0.2,0,0.3C330.5,602.4,330.5,602.3,330.5,602.2z M331.7,614.1 c0.1,0.1,0.1,0.2,0.1,0.3c0,0.1-0.1,0.2-0.1,0.2C331.7,614.4,331.7,614.3,331.7,614.1z M331.8,615.6 C331.8,615.6,331.8,615.6,331.8,615.6C331.8,615.6,331.8,615.6,331.8,615.6z M329.7,605.4c0.1,0,0.2-0.1,0.3,0 c0.1,0,0.1,0,0.2-0.1c0.1,0.1,0.2,0.2,0.2,0.1c0,0,0-0.2-0.1-0.3c0.3,0.1,0.4,0.2,0.2,0.6c-0.2,0.3-0.3,0.4-0.4,0.3 c0-0.1,0-0.1-0.1-0.2c-0.1-0.1-0.1-0.2-0.1-0.2C329.7,605.5,329.7,605.5,329.7,605.4z M331.7,615.5c0-0.1,0-0.2,0-0.2 C331.7,615.4,331.7,615.5,331.7,615.5z M331,613.8C331,613.8,331,613.8,331,613.8c-0.1,0.2-0.2,0.3-0.2,0.3c0-0.1-0.1-0.2-0.1-0.2 C330.8,613.8,330.9,613.7,331,613.8z M330.8,613.4c0-0.1,0-0.2,0-0.3c0.1,0,0.1,0,0.2,0c0,0,0.1,0,0.1,0c0,0.1,0,0.3,0,0.4 C331,613.4,330.9,613.4,330.8,613.4z M331.1,614.7c0,0,0-0.1,0.1-0.2c0,0,0,0,0,0.1c0.1,0.1,0.1,0.2,0.1,0.2c-0.1,0-0.2,0-0.3,0 C331.1,614.8,331.1,614.7,331.1,614.7z M329.8,607C329.8,607,329.8,607,329.8,607c0.3,0,0.4,0,0.4,0.2c0.1,0.2,0,0.3-0.3,0.3 c0,0,0-0.1,0-0.1C329.8,607.3,329.8,607.2,329.8,607z M330.4,616.7c0.3,0,0.3,0,0.3-0.7c0-0.3,0.1-0.4,0.1-0.5 c0,0.1,0.1,0.2,0.2,0.1c0.1,0.2,0.1,0.6,0,0.6c0,0,0,0.1,0,0.1c0-0.2,0-0.3-0.1-0.3c0,0-0.1,0.3-0.1,0.6c0,0.2-0.1,0.4-0.1,0.5 c0,0-0.1-0.1-0.1-0.1c0,0-0.1,0-0.1-0.1C330.4,616.8,330.4,616.8,330.4,616.7z M329.7,612.3c0.1-0.1,0.2,0,0.2,0.1 C329.7,612.5,329.6,612.4,329.7,612.3z M330.1,622.9c0.1,0,0.1,0,0.2,0c0,0.1,0,0.2,0.1,0.2c0.1,0.1,0.1,0.1,0.1,0.1 c0,0,0,0.1,0,0.2c-0.1,0-0.2,0.1-0.2,0.3c0,0.1-0.1,0.1-0.1,0.1c-0.1-0.1-0.2-0.2-0.1-0.3c0-0.1,0-0.2-0.1-0.3c0,0,0,0,0-0.1 c0,0,0-0.1,0-0.2C329.9,622.9,330,622.9,330.1,622.9z M329.4,617.9C329.4,617.9,329.5,618,329.4,617.9c0.1,0.1,0,0.1,0,0.1 C329.3,618.1,329.3,617.9,329.4,617.9z M330.1,619.3c0-0.1,0-0.2,0.1-0.3c0,0,0,0,0-0.1c0,0,0-0.1,0-0.1c0-0.1,0.1-0.2,0.1-0.2 c0,0,0.1,0.2,0.1,0.4c0,0.3,0,0.4,0.1,0.7c0,0,0,0.1,0.1,0.2c0,0.2,0,0.3,0,0.5c0,0.1-0.1,0.2-0.2,0.3c-0.1,0.1-0.1,0.1-0.3-0.2 c-0.1-0.2-0.1-0.4-0.1-0.5c0,0,0-0.1,0-0.2C330.1,619.7,330.1,619.6,330.1,619.3z M329.8,617.7c0-0.1,0-0.2,0-0.2 C329.9,617.5,329.9,617.6,329.8,617.7z M330.4,620.9c0,0.1,0.1,0.3,0.1,0.4c0,0.1,0.1,0.3,0.1,0.4c0,0.1,0.1,0.1,0.1,0.1 c0,0.1,0,0.3,0,0.4c-0.2-0.1-0.4-0.3-0.5-0.7c0-0.2-0.1-0.4-0.1-0.5C330.2,620.8,330.3,620.8,330.4,620.9z M331,625.4 c0-0.1,0-0.2,0.1-0.3C331.2,625.2,331.1,625.4,331,625.4z M330.5,622.9C330.6,622.9,330.6,622.9,330.5,622.9 c0.1,0.1,0.1,0.1,0.1,0.2c0,0-0.1,0-0.1,0.1c0,0,0-0.1,0-0.2C330.5,622.9,330.5,622.9,330.5,622.9z M330.1,624.8 c0-0.1,0-0.2,0-0.3c0-0.1,0-0.2,0-0.2c0,0,0.1,0,0.1,0.1C330.3,624.7,330.2,624.9,330.1,624.8z M330.4,625.8 c0.3,0,0.3-0.1,0.2-0.3c0-0.1,0.1-0.2,0.1-0.3c0,0.1,0,0.2,0,0.2c0.1,0.2,0.2,0.3,0.2,0.3c0.1,0.1,0.2,0.2,0.3,0.2 c0.1,0.1,0.2,0.2,0.2,0.7c0,0.2-0.1,0.2-0.3,0.1c-0.1-0.2-0.2-0.4-0.3-0.5c-0.2-0.2-0.3-0.2-0.3,0.2c-0.1-0.1-0.2-0.1-0.3-0.2 c-0.1-0.1-0.2-0.1-0.2-0.2C330.2,626.1,330.3,626,330.4,625.8z M329.9,614.6c0,0,0,0.1,0,0.1c-0.1,0-0.2,0-0.3,0.1 c0,0,0,0-0.1,0.1c0.1-0.1,0.2-0.2,0.2-0.2C329.9,614.7,329.9,614.7,329.9,614.6z M328.6,606.9c0.1,0,0.1,0,0.2-0.1 c0,0,0.1,0,0.1,0c0,0.3,0,0.4,0,0.5c0,0.1,0,0.1,0,0.2C328.8,607.1,328.7,606.9,328.6,606.9C328.5,607,328.6,606.9,328.6,606.9z M328.7,609.5C328.7,609.4,328.7,609.4,328.7,609.5c0.1,0,0.1,0,0.1,0c0,0.1,0,0.1,0,0.2c-0.1,0-0.1-0.1-0.1-0.1 C328.6,609.5,328.6,609.5,328.7,609.5z M328.2,610.4c0.1,0.1,0.2,0.2,0.4,0.2c0.1,0,0.2,0,0.3,0.1c0,0.1,0,0.1,0,0.2 c-0.2,0.2-0.5,0.2-0.5,0c0-0.1,0-0.2-0.2-0.2C328.1,610.6,328.1,610.5,328.2,610.4z M328.5,615.9c0-0.1,0-0.2,0-0.3 c0.2,0,0.3,0.1,0.3,0.4c0,0.1,0.1,0.2,0.3,0.2c0.1,0,0.3,0.1,0.4,0.1c0.1,0.1,0.2,0.1,0.4,0.2c0,0.1,0,0.1,0,0.1 c-0.1-0.1-0.2-0.1-0.3-0.1c-0.2,0-0.3,0-0.3-0.1c0-0.1-0.4-0.4-0.6-0.4C328.4,616.1,328.4,616.1,328.5,615.9z M326.6,616.3 c0,0,0,0.1,0,0.1c0,0,0,0.1,0,0.1C326.5,616.5,326.6,616.4,326.6,616.3z M326.4,622.6c0.1,0,0.1,0,0.2,0c0,0,0,0.1,0,0.1 c-0.1,0-0.2,0-0.3-0.1C326.3,622.6,326.3,622.6,326.4,622.6z M322.3,611.3c0-0.1,0-0.1,0-0.2c0.1,0,0.1,0,0.1,0.1c0,0,0,0,0,0.1 C322.4,611.3,322.3,611.3,322.3,611.3z M323.9,618.6c0,0,0,0.1,0,0.1c0,0,0,0,0,0.1c0,0.2-0.1,0.3-0.1,0.3c-0.1,0-0.2-0.2-0.1-0.2 c0.2-0.1,0-0.2-0.2-0.1c0-0.1,0-0.1,0.1-0.1c0.1,0,0.1,0,0.2-0.1c0.1,0,0.1,0,0.2-0.1C323.9,618.5,323.9,618.5,323.9,618.6z M324.2,617.9C324.1,617.9,324.1,617.9,324.2,617.9C324.1,617.9,324.1,617.9,324.2,617.9z M326.2,623.6c0-0.1,0-0.1,0.1-0.1 c0.1,0,0-0.1,0.1-0.1c0,0,0,0,0,0.1c0,0,0,0,0,0.1C326.3,623.5,326.3,623.6,326.2,623.6z M326.7,624.2c-0.2-0.1-0.2-0.2-0.1-0.2 c0,0,0.1,0,0.1,0.1C326.7,624.1,326.7,624.2,326.7,624.2z M326.3,621.5c0.1,0.1,0.1,0.1,0.2,0.1c0,0,0.1,0,0.1,0.1 C326.5,621.7,326.4,621.7,326.3,621.5z M327.5,627.9C327.5,628,327.5,628,327.5,627.9c0,0.1-0.1,0.1-0.2,0.2 C327.2,628,327.3,628,327.5,627.9z M328,628.9c-0.1,0.1-0.2,0.1-0.4,0c-0.1-0.1-0.1-0.1-0.1-0.1c0,0,0,0,0-0.1 c0-0.1,0.2-0.2,0.3-0.2C327.9,628.6,327.9,628.7,328,628.9C328,628.8,328,628.8,328,628.9z M326.7,617.2c0,0-0.1-0.1-0.3-0.2 c-0.1,0-0.1-0.1-0.2-0.1c0,0,0-0.1,0-0.1c0,0,0,0,0.1,0c0,0.1,0.1,0.2,0.2,0.2C326.5,617,326.6,617.1,326.7,617.2 c0.1,0,0.2,0,0.2,0.1C326.8,617.2,326.7,617.2,326.7,617.2z M328.3,628.8c-0.1-0.1-0.1-0.2,0-0.2c0.1,0,0.1,0.1,0.1,0.2 C328.4,628.8,328.4,628.8,328.3,628.8z M328.2,627.3c0-0.2,0.1-0.3,0.3-0.2C328.5,627.2,328.4,627.2,328.2,627.3z M327.8,618.9 c0,0,0.1-0.1,0.1-0.1c0,0.1,0,0.2-0.1,0.2C327.8,619,327.8,618.9,327.8,618.9z M328.2,621.5c0-0.3,0.1-0.3,0.2,0 c0.1,0.3,0.1,0.3-0.1,0.3C328.2,621.7,328.2,621.7,328.2,621.5z M329.2,626.6c0-0.1-0.1-0.2-0.1-0.2c0,0-0.1,0-0.1-0.1 c0.1,0,0.1,0,0.3,0.1C329.2,626.5,329.2,626.5,329.2,626.6z M329,625.8c-0.1,0-0.1-0.4,0-0.5c0.1-0.1,0.1-0.1,0.1,0.1 C329.2,625.6,329.1,625.9,329,625.8z M329.5,628.3c-0.1-0.1-0.1-0.1-0.1-0.1C329.5,628.2,329.5,628.2,329.5,628.3 c0.1,0,0.1,0.1,0.1,0.1C329.6,628.4,329.6,628.4,329.5,628.3z M329.2,624.4c0,0.1-0.1,0.3-0.1,0.5c0,0.1,0,0.2-0.1,0.3 c-0.1,0.1-0.1-0.1-0.2-0.4c0-0.2,0.1-0.4,0.1-0.4c0,0,0.1-0.2,0.1-0.3c0-0.2,0-0.3-0.2-0.4c-0.1-0.2-0.1-0.2,0-0.3 c0,0,0.1,0,0.1,0c0.1,0,0.2,0.1,0.1,0.3c0,0.1,0,0.2,0.1,0.4C329.3,624.1,329.3,624.2,329.2,624.4z M328.6,618.4 C328.6,618.4,328.5,618.4,328.6,618.4c-0.2,0-0.3,0-0.3,0c0,0-0.1,0-0.1,0c0-0.4-0.1-0.3-0.2,0c-0.2,0-0.5-0.1-0.6-0.1 c0,0,0-0.1-0.1-0.1c0.2,0,0.2-0.1,0.2-0.2c0.2,0.1,0.3,0.1,0.4,0c0.1-0.1,0.2,0,0.4,0c0.1,0.1,0.3,0.1,0.3,0.1 c0.1,0,0.1,0,0.1,0.1C328.7,618.3,328.7,618.3,328.6,618.4z M330.5,629.6c0,0.1,0,0.4,0,0.6c0,0,0,0.1,0,0.1 c0-0.1-0.1-0.1-0.1-0.2c0,0,0-0.1,0-0.1c0-0.2,0-0.3-0.1-0.4c0.1-0.1,0.1-0.2,0.1-0.3c0-0.1,0-0.2,0.1-0.3 c0.1-0.1,0.1-0.2-0.2-0.4c-0.3-0.3-0.4-0.5-0.1-0.6c0.1,0,0.1-0.1,0.1-0.4c0-0.2,0-0.4,0.1-0.4c0,0,0.1-0.1,0.1-0.2 c0-0.1,0.1-0.2,0.2-0.2c0,0.3,0,0.6,0,1.1c0,0.5,0,0.8-0.1,1.1C330.5,629.3,330.5,629.4,330.5,629.6z M332.3,631.8 c-0.1-0.1-0.3-0.1-0.4,0c-0.2,0.1-0.3,0.2-0.2,0.3c-0.1,0.1-0.1,0.3-0.2,0.5c0,0,0,0.1,0,0.1c0-0.1,0-0.2-0.1-0.3 c-0.1-0.2-0.2-0.3-0.2-0.4c0-0.2,0-0.3,0.1-0.4c0.2-0.1,0.2-0.1,0.2-0.4c0-0.2,0-0.5,0-0.6c0-0.1,0-0.2,0-0.3c0,0,0-0.1,0-0.1 c0-0.4-0.1-0.9-0.2-1c0-0.1,0-0.2,0.1-0.4c0.1-0.2,0.1-0.3,0-0.6c0-0.1-0.1-0.2-0.1-0.3c0,0,0.1,0,0.1,0c0,0,0-0.1,0-0.2 c0.1-0.1,0.1-0.3,0.1-0.5c0,0,0.1,0,0.1,0c0.2,0,0.2,0.1,0.2,0.3c0,0.2,0.1,0.7,0.3,0.9c0,0.1,0,0.2,0.1,0.4 c0.1,0.2,0.1,0.4,0.1,0.5c0,0.1,0,0.3,0,0.4c0.1,0.2,0.1,0.4,0,0.9c-0.1,0.8,0,0.9,0.2,0.9C332.3,631.6,332.3,631.7,332.3,631.8z M332.1,625.9c-0.4-0.1-0.5-0.1-0.6-0.4c-0.1-0.4-0.1-0.5,0.2-0.4c0.2,0.1,0.3,0.1,0.3,0.1c0,0.1,0,0.3,0.1,0.3 c0.1,0.1,0.1,0.2,0.1,0.4C332.2,625.9,332.1,625.9,332.1,625.9z M333.1,630.8c-0.1,0-0.2,0.1-0.2,0.1 C333,630.8,333,630.8,333.1,630.8z M332.9,630.3C332.9,630.3,332.9,630.2,332.9,630.3c0.1,0,0.1,0,0.1,0.1 C332.9,630.4,332.9,630.4,332.9,630.3z M332.6,627.2c-0.1-0.1-0.1-0.3-0.1-0.4c0-0.2,0-0.2,0.3-0.1c0.3,0.1,0.4,0.3,0.3,0.6 C333.1,627.5,332.8,627.5,332.6,627.2z M332.3,622.4c-0.1,0-0.1,0.1-0.2,0.1c0-0.5,0.1-0.6,0.3-0.4c0,0.1,0.1,0.1,0.1,0.2 C332.4,622.4,332.3,622.4,332.3,622.4z M332.5,622.7c0,0,0-0.1,0-0.1C332.4,622.6,332.4,622.7,332.5,622.7z M332.7,625.9 c-0.1,0.1-0.2,0.1-0.2,0.1c0,0-0.1-0.1-0.1-0.1c0,0,0.1,0,0.1,0c0,0,0-0.1,0-0.2C332.8,625.6,332.9,625.8,332.7,625.9z M333.6,630.6c0,0,0-0.1,0-0.1c0.1-0.1,0.3-0.2,0.4-0.1c0.1,0,0.1,0,0.2,0C334,630.4,333.8,630.5,333.6,630.6z M333,625.2 c0-0.3,0.1-0.3,0.2,0c0.1,0.1,0.1,0.2,0.1,0.2c0,0.1-0.1,0.1-0.1,0.1C333,625.4,333,625.3,333,625.2z M333.2,621.7 c0,0.1,0,0.3,0,0.4c-0.1,0.1-0.3,0.1-0.3-0.1c0-0.2,0-0.2,0-0.2c0-0.4,0-0.8,0.1-0.8C333.2,621,333.3,621.3,333.2,621.7z M334.9,628.4c0-0.1,0-0.3,0-0.3C334.9,628.2,334.9,628.3,334.9,628.4z M334,619.9c0,0.1,0,0.2,0,0.3c0,0.1-0.1,0.1-0.1,0.1 c-0.1,0-0.2-0.2-0.1-0.3c0.2-0.1,0-0.2-0.2-0.1c-0.1,0-0.2,0.1-0.3,0.3c-0.1,0.4-0.2,0.4-0.4,0.4c-0.1,0-0.2,0-0.2,0.1 c0,0.1-0.4,0.4-0.5,0.3c-0.1,0-0.2-0.1-0.3-0.2c-0.2-0.2-0.4-0.1-0.4,0.2c0,0,0,0-0.1,0c-0.1,0-0.1-0.1-0.2-0.2 c-0.1-0.1-0.1-0.1-0.2-0.1c0-0.1,0-0.1,0-0.2c0.2-0.1,0.3-0.3,0.1-0.5c0,0,0-0.1,0-0.1c0,0,0,0,0-0.1c0,0,0,0,0.1-0.1 c0.1-0.1,0.2-0.2,0.2-0.4c0-0.2,0.1-0.3,0.1-0.3c0,0,0.1-0.2,0.1-0.3c0-0.3,0-0.3-0.3-0.4c-0.1-0.1-0.2-0.1-0.2-0.2 c0,0,0-0.1,0-0.1c0,0,0.1,0,0.1,0c0.3,0,0.4-0.1,0.3-0.4c-0.1-0.2-0.3-0.4-0.5-0.5c0-0.1,0-0.1,0.1-0.1c0.1,0,0.2-0.1,0.2-0.5 c0-0.2,0.1-0.4,0.1-0.5c0.1,0.2,0.2,0.4,0.2,0.4c0.1,0,0.2-0.4,0-0.5c0,0,0,0,0.1,0c0.2,0.2,0.2,0.2,0.2,0c0-0.1,0.1-0.4,0.1-0.5 c0-0.1,0-0.2,0-0.4c0.1-0.1,0.1-0.2,0.2-0.2c0.1-0.1,0.1-0.1,0.1-0.2c0.2-0.1,0.2,0,0.3,0.4c0.1,0.5,0.1,0.5-0.1,0.6 c-0.1,0.1-0.2,0.2-0.2,0.4c0,0.2,0,0.4,0.1,1c0,0.1,0,0.2-0.2,0.4c-0.3,0.2-0.3,0.4-0.2,0.7c0,0.1,0,0.2,0,0.3 c-0.1,0.1-0.1,0.2,0,0.5c0.1,0.5,0.2,0.6,0.4,0.4c0-0.1,0.2-0.2,0.4-0.2c0.3-0.1,0.5,0,0.5,0.3c0,0.1,0.1,0.2,0.3,0.2 C333.8,619.8,333.9,619.9,334,619.9C334,619.9,334,619.9,334,619.9z M333.5,614.9c0.1,0.1-0.2,0.3-0.4,0.2c-0.1,0-0.1-0.1,0-0.3 c0.1-0.3,0.1-0.3-0.2-0.3c-0.2,0-0.3-0.1-0.3-0.4c0.1-0.2,0.1-0.4,0.2-1.1c0.1-0.9,0.2-1.3,0-1.4c0-0.1,0-0.1,0-0.2 c0.1,0,0.1,0,0.2,0.1c0,0,0.1,0,0.1,0.1c0,0.1,0,0.1,0,0.2c0,0,0.1,0.1,0.2,0.2c0.1,0,0.1,0.1,0.1,0.1c0,0-0.1,0-0.1,0 c-0.2,0-0.2,0-0.1,0.2c0.1,0.1,0.1,0.2,0,0.2c-0.2,0.1-0.2,0.4,0,0.6c0.1,0.1,0.2,0.2,0.2,0.3c0,0.1,0.1,0.1,0.1,0.2 c-0.1,0-0.1,0.1-0.2,0.1c0,0.1-0.1,0.1-0.2,0.1c-0.4,0-0.2,0.3,0.2,0.3c0.4,0,0.5,0.1,0.3,0.2 C333.4,614.4,333.3,614.8,333.5,614.9z M334.1,618.1c0,0,0,0.2-0.1,0.3C333.9,618.2,334,618,334.1,618.1 C334.1,618,334.2,618.1,334.1,618.1z M335.4,625.8c-0.2-0.1-0.3-0.4-0.4-0.7c0-0.1,0-0.2,0-0.3c0.2-0.1,0.3,0.1,0.2,0.3 c0,0.1,0,0.2,0.1,0.4C335.4,625.6,335.4,625.7,335.4,625.8C335.4,625.8,335.4,625.8,335.4,625.8z M334.9,619.4 c-0.1,0-0.1,0-0.1-0.2c0-0.1,0.1-0.2,0.1-0.1c0.1,0,0.1,0.1,0.1,0.2C335,619.3,334.9,619.4,334.9,619.4z M335.2,620.4 c-0.1,0-0.1-0.1-0.1-0.1c0,0,0,0,0.1,0c0.2,0,0.2-0.1,0.2-0.6c0,0.1,0,0.1,0,0.2c0.1,0.1,0.1,0.3,0,0.5 C335.5,620.4,335.4,620.4,335.2,620.4C335.2,620.4,335.2,620.4,335.2,620.4z M336.2,624.7c-0.1,0-0.1,0-0.1-0.1c0,0,0-0.1-0.1-0.1 c0,0,0.1,0,0.1,0C336.2,624.6,336.3,624.7,336.2,624.7z M335.5,617.6c-0.1-0.1-0.1-0.2-0.1-0.3 C335.5,617.5,335.5,617.5,335.5,617.6z M333.3,598.3C333.3,598.3,333.3,598.2,333.3,598.3C333.3,598.2,333.3,598.2,333.3,598.3 L333.3,598.3z M336.5,622.4c0,0,0-0.1,0-0.1C336.5,622.3,336.5,622.4,336.5,622.4L336.5,622.4z M336.5,617.8 C336.5,617.8,336.4,617.8,336.5,617.8c-0.1-0.1-0.1-0.1-0.1-0.2c0,0,0.1,0,0.1,0C336.5,617.7,336.5,617.8,336.5,617.8z M361.7,609.4c0,0,0,0.1,0,0.2c0,0,0,0,0-0.1C361.7,609.5,361.7,609.4,361.7,609.4z M361.2,610.2c0.1,0,0.2,0,0.2,0 c0,0.1,0,0.2,0,0.3c0,0-0.1,0-0.2,0C361.2,610.4,361.2,610.3,361.2,610.2z M358.1,585.8c0,0,0.1,0.1,0.1,0.2c0,0.1,0,0.1,0,0.1 c0,0.1,0,0.2-0.1,0.3C358.1,586.1,358.1,585.9,358.1,585.8z M349.9,613.3c0,0,0.1,0,0.2,0c0,0,0.1,0,0.1,0c0,0.1,0,0.2,0,0.3 c-0.1,0-0.2,0-0.2,0c0,0-0.2,0.1-0.3,0.1C349.7,613.6,349.8,613.4,349.9,613.3z M349.8,614.1c0.1,0,0.1,0,0.2-0.1 c0.1-0.1,0.1-0.1,0.1,0c-0.1,0.1-0.1,0.3,0,0.6c0.1,0.3,0.1,0.5,0.2,0.5c-0.2,0.2-0.4,0.2-0.6,0.1c-0.1-0.1-0.1-0.1,0-0.2 c0.1-0.1,0.1-0.2-0.1-0.4c0,0,0-0.1-0.1-0.1C349.8,614.3,349.9,614.1,349.8,614.1z M348.3,613.2c0.1,0,0.1,0,0.2,0 c0,0,0,0.1,0,0.2c0,0.3-0.1,0.4-0.2,0.2C348.2,613.5,348.2,613.3,348.3,613.2z M348.3,614.4c0.1-0.1,0.1-0.2,0-0.2 c0,0,0-0.1,0-0.1c0.1-0.1,0.1-0.1,0.2,0.1c0,0.1,0.1,0.1,0.1,0.1C348.5,614.4,348.3,614.5,348.3,614.4 C348.3,614.5,348.3,614.5,348.3,614.4z M346.8,608.7c0,0,0,0.1-0.1,0.1C346.7,608.7,346.7,608.7,346.8,608.7z M346.9,609.2 c0.2,0.1,0.1,0.1-0.1,0.1c-0.1,0-0.2,0-0.2-0.1C346.6,609.2,346.7,609.2,346.9,609.2z M347.1,610.3c0,0.1,0,0.1,0,0.2 c0,0-0.1,0.1-0.2,0.1c-0.1,0-0.1,0-0.1,0c0-0.3,0-0.5,0-0.7c0.1,0,0.2,0.1,0.2,0.1C347,610.1,347,610.2,347.1,610.3z M345.4,601.4 c0-0.1,0-0.1,0.1-0.1c0,0.1,0,0.2,0,0.4C345.4,601.5,345.4,601.5,345.4,601.4C345.4,601.4,345.4,601.4,345.4,601.4z M346.4,610.4 C346.5,610.4,346.5,610.4,346.4,610.4C346.4,610.5,346.4,610.5,346.4,610.4z M345.2,605.5c0.1-0.2,0.2-0.3,0.2-0.6 c0,0,0.1,0,0.1,0c0,0.3,0,0.4,0,0.5c0,0.1,0,0.1,0,0.2C345.4,605.7,345.3,605.6,345.2,605.5z M345.4,608.6c0,0.1,0,0.2,0,0.3 C345.4,608.8,345.4,608.7,345.4,608.6z M345.1,613.1c0,0,0,0.1,0,0.1C345.1,613.1,345.1,613.1,345.1,613.1z M345.1,613.7 c0,0,0.1,0,0.1,0c0.1,0,0.2,0.1,0.2,0.1c0,0-0.2,0.1-0.3,0.1C345.1,613.9,345.1,613.8,345.1,613.7z M345.2,614.1 c0.1,0,0.2,0,0.4,0c0.3-0.1,0.3-0.1,0.1-0.2c-0.1-0.1-0.1-0.1-0.1-0.3c0-0.1,0-0.1,0-0.1c0.1,0,0.2-0.1,0.3-0.2 c0.2,0.1,0.3,0.3,0.2,0.4c-0.1,0.1,0.1,0.2,0.3,0.2c0.1,0,0.1,0,0.1-0.3c0-0.1,0-0.3,0-0.4c0-0.1,0-0.2-0.1-0.2 c-0.1-0.1-0.1-0.1-0.1-0.2c0,0,0,0,0-0.1c0.2,0,0.3-0.1,0.3-0.8c0,0.1,0.1,0.1,0.1,0.1c0.2,0.5,0.2,0.5,0,0.7 c-0.1,0.1-0.2,0.3-0.2,0.4c0,0.2,0,0.4,0.2,1c0,0.1,0,0.2-0.2,0.4c0,0,0,0-0.1,0.1c0,0,0,0-0.1-0.1c-0.1-0.1-0.2-0.1-0.2,0.1 c0,0-0.1,0-0.1,0c-0.2,0-0.3,0-0.3-0.1c0-0.1-0.2-0.3-0.4-0.3C345.3,614.2,345.2,614.2,345.2,614.1c-0.1,0-0.1,0-0.2,0 C345.1,614.1,345.1,614.1,345.2,614.1z M346.1,616.1c-0.2,0-0.2-0.1-0.1-0.1C346.1,616,346.1,616.1,346.1,616.1z M343.9,605.3 c0,0.1,0,0.2,0,0.3C343.9,605.5,343.9,605.4,343.9,605.3z M345.1,618.3c0.1-0.1,0.2-0.1,0.2,0c0.1,0.2,0.1,0.3-0.2,0.2 c-0.1,0-0.1,0-0.2,0C345.1,618.5,345.1,618.4,345.1,618.3z M344.9,616.8c0.1-0.1,0.1-0.1,0.1,0C345,616.8,345,616.8,344.9,616.8z M344.6,616.2c0.1-0.1,0.2,0,0.4,0c0.1,0,0.1,0,0.2,0.1c0,0,0,0.1,0,0.1c0,0.1,0,0.1-0.3,0.1C344.7,616.3,344.6,616.3,344.6,616.2 C344.6,616.2,344.6,616.2,344.6,616.2z M344.4,617c0,0,0,0,0.1,0c0.1,0,0.2,0,0.2,0.1c0,0.1-0.1,0.1-0.2,0 C344.4,617,344.4,617,344.4,617L344.4,617z M339.3,604.5c0,0.1,0,0.1,0.1,0.2c0,0.2,0,0.4,0,0.5c0,0-0.1,0-0.1-0.1 C339.2,605,339.2,604.7,339.3,604.5z M335.6,605.3c0.1,0.1,0.2,0.3,0.2,0.5c0,0.1,0,0.1-0.1,0.1 C335.5,605.5,335.5,605.5,335.6,605.3z M335.9,608.8C335.9,608.8,335.9,608.8,335.9,608.8C335.9,608.8,335.9,608.8,335.9,608.8z M336.8,614.8c-0.1-0.1-0.1-0.2-0.1-0.2c0.1,0,0.1,0,0.2,0C336.9,614.7,336.8,614.7,336.8,614.8z M337.3,618c0-0.1,0-0.1,0-0.2 c0.1,0,0.1,0,0.1,0.1C337.4,618,337.4,618,337.3,618z M334.9,594c0-0.1,0-0.1,0-0.2C335,593.8,335,593.9,334.9,594 C335,594,334.9,594,334.9,594z M338.8,618.1C338.8,618.1,338.8,618.1,338.8,618.1c-0.1,0.1-0.2,0.1-0.3,0.1c-0.1,0-0.1,0-0.2,0 c-0.5-0.1-0.5-0.1-0.3-0.4c0.1-0.1,0.1-0.1,0.2-0.1c0,0,0.1,0,0.2,0c0.1,0,0.1,0,0.2,0c0,0,0,0,0.1,0.1c0.1,0.1,0.1,0.1,0.2,0.2 C338.8,618,338.8,618,338.8,618.1z M338.8,614.9c0,0-0.1,0-0.1,0c0,0,0.1-0.1,0.1-0.1C338.8,614.7,338.8,614.8,338.8,614.9z M339.5,617.1c-0.1,0-0.1-0.1-0.1-0.2C339.5,617,339.5,617,339.5,617.1C339.5,617.1,339.5,617.1,339.5,617.1z M338.9,610.5 c0,0-0.1,0,0-0.1c0-0.1,0-0.1,0.1-0.1C338.9,610.4,338.9,610.5,338.9,610.5z M339.9,618c0-0.1,0-0.1,0-0.1c0.1-0.1,0.1-0.1,0.1,0 C340,617.9,339.9,617.9,339.9,618z M340.3,616.8c0,0.3-0.1,0.5-0.2,0.4c0-0.6,0-0.6,0.2-0.6C340.3,616.7,340.3,616.7,340.3,616.8z M340.5,617.5C340.6,617.5,340.6,617.5,340.5,617.5C340.6,617.5,340.6,617.5,340.5,617.5z M340.4,615.9c0,0.1-0.1,0.2-0.1,0.3 c-0.1,0-0.1,0-0.2-0.1c-0.1-0.1-0.1-0.1,0-0.2c0.1-0.1,0.1-0.2-0.1-0.3c-0.1-0.1-0.1-0.2-0.1-0.3c0-0.1,0.3-0.2,0.4-0.1 c0,0,0,0,0.1,0c0.1,0,0.2,0.1,0.2,0.1c0,0.1,0,0.3,0,0.4C340.5,615.8,340.4,615.8,340.4,615.9z M340.8,616.7c0,0-0.1,0-0.1,0 c0-0.1,0-0.2,0-0.2c0,0,0.1,0,0.1,0C340.9,616.6,340.8,616.7,340.8,616.7z M341.6,613.1c0,0,0-0.1,0-0.1c0-0.1,0-0.1,0-0.2 c0,0,0,0.1,0,0.1c0,0.1,0.1,0.1,0.1,0.1C341.7,613.1,341.7,613.1,341.6,613.1z M341.5,612.3c0,0,0.1-0.1,0.1-0.1 c0.1,0,0.1,0.1,0.1,0.3c0,0.1,0,0.2,0,0.3c0-0.1,0-0.1-0.1-0.2C341.5,612.5,341.5,612.3,341.5,612.3z M341.7,611.7 c-0.1,0-0.2,0-0.3,0c0,0,0,0,0.1-0.1c0.1-0.1,0.2-0.1,0.2-0.2C341.7,611.6,341.7,611.7,341.7,611.7z M342,613.8 C342,613.8,342,613.8,342,613.8C342,613.8,342,613.8,342,613.8z M343.4,614.1c0.1,0,0.1,0.1,0.1,0.1 C343.5,614.2,343.4,614.2,343.4,614.1z M344.5,619.5c0-0.1,0-0.2,0-0.4c0-0.1,0-0.1,0-0.2c0-0.5,0.1-0.5,0.3-0.5c0,0,0.1,0,0.1,0 c0,0,0,0,0,0.1c0,0.1,0,0.1,0.1,0.1c0,0,0,0,0,0.1c0,0.2,0.1,0.4,0.3,0.4c0,0.1,0.2,0.4,0.2,0.5c-0.1,0-0.2,0.1-0.4,0.1 C344.7,619.7,344.6,619.7,344.5,619.5z M346.4,621.3c-0.2,0.2-0.2,0.2-0.2-0.1c0-0.1-0.1-0.2-0.1-0.2c0-0.2,0-0.3,0.1-0.3 C346.2,620.6,346.3,620.9,346.4,621.3z M347.2,619c0,0.1-0.1,0.2-0.1,0.5c0,0.4-0.1,0.5-0.2,0.5c-0.1,0-0.2-0.2-0.1-0.3 c0.2-0.1,0-0.2-0.2-0.1c-0.1,0-0.2,0.1-0.3,0.3c-0.1,0.4-0.1,0.4-0.3,0.4c-0.1,0-0.2,0-0.2,0.1c0,0.1-0.2,0.2-0.3,0.3 c0-0.1-0.1-0.1-0.1-0.2c0-0.1,0-0.1,0.2-0.2c0.2-0.1,0.3-0.2,0.2-0.3c0,0,0-0.1,0-0.1c0.1-0.1,0.1-0.1,0-0.2 c-0.1-0.1-0.1-0.1-0.2-0.2c0-0.1,0-0.1,0-0.2c0.1-0.1,0.1-0.2,0-0.2c-0.1,0-0.1,0-0.1,0c-0.1-0.1-0.1-0.5,0.1-0.5 c0.1,0,0.1-0.1,0.2-0.2c0.1-0.1,0.2-0.3,0.2-0.3c0.1,0,0.1-0.1,0.1-0.2c0.1,0,0.2,0,0.2,0c0-0.1,0.4-0.2,0.5-0.2 c0.1,0,0.2,0,0.3,0.1c0,0,0,0,0.1,0C347.2,618.3,347.2,618.7,347.2,619z M347.4,616.4c-0.2,0.1-0.2,0.1,0,0.1c0,0.1,0,0.1,0,0.2 c-0.2,0.1-0.3,0.2-0.3,0.4c0,0.2-0.1,0.3-0.3,0.2c0,0-0.1-0.1-0.1-0.1c0-0.4,0-0.5-0.1-0.3c-0.1,0-0.2,0.1-0.3,0.2 c0,0.1,0,0.1-0.1,0.1c0,0-0.1,0.1,0,0.1c0.1,0.2,0.1,0.3,0,0.4c0-0.1-0.1-0.3-0.2-0.4c0.3-0.1,0.3-0.2,0.4-1.3 c0.2,0.5,0.3,0.6,0.4,0.4c0-0.1,0.2-0.2,0.4-0.2C347.3,616.3,347.3,616.3,347.4,616.4L347.4,616.4z M347,611.6 c0.1-0.3,0.1-0.3-0.2-0.3c0-0.1,0-0.1,0-0.1c0-0.1,0-0.4,0-0.4c0.1,0.1,0.2,0.1,0.3,0.1c0,0.2,0,0.4,0,0.5c0,0.2,0.1,0.4,0.1,0.6 c-0.1,0-0.2,0-0.2,0C346.9,611.9,346.9,611.9,347,611.6z M347.8,617.3C347.8,617.3,347.8,617.3,347.8,617.3 C347.8,617.3,347.8,617.3,347.8,617.3z M347.9,617.8c0-0.1,0-0.1,0-0.2c0,0,0.1,0,0.1,0C348,617.7,348,617.8,347.9,617.8 C347.9,617.8,347.9,617.8,347.9,617.8z M346.9,605.1c0,0.5-0.1,0.7-0.2,0.5c0-0.1-0.1-0.2,0-0.4c0-0.3,0-0.3-0.2-0.3 c0-0.1,0-0.3,0-0.4c0,0,0.1,0,0.1,0C346.8,604.6,346.8,604.6,346.9,605.1z M347.1,606c0.1,0,0.1,0.1,0.1,0.1c0,0,0,0.1,0,0.2 C347,606.3,347,606.2,347.1,606z M347.2,606.9C347.2,606.9,347.1,606.9,347.2,606.9C347.2,606.9,347.2,606.9,347.2,606.9 C347.2,606.9,347.2,606.9,347.2,606.9z M348.7,617.4c-0.1,0-0.1,0.1-0.1,0.2c0,0.1,0,0.1-0.1,0.2c-0.1-0.2-0.1-0.5,0-0.5 c0,0,0-0.1,0-0.2c0.1,0,0.1,0.1,0.2,0.1C348.7,617.2,348.7,617.3,348.7,617.4z M348.5,615.3c-0.1,0.1-0.1,0.1-0.1,0.1 c0-0.1,0-0.3-0.1-0.5c0.1,0,0.1,0,0.2,0c0,0,0.1,0,0.2-0.1c0,0.1,0,0.2,0.1,0.3C348.6,615.1,348.6,615.2,348.5,615.3z M348.4,612.8c0,0,0-0.3,0-0.6c0.2,0,0.2,0.1,0.2,0.2C348.5,612.7,348.4,612.9,348.4,612.8z M348.4,612c0-0.3,0-0.6,0.1-0.9 C348.7,611.4,348.6,612,348.4,612z M349.1,615.2c0-0.1,0-0.2,0.1-0.3C349.3,615,349.2,615.1,349.1,615.2z M350.2,615.8 c-0.1,0-0.1,0-0.1,0.2c0,0.1,0,0.2,0.1,0.3c-0.1,0.1-0.3,0.3-0.5,0.4c0-0.1,0-0.1,0-0.2c0-0.7,0-0.7,0.2-0.8 c0.1,0,0.2-0.1,0.3-0.1C350.2,615.6,350.2,615.7,350.2,615.8z M350.6,615.8c0,0-0.1,0-0.2,0c0-0.1,0-0.1,0-0.2c0-0.1,0-0.1,0-0.1 c0,0,0.1,0,0.1,0.1C350.6,615.6,350.6,615.7,350.6,615.8C350.6,615.8,350.6,615.8,350.6,615.8z M352.2,613.4c-0.1,0-0.1,0-0.2,0.1 C351.9,613.4,352,613.3,352.2,613.4C352.2,613.4,352.2,613.4,352.2,613.4z M354.6,616.1c-0.1,0-0.1,0-0.1-0.1c0,0,0.1,0,0.1-0.1 C354.6,616,354.7,616.1,354.6,616.1L354.6,616.1z M360.8,616.7c0,0,0.1-0.1,0.1-0.1c0.1,0-0.1,0.3-0.1,0.3 C360.8,616.8,360.8,616.8,360.8,616.7z M366.1,662.2c-0.1-0.2-0.1-0.4-0.1-0.6c0,0,0.1,0.1,0.1,0.2c0,0.1,0,0.1,0,0.1 C366.3,662,366.2,662.1,366.1,662.2z M361.3,617.7c-0.1,0-0.1-0.1-0.1-0.1c-0.1-0.1-0.1-0.2-0.2-0.4l0.1-0.2c0.1,0,0.1,0,0.1-0.1 c0,0,0-0.1-0.1-0.1l0.1-0.4c0,0,0.1-0.1,0.2-0.1C361.3,616.9,361.3,617.4,361.3,617.7z M361.1,615.2c-0.1-0.1-0.1-0.1,0.1-0.1 c0.1,0,0.2,0,0.2,0.1C361.4,615.3,361.3,615.3,361.1,615.2z M361.5,614.5c-0.3-0.1-0.4-0.1-0.4-0.3c0-0.1,0.2-0.1,0.4,0 C361.5,614.3,361.5,614.4,361.5,614.5z M361.1,611c0-0.1,0-0.1,0-0.2c0.1,0,0.1,0,0.1-0.1c0.1,0,0.2,0,0.2,0 c0,0.1,0.1,0.1,0.1,0.2c-0.1,0.1-0.1,0.1,0,0.1l-0.1,0.1c0-0.1,0-0.1-0.1-0.1c0,0,0,0.1-0.1,0.1c0,0,0,0,0-0.1 C361.4,611,361.4,611,361.1,611C361.2,611,361.2,611,361.1,611z M362.1,617c-0.1,0-0.1-0.3-0.1-0.6c0,0,0.1,0,0.2,0 c0.1,0,0.1,0,0.1,0C362.3,616.5,362.2,616.7,362.1,617z M361.7,610.1C361.7,610.1,361.7,610.1,361.7,610.1c0.1,0,0.1,0.1,0.1,0.1 c0,0,0,0.1,0,0.1C361.7,610.3,361.7,610.2,361.7,610.1z M363,614.2c0,0.1,0.1,0.2,0.1,0.2c-0.1,0.3-0.2,0.6-0.4,1 c-0.1-0.1-0.1-0.1-0.2,0c-0.1-0.1-0.1-0.2-0.1-0.3c0,0,0-0.1,0-0.1c0,0,0.1,0,0.2,0c0.2,0.2,0.4,0.1,0.3-0.3c0-0.2,0-0.4,0-0.4 c0-0.3,0.1-0.6,0.2-0.7c0,0,0-0.1,0-0.2c0,0.1,0,0.1,0,0.2C362.9,613.8,362.9,613.9,363,614.2z M360.7,589.5c0,0,0,0.1,0,0.1 C360.7,589.6,360.7,589.5,360.7,589.5z M363.3,610.7L363.3,610.7c0.1-0.1,0.1-0.1,0.2,0C363.3,610.7,363.3,610.7,363.3,610.7z M365.1,612.4c0-0.1,0-0.1,0-0.2C365.1,612.2,365.1,612.3,365.1,612.4C365.1,612.4,365.1,612.4,365.1,612.4z M365,611 C365,611,365,611,365,611c0-0.1,0.1-0.1,0.1-0.2C365.2,611,365.1,611.1,365,611z M373.2,618.2 C373.2,618.2,373.2,618.2,373.2,618.2c0.1-0.1,0.2-0.1,0.2-0.1C373.4,618.3,373.3,618.3,373.2,618.2z M374.5,618 C374.5,618,374.5,618,374.5,618L374.5,618z M382.7,657.5c0-0.1,0-0.3,0-0.4C382.8,657.2,382.8,657.3,382.7,657.5z M382.9,655.2 c-0.1,0.1-0.2,0-0.2,0c0,0,0,0,0-0.1c0,0,0-0.1,0-0.1c0,0,0-0.2,0-0.4c0.1-0.1,0.3,0,0.4,0.2C383,654.9,382.9,655.1,382.9,655.2z M374.6,581.7c0-0.1,0-0.3,0-0.4C374.8,581.4,374.8,581.5,374.6,581.7z M374.9,579.4c-0.1,0.1-0.2,0-0.2,0c0,0,0,0,0-0.1 c0,0,0-0.1,0-0.1c0,0,0-0.2,0-0.4c0.1-0.1,0.3,0,0.4,0.2C374.9,579.1,374.9,579.3,374.9,579.4z M380.5,584.7 c-0.1-0.1-0.2-0.2,0-0.3c0.1-0.1,0.3,0.1,0.3,0.2C380.7,584.8,380.6,584.8,380.5,584.7z M381.1,584.7c-0.1,0-0.1-0.2,0-0.1 C381.1,584.7,381.1,584.7,381.1,584.7z M402.2,652.9c0,0.2,0,0.3-0.1,0.2c0-0.1,0-0.3,0-0.5C402.2,652.6,402.2,652.6,402.2,652.9z M394.2,577.1c0,0.2,0,0.3-0.1,0.2c0-0.1,0-0.3,0-0.5C394.2,576.8,394.2,576.8,394.2,577.1z M395.9,587.7c0-0.1,0-0.1,0-0.2 c0-0.1,0.1-0.1,0.2-0.2C396,587.6,395.9,587.7,395.9,587.7z M397.6,592c0-0.1,0.1-0.2,0.1-0.4c0,0,0.1,0,0.1,0c0,0,0.1,0,0.1,0.1 c0,0.1,0,0.2-0.1,0.3C397.7,592,397.7,592,397.6,592z M404.9,649.3c0,0.1,0,0.1,0,0.2c-0.1,0.1,0,0.3,0.1,0.4c0,0.3,0,0.6-0.1,0.8 c-0.2,0.4-0.3,0.2-0.3-0.5c0-0.2,0-0.5,0-0.7c0-0.2,0-0.4,0-0.5c0.1-0.1,0.1-0.2,0.2-0.2c0.1,0,0.1,0.1,0.2,0.2 C404.9,649,404.9,649.2,404.9,649.3z M396.9,573.5c0,0.1,0,0.1,0,0.2c-0.1,0.1,0,0.3,0.1,0.4c0,0.3,0,0.6-0.1,0.8 c-0.2,0.4-0.3,0.2-0.3-0.5c0-0.2,0-0.5,0-0.7c0-0.2,0-0.4,0-0.5c0.1-0.1,0.1-0.2,0.2-0.2c0.1,0,0.1,0.1,0.2,0.2 C396.9,573.2,396.9,573.4,396.9,573.5z M409.4,603.1c0-0.1,0-0.2,0-0.2c0.1,0,0.1,0,0.2,0l0.1,0.3 C409.6,603.1,409.5,603.1,409.4,603.1z M454.7,571.5c0.1,0,0.1,0.1,0.1,0.1c0,0,0,0.1,0,0.1c0,0-0.1,0-0.2,0 C454.6,571.7,454.7,571.6,454.7,571.5z M455.5,579.1c0,0,0-0.1,0-0.1c0,0,0-0.1,0-0.1C455.7,579,455.7,579,455.5,579.1z M454.1,575.8c0.1,0,0.1,0.1,0.1,0.2C454.1,576,454,575.9,454.1,575.8C454,575.8,454,575.8,454.1,575.8z M454.6,579.5 c0,0.2,0,0.2-0.1,0.3c0-0.1,0-0.3,0-0.5C454.6,579.3,454.6,579.4,454.6,579.5z M454.6,581.5c0,0,0.1,0,0.1,0c-0.1,0-0.1,0.1,0,0.2 c0,0,0,0.1-0.1,0.1C454.5,581.7,454.5,581.6,454.6,581.5z M452.2,570.6c0.1,0,0.1,0.1,0.1,0.2c0,0,0,0.1,0,0.1 c-0.1-0.1-0.1-0.2-0.1-0.2C452.2,570.6,452.2,570.6,452.2,570.6z M454.5,591c0,0.1,0,0.1,0,0.1c0,0,0,0.1,0,0.1 c-0.1,0.1-0.2,0.1-0.3,0.1c-0.2,0-0.3,0-0.4,0.2c-0.1,0.1-0.1,0.2-0.2,0.1c0-0.1,0-0.2-0.1-0.2c0-0.1,0-0.1,0.1-0.2 c0.1,0.1,0.1,0.1,0.2,0c0.1,0,0.2-0.1,0.3-0.1C454.4,590.9,454.4,590.9,454.5,591z M454,590.6C454,590.6,454,590.5,454,590.6 C454,590.6,454,590.6,454,590.6z M453.1,582.7C453.1,582.7,453.1,582.7,453.1,582.7C453.1,582.7,453.1,582.7,453.1,582.7z M453.3,584.3C453.3,584.3,453.3,584.3,453.3,584.3c0.2,0.2,0.1,0.2-0.1,0.3C453.2,584.5,453.3,584.4,453.3,584.3z M453.4,585.3 c0.1,0,0.1,0.2,0,0.3c-0.1,0-0.1,0-0.1-0.1C453.3,585.4,453.3,585.3,453.4,585.3z M453,587.9c0-0.3,0.1-0.3,0.4,0 c0.1,0,0.1,0.1,0.1,0.2c-0.1,0-0.2,0.1-0.2,0.3c0,0.1-0.3,0.1-0.4,0c0,0,0-0.1,0-0.1C453,588,453,587.9,453,587.9z M453.1,588.9 c0.1,0,0.1,0.1,0.2,0.1c0,0,0,0.1,0,0.1c-0.1,0-0.1,0.1-0.1,0.2c0,0,0,0-0.1-0.1C453,589,453,588.9,453.1,588.9z M450.4,579.9 c0,0.1,0,0.1,0,0.2C450.4,580,450.4,579.9,450.4,579.9z M450.5,583c0.1,0,0.2,0.1,0.4,0.1c0,0,0,0.1,0,0.1c-0.1,0-0.1,0-0.2,0 c-0.2,0-0.2,0-0.3,0.1c-0.1,0-0.1,0-0.1-0.1C450.2,583,450.3,582.9,450.5,583z M450.1,591.7C450.1,591.7,450.1,591.7,450.1,591.7 c0,0.1,0,0.1,0,0.1C450,591.8,450,591.7,450.1,591.7z M450.2,593.7c0-0.1,0.1,0,0.1,0c-0.1,0-0.1,0.1-0.1,0.2 C450.2,593.8,450.2,593.7,450.2,593.7z M448,583.9C448,583.9,448.1,583.9,448,583.9c0.1,0,0.1,0,0.1,0.1c0,0.1,0,0.1,0,0.2 C447.9,584.2,447.9,584,448,583.9z M446.8,591.2c0,0,0.1,0,0.2,0c0.1,0,0.2,0,0.3,0.1c0,0,0.1,0,0.1,0.1c0,0.1-0.1,0.1-0.2,0.1 c-0.1,0-0.2,0-0.2,0c0-0.1-0.1-0.1-0.1-0.2C446.8,591.3,446.8,591.2,446.8,591.2z M447.2,591.8 C447.2,591.8,447.2,591.8,447.2,591.8C447.2,591.8,447.2,591.8,447.2,591.8C447.2,591.8,447.2,591.8,447.2,591.8z M442.8,589 c0-0.1,0-0.2,0-0.2c0,0,0.1,0.1,0.1,0.1c0,0.1,0,0.2,0,0.3c-0.1,0-0.1,0-0.1-0.1C442.8,589.1,442.8,589.1,442.8,589z M438.8,571.2 C438.8,571.2,438.8,571.2,438.8,571.2c0.1,0.1,0.2,0.2,0.3,0.3c0,0,0,0.1-0.1,0.1c0,0,0,0.1-0.1,0.1c0-0.2,0-0.3-0.1-0.3 c-0.2-0.1-0.2,0-0.1,0.2c0.1,0.1,0.1,0.3,0,0.4c0,0-0.1,0-0.1-0.1c0-0.1-0.1-0.3-0.2-0.4C438.4,571.3,438.4,571.3,438.8,571.2z M441.7,595.3c0,0,0.1-0.1,0.1-0.1c0,0,0,0.1,0,0.1C441.8,595.3,441.7,595.3,441.7,595.3z M441.8,596.1c0,0-0.1-0.1-0.1-0.1 C441.8,596,441.8,596.1,441.8,596.1z M439.9,583.7c0,0-0.1,0-0.1,0c0-0.1,0-0.2,0.1-0.3c0.1,0,0.1-0.1,0.2-0.1 C440,583.7,440,583.7,439.9,583.7z M440,584.3c-0.1,0-0.1-0.1-0.2-0.3c0,0,0-0.1,0-0.1C440.1,584,440.1,584,440,584.3z M439,578.3 c-0.2-0.2-0.1-0.3,0.3-0.3c0.3,0,0.4,0.1,0.3,0.3C439.3,578.3,439.1,578.3,439,578.3z M437.5,568.2c0,0,0,0.1,0,0.3 c0,0.2-0.1,0.3-0.2,0.2c-0.1,0-0.1,0-0.1,0C437.3,568.5,437.4,568.4,437.5,568.2z M437,569.3C437,569.3,437.1,569.2,437,569.3 c0,0,0,0.1,0,0.3c0,0-0.1-0.1-0.1-0.1C436.9,569.3,437,569.3,437,569.3z M437.4,574.1c0.1-0.5,0.1-0.6,0.3-0.3 c0.2,0.3,0.4,0.1,0.4-0.5c0-0.3,0-0.5,0-0.7c0.1,0,0.2,0,0.2-0.2c0.1-0.3,0.4-0.2,0.4,0.1c0,0.1,0,0.5-0.1,0.8 c0,0.3-0.1,0.6-0.1,0.6c-0.1,0.1-0.3-0.1-0.3-0.3c-0.1,0-0.1,0.1-0.1,0.2c0,0.1,0,0.2-0.1,0.2c-0.1,0.1-0.2,0.2-0.2,0.4 c0,0.1,0,0.1,0,0.2c0-0.1-0.1-0.2-0.3-0.1c-0.1,0.1-0.1,0.2,0,0.3c0,0,0,0.1,0,0.1c0,0,0,0-0.1,0c-0.1-0.1-0.1-0.3-0.1-0.5 C437.4,574.3,437.4,574.2,437.4,574.1z M437,576.4c0.1,0.1,0.2,0,0.3-0.5c0.1-0.3,0.2-0.5,0.1-0.7c0.2,0,0.3,0,0.3,0.1 c0.1,0.1,0.2,0.1,0.3,0.1c0.1,0,0.2,0,0.2,0.1c0,0.3,0,0.6,0,0.9c0,0.1-0.1,0.2-0.2,0.1c0-0.1,0-0.2,0-0.4c0-0.3,0-0.3-0.2-0.3 c-0.2,0-0.3,0.5-0.2,1c0,0.2,0,0.3-0.1,0.5c0-0.3-0.1-0.6-0.3-0.4c-0.1,0.1-0.1,0.1-0.1,0.2c0,0.2-0.2,0.3-0.3,0.1 C437,577.2,437,576.8,437,576.4z M436.6,573.6C436.6,573.6,436.6,573.6,436.6,573.6c0.1,0.1,0,0.4,0,0.6c-0.1,0-0.1,0-0.2,0 C436.5,574.1,436.5,573.9,436.6,573.6z M436.4,580.6c0.2,0,0.2-0.2,0.2-0.3c0.1-0.1,0.2-0.3,0.2-0.3c0-0.3,0.2-0.3,0.3,0 c0.2,0.5,0.3,0.2,0.5-1.1c0-0.4,0.1-0.9,0.1-1.2c0.1,0.2,0.1,1.1,0,1.3c-0.1,0.2,0,0.6,0.1,0.6c0.2,0,0.3-0.6,0.3-1.2 c0-0.5,0.1-0.8,0.2-0.8c-0.2,1.1-0.1,1.8,0.1,1.8c0,0,0.1,0,0.2,0.1c0,0,0.1,0,0.1,0c0.1,0.1,0.1,0.1,0.1,0.2c0,0.5,0,0.8,0.1,1 c0,0.1,0,0.2-0.1,0.2c-0.1,0.1-0.3-0.1-0.2-0.4c-0.1,0-0.1,0.1-0.1,0.2c0,0.1,0,0.2-0.1,0.2c-0.1,0.1-0.2,0.2-0.2,0.4 c0,0.3-0.1,0.4-0.2,0.5c-0.1-0.2-0.1-0.4,0-0.7c0.1-0.4,0-1-0.1-1c-0.1,0-0.1,0.1,0,0.2c0,0.1,0,0.1,0,0.2c0,0.1-0.1,0.3-0.1,0.5 c0,0.4,0,0.4-0.2,0.5c-0.1,0-0.1,0.1-0.2,0.2c0-0.4-0.1-0.5-0.5-0.5c-0.2,0-0.3-0.1-0.4-0.1c0-0.1,0-0.2-0.1-0.3 c0-0.1-0.1-0.1-0.1-0.2C436.3,580.7,436.4,580.7,436.4,580.6z M445.6,644c0,0,0,0.1,0,0.2c0,0.2-0.1,0.3-0.2,0.2 c-0.1,0-0.1,0-0.1,0C445.4,644.3,445.5,644.2,445.6,644z M439.7,595.7c0-0.1,0.1-0.2,0.1-0.2c0.1,0,0.1,0.1,0.1,0.2 c0,0.1-0.1,0.1-0.1,0.2C439.7,595.9,439.7,595.8,439.7,595.7z M434.4,573.1C434.4,573.1,434.5,573.2,434.4,573.1 c0.1,0.1,0,0.1,0,0.1C434.3,573.3,434.3,573.1,434.4,573.1z M435.4,581.1C435.4,581.1,435.4,581.1,435.4,581.1 C435.4,581.1,435.4,581.1,435.4,581.1z M435,584.5c-0.1,0.1-0.1,0-0.2,0C435,584.2,435.2,584.3,435,584.5z M435.7,595.3 c0.1,0.1,0.1,0.3-0.1,0.3C435.6,595.6,435.7,595.5,435.7,595.3z M432.7,571.8c0,0.1,0,0.1-0.1,0.2 C432.6,571.9,432.7,571.8,432.7,571.8z M433.8,581.8c0,0.2-0.1,0.4-0.3,0.4c-0.1,0-0.2,0-0.2,0.1c0,0.1,0.1,0.2,0.2,0.2 c0.1,0,0.2,0.1,0.2,0.2c0,0.1,0,0.1,0,0.2c-0.2,0.2-0.3,0.1-0.4-0.2c-0.2-0.5-0.2-0.5-0.1-0.7 C433.4,581.7,433.5,581.7,433.8,581.8C433.8,581.8,433.8,581.8,433.8,581.8z M434.7,591.3c0-0.1,0.1-0.2,0.2,0 C434.8,591.3,434.7,591.3,434.7,591.3z M434.9,592C434.9,592,434.9,592,434.9,592C434.8,592,434.8,592,434.9,592 C434.8,591.9,434.8,592,434.9,592z M434.5,593.6c0-0.1,0-0.1,0-0.2c0-0.1,0.1-0.1,0.1-0.1c0.1-0.1,0.1-0.1,0.2,0 c0.1,0.3,0.1,0.3-0.2,0.3C434.6,593.6,434.6,593.6,434.5,593.6z M434.7,594.6c0,0,0,0.1,0,0.2 C434.7,594.7,434.7,594.6,434.7,594.6z M433.4,584.5c-0.1,0-0.1-0.2-0.1-0.4c0.3-0.1,0.3,0,0.4,0.1c0,0.1,0,0.2,0,0.2 c0,0-0.1,0-0.1,0C433.5,584.5,433.5,584.5,433.4,584.5z M432.8,577.3c0.1,0,0.1,0.1,0.2,0.1c0,0.2,0,0.2-0.1,0.2 C432.8,577.6,432.8,577.5,432.8,577.3C432.8,577.4,432.8,577.3,432.8,577.3z M432.9,576.6c0,0.1-0.2,0.2-0.3,0.3 C432.5,576.7,432.5,576.7,432.9,576.6C432.9,576.6,432.9,576.6,432.9,576.6z M431.2,573.9c0,0,0.1,0,0.2-0.1 c0.1-0.2,0.1-0.4,0.1-0.5c0-0.1,0.1-0.1,0.2-0.1c0.1,0,0.3-0.1,0.3-0.2c0-0.1,0.1-0.1,0.3-0.1c0,0.1-0.1,0.3-0.2,0.3 c-0.1,0.1-0.2,0.2-0.2,0.4c-0.1,0-0.1,0.1-0.1,0.2c0,0.1,0,0.1,0,0.2c0,0-0.1,0-0.1,0.1c-0.1,0.1-0.3,0.1-0.5,0.2 C431.2,574,431.2,573.9,431.2,573.9z M432.5,588.7c0,0,0.1-0.2,0.1-0.3c0.1-0.3,0.2-0.3,0.4,0c0.1,0.2,0.1,0.4,0.1,0.6 c0,0,0-0.1,0-0.1c0-0.3-0.2-0.3-0.3-0.1C432.8,589.1,432.5,589.1,432.5,588.7C432.5,588.8,432.5,588.8,432.5,588.7z M431.7,581.2 c0.1,0.1,0.2,0.1,0.3,0.1c0.2,0,0.2,0.1,0.2,0.2c0,0-0.1,0-0.1,0C431.8,581.5,431.7,581.4,431.7,581.2z M432.1,582.3 c0-0.1-0.1-0.2-0.2-0.2c0,0,0-0.1,0-0.1c0-0.1,0-0.1,0-0.1c0,0.1,0.1,0.2,0.1,0.3C432.1,582.2,432.1,582.3,432.1,582.3z M433.7,599.6c0,0,0.1-0.1,0.1-0.1C433.8,599.6,433.7,599.7,433.7,599.6C433.7,599.7,433.7,599.7,433.7,599.6z M432.7,591.9 c0-0.3,0.1-0.3,0.2,0c0,0.1,0,0.1,0.1,0.1c-0.1,0-0.1,0.1-0.2,0.1C432.7,592,432.7,592,432.7,591.9z M433.6,598.6 c0-0.2,0-0.3-0.1-0.3c0-0.2,0-0.3,0-0.5c0,0,0-0.1,0-0.2c0.1-0.5,0.3-0.4,0.2,0.1c0,0.3,0,0.5,0.2,0.7c0.1,0.1,0.1,0.3,0.1,0.4 c-0.1,0.1-0.1,0.1-0.1,0.3C433.7,599.1,433.6,598.9,433.6,598.6z M433.4,593.8c0.1,0,0.1,0.1,0.1,0.2c0,0,0,0.1,0,0.1 C433.4,594,433.4,593.9,433.4,593.8L433.4,593.8z M433.5,595.2c0-0.1,0.1-0.1,0.2-0.1c0,0,0,0,0,0.1c0,0.1,0,0.2-0.1,0.3 C433.6,595.3,433.6,595.3,433.5,595.2z M432,584.1c0,0.1,0,0.2,0,0.2C431.9,584.3,431.9,584.2,432,584.1z M431.6,581.8 c0,0.1-0.1,0.1-0.1,0.2c-0.1-0.1-0.1-0.1-0.1-0.2C431.4,581.8,431.5,581.8,431.6,581.8z M430.6,580c0.1,0,0.1,0,0.2,0 c0,0.1,0,0.1,0,0.2C430.7,580.1,430.7,580,430.6,580C430.6,580,430.6,580,430.6,580z M430.7,581.1c0.1,0,0.3,0,0.4,0 c-0.1,0.1-0.1,0.1-0.1,0.2c-0.2,0-0.2,0-0.3,0C430.7,581.3,430.7,581.2,430.7,581.1z M429.7,588.8c0,0,0.1,0,0.1,0c0,0,0,0,0-0.1 c0.1,0,0.1,0,0.2,0.1c0.1,0.1,0.3,0.1,0.3,0.1c0.2,0.1,0,0.2-0.2,0.2c-0.1,0-0.2,0-0.2,0c0,0-0.2,0-0.3,0 C429.6,589,429.6,588.8,429.7,588.8z M430.1,589.7c0-0.1-0.1-0.2-0.2-0.2c0,0,0,0.1-0.1,0.1c-0.1-0.1-0.2-0.1-0.2-0.2 c0,0,0.1,0,0.1,0c0,0,0.1,0,0.2-0.1c0.1-0.1,0.1-0.1,0.2,0c0,0.1,0.2,0.2,0.3,0.3c0.2,0.1,0.2,0.3,0.1,0.5 C430.5,589.8,430.4,589.7,430.1,589.7z M426.3,590.4c0.1,0.2,0,0.3,0,0.4c0,0,0,0.1,0,0.1c0,0-0.1,0-0.1,0 C426.2,590.8,426.3,590.6,426.3,590.4z M425.2,597l0.1,0.2C425.3,597.2,425.2,597.1,425.2,597C425.2,597,425.2,597,425.2,597z M422.3,581.6c0,0,0,0.1,0,0.1c0,0,0,0,0,0.1C422.2,581.7,422.2,581.7,422.3,581.6C422.2,581.6,422.3,581.6,422.3,581.6z M416.7,562.3c0,0,0.1,0.1,0.1,0.1c0.1,0.2,0,0.3-0.2,0.2C416.6,562.6,416.6,562.3,416.7,562.3z M418.9,594.2 C419,594.2,419,594.3,418.9,594.2C418.9,594.2,418.9,594.2,418.9,594.2z M419,595c0,0,0.1-0.1,0.1-0.1c0,0,0,0,0.1-0.1 C419.1,594.9,419.1,595,419,595C419,595.1,418.9,595.1,419,595C418.9,595,418.9,595,419,595z M415.9,572c-0.1-0.1-0.1-0.2-0.1-0.3 c0.1,0.1,0.1,0.2,0.3,0.4c0,0.1,0,0.3,0,0.4c-0.1-0.1-0.1-0.1-0.1-0.2C416,572.2,416,572.1,415.9,572z M416,573.7 C416,573.6,416,573.6,416,573.7C416,573.7,416,573.7,416,573.7z M416.5,579c-0.1,0.1-0.1,0.2-0.1,0.4c0,0,0,0.1,0,0.1 c0-0.3,0-0.6,0.1-0.6c0,0,0-0.1,0.1-0.2C416.6,578.6,416.6,578.8,416.5,579z M415.7,573.4c0-0.1,0-0.2,0-0.3c0.1,0,0.1,0,0.2,0 c0,0.1,0.1,0.1,0.1,0.2C415.9,573.4,415.9,573.4,415.7,573.4z M415.9,572.9C415.8,573,415.8,573,415.9,572.9c-0.1-0.2,0-0.4,0-0.6 c0,0.1,0,0.2,0,0.3C415.8,572.7,415.8,572.8,415.9,572.9z M415.1,573.1c0.1-0.6,0.2-1.1,0.3-1.3c0-0.1,0.1-0.4,0.1-0.6 c0-0.3,0-0.5,0.1-0.6c0.2-0.3,0.3-0.1,0.2,0.5c0,0.2,0,0.3,0,0.5c0,0,0,0-0.1,0.1c-0.1,0.3-0.1,1-0.1,1.8c0,0,0,0,0,0.1 c-0.2,0-0.4,0.1-0.6,0.2C415.1,573.4,415.1,573.2,415.1,573.1z M423.9,648.7C423.9,648.7,423.8,648.7,423.9,648.7 c-0.1-0.2,0-0.4,0-0.6c0,0.1,0,0.2,0,0.3C423.8,648.5,423.8,648.6,423.9,648.7z M423.7,647.4c-0.1,0.3-0.1,1-0.1,1.8 c0,0,0,0,0,0.1c-0.2,0-0.4,0.1-0.6,0.2c0-0.2,0-0.4,0-0.5c0.1-0.6,0.2-1.1,0.3-1.3c0-0.1,0.1-0.4,0.1-0.6c0-0.3,0-0.5,0.1-0.6 c0.2-0.3,0.3-0.1,0.2,0.5C423.8,647,423.8,647.2,423.7,647.4C423.8,647.3,423.7,647.3,423.7,647.4z M417.3,597.5 c0.1,0,0.1,0,0.2,0c0.2,0,0.2,0.1,0.1,0.2c0,0-0.1,0-0.1,0c0,0-0.1,0-0.1-0.1C417.4,597.6,417.4,597.5,417.3,597.5z M418,597 c0,0-0.1,0.1-0.1,0.3c-0.2-0.1-0.3-0.1-0.4,0c-0.1,0.1-0.3,0-0.6-0.1c0-0.1,0.1-0.1,0.2-0.1c0.1,0,0.2,0,0.2-0.2 c0.1,0,0.1,0,0.2-0.1c0.1-0.1,0.2-0.1,0.3-0.2c0,0,0.1,0.1,0.2,0.1C418.1,596.7,418.1,596.9,418,597z M416.4,597c0,0,0-0.1,0-0.1 c0.1,0,0.2,0.1,0.2,0.1c0,0,0,0,0,0.1c0,0,0,0-0.1,0C416.4,597,416.4,597,416.4,597z M416.5,598.2c-0.1,0-0.1,0-0.2,0 c0-0.1,0-0.2,0-0.3C416.6,597.9,416.7,598,416.5,598.2z M415.9,593.3c0-0.1,0-0.1,0-0.2C416,593.2,416,593.3,415.9,593.3z M415.6,589.1c0.1,0.2,0.1,0.2,0,0.3c0,0,0-0.1,0-0.1C415.6,589.2,415.6,589.1,415.6,589.1L415.6,589.1z M416,592.2 c0.1,0,0.1,0,0.2,0c0.1,0,0.1,0,0.2,0c0,0.1-0.1,0.1-0.1,0.1C416.2,592.3,416.1,592.3,416,592.2L416,592.2z M416.4,591 c0.1,0,0.2,0,0.2,0c0,0,0,0.1,0,0.1c-0.1,0-0.1,0.1-0.1,0.1C416.1,591,416.1,591,416.4,591z M416.4,590.3c0.1,0.1,0.1,0.2,0.1,0.2 C416.2,590.6,416.1,590.4,416.4,590.3z M416.4,592.8C416.4,592.7,416.4,592.7,416.4,592.8c0.1,0,0.1,0.1,0.1,0.2 C416.4,592.9,416.4,592.9,416.4,592.8C416.4,592.8,416.4,592.8,416.4,592.8z M416.5,593.8C416.5,593.8,416.5,593.8,416.5,593.8 c-0.1,0-0.1,0-0.1,0c0-0.1,0-0.1,0-0.2C416.5,593.7,416.5,593.8,416.5,593.8z M416.5,594.4c0.2-0.2,0.3-0.2,0.4-0.1 c0,0,0,0-0.1,0.1c-0.1,0.1-0.2,0.2-0.2,0.2c0,0,0,0-0.1,0C416.5,594.5,416.5,594.5,416.5,594.4z M415.5,580.3c0,0,0-0.1,0-0.2 c0,0,0.1,0,0.1,0c0,0.3-0.1,0.6-0.1,0.8C415.5,580.5,415.5,580.3,415.5,580.3z M416.9,592.8c0,0,0,0.1,0,0.2c0,0.1,0,0.1,0,0.2 C416.9,592.9,416.9,592.8,416.9,592.8z M415,574.1c0.2,0.1,0.2,0.1,0,0.2c0,0,0,0-0.1,0C415,574.3,415,574.2,415,574.1z M414.7,578c0.1-0.2,0-0.3,0-0.5c0-0.1,0-0.2,0-0.3c0.1-0.5,0.2-0.9,0.2-1.4c0,0,0.1,0.1,0.1,0.2c0,0.2,0.2,0.3,0.4,0.3 c0,0.5,0,1-0.1,1.4c0,0.1,0,0.2,0,0.3c-0.1,0-0.2,0-0.2,0.1c0,0.1-0.1,0.1-0.2,0.1c-0.1,0-0.1,0-0.1,0.1c0,0-0.1,0-0.1,0 C414.6,578.2,414.7,578.1,414.7,578z M414.8,578.7c0.1,0,0.2-0.1,0.2-0.1c0,0.1,0.1,0.2,0.1,0.2c0,0.1,0,0.2,0,0.3 c-0.3,0-0.5-0.1-0.5-0.2C414.6,578.7,414.7,578.7,414.8,578.7z M416.1,591.5c0,0.2,0,0.2-0.1,0.2c-0.1,0-0.1-0.1-0.1-0.1 C415.9,591.6,416,591.5,416.1,591.5C416.1,591.5,416.1,591.5,416.1,591.5z M414.4,581.4c0,0.1,0,0.1,0,0.1 C414.4,581.5,414.4,581.4,414.4,581.4z M414.5,582.3c0-0.1,0-0.2,0-0.2C414.5,582.1,414.5,582.2,414.5,582.3 c0.1,0.1,0.1,0.1,0.1,0.2c-0.1,0-0.1,0.1-0.1,0.2C414.5,582.5,414.5,582.4,414.5,582.3z M414.5,582.8c0,0.1,0.1,0.2,0.2,0.2 c0.1,0.1,0.1,0.2,0.1,0.2c0,0.1,0,0.1,0.1,0.1c0.2,0,0.2,0.1,0,0.2c-0.1,0-0.1,0-0.2,0c0-0.1-0.1-0.1-0.1-0.1c0,0-0.1,0-0.1,0 C414.5,583.2,414.5,583,414.5,582.8z M414.2,584.3c0.1,0.1,0.1,0.1-0.1,0.2C414.1,584.4,414.2,584.3,414.2,584.3z M413.3,600.5 c0-0.1,0.1-0.1,0.1-0.2c0,0,0-0.1,0-0.1c0-0.1,0-0.2,0.1-0.2C413.5,600.1,413.4,600.4,413.3,600.5c0.1,0.1,0.1,0.1,0,0.1 C413.2,600.6,413.2,600.6,413.3,600.5z M411,590.7c-0.1-0.1-0.1-0.2,0-0.2C411,590.5,411,590.6,411,590.7z M412.9,603.3 c-0.2,0-0.2,0.1-0.2,0.2c0,0,0-0.1,0-0.2c0-0.3,0.1-0.4,0.2-0.3c0,0,0.1,0.1,0,0.2C412.9,603.3,412.9,603.3,412.9,603.3z M411.1,587.3c0,0.1-0.1,0.1-0.2,0.2c0-0.1,0-0.2,0-0.2C411,587.3,411,587.3,411.1,587.3C411.1,587.3,411.1,587.3,411.1,587.3 C411.1,587.2,411.1,587.3,411.1,587.3z M413.3,603.2c0,0-0.1,0.1-0.1,0.1c0.1-0.1,0.1-0.3,0.1-0.5c0,0,0-0.1,0-0.1 C413.3,602.8,413.3,603,413.3,603.2z M419.2,651.6c-0.1-0.1-0.1-0.1-0.1-0.2C419.3,651.4,419.3,651.5,419.2,651.6z M419.6,653.1 c-0.1-0.1-0.2-0.2-0.1-0.4c0-0.1,0.1-0.1,0.1-0.1C419.6,652.7,419.6,652.9,419.6,653.1z M413.5,598.7c0,0.2,0,0.3,0,0.4 c0,0,0,0.1,0,0.1c0-0.2,0-0.4,0.1-0.7C413.5,598.6,413.5,598.6,413.5,598.7z M411.2,575.8c-0.1-0.1-0.1-0.1-0.1-0.2 C411.2,575.6,411.3,575.7,411.2,575.8z M411.5,577.3c-0.1-0.1-0.2-0.2-0.1-0.4c0-0.1,0.1-0.1,0.1-0.1 C411.6,576.9,411.5,577.1,411.5,577.3z M414.4,591.1c-0.2,0-0.2,0.3,0,0.3c-0.1,0.1-0.1,0-0.2-0.1c-0.1-0.1-0.1-0.3-0.1-0.5 c0.1,0,0.3,0,0.4,0C414.4,590.9,414.4,591,414.4,591.1z M414.5,590c0-0.1,0-0.2,0-0.3C414.5,589.8,414.5,589.9,414.5,590z M414.5,588.8c0,0-0.1,0.2-0.1,0.4c0-0.2,0-0.5,0.1-0.7c0,0,0,0,0,0.1C414.5,588.7,414.5,588.8,414.5,588.8z M414.7,588.3 c0,0.2,0,0.4-0.1,0.6c0,0,0,0,0,0.1c0-0.3,0-0.6-0.1-0.6c0-0.1,0-0.2,0.1-0.3c0,0,0.1,0,0.1,0.1 C414.7,588.1,414.7,588.2,414.7,588.3C414.7,588.2,414.7,588.3,414.7,588.3z M414.5,585.3c0,0.1,0,0.2,0,0.2 c-0.1-0.1-0.1-0.2-0.1-0.2c0-0.1,0-0.1,0-0.1c0,0-0.1,0.1-0.1,0.2c-0.1,0-0.1,0-0.1,0.1c0-0.1,0-0.3,0-0.5c0,0,0,0,0.1,0 c0.2,0,0.3,0.1,0.3,0.1C414.5,585.2,414.5,585.3,414.5,585.3z M423.2,654.8c-0.3,0-0.5-0.1-0.5-0.2c0-0.1,0.1-0.1,0.2-0.1 c0.1,0,0.2-0.1,0.2-0.1c0,0.1,0.1,0.2,0.1,0.2C423.2,654.6,423.2,654.7,423.2,654.8z M423.3,653.6c0,0.1,0,0.2,0,0.3 c-0.1,0-0.2,0-0.2,0.1c0,0.1-0.1,0.1-0.2,0.1c-0.1,0-0.1,0-0.1,0.1c0,0-0.1,0-0.1,0c0-0.2,0.1-0.4,0.1-0.4c0.1-0.2,0-0.3,0-0.5 c0-0.1,0-0.2,0-0.3c0.1-0.5,0.2-0.9,0.2-1.4c0,0,0.1,0.1,0.1,0.2c0,0.2,0.2,0.3,0.4,0.3C423.4,652.7,423.4,653.2,423.3,653.6z M423.1,650.1c-0.1,0,0-0.1,0-0.2C423.2,650,423.2,650,423.1,650.1z M424.5,654.8c-0.1,0.1-0.1,0.2-0.1,0.4c0,0,0,0.1,0,0.1 c0-0.3,0-0.6,0.1-0.6c0,0,0-0.1,0.1-0.2C424.6,654.4,424.6,654.6,424.5,654.8z M424.1,649.5C424,649.5,424,649.5,424.1,649.5 C424,649.4,424.1,649.4,424.1,649.5C424.1,649.4,424.1,649.5,424.1,649.5z M424.1,649.1c-0.1,0.1-0.2,0.1-0.3,0.1 c0-0.1,0-0.2,0-0.3c0.1,0,0.1,0,0.2,0C424,649,424.1,649,424.1,649.1L424.1,649.1z M424.1,648.3c-0.1-0.1-0.1-0.1-0.1-0.2 c0-0.1,0-0.2-0.1-0.2c-0.1-0.1-0.1-0.2-0.1-0.3c0.1,0.1,0.1,0.2,0.3,0.4C424.1,648,424.1,648.2,424.1,648.3z M416.9,586.4 c0-0.1,0-0.1,0-0.2c0-0.1,0.1-0.1,0.1-0.2c0,0,0,0,0.1,0.1C417.1,586.3,417.1,586.4,416.9,586.4z M416.9,584.7 C416.9,584.7,416.9,584.7,416.9,584.7c0.3-0.2,0.3-0.2,0.2-0.5c0-0.2-0.1-0.4-0.2-0.5c0,0,0,0-0.1-0.1c0.1,0,0.1,0,0.3,0 c0.4,0.1,0.5,0.3,0.3,0.7c-0.1,0.2-0.1,0.3-0.2,0.3c0,0-0.1,0-0.2,0C416.9,584.8,416.9,584.8,416.9,584.7z M418.8,597.1 c-0.1,0-0.1-0.1-0.1-0.2c0.1,0,0.2,0.1,0.2,0.1c0,0,0,0.1,0.1,0.1C418.9,597,418.9,597.1,418.8,597.1z M418.9,597.8 c0,0.1-0.1,0.1-0.1,0.2C418.7,597.9,418.7,597.8,418.9,597.8C418.9,597.8,418.9,597.8,418.9,597.8z M419,600.2 c0.1,0,0.1-0.1,0.1-0.1c0,0.1,0,0.2,0,0.4C419.1,600.4,419,600.3,419,600.2z M423.9,642.2c0-0.2,0.2-0.1,0.2,0.1 C424,642.4,423.9,642.3,423.9,642.2z M419.5,600c-0.1-0.1-0.2-0.1-0.3-0.1c0,0-0.1,0-0.1,0c-0.1,0-0.1,0-0.2,0c0,0,0-0.1-0.1-0.1 c0,0-0.1-0.1-0.1-0.1c0.2,0,0.4-0.2,0.5-0.4c0,0,0.1,0,0.1,0c0,0.2,0,0.4,0.1,0.6c0,0.1,0,0.1,0.1,0.2 C419.6,600,419.6,600,419.5,600z M419.2,596.1c0-0.1,0-0.1,0-0.2C419.3,596,419.3,596,419.2,596.1 C419.3,596.1,419.3,596.1,419.2,596.1z M415.9,566.4c0-0.2,0.2-0.1,0.2,0.1C415.9,566.6,415.9,566.5,415.9,566.4z M419.4,595.1 c0-0.1,0-0.1,0-0.2C419.4,594.9,419.4,595,419.4,595.1z M419.8,597c0.1-0.1,0.2-0.6,0-0.7c0-0.3,0-0.4,0-0.5c0,0,0.1,0,0.1,0 c0.1-0.1,0.1-0.1,0-0.2c0,0,0.1,0,0.1,0c0,0,0.1,0,0.2,0c0,0.1,0,0.1,0,0.2c0,0,0,0,0,0.1c0,0.1,0,0.2,0,0.2 c0,0.1-0.1,0.3-0.1,0.5c0,0.1,0,0.2-0.1,0.3C420,597,419.9,597,419.8,597z M419.9,594.5c-0.1-0.1-0.1-0.2-0.1-0.2 c0,0,0.1-0.1,0.1-0.1c0,0,0,0.1,0,0.1C419.9,594.4,419.9,594.5,419.9,594.5z M420,595.1c0-0.1,0.1-0.1,0.2-0.1 c0.1,0,0.1,0.1,0.1,0.2C420.2,595.2,420.1,595.2,420,595.1C420,595.1,420,595.1,420,595.1z M424.7,638.4c-0.1-0.1-0.1-0.3,0-0.3 c0,0,0.1,0.1,0.1,0.1C424.9,638.4,424.8,638.5,424.7,638.4z M420.7,601.2c0,0-0.1,0-0.2,0l0-0.3c0,0.1,0,0.1,0.1,0.2 C420.7,601.2,420.7,601.2,420.7,601.2z M420.8,600.4c-0.1,0-0.1,0.1-0.2,0.1l0.1-0.5l-0.2,0.5c0-0.2,0-0.3,0-0.4 c0-0.1,0.1-0.1,0.1-0.3c0.1,0,0.1,0,0.2,0l0,0.1l0-0.1c0.1,0,0.1,0.1,0.1,0.2c0,0.1,0,0.1,0,0.1 C420.9,600.2,420.8,600.3,420.8,600.4z M420.3,594.5c-0.1,0.1-0.2,0-0.2-0.2c0-0.1,0-0.1,0-0.1c0,0,0.1,0,0.2-0.1 c0.1-0.1,0.1-0.1,0.1,0C420.4,594.3,420.3,594.4,420.3,594.5z M420.5,593.8c-0.1,0-0.2,0-0.2,0c-0.1,0.1-0.8,0-0.9-0.1 c-0.2-0.2,0-0.4,0.2-0.2c0.1,0.1,0.2,0.1,0.3,0c0,0.2,0,0.3,0.1,0.3c0,0,0.1-0.1,0.1-0.3c0.1,0,0.1,0,0.2,0.1c0,0,0.1,0,0.1,0.1 C420.5,593.6,420.5,593.7,420.5,593.8z M421.3,600.4c0-0.1,0-0.1,0-0.1c0.1,0,0.2,0,0.3,0c0.1,0.1,0.2,0.1,0.3,0.2 C421.7,600.4,421.5,600.4,421.3,600.4z M420.9,590.9c0,0.4-0.1,0.5-0.3,0.6c0,0,0,0,0-0.1c0-0.1,0-0.3,0-0.4 c-0.1-0.5,0.1-0.7,0.3-0.4C420.9,590.7,420.9,590.8,420.9,590.9z M421,591.4c0-0.1,0-0.1,0-0.2c0,0,0,0.1,0,0.1 C421.1,591.4,421.1,591.4,421,591.4z M421.2,586.6c0,0-0.1,0-0.1,0c-0.1,0.1-0.2,0.1-0.3,0.1c0,0,0-0.1,0-0.1 c-0.1,0-0.1,0-0.1-0.1c0-0.1,0-0.2-0.2-0.2c0,0-0.1,0-0.1,0c0-0.1-0.1-0.1-0.1-0.2c0-0.1,0.1-0.1,0.3,0c0.1,0.1,0.4,0.1,0.7,0.2 C421.3,586.5,421.3,586.6,421.2,586.6z M421.2,583.3c-0.1,0-0.1,0-0.1,0.1c-0.2-0.2-0.2-0.3,0.1-0.5 C421.4,583,421.5,583.2,421.2,583.3z M422.3,586.6c-0.1,0-0.1,0-0.2,0c-0.2,0-0.2-0.2-0.1-0.3c0.1-0.1,0.2-0.1,0.3-0.1 L422.3,586.6z M424.5,602.9C424.4,602.9,424.4,602.8,424.5,602.9l-0.2-0.1c0,0,0,0,0.1,0C424.5,602.8,424.5,602.8,424.5,602.9 C424.5,602.9,424.5,602.9,424.5,602.9z M424.9,599.2c0,0-0.1,0-0.1,0.1c-0.2,0.2-0.5,0.2-0.6,0.1c0.2,0,0.2,0,0.4-0.1 c0.1,0,0.2-0.1,0.3-0.2C424.9,599.2,424.9,599.2,424.9,599.2z M425.6,603.2C425.6,603.2,425.6,603.1,425.6,603.2 C425.6,603.1,425.6,603.2,425.6,603.2z M425,598.3C424.9,598.2,424.9,598.2,425,598.3c-0.1-0.1-0.1-0.2-0.1-0.3c0,0,0,0,0-0.1 c0.1,0,0.2-0.1,0.2-0.2c0.3,0,0.2-0.1,0-0.1c0-0.1,0-0.2-0.1-0.2c0,0,0-0.1,0-0.1c0,0,0.1,0.1,0.2,0.1c0.1,0,0.1,0,0.2,0 c0,0.2,0,0.3-0.2,0.5C425.1,598.1,425,598.2,425,598.3z M426.2,602.1c0,0.1,0,0.2-0.1,0.2c0-0.1-0.1-0.2-0.2-0.3l-0.2,0 c0-0.3,0-0.5-0.1-0.7c0.4,0,0.3-0.3,0-0.3c-0.1-0.2-0.1-0.4-0.1-0.6c0-0.2,0-0.4-0.1-0.5c0.2-0.1,0.2-0.2,0.1-0.2 c0,0,0.1-0.1,0.1-0.1c0.1,0,0.1,0,0.1,0l0.1,0.2c0,0.1,0,0.1,0,0.1l0.3,1.3c0,0,0,0.1,0,0.2c0,0.1,0,0.2,0.1,0.2 C426.3,601.8,426.2,602,426.2,602.1z M426.1,593.6c0,0-0.1-0.7-0.1-0.7c0,0.2,0.1,0.4,0.2,0.5 C426.3,593.5,426.3,593.5,426.1,593.6z M426.9,594.5c-0.1,0.4-0.1,0.5-0.2,0.5c-0.1,0-0.1,0-0.1-0.1c0-0.1,0-0.1,0.1-0.2 c0.1-0.1,0.1-0.1,0-0.1c0-0.1,0-0.1,0-0.2c0-0.2,0.1-0.3,0.2-0.2C426.9,594.4,426.9,594.4,426.9,594.5z M427.3,591.7 c0,0.1-0.1,0.2-0.1,0.3c0,0,0-0.1,0-0.1C427.2,591.7,427.2,591.7,427.3,591.7z M427,580.3c0,0.1,0,0.1,0,0.2c0,0-0.1,0-0.1,0 c0-0.1,0-0.1-0.1-0.2c0,0,0-0.1,0.1-0.1C426.8,580.1,426.9,580.2,427,580.3C427,580.3,427,580.3,427,580.3z M427.6,585.7 c0-0.1-0.1-0.2-0.1-0.4c0,0.1,0.1,0.1,0.1,0.2C427.8,585.6,427.8,585.6,427.6,585.7z M427.6,583.2c-0.1,0-0.1,0.1-0.2,0.2 c-0.1-0.1-0.1-0.3,0-0.3C427.5,583.1,427.5,583.2,427.6,583.2C427.6,583.2,427.6,583.2,427.6,583.2z M429.4,594.8 C429.4,594.8,429.4,594.8,429.4,594.8c-0.1,0-0.1,0-0.2-0.1c0-0.1,0-0.2,0.1-0.2c0.1,0.1,0.1,0.2,0.2,0.2 C429.4,594.7,429.4,594.7,429.4,594.8z M429.8,596.6c0,0,0-0.1,0-0.1C429.8,596.6,429.8,596.6,429.8,596.6 C429.8,596.6,429.8,596.6,429.8,596.6z M431.7,594.8c0,0.1,0,0.1,0,0.1c-0.2-0.2-0.7,0.2-0.7,0.5c0,0.1-0.1,0.3-0.1,0.4 c-0.1,0.3-0.1,0.3-0.2-0.1c0-0.1-0.1-0.2-0.1-0.3c0,0,0-0.1,0-0.1c0-0.2,0-0.3,0.1-0.4c0,0,0.1-0.2,0.1-0.3c0-0.3,0-0.3-0.3-0.4 c-0.3-0.1-0.4-0.3-0.1-0.3c0.3,0,0.4-0.1,0.3-0.4c-0.1-0.2-0.2-0.3-0.3-0.4c-0.1,0-0.1-0.1-0.2-0.1c0.2,0,0.3-0.2,0.4-1.2 c0.1,0.2,0.2,0.4,0.2,0.3c0.1,0,0.2-0.4,0-0.5c-0.1-0.1-0.1-0.3,0-0.5c0,0,0,0,0.1,0.1c0.1,0.1,0.1,0.2,0.1,0.3 c0,0.1,0,0.2,0.1,0.3c0.1,0.2,0.2,0,0.3-0.3c0-0.1,0-0.1,0-0.2c0,0.1,0,0.1,0,0.2c0,0.1,0,0.3-0.2,0.5c-0.3,0.3-0.3,0.5-0.2,0.7 c0,0.1,0,0.2,0,0.3c-0.1,0.1-0.1,0.3,0,0.6c0.1,0.2,0.1,0.4,0.2,0.5c0,0,0,0.1,0,0.1c0,0.1,0,0.1,0.1,0.2c0,0,0,0.1-0.1,0.1 c-0.1,0.3-0.1,0.5,0,0.6c0.1,0.2,0.2,0.1,0.1-0.4c0-0.2,0-0.2,0-0.3c0.1,0.1,0.1,0.1,0.1,0c0-0.1,0-0.2-0.1-0.3c0,0,0,0,0.1-0.1 c0-0.1,0.2-0.2,0.4-0.2c0.1,0,0.2,0,0.3,0C431.8,594.3,431.7,594.6,431.7,594.8z M431.5,589.9c-0.1,0.1-0.1,0.1-0.2,0.1 c-0.1,0-0.1,0-0.2,0.1c0.1-0.1,0.2-0.2,0.3-0.6C431.4,589.6,431.5,589.8,431.5,589.9z M431.2,587.2c0-0.4,0-0.8-0.1-0.8 c-0.1,0-0.1,0.1,0,0.2c0,0.1,0,0.2,0,0.2c0,0-0.1,0.2-0.1,0.3c-0.1,0-0.1,0-0.1-0.1c0-0.1-0.3-0.4-0.6-0.4c-0.2,0-0.2,0-0.1-0.2 c0-0.1,0-0.3,0-0.4c-0.1-0.6,0.2-0.8,0.4-0.3c0.1,0.3,0.3,0.3,0.5-0.1c0.1,0,0.2-0.1,0.3-0.4c0.1,0,0.1-0.1,0.1-0.1 c0,0.1,0,0.1,0,0.2c-0.1,0.1-0.1,0.2,0,0.5c0.1,0.5,0.3,0.6,0.4,0.4c0,0,0.1-0.1,0.1-0.1c0,0.4,0,0.8,0.1,0.9 c0.1,0.2,0.1,0.2-0.1,0.2c-0.1,0-0.2,0.1-0.3,0.2c0,0.1-0.1,0.1-0.2,0.1C431.6,587.3,431.5,587.2,431.2,587.2z M432,589.1 c0,0,0,0.1,0,0.1c0,0-0.1,0-0.1,0c0,0-0.1,0-0.1,0.1c0,0-0.1,0-0.1,0c-0.1-0.1-0.1-0.1,0-0.4c0.1-0.3,0.1-0.3-0.1-0.3 c0-0.2,0.1-0.4,0.1-0.5c0.1,0,0.1,0.1,0.2,0.1c0.4,0.1,0.5,0.1,0.3,0.3C431.9,588.5,431.9,589,432,589.1z M440,649.2 c-0.1,0-0.1,0.1-0.1,0.2c0,0.1,0,0.1,0,0.2c0,0-0.1,0-0.1,0.1c-0.1,0.1-0.3,0.1-0.5,0.2c0,0,0-0.1,0-0.1c0,0,0.1,0,0.2-0.1 c0.1-0.2,0.1-0.4,0.1-0.5c0-0.1,0.1-0.1,0.2-0.1c0.1,0,0.3-0.1,0.3-0.2c0-0.1,0.1-0.1,0.3-0.1c0,0.1-0.1,0.3-0.2,0.3 C440,649,440,649,440,649.2z M441,653.2c0,0.1,0,0.2-0.1,0.2c-0.1,0-0.1-0.1-0.1-0.2c0,0,0-0.1,0-0.1 C440.8,653.1,440.9,653.1,441,653.2z M440.6,652.7c-0.1-0.2,0-0.2,0.3-0.3C440.9,652.5,440.7,652.6,440.6,652.7z M432.1,578.9 c0,0,0.1,0.1,0.2,0.2c0.1,0,0.1,0.1,0.2,0.2c0,0.2-0.1,0.3-0.1,0.3c-0.1,0.1-0.3-0.1-0.2-0.4c-0.1,0-0.1,0.1-0.1,0.2 c0,0.1,0,0.2-0.1,0.2c-0.1,0.1-0.2,0.2-0.2,0.4c0,0.1,0,0.2-0.1,0.2c0-0.3-0.1-0.5-0.2-0.5c-0.1-0.1,0-0.1,0.1-0.3 c0.2-0.3,0.3-1.1,0.2-1.4c0,0,0,0.1,0,0.1c0,0,0.1,0,0.2,0.1c0.1,0,0.1,0,0.2-0.2c0.2-0.3,0.4-0.3,0.4,0.1c0,0-0.1,0.1-0.2,0.1 C432.3,578.3,432.1,578.7,432.1,578.9z M440.6,647.7c0-0.1,0.1-0.1,0.1-0.2C440.7,647.6,440.7,647.7,440.6,647.7z M435.4,597.9 c-0.1,0.1-0.3,0.3-0.4,0.4c0-0.1,0-0.2,0.1-0.2c0,0,0.1-0.2,0.1-0.4c0-0.1,0-0.2,0-0.2c0,0,0-0.1,0-0.1c0-0.2,0.1-0.2,0.2-0.1 C435.3,597.4,435.3,597.6,435.4,597.9z M435.8,596.8c-0.1-0.2-0.1-0.3-0.2-0.4c-0.2-0.2-0.3-0.2-0.3,0.4c-0.1-0.1-0.2-0.1-0.3-0.2 c0,0,0-0.1,0-0.1c0-0.1-0.1-0.1-0.1-0.2c0.1,0,0.1-0.1,0.2-0.1c0,0,0.1,0,0.1,0c0.3,0,0.3-0.2,0-0.5c0-0.3,0.1-0.4,0.1-0.6 c0,0.2,0.1,0.4,0.1,0.6c0,0.1,0.1,0.2,0.1,0.2c0,0.1,0.2,0.3,0.4,0.4C435.9,596.4,435.9,596.5,435.8,596.8z M435,587.5 c0,0-0.1-0.1-0.1-0.1c0.1-0.1,0.2,0,0.3,0.2C435.1,587.5,435,587.5,435,587.5z M442.4,649.1c-0.1,0-0.1-0.2,0-0.1 C442.5,648.9,442.5,649,442.4,649.1C442.5,649,442.5,649.1,442.4,649.1z M436.7,596.1c-0.3-0.1-0.4-0.1-0.5-0.4 c-0.1-0.4-0.1-0.5,0.2-0.4c0.1,0.1,0.2,0.1,0.3,0.1c0,0.1,0,0.3,0.1,0.4C436.7,595.9,436.7,596,436.7,596.1z M437.7,593.3 c0,0.1,0,0.3-0.2,0.5c-0.3,0.3-0.3,0.4-0.2,0.7c0,0.1,0,0.2,0,0.3c-0.1,0-0.2,0.1-0.2,0.2c0,0.1,0,0.1-0.1,0.1c0-0.5,0-0.7-0.1-1 c-0.1-0.2-0.1-0.5-0.1-0.6c0-0.1,0-0.2,0-0.3c0-0.1,0-0.1,0-0.2c0-0.6,0.1-0.8,0.3-0.5c0.1,0.1,0.1,0.2,0.1,0.3 c0,0.1,0,0.2,0.1,0.3c0.1,0.2,0.2,0.1,0.3-0.3c0-0.1,0-0.3,0.1-0.3c0,0,0.1-0.1,0-0.3c-0.1-0.5-0.1-0.9,0-0.9 c0.2,0,0.2,0.2,0.3,0.5c-0.1,0.1-0.1,0.2-0.1,0.3C437.6,592.4,437.6,592.6,437.7,593.3z M444.6,650c-0.1,0-0.1,0-0.2,0 c0.1-0.1,0.1-0.4,0.2-0.6c0,0,0,0,0.1-0.1C444.7,649.5,444.6,649.8,444.6,650z M438.4,590.6c-0.1,0-0.2-0.2-0.1-0.3 c0.1-0.1,0-0.2-0.1-0.1c0-0.1-0.1-0.1-0.2-0.1c-0.3,0-0.4-0.4-0.3-1c0.1-0.4,0-1.2-0.1-1.2c-0.1,0-0.1,0.1,0,0.3 c0,0.1,0,0.2,0,0.2c0,0.1-0.1,0.3-0.1,0.6c0,0.4-0.1,0.5-0.3,0.6c-0.2,0.1-0.4,0.6-0.2,0.8c0.1,0.1,0.6,0.1,0.7,0.1 c0.1,0,0.1,0,0.2,0.1c-0.1,0.3-0.1,0.4-0.3,0.4c-0.1,0-0.2,0-0.2,0.1c0,0.1-0.4,0.4-0.5,0.4c-0.1,0-0.2-0.1-0.3-0.1 c-0.2-0.1-0.4,0-0.4,0.2c-0.1,0-0.1-0.1-0.2-0.1c0-0.1,0-0.1,0-0.3c0,0.2,0.1,0.3,0.2,0.1c0.1-0.1,0.1-0.1,0.1-0.3 c0.1,0.2,0.2,0.1,0.2-0.1c0-0.3-0.1-0.4-0.2-0.3c0-0.1,0-0.2,0-0.3c0.1-0.2,0.2-0.8,0.1-1c-0.1-0.2-0.1-0.2-0.2,0.1 c0,0.1,0,0.1-0.1,0.1c0-0.1,0-0.2,0-0.3c0-0.2,0-0.3-0.2-0.4c0-0.1,0-0.3,0-0.4c0.1-0.1,0.1-0.1,0-0.3c0-0.1,0-0.2,0-0.2 c0-0.1,0-0.2,0-0.2s0-0.2,0.1-0.6c0.1-0.1,0.1-0.1,0.2-0.1c0.1,0,0.1,0,0.2-0.2c0,0,0,0.1,0,0.1c0.2,0.4,0.4,0.1,0.4-0.8 c0-0.4,0.1-0.9,0.1-1.1c0.1-0.5,0.1-0.8-0.1-0.9c0,0,0,0-0.1-0.1c0-0.1,0-0.2,0-0.3c0,0,0.1-0.1,0.1-0.1c0.2-0.2,0.2-0.4,0.3-1.1 c0-0.1,0-0.2,0-0.2c0,0,0,0.1,0,0.1c0,0,0.2,0.1,0.4,0.1c0,0,0.1,0,0.1,0c0.1,0,0.2,0,0.3,0.1c0,0,0.1,0.1,0.2,0.1 c0,0,0,0.1,0,0.1c0.1,0.3,0.1,0.4,0.1,0.5c0-0.1,0-0.2-0.2-0.2c-0.2,0-0.4,0.5-0.3,1.2c0,0.3,0,0.4-0.1,0.6 c-0.1,0.2-0.1,0.2-0.1,0.4c0.1,0.2,0,1.2-0.1,1.4c-0.1,0.2-0.1,0.7,0.1,0.7c0.1,0,0.2-0.1,0.2-0.3c0.1,0.3,0.2,0.4,0.3,0.2 c0,0,0.1-0.1,0.1-0.1c0,0,0.1,0.1,0.1,0.1c0.1,0.1,0.2,0.2,0.2,0.3c-0.1,0.6,0,1.1,0.1,1.2c0.1,0.2,0.1,0.2-0.1,0.2 c-0.1,0-0.2,0.1-0.3,0.2c0,0.1-0.1,0.1-0.2,0.1c-0.4,0-0.2,0.3,0.2,0.4c0.1,0,0.2,0,0.3,0.1c0,0.1,0,0.2-0.1,0.3c0,0,0,0.1,0,0.1 c0,0.1,0,0.1,0,0.2C438.4,590.5,438.4,590.6,438.4,590.6z M439.9,600.4c0-0.1,0-0.3,0-0.4c0-0.2,0-0.3,0-0.4 c0,0.1,0.1,0.2,0.1,0.3c0,0,0,0.1,0,0.1c0,0,0,0.1,0,0.1c0,0.1,0,0.1,0,0.2C440.1,600.5,440.1,600.5,439.9,600.4z M445.1,645 c0,0.1,0,0.2,0,0.3c0,0-0.1-0.1-0.1-0.1C445,645.1,445,645.1,445.1,645C445.1,645,445.1,645,445.1,645z M439.9,599.5 c0-0.1,0-0.2,0-0.2c0.1-0.2,0.2-0.2,0.2,0C439.9,599.4,439.9,599.4,439.9,599.5z M446.7,648.3c0,0.1,0,0.5-0.1,0.8 c0,0.3-0.1,0.6-0.1,0.6c-0.1,0.1-0.3-0.1-0.3-0.3c-0.1,0-0.1,0.1-0.1,0.2c0,0.1,0,0.2-0.1,0.2c-0.1,0.1-0.2,0.2-0.2,0.4 c0,0.1,0,0.1,0,0.2c0-0.1-0.1-0.2-0.3-0.1c-0.1,0.1-0.1,0.2,0,0.3c0,0,0,0.1,0,0.1c0,0,0,0-0.1,0c-0.1-0.1-0.1-0.3-0.1-0.5 c0-0.1,0-0.1,0-0.2c0.1-0.5,0.1-0.6,0.3-0.3c0.2,0.3,0.4,0.1,0.4-0.5c0-0.3,0-0.5,0-0.7c0.1,0,0.2,0,0.2-0.2 C446.4,647.9,446.7,648,446.7,648.3z M447,647.4c0,0,0,0.1-0.1,0.1c0-0.2,0-0.3-0.1-0.3c-0.2-0.1-0.2,0-0.1,0.2 c0.1,0.1,0.1,0.3,0,0.4c0,0-0.1,0-0.1-0.1c0-0.1-0.1-0.3-0.2-0.4c-0.2-0.2-0.2-0.3,0.2-0.3c0,0,0.1,0,0.1,0 c0.1,0.1,0.1,0.2,0.2,0.3C447.1,647.3,447.1,647.3,447,647.4z M441,596.4C441,596.4,441.1,596.4,441,596.4 c0.1,0.1,0.1,0.2,0.1,0.3c-0.1,0-0.1-0.1-0.1-0.1C441,596.5,441,596.5,441,596.4z M440.9,595.1c0.1,0,0.1-0.1,0.2-0.1 c0,0,0,0.1,0,0.2C441,595.2,441,595.2,440.9,595.1z M441.4,599c0,0.1,0,0.2,0.1,0.4c-0.1,0-0.1-0.1-0.2-0.1c0,0,0-0.1-0.1-0.1 C441.2,599,441.2,599,441.4,599z M439.9,586c-0.1,0-0.2,0-0.3,0c0,0-0.1-0.1-0.1-0.1c0-0.2,0.1-0.3,0.3-0.2c0,0,0.1,0,0.2,0 c0,0,0.1,0.1,0.1,0.1c0,0.1,0,0.1,0,0.1C440.1,585.8,440,585.9,439.9,586z M441.1,592.9c-0.1,0-0.2,0-0.2,0c0-0.2-0.1-0.3-0.1-0.4 c0,0,0.1,0,0.2,0.1c0.1,0.1,0.1,0.1,0.2,0.2C441.2,592.8,441.2,592.8,441.1,592.9C441.2,592.9,441.2,592.9,441.1,592.9z M446.8,641.5c0-0.2,0.2-0.1,0.2,0.1C446.9,641.6,446.8,641.6,446.8,641.5z M442.1,598C442.1,597.9,442.1,597.9,442.1,598 c-0.1-0.2-0.1-0.3-0.1-0.3C442.1,597.7,442.2,597.8,442.1,598C442.2,598,442.2,598,442.1,598z M438.8,565.7c0-0.2,0.2-0.1,0.2,0.1 C438.8,565.8,438.8,565.8,438.8,565.7z M441.9,589.5C441.9,589.5,441.9,589.6,441.9,589.5C441.9,589.6,441.9,589.5,441.9,589.5z M442.5,591c-0.1-0.1-0.1-0.1-0.2-0.1c0,0,0-0.1-0.1-0.1c0-0.1,0-0.2,0.1-0.2c0,0,0-0.1,0-0.2c0,0,0.1,0,0.1,0.1 C442.5,590.6,442.5,590.8,442.5,591z M442.4,589.7c-0.1,0.1-0.2,0.1-0.2,0.1c-0.1,0,0-0.3,0.1-0.4c0.1,0,0.2,0,0.2,0.1 C442.5,589.6,442.4,589.6,442.4,589.7z M443.6,596.2c0,0-0.1,0.1-0.1,0.1c0-0.1,0-0.2,0-0.3C443.7,595.9,443.8,596.1,443.6,596.2z M443.3,593.1c0-0.1,0-0.3,0.1-0.4c0,0,0,0,0.1,0C443.4,592.9,443.4,593,443.3,593.1z M443.6,592.1c0,0.1-0.1,0.2-0.1,0.4 c-0.1,0.1-0.2-0.2-0.2-0.9c0-0.4,0-0.6-0.1-0.7c-0.1-0.1-0.1-0.2,0-0.3c0.1,0,0.2,0.1,0.2,0.3c0,0.1,0,0.2,0.1,0.3 c0,0,0,0.1,0,0.1c0,0.1,0,0.2,0.1,0.5C443.6,592,443.6,592.1,443.6,592.1z M445.2,591.7c0,0-0.1,0-0.1,0.1c0-0.1,0-0.2-0.1-0.2 c-0.1-0.1-0.1-0.2,0-0.2C445.1,591.5,445.2,591.6,445.2,591.7C445.2,591.6,445.2,591.7,445.2,591.7z M444.9,591 C444.9,591,444.9,591,444.9,591c-0.1,0-0.2-0.4-0.2-0.7c0.1,0,0.2,0,0.3,0c0,0,0,0,0,0.1c0,0,0,0.1,0.1,0.1 C444.9,590.6,444.9,590.7,444.9,591z M444.9,586.3c0,0-0.1,0-0.1,0C444.9,586.3,444.9,586.3,444.9,586.3L444.9,586.3z M444.7,580.7C444.7,580.7,444.7,580.7,444.7,580.7c-0.1-0.1-0.1-0.1,0-0.1C444.7,580.6,444.7,580.6,444.7,580.7z M446.9,592.1 c0.2,0,0.2,0,0.3-0.1c0,0.1,0,0.2,0.1,0.4c0,0.1,0.1,0.2,0.1,0.3c0-0.2-0.1-0.2-0.3-0.3C446.7,592.2,446.6,592.1,446.9,592.1z M447.5,593.2c-0.2,0-0.3,0-0.2,0.1c0,0.2,0.1,0.2,0.2,0.3c0,0,0,0.1,0,0.1c0,0,0,0.1,0,0.1c0,0,0,0.1,0,0.1c0,0-0.1,0-0.1,0 c-0.1,0-0.1-0.1-0.2-0.1c0-0.1-0.1-0.1-0.1-0.2c0,0,0-0.1,0-0.1c0-0.2,0-0.3,0.1-0.4c0.1-0.1,0.1-0.1,0.2-0.1 c0.1,0,0.1,0.1,0.1,0.1c0.1,0.1,0.1,0.1,0.1,0.1C447.6,593.2,447.5,593.2,447.5,593.2z M447.9,588.5c0,0,0-0.1,0-0.1 c0.1,0,0.2,0.1,0.2,0.2C448,588.6,447.9,588.5,447.9,588.5z M448.1,589.7c0,0,0-0.2-0.1-0.3c-0.1-0.2-0.1-0.3,0-0.3 c0,0.1,0.1,0.1,0.1,0.1c0,0.1,0,0.2,0.1,0.2c0,0,0,0.1,0,0.1C448.2,589.6,448.2,589.7,448.1,589.7z M448.3,587c0-0.1,0-0.5,0-0.6 c0,0,0,0.1,0,0.1c0,0.3,0.1,0.5,0.1,0.7C448.4,587.1,448.3,587,448.3,587z M448.3,585.3c0,0-0.1,0.1-0.1,0.1c0,0,0,0.1-0.1,0.1 c-0.1-0.1-0.1-0.1-0.3-0.1c-0.1-0.2-0.1-0.3-0.1-0.4c0-0.1,0-0.2-0.1-0.3c0,0,0.1,0,0.2,0c0.2,0.1,0.3,0.1,0.4,0c0,0,0,0,0.1,0 c0,0,0,0,0,0.1c0,0.1,0.1,0.1,0.1,0.2C448.3,585,448.3,585.2,448.3,585.3z M450.4,595.3c-0.1,0.1-0.1,0.2-0.1,0.3 c0,0.1,0,0.2,0,0.2c0-0.1-0.1-0.3-0.1-0.4c0-0.1,0-0.2,0-0.3c-0.2-0.4-0.1-0.6,0.2-0.4c-0.2,0.1-0.2,0.2,0,0.3 C450.6,595.1,450.6,595.1,450.4,595.3z M450.3,593.5c0,0-0.1,0-0.1-0.1C450.2,593.4,450.3,593.4,450.3,593.5L450.3,593.5z M449.4,585.1c0-0.2,0-0.3,0-0.4c0.1,0,0.1,0,0.2,0.1C449.7,585,449.7,585,449.4,585.1z M449.7,580.7c0-0.1,0-0.2,0-0.3 c0-0.1,0-0.1,0-0.2c0.1,0.1,0.1,0.2,0.1,0.3C449.9,580.5,449.8,580.6,449.7,580.7z M452.1,594.1c-0.1,0-0.1,0-0.2,0 c0-0.1-0.1-0.2-0.2-0.4c-0.2-0.2-0.3-0.3-0.3-0.4c0-0.1,0-0.2-0.1-0.4c-0.1-0.2-0.1-0.3,0.1-0.4c0.2-0.1,0.1-0.3-0.1-0.4 c0,0,0.1,0,0.1,0c0.1,0,0.2-0.1,0.2-0.1c0,0,0,0,0,0.1c0,0,0,0.1,0.1,0.1c-0.1,0-0.1,0-0.1,0.1c0,0.1,0.1,0.2,0.2,0.3 c0,0.4,0.1,0.9,0.2,1.1c0,0.1,0.1,0.2,0.1,0.2C452.1,594,452.1,594.1,452.1,594.1z M451.8,591.3c0,0,0,0.1,0,0.1 c-0.1,0.1-0.1,0.1-0.2,0.2c-0.1,0.1-0.2,0.1-0.4,0c-0.1-0.1-0.1-0.1-0.1-0.2c0-0.1,0-0.1,0-0.2c0,0,0,0,0.1,0c0.2,0,0.4,0,0.5,0 C451.8,591.3,451.8,591.3,451.8,591.3z M451.6,590.3c-0.1-0.1-0.1-0.2-0.2-0.3c0.1,0,0.3,0.1,0.3,0.1 C451.9,590.2,451.8,590.3,451.6,590.3z M451.5,587.8c0,0.1,0.1,0.2,0.1,0.3C451.5,588,451.5,587.9,451.5,587.8z M451.9,583.7 c-0.1,0-0.1-0.1-0.1-0.1c0,0,0.1,0,0.1,0C451.9,583.6,451.9,583.7,451.9,583.7z M453.6,593.1c0,0.1,0,0.1-0.1,0.1 c0-0.1,0-0.2,0-0.3c0,0,0.1,0,0.2,0c0.1,0,0.1,0,0.2,0C453.7,592.9,453.6,593,453.6,593.1z M460.3,646.7c-0.1-0.1-0.1-0.2-0.1-0.2 c0,0,0-0.1,0-0.1C460.3,646.4,460.3,646.5,460.3,646.7C460.3,646.7,460.3,646.7,460.3,646.7z M454.6,593.1 C454.6,593.2,454.5,593.2,454.6,593.1c-0.3-0.1-0.5-0.2-0.7-0.2c0,0,0.1,0,0.1,0c0.1,0,0.3,0.1,0.4,0.1 C454.5,593,454.6,593,454.6,593.1C454.6,593.1,454.6,593.1,454.6,593.1z M454.6,592.3c0-0.1-0.1-0.1-0.1-0.1c0-0.1,0-0.1,0.1-0.1 c0.1,0,0.1,0.1,0.1,0.1C454.8,592.2,454.7,592.3,454.6,592.3z M454.4,582.9c0-0.1-0.1-0.1-0.2-0.1c-0.1,0-0.1,0-0.1,0 c0-0.1,0-0.1,0-0.2c0.1-0.1,0.1-0.1,0.2,0c0.1,0,0.3,0.1,0.5,0.1c0,0.1,0,0.2,0.1,0.3C454.7,583.1,454.4,583.1,454.4,582.9z M455.4,587.2c-0.1,0-0.2,0.1-0.3,0.3c0,0.1,0,0.1-0.1,0.2c0-0.1,0-0.3-0.1-0.4c-0.2-0.5,0.1-0.8,0.3-0.3c0.1,0.1,0.1,0.1,0.2,0.1 C455.5,587.2,455.5,587.2,455.4,587.2z M455.6,587.4C455.6,587.4,455.6,587.4,455.6,587.4C455.6,587.4,455.6,587.4,455.6,587.4z M462.8,647.5c0,0-0.1,0-0.2,0c0,0,0.1-0.1,0.1-0.2C462.8,647.3,462.8,647.3,462.8,647.5C462.8,647.4,462.8,647.4,462.8,647.5z M456.3,586.6c-0.1-0.1-0.1-0.2-0.1-0.3c0,0,0.1-0.1,0.1-0.1c0.1,0,0.1,0,0.1,0c0,0.1,0.1,0.1,0.1,0.2 C456.5,586.6,456.4,586.6,456.3,586.6z M458.2,591.4C458.2,591.4,458.2,591.4,458.2,591.4C458.2,591.4,458.3,591.4,458.2,591.4 C458.3,591.4,458.3,591.5,458.2,591.4C458.3,591.5,458.3,591.5,458.2,591.4z M459.1,589.2C459.1,589.2,459.1,589.1,459.1,589.2 C459.1,589.1,459.1,589.2,459.1,589.2z M459.4,586.9C459.4,586.9,459.5,586.9,459.4,586.9C459.5,587,459.5,586.9,459.4,586.9z M510.4,575.9c0,0,0,0.1,0,0.2c0,0,0,0,0-0.1C510.4,576,510.4,576,510.4,575.9z M509.8,576.8c0.1,0,0.2,0,0.2,0c0,0.1,0,0.2,0,0.3 c0,0-0.1,0-0.2,0C509.8,576.9,509.8,576.8,509.8,576.8z M509.8,577.4c0.1,0,0.1,0,0.1-0.1c0.1,0,0.2,0,0.2,0 c0,0.1,0.1,0.1,0.1,0.2c-0.1,0.1-0.1,0.1,0,0.1l-0.1,0.1c0-0.1,0-0.1-0.1-0.1c0,0,0,0.1-0.1,0.1c0,0,0,0,0-0.1 c0-0.1,0-0.1-0.3-0.1C509.8,577.5,509.8,577.4,509.8,577.4z M506.7,552.3c0,0,0.1,0.1,0.1,0.2c0,0.1,0,0.1,0,0.1 c0,0.1,0,0.2-0.1,0.3C506.7,552.7,506.7,552.5,506.7,552.3z M509.8,581.6c0.1,0,0.2,0,0.2,0.1c0,0.1-0.1,0.1-0.2,0 C509.6,581.6,509.6,581.6,509.8,581.6z M498.5,579.8c0,0,0.1,0,0.2,0c0,0,0.1,0,0.1,0c0,0.1,0,0.2,0,0.3c-0.1,0-0.2,0-0.2,0 c0,0-0.2,0.1-0.3,0.1C498.4,580.1,498.5,580,498.5,579.8z M498.5,580.6c0.1,0,0.1,0,0.2-0.1c0.1-0.1,0.1-0.1,0.1,0 c-0.1,0.1-0.1,0.3,0,0.6c0.1,0.3,0.1,0.5,0.2,0.5c-0.2,0.2-0.4,0.2-0.6,0.1c-0.1-0.1-0.1-0.1,0-0.2c0.1-0.1,0.1-0.2-0.1-0.4 c0,0,0-0.1-0.1-0.1C498.4,580.8,498.5,580.7,498.5,580.6z M496.9,579.8c0.1,0,0.1,0,0.2,0c0,0,0,0.1,0,0.2c0,0.3-0.1,0.4-0.2,0.2 C496.9,580.1,496.9,579.9,496.9,579.8z M496.9,581c0.1-0.1,0.1-0.2,0-0.2c0,0,0-0.1,0-0.1c0.1-0.1,0.1-0.1,0.2,0.1 c0,0.1,0.1,0.1,0.1,0.1C497.1,581,497,581,496.9,581C496.9,581,496.9,581,496.9,581z M495.4,575.2c0,0,0,0.1-0.1,0.1 C495.3,575.2,495.3,575.2,495.4,575.2z M495.5,575.8c0.2,0.1,0.1,0.1-0.1,0.1c-0.1,0-0.2,0-0.2-0.1 C495.2,575.7,495.3,575.7,495.5,575.8z M495.7,576.8c0,0.1,0,0.1,0,0.2c0,0-0.1,0.1-0.2,0.1c-0.1,0-0.1,0-0.1,0c0-0.3,0-0.5,0-0.7 c0.1,0,0.2,0.1,0.2,0.1C495.6,576.7,495.7,576.7,495.7,576.8z M494,567.9c0-0.1,0-0.1,0.1-0.1c0,0.1,0,0.2,0,0.4 C494,568.1,494,568,494,567.9C494,567.9,494,567.9,494,567.9z M495.1,577C495.1,576.9,495.1,577,495.1,577 C495.1,577,495.1,577,495.1,577z M493.8,572c0.1-0.2,0.2-0.3,0.2-0.6c0,0,0.1,0,0.1,0c0,0.3,0,0.4,0,0.5c0,0.1,0,0.1,0,0.2 C494,572.2,493.9,572.2,493.8,572z M494,575.2c0,0.1,0,0.2,0,0.3C494,575.4,494,575.3,494,575.2z M493.8,579.6c0,0,0,0.1,0,0.1 C493.7,579.7,493.7,579.6,493.8,579.6z M493.7,580.3c0,0,0.1,0,0.1,0c0.1,0,0.2,0.1,0.2,0.1c0,0-0.2,0.1-0.3,0.1 C493.7,580.4,493.7,580.4,493.7,580.3z M493.9,580.7c0.1,0,0.2,0,0.4,0c0.3-0.1,0.3-0.1,0.1-0.2c-0.1-0.1-0.1-0.1-0.1-0.3 c0-0.1,0-0.1,0-0.1c0.1,0,0.2-0.1,0.3-0.2c0.2,0.1,0.3,0.3,0.2,0.4c-0.1,0.1,0.1,0.2,0.3,0.2c0.1,0,0.1,0,0.1-0.3 c0-0.1,0-0.3,0-0.4c0-0.1,0-0.2-0.1-0.2c-0.1-0.1-0.1-0.1-0.1-0.2c0,0,0,0,0-0.1c0.2,0,0.3-0.1,0.3-0.8c0,0,0.1,0.1,0.1,0.1 c0.2,0.5,0.2,0.5,0,0.7c-0.1,0.1-0.2,0.3-0.2,0.4c0,0.2,0,0.4,0.2,1c0,0.1,0,0.2-0.2,0.4c0,0,0,0-0.1,0.1c0,0,0,0-0.1-0.1 c-0.1-0.1-0.2-0.1-0.2,0.1c0,0-0.1,0-0.1,0c-0.2,0-0.3,0-0.3-0.1c0-0.1-0.2-0.3-0.4-0.3C493.9,580.8,493.9,580.7,493.9,580.7 c-0.1,0-0.1,0-0.2,0C493.7,580.7,493.8,580.7,493.9,580.7z M494.8,582.7c-0.2,0-0.2-0.1-0.1-0.1 C494.7,582.6,494.8,582.6,494.8,582.7z M492.6,571.8c0,0.1,0,0.2,0,0.3C492.6,572,492.6,571.9,492.6,571.8z M493.8,584.9 c0.1-0.1,0.2-0.1,0.2,0c0.1,0.2,0.1,0.3-0.2,0.2c-0.1,0-0.1,0-0.2,0C493.7,585,493.7,585,493.8,584.9z M493.6,583.4 c0.1-0.1,0.1-0.1,0.1,0C493.6,583.4,493.6,583.4,493.6,583.4z M493.2,582.7c0.1-0.1,0.2,0,0.4,0c0.1,0,0.1,0,0.2,0.1 c0,0,0,0.1,0,0.1c0,0.1,0,0.1-0.3,0.1C493.3,582.9,493.2,582.8,493.2,582.7C493.2,582.7,493.2,582.7,493.2,582.7z M493.1,583.5 c0,0,0,0,0.1,0c0.1,0,0.2,0,0.2,0.1c0,0.1-0.1,0.1-0.2,0C493.1,583.6,493.1,583.6,493.1,583.5L493.1,583.5z M487.9,571.1 c0,0.1,0,0.1,0.1,0.2c0,0.2,0,0.4,0,0.5c0,0-0.1,0-0.1-0.1C487.8,571.6,487.8,571.2,487.9,571.1z M484.2,571.9 c0.1,0.1,0.2,0.3,0.2,0.5c0,0.1,0,0.1-0.1,0.1C484.2,572.1,484.1,572,484.2,571.9z M484.6,575.3 C484.6,575.3,484.6,575.3,484.6,575.3C484.6,575.4,484.6,575.3,484.6,575.3L484.6,575.3z M482.4,577.2c0,0,0-0.1,0-0.2 c0-0.2,0-0.2,0.1-0.3c0.1,0,0.1,0.1,0.2,0.1c0,0.1,0,0.1,0,0.2c-0.1,0.2-0.1,0.2,0,0.3c-0.1,0-0.2,0-0.2,0 C482.4,577.3,482.4,577.3,482.4,577.2z M483.6,584.8c-0.1,0-0.1,0-0.2,0c0,0-0.1,0-0.1,0c-0.1,0-0.2,0-0.2,0c0-0.1,0-0.1,0-0.2 c0.1,0,0.2,0,0.2-0.1c0.2-0.2,0.2-0.2,0.4,0C483.7,584.6,483.7,584.7,483.6,584.8z M482.8,583.5c-0.1,0.1-0.1,0.4-0.1,0.6 c0-0.1,0-0.2,0-0.4c0-0.2,0-0.3,0-0.4c0.1-0.1,0.2-0.1,0.3-0.1C482.9,583.3,482.9,583.5,482.8,583.5z M482.2,577.4 c0,0.1,0,0.2-0.1,0.2C481.8,577.6,481.9,577.4,482.2,577.4z M482.1,578.9c0,0.1,0,0.1,0,0.2C482,579,482,578.9,482.1,578.9z M481.6,572.5c0.1,0.2,0.1,0.5,0,0.6c0-0.2-0.1-0.4-0.2-0.5c-0.2-0.1-0.2-0.2,0-0.5c0.1-0.1,0.1-0.1,0.1-0.2 C481.5,572.2,481.6,572.4,481.6,572.5z M479.7,559c0.1-0.2,0.2-0.2,0.2-0.1c0,0.1,0,0.5,0,0.6c0,0-0.1,0-0.1,0 C479.6,559.4,479.6,559.3,479.7,559z M479.4,557.9c0.1,0,0.1,0.1,0,0.2C479.4,558,479.4,558,479.4,557.9z M480.3,568.6 c0,0,0,0.1,0,0.1C480.3,568.6,480.3,568.6,480.3,568.6z M481,579.5C481.1,579.5,481.1,579.5,481,579.5 C480.9,579.6,480.9,579.5,481,579.5z M479.1,564.1c0.1,0,0.1,0.1,0.1,0.1C478.9,564.3,478.9,564.1,479.1,564.1z M479.1,568.8 c0,0.1,0,0.2,0,0.3C479.2,569,479.1,568.9,479.1,568.8z M480.4,580.6c0.1,0.1,0.1,0.2,0.1,0.3c0,0.1-0.1,0.2-0.1,0.2 C480.4,581,480.4,580.8,480.4,580.6z M480.5,582.1C480.5,582.1,480.4,582.2,480.5,582.1C480.4,582.2,480.5,582.1,480.5,582.1z M478.4,572c0.1,0,0.2-0.1,0.3,0c0.1,0,0.1,0,0.2-0.1c0.1,0.1,0.2,0.2,0.2,0.1c0,0,0-0.2-0.1-0.3c0.3,0.1,0.4,0.2,0.2,0.6 c-0.2,0.3-0.3,0.4-0.4,0.3c0-0.1,0-0.1-0.1-0.2c-0.1-0.1-0.1-0.2-0.1-0.2C478.3,572.1,478.3,572,478.4,572z M480.3,582 c0-0.1,0-0.2,0-0.2C480.4,581.9,480.4,582,480.3,582z M479.7,580.3C479.7,580.3,479.7,580.4,479.7,580.3c-0.1,0.2-0.2,0.3-0.2,0.3 c0-0.1-0.1-0.2-0.1-0.2C479.4,580.3,479.6,580.3,479.7,580.3z M479.4,579.9c0-0.1,0-0.2,0-0.3c0.1,0,0.1,0,0.2,0c0,0,0.1,0,0.1,0 c0,0.1,0,0.3,0,0.4C479.6,580,479.5,580,479.4,579.9z M479.8,581.2c0,0,0-0.1,0.1-0.2c0,0,0,0,0,0.1c0.1,0.1,0.1,0.2,0.1,0.2 c-0.1,0-0.2,0-0.3,0C479.7,581.3,479.7,581.2,479.8,581.2z M478.4,573.6C478.5,573.6,478.5,573.6,478.4,573.6c0.3,0,0.4,0,0.4,0.2 c0.1,0.2,0,0.3-0.3,0.3c0,0,0-0.1,0-0.1C478.4,573.8,478.4,573.7,478.4,573.6z M479.1,583.2c0.3,0,0.3,0,0.3-0.7 c0-0.3,0.1-0.4,0.1-0.5c0,0.1,0.1,0.2,0.2,0.1c0.1,0.2,0.1,0.6,0,0.6c0,0,0,0.1,0,0.1c0-0.2,0-0.3-0.1-0.3c0,0-0.1,0.3-0.1,0.6 c0,0.2-0.1,0.4-0.1,0.5c0,0-0.1-0.1-0.1-0.1c0,0-0.1,0-0.1-0.1C479.1,583.4,479.1,583.3,479.1,583.2z M478.3,578.9 c0.1-0.1,0.2,0,0.2,0.1C478.3,579.1,478.3,578.9,478.3,578.9z M478.7,589.4c0.1,0,0.1,0,0.2,0c0,0.1,0,0.2,0.1,0.2 c0.1,0.1,0.1,0.1,0.1,0.1c0,0,0,0.1,0,0.2c-0.1,0-0.2,0.1-0.2,0.3c0,0.1-0.1,0.1-0.1,0.1c-0.1-0.1-0.2-0.2-0.1-0.3 c0-0.1,0-0.2-0.1-0.3c0,0,0,0,0-0.1c0,0,0-0.1,0-0.2C478.6,589.4,478.6,589.4,478.7,589.4z M478,584.5 C478.1,584.5,478.1,584.5,478,584.5c0.1,0.1,0,0.1,0,0.1C477.9,584.6,477.9,584.5,478,584.5z M478.8,585.8c0-0.1,0-0.2,0.1-0.3 c0,0,0,0,0-0.1c0,0,0-0.1,0-0.1c0-0.1,0.1-0.2,0.1-0.2c0,0,0.1,0.2,0.1,0.4c0,0.3,0,0.4,0.1,0.7c0,0,0,0.1,0.1,0.2 c0,0.2,0,0.3,0,0.5c0,0.1-0.1,0.2-0.2,0.3c-0.1,0.1-0.1,0.1-0.3-0.2c-0.1-0.2-0.1-0.4-0.1-0.5c0,0,0-0.1,0-0.2 C478.7,586.2,478.7,586.1,478.8,585.8z M478.5,584.3c0-0.1,0-0.2,0-0.2C478.6,584.1,478.6,584.2,478.5,584.3z M479,587.5 c0,0.1,0.1,0.3,0.1,0.4c0,0.1,0.1,0.3,0.1,0.4c0,0.1,0.1,0.1,0.1,0.1c0,0.1,0,0.3,0,0.4c-0.2-0.1-0.4-0.3-0.5-0.7 c0-0.2-0.1-0.4-0.1-0.5C478.8,587.4,479,587.3,479,587.5z M479.6,592c0-0.1,0-0.2,0.1-0.3C479.8,591.8,479.7,591.9,479.6,592z M479.2,589.4C479.2,589.4,479.2,589.4,479.2,589.4c0.1,0.1,0.1,0.1,0.1,0.2c0,0-0.1,0-0.1,0.1c0,0,0-0.1,0-0.2 C479.2,589.5,479.2,589.5,479.2,589.4z M478.8,591.4c0-0.1,0-0.2,0-0.3c0-0.1,0-0.2,0-0.2c0,0,0.1,0,0.1,0.1 C478.9,591.2,478.9,591.4,478.8,591.4z M479,592.4c0.3,0,0.3-0.1,0.2-0.3c0-0.1,0.1-0.2,0.1-0.3c0,0.1,0,0.2,0,0.2 c0.1,0.2,0.2,0.3,0.2,0.3c0.1,0.1,0.2,0.2,0.3,0.2c0.1,0.1,0.2,0.2,0.2,0.7c0,0.2-0.1,0.2-0.3,0.1c-0.1-0.2-0.2-0.4-0.3-0.5 c-0.2-0.2-0.3-0.2-0.3,0.2c-0.1-0.1-0.2-0.1-0.3-0.2c-0.1-0.1-0.2-0.1-0.2-0.2C478.8,592.6,478.9,592.5,479,592.4z M478.6,581.2 c0,0,0,0.1,0,0.1c-0.1,0-0.2,0-0.3,0.1c0,0,0,0-0.1,0.1c0.1-0.1,0.2-0.2,0.2-0.2C478.5,581.2,478.5,581.2,478.6,581.2z M477.2,573.4c0.1,0,0.1,0,0.2-0.1c0,0,0.1,0,0.1,0c0,0.3,0,0.4,0,0.5c0,0.1,0,0.1,0,0.2C477.4,573.6,477.4,573.5,477.2,573.4 C477.2,573.5,477.2,573.5,477.2,573.4z M477.3,576C477.3,576,477.3,575.9,477.3,576c0.1,0,0.1,0,0.1,0c0,0.1,0,0.1,0,0.2 c-0.1,0-0.1-0.1-0.1-0.1C477.3,576.1,477.3,576,477.3,576z M476.8,577c0.1,0.1,0.2,0.2,0.4,0.2c0.1,0,0.2,0,0.3,0.1 c0,0.1,0,0.1,0,0.2c-0.2,0.2-0.5,0.2-0.5,0c0-0.1,0-0.2-0.2-0.2C476.8,577.1,476.8,577.1,476.8,577z M477.1,582.5 c0-0.1,0-0.2,0-0.3c0.2,0,0.3,0.1,0.3,0.4c0,0.1,0.1,0.2,0.3,0.2c0.1,0,0.3,0.1,0.4,0.1c0.1,0.1,0.2,0.1,0.4,0.2 c0,0.1,0,0.1,0,0.1c-0.1-0.1-0.2-0.1-0.3-0.1c-0.2,0-0.3,0-0.3-0.1c0-0.1-0.4-0.4-0.6-0.4C477.1,582.6,477,582.6,477.1,582.5z M475.2,582.8c0,0,0,0.1,0,0.1c0,0,0,0.1,0,0.1C475.2,583,475.2,583,475.2,582.8z M475,589.1c0.1,0,0.1,0,0.2,0c0,0,0,0.1,0,0.1 c-0.1,0-0.2,0-0.3-0.1C474.9,589.1,474.9,589.1,475,589.1z M464.9,582.7C464.9,582.7,464.9,582.7,464.9,582.7 c0.1,0.1,0.1,0.2,0.1,0.3c0,0-0.1,0-0.1,0c-0.1,0-0.2-0.1-0.2-0.2C464.7,582.8,464.8,582.8,464.9,582.7 C464.8,582.7,464.8,582.7,464.9,582.7z M464.7,582C464.7,582,464.7,582.1,464.7,582c0,0.2,0,0.2,0,0.3 C464.7,582.2,464.7,582.1,464.7,582z M464.1,578.8C464.1,578.8,464.1,578.8,464.1,578.8c0.1,0.1,0.1,0.1,0.1,0.2 c-0.1,0-0.1,0-0.2-0.1C464.1,578.9,464.1,578.9,464.1,578.8z M460.2,590.1c0,0,0-0.1,0-0.1c0-0.1,0-0.1,0-0.1c0,0,0,0.1,0,0.1 C460.3,590,460.3,590,460.2,590.1z M459.6,582.8c0-0.1,0-0.2,0-0.2c0,0,0.1,0.1,0.1,0.1C459.6,582.8,459.6,582.8,459.6,582.8z M461.1,594c-0.1-0.1-0.1-0.1-0.1-0.2c0-0.1,0.1,0,0.1,0.1C461.1,593.9,461.1,593.9,461.1,594z M459,574.6c0,0,0-0.1,0-0.1 C459,574.5,459,574.5,459,574.6z M460.5,584.4c0,0.2-0.1,0.3-0.3,0.3c0-0.1,0-0.2,0-0.2c0-0.1,0-0.1,0-0.2c0,0,0.1,0,0.1-0.1 c0-0.1,0.1-0.1,0.2-0.1C460.6,584.3,460.5,584.4,460.5,584.4z M463.4,594.9c-0.1,0-0.2,0-0.2,0.1c0,0,0-0.1-0.1-0.1 c0,0,0.1,0,0.1,0C463.4,594.9,463.4,594.9,463.4,594.9z M463.7,589.9C463.7,589.8,463.7,589.7,463.7,589.9 C463.8,589.9,463.8,589.9,463.7,589.9C463.8,589.9,463.7,589.9,463.7,589.9z M463.9,590.7C463.9,590.7,463.9,590.7,463.9,590.7 C463.9,590.7,463.9,590.7,463.9,590.7z M464,591.2C464,591.2,464,591.2,464,591.2C464,591.2,464,591.2,464,591.2 c-0.1-0.1,0-0.1,0-0.1C464.1,591.1,464,591.1,464,591.2z M463.8,589.5c-0.1,0-0.2,0-0.2,0c0,0-0.1,0-0.1,0c-0.1-0.2-0.1-0.3,0-0.3 c0,0,0.1,0,0.2,0c0.1,0,0.2,0,0.3,0.1c0,0,0.1,0,0.1,0.1C464,589.5,463.9,589.5,463.8,589.5z M463.8,587.3c0-0.1-0.1-0.2-0.3-0.3 c0,0-0.1,0-0.1-0.1c0,0,0-0.1,0-0.1c0-0.1,0-0.1,0-0.1c0.1,0,0.2,0,0.2,0c0,0.1,0,0.1,0.1,0.2 C463.8,587.1,463.8,587.1,463.8,587.3z M465.3,593.9c0,0-0.1,0-0.2,0c0,0-0.1,0-0.1-0.1c0,0,0-0.1,0-0.2c0-0.3,0.1-0.3,0.2,0 C465.3,593.7,465.3,593.8,465.3,593.9z M464.7,583.6c0,0-0.1,0-0.2,0c0,0,0-0.1-0.1-0.1c0,0,0-0.1,0-0.1c0,0,0.1-0.1,0.1-0.1 c0.2,0,0.2,0,0.3,0.2C464.8,583.5,464.7,583.6,464.7,583.6z M465.9,591.3c-0.1,0-0.2-0.1-0.1-0.2c0-0.1,0-0.1,0-0.2 C465.8,591,465.9,591,465.9,591.3C465.9,591.2,466,591.2,465.9,591.3C466,591.3,465.9,591.3,465.9,591.3z M467.1,593.3 C467,593.4,467,593.4,467.1,593.3c-0.1,0-0.1-0.2-0.1-0.2C467.2,593.2,467.2,593.2,467.1,593.3z M467.1,592.7 c-0.1,0-0.1-0.1-0.1-0.1c0,0,0.1-0.1,0.1-0.1c0.1,0,0.1-0.1,0.1-0.1C467.3,592.4,467.3,592.6,467.1,592.7z M466.2,584.1 c-0.1,0-0.1,0-0.1-0.1c0-0.1,0-0.2,0.1-0.2c0,0.1,0,0.1,0.1,0.2C466.3,584.1,466.3,584.1,466.2,584.1z M466.2,583.1 c0,0-0.1,0.1-0.2,0.1c0-0.1,0-0.1,0-0.2c0-0.1,0-0.1,0.1-0.2c0,0,0.1,0,0.1,0.1C466.2,582.9,466.2,583,466.2,583.1z M467.5,588.2 c0.1,0,0.1,0,0.2,0c0.1-0.1,0.2-0.1,0.4,0c0.1,0,0.2,0.1,0.3,0.1c0,0,0,0.1,0.1,0.1c0,0-0.1,0.1-0.2,0c-0.1,0-0.2,0-0.2,0 c0,0.1-0.3,0.1-0.5,0.1C467.5,588.4,467.5,588.3,467.5,588.2z M467.7,589.2c-0.1-0.1-0.2-0.2-0.2-0.3c0-0.1,0.3-0.2,0.3-0.1 c0,0,0.1,0,0.1-0.1c0.1-0.1,0.1-0.1,0.2,0c0,0.1,0.2,0.2,0.3,0.2c0.1,0,0.1,0.1,0.1,0.1c0,0,0,0.1-0.1,0.1c0,0-0.1,0-0.1,0 c-0.1,0-0.2,0-0.2,0.1c0,0-0.1,0.1-0.2,0.2c-0.1-0.1-0.2-0.1-0.2-0.1C467.8,589.3,467.8,589.3,467.7,589.2z M468.4,590 C468.5,590,468.5,589.9,468.4,590C468.5,590,468.5,590,468.4,590c0,0.1,0,0.2,0,0.3C468.5,590.2,468.5,590.1,468.4,590z M468.3,589.7c0-0.1,0-0.2,0.1-0.2C468.4,589.5,468.4,589.6,468.3,589.7C468.4,589.7,468.4,589.7,468.3,589.7z M468.9,591.3 c0,0.1,0,0.2,0,0.3c0,0.1-0.1,0.1-0.1,0.2c0,0.1,0,0.2-0.1,0.4c-0.1,0-0.2-0.1-0.3-0.1c0-0.1-0.1-0.1-0.1-0.1c0-0.1,0-0.1,0.1-0.2 c0-0.2,0.1-0.3,0.1-0.4c0,0,0.1-0.2,0.1-0.3c0-0.3,0-0.3-0.3-0.4c0.1,0.1,0.2,0.1,0.3,0.1C468.6,590.9,468.8,591.1,468.9,591.3 C468.9,591.2,468.9,591.3,468.9,591.3z M468.5,586.3c-0.3,0-0.4-0.2-0.4-0.7c0,0,0,0,0.1,0.1c0,0.1,0.2,0.2,0.3,0.3 C468.5,586,468.5,586.1,468.5,586.3C468.5,586.2,468.5,586.2,468.5,586.3z M468.8,582.7c0.1,0,0.1,0,0.1,0.1 C468.8,582.8,468.7,582.8,468.8,582.7z M470,591.2c-0.1-0.1-0.1-0.1-0.1-0.1c0,0,0-0.1,0-0.1c0-0.1,0-0.2,0.1-0.2c0,0,0,0,0,0.1 c0,0.1,0.1,0.1,0.1,0.1C470.2,591.2,470.2,591.2,470,591.2z M469.7,587.3c-0.1-0.2-0.1-0.3,0-0.3c0.1,0,0.1,0.1,0.2,0.1 C469.8,587.1,469.7,587.2,469.7,587.3z M470,586.3c0,0.1-0.3,0.1-0.4,0c0,0,0-0.1,0-0.1c0-0.1,0-0.1,0-0.2c0-0.2,0.1-0.3,0.4-0.1 c0,0.1,0.1,0.2,0.1,0.2C470.1,586.1,470,586.2,470,586.3z M470.5,588.7C470.5,588.7,470.5,588.7,470.5,588.7 c0-0.1-0.1-0.2-0.1-0.2c0-0.1,0-0.1,0-0.1c0-0.1,0-0.2,0-0.3c0,0.2,0.1,0.3,0.1,0.4C470.5,588.6,470.5,588.6,470.5,588.7z M471.8,593.7C471.8,593.6,471.8,593.6,471.8,593.7C471.8,593.6,471.8,593.6,471.8,593.7L471.8,593.7z M470.9,577.8 c0-0.1,0-0.1,0-0.2c0.1,0,0.1,0,0.1,0.1c0,0,0,0,0,0.1C471,577.8,471,577.9,470.9,577.8z M472.5,585.1c0,0,0,0.1,0,0.1 c0,0,0,0,0,0.1c0,0.2-0.1,0.3-0.1,0.3c-0.1,0-0.2-0.2-0.1-0.2c0.2-0.1,0-0.2-0.2-0.1c0-0.1,0-0.1,0.1-0.1c0.1,0,0.1,0,0.2-0.1 c0.1,0,0.1,0,0.2-0.1C472.5,585,472.5,585.1,472.5,585.1z M472.8,584.4C472.8,584.5,472.8,584.5,472.8,584.4 C472.8,584.5,472.8,584.5,472.8,584.4z M474.9,590.1c0-0.1,0-0.1,0.1-0.1c0.1,0,0-0.1,0.1-0.1c0,0,0,0,0,0.1c0,0,0,0,0,0.1 C475,590.1,474.9,590.1,474.9,590.1z M475.3,590.7c-0.2,0-0.2-0.2-0.1-0.2c0,0,0.1,0,0.1,0.1C475.3,590.6,475.3,590.7,475.3,590.7 z M475,588c0.1,0.1,0.1,0.1,0.2,0.1c0,0,0.1,0,0.1,0.1C475.1,588.3,475,588.2,475,588z M475.3,583.7c0,0-0.1-0.1-0.3-0.2 c-0.1,0-0.1-0.1-0.2-0.1c0,0,0-0.1,0-0.1c0,0,0,0,0.1,0c0,0.1,0.1,0.2,0.2,0.2C475.2,583.5,475.2,583.6,475.3,583.7 c0.1,0,0.2,0,0.2,0.1C475.4,583.8,475.3,583.7,475.3,583.7z M477,595.3c0,0,0-0.1,0-0.2c0.1,0,0.1,0.1,0.1,0.2 C477,595.3,477,595.4,477,595.3z M476.4,585.5c0,0,0.1-0.1,0.1-0.1c0,0.1,0,0.2-0.1,0.2C476.5,585.5,476.4,585.5,476.4,585.5z M476.8,588c0-0.3,0.1-0.3,0.2,0c0.1,0.3,0.1,0.3-0.1,0.3C476.9,588.3,476.8,588.2,476.8,588z M477.8,593.1c0-0.1-0.1-0.2-0.1-0.2 c0,0-0.1,0-0.1-0.1c0.1,0,0.1,0,0.3,0.1C477.8,593,477.8,593.1,477.8,593.1z M477.6,592.4c-0.1,0-0.1-0.4,0-0.5 c0.1-0.1,0.1-0.1,0.1,0.1C477.8,592.2,477.8,592.4,477.6,592.4z M478.2,594.9c-0.1-0.1-0.1-0.1-0.1-0.1 C478.1,594.7,478.1,594.8,478.2,594.9c0.1,0,0.1,0.1,0.1,0.1C478.2,595,478.2,594.9,478.2,594.9z M477.8,590.9 c0,0.1-0.1,0.3-0.1,0.5c0,0.1,0,0.2-0.1,0.3c-0.1,0.1-0.1-0.1-0.2-0.4c0-0.2,0.1-0.4,0.1-0.4c0,0,0.1-0.2,0.1-0.3 c0-0.2,0-0.3-0.2-0.4c-0.1-0.2-0.1-0.2,0-0.3c0,0,0.1,0,0.1,0c0.1,0,0.2,0.1,0.1,0.3c0,0.1,0,0.2,0.1,0.4 C477.9,590.7,477.9,590.7,477.8,590.9z M477.2,585C477.2,585,477.2,585,477.2,585c-0.2,0-0.3,0-0.3,0c0,0-0.1,0-0.1,0 c0-0.4-0.1-0.3-0.2,0c-0.2,0-0.5-0.1-0.6-0.1c0,0,0-0.1-0.1-0.1c0.2,0,0.2-0.1,0.2-0.2c0.2,0.1,0.3,0.1,0.4,0c0.1-0.1,0.2,0,0.4,0 c0.1,0.1,0.3,0.1,0.3,0.1c0.1,0,0.1,0,0.1,0.1C477.3,584.8,477.3,584.9,477.2,585z M479.1,596.1c0,0.1,0,0.4,0,0.6 c0,0,0,0.1,0,0.1c0-0.1-0.1-0.1-0.1-0.2c0,0,0-0.1,0-0.1c0-0.2,0-0.3-0.1-0.4c0.1-0.1,0.1-0.2,0.1-0.3c0-0.1,0-0.2,0.1-0.3 c0.1-0.1,0.1-0.2-0.2-0.4c-0.3-0.3-0.4-0.5-0.1-0.6c0.1,0,0.1-0.1,0.1-0.4c0-0.2,0-0.4,0.1-0.4c0,0,0.1-0.1,0.1-0.2 c0-0.1,0.1-0.2,0.2-0.2c0,0.3,0,0.6,0,1.1c0,0.5,0,0.8-0.1,1.1C479.1,595.8,479.1,596,479.1,596.1z M480.9,598.3 c-0.1-0.1-0.3-0.1-0.4,0c-0.2,0.1-0.3,0.2-0.2,0.3c-0.1,0.1-0.1,0.3-0.2,0.6c0,0,0,0.1,0,0.1c0-0.1,0-0.2-0.1-0.3 c-0.1-0.2-0.2-0.2-0.2-0.3c-0.1-0.2-0.1-0.4,0.1-0.5c0.2-0.1,0.2-0.1,0.2-0.4c0-0.2,0-0.5,0-0.6c0-0.1,0-0.2,0-0.3 c0,0,0-0.1,0-0.1c0-0.4-0.1-0.9-0.2-1c0-0.1,0-0.2,0.1-0.4c0.1-0.2,0.1-0.3,0-0.6c0-0.1-0.1-0.2-0.1-0.3c0,0,0.1,0,0.1,0 c0,0,0-0.1,0-0.2c0.1-0.1,0.1-0.3,0.1-0.5c0,0,0.1,0,0.1,0c0.2,0,0.2,0.1,0.2,0.3c0,0.2,0.1,0.7,0.3,0.9c0,0.1,0,0.2,0.1,0.4 c0.1,0.2,0.1,0.4,0.1,0.5c0,0.1,0,0.3,0,0.4c0.1,0.2,0.1,0.4,0,0.9c-0.1,0.8,0,0.9,0.2,0.9C480.9,598.2,480.9,598.3,480.9,598.3z M480.7,592.4c-0.4-0.1-0.5-0.1-0.6-0.4c-0.1-0.4-0.1-0.5,0.2-0.4c0.2,0.1,0.3,0.1,0.3,0.1c0,0.1,0,0.3,0.1,0.3 c0.1,0.1,0.1,0.2,0.1,0.4C480.8,592.5,480.8,592.4,480.7,592.4z M487.2,644.8c0-0.1,0-0.2,0-0.3 C487.2,644.7,487.2,644.8,487.2,644.8z M481.8,597.4c-0.1,0-0.2,0.1-0.2,0.1C481.6,597.3,481.7,597.3,481.8,597.4z M481.5,596.8 C481.5,596.8,481.6,596.8,481.5,596.8c0.1,0,0.1,0,0.2,0.1C481.6,597,481.5,596.9,481.5,596.8z M481.2,593.8 c-0.1-0.1-0.1-0.3-0.1-0.4c0-0.2,0-0.2,0.3-0.1c0.3,0.1,0.4,0.3,0.3,0.6C481.7,594.1,481.4,594,481.2,593.8z M480.9,589 c-0.1,0-0.1,0.1-0.2,0.1c0-0.5,0.1-0.6,0.3-0.4c0,0.1,0.1,0.1,0.1,0.2C481,588.9,481,589,480.9,589z M481.1,589.3c0,0,0-0.1,0-0.1 C481,589.2,481,589.2,481.1,589.3z M481.4,592.5c-0.1,0.1-0.2,0.1-0.2,0.1c0,0-0.1-0.1-0.1-0.1c0,0,0.1,0,0.1,0c0,0,0-0.1,0-0.2 C481.4,592.1,481.5,592.3,481.4,592.5z M487.1,639.9c0.1,0,0.1,0.1,0.1,0.1C487,640.1,487,639.9,487.1,639.9z M481.6,591.7 c0-0.3,0.1-0.3,0.2,0c0.1,0.1,0.1,0.2,0.1,0.2c0,0.1-0.1,0.1-0.1,0.1C481.7,591.9,481.6,591.9,481.6,591.7z M482.3,597.2 c0,0,0-0.1,0-0.1c0.1-0.1,0.3-0.2,0.4-0.1c0.1,0,0.1,0,0.2,0C482.6,597,482.4,597.1,482.3,597.2z M488.3,644.5c0,0,0-0.1,0-0.1 C488.3,644.4,488.3,644.4,488.3,644.5z M481.9,588.3c0,0.1,0,0.3,0,0.4c-0.1,0.1-0.3,0.1-0.3-0.1c0-0.2,0-0.2,0-0.2 c0-0.4,0-0.8,0.1-0.8C481.8,587.6,481.9,587.8,481.9,588.3z M487.4,633.9c0-0.1,0-0.1,0-0.2C487.5,633.7,487.5,633.8,487.4,633.9z M488,635.1c0,0.1,0,0.1,0,0.2c0,0-0.1,0-0.1,0c-0.2,0-0.2-0.2-0.1-0.4c0.1-0.2,0.2-0.2,0.2-0.1C488,634.8,488,634.9,488,635.1z M483.6,595c0-0.1,0-0.3,0-0.3C483.6,594.8,483.6,594.9,483.6,595z M482.6,586.5c0,0.1,0,0.2,0,0.3c0,0.1-0.1,0.1-0.1,0.1 c-0.1,0-0.2-0.2-0.1-0.3c0.2-0.1,0-0.2-0.2-0.1c-0.1,0-0.2,0.1-0.3,0.3c-0.1,0.4-0.2,0.4-0.4,0.4c-0.1,0-0.2,0-0.2,0.1 c0,0.1-0.4,0.4-0.5,0.3c-0.1,0-0.2-0.1-0.3-0.2c-0.2-0.2-0.4-0.1-0.4,0.2c0,0,0,0-0.1,0c-0.1,0-0.1-0.1-0.2-0.2 c-0.1-0.1-0.1-0.1-0.2-0.1c0-0.1,0-0.1,0-0.2c0.2-0.1,0.3-0.3,0.1-0.5c0,0,0-0.1,0-0.1c0,0,0,0,0-0.1c0,0,0,0,0.1-0.1 c0.1-0.1,0.2-0.2,0.2-0.4c0-0.2,0.1-0.3,0.1-0.3c0,0,0.1-0.2,0.1-0.3c0-0.3,0-0.3-0.3-0.4c-0.1-0.1-0.2-0.1-0.2-0.2 c0,0,0-0.1,0-0.1c0,0,0.1,0,0.1,0c0.3,0,0.4-0.1,0.3-0.4c-0.1-0.2-0.3-0.4-0.5-0.5c0-0.1,0-0.1,0.1-0.1c0.1,0,0.2-0.1,0.2-0.5 c0-0.2,0.1-0.4,0.1-0.5c0.1,0.2,0.2,0.4,0.2,0.4c0.1,0,0.2-0.4,0-0.5c0,0,0,0,0.1,0c0.2,0.2,0.2,0.2,0.2,0c0-0.1,0.1-0.4,0.1-0.5 c0-0.1,0-0.2,0-0.4c0.1-0.1,0.1-0.2,0.2-0.2c0.1-0.1,0.1-0.1,0.1-0.2c0.2-0.1,0.2,0,0.3,0.4c0.1,0.5,0.1,0.5-0.1,0.6 c-0.1,0.1-0.2,0.2-0.2,0.4c0,0.2,0,0.4,0.1,1c0,0.1,0,0.2-0.2,0.4c-0.3,0.2-0.3,0.4-0.2,0.7c0,0.1,0,0.2,0,0.3 c-0.1,0.1-0.1,0.2,0,0.5c0.1,0.5,0.2,0.6,0.4,0.4c0-0.1,0.2-0.2,0.4-0.2c0.3-0.1,0.5,0,0.5,0.3c0,0.1,0.1,0.2,0.3,0.2 C482.5,586.4,482.6,586.4,482.6,586.5C482.6,586.4,482.6,586.5,482.6,586.5z M482.1,581.5c0.1,0.1-0.2,0.3-0.4,0.2 c-0.1,0-0.1-0.1,0-0.3c0.1-0.3,0.1-0.3-0.2-0.3c-0.2,0-0.3-0.1-0.3-0.4c0.1-0.2,0.1-0.4,0.2-1.1c0.1-0.9,0.2-1.3,0-1.4 c0-0.1,0-0.1,0-0.2c0.1,0,0.1,0,0.2,0.1c0,0,0.1,0,0.1,0.1c0,0.1,0,0.1,0,0.2c0,0,0.1,0.1,0.2,0.2c0.1,0,0.1,0.1,0.1,0.1 c0,0-0.1,0-0.1,0c-0.2,0-0.2,0-0.1,0.2c0.1,0.1,0.1,0.2,0,0.2c-0.2,0.1-0.2,0.4,0,0.6c0.1,0.1,0.2,0.2,0.2,0.3 c0,0.1,0.1,0.1,0.1,0.2c-0.1,0-0.1,0.1-0.2,0.1c0,0.1-0.1,0.1-0.2,0.1c-0.4,0-0.2,0.3,0.2,0.3c0.4,0,0.5,0.1,0.3,0.2 C482,581,482,581.4,482.1,581.5z M482.8,584.6c0,0,0,0.2-0.1,0.3C482.5,584.8,482.6,584.6,482.8,584.6 C482.8,584.6,482.8,584.6,482.8,584.6z M484,592.4c-0.2-0.1-0.3-0.4-0.4-0.7c0-0.1,0-0.2,0-0.3c0.2-0.1,0.3,0.1,0.2,0.3 c0,0.1,0,0.2,0.1,0.4C484,592.2,484,592.3,484,592.4C484,592.4,484,592.4,484,592.4z M483.5,586c-0.1,0-0.1,0-0.1-0.2 c0-0.1,0.1-0.2,0.1-0.1c0.1,0,0.1,0.1,0.1,0.2C483.6,585.9,483.6,585.9,483.5,586z M490,640.6C490,640.6,490,640.6,490,640.6 C490,640.6,490,640.6,490,640.6L490,640.6z M483.9,586.9c-0.1,0-0.1-0.1-0.1-0.1c0,0,0,0,0.1,0c0.2,0,0.2-0.1,0.2-0.6 c0,0.1,0,0.1,0,0.2c0.1,0.1,0.1,0.3,0,0.5C484.1,586.9,484,587,483.9,586.9C483.9,586.9,483.9,586.9,483.9,586.9z M484.8,591.3 c-0.1,0-0.1,0-0.1-0.1c0,0,0-0.1-0.1-0.1c0,0,0.1,0,0.1,0C484.9,591.1,484.9,591.2,484.8,591.3z M484.2,584.2 c-0.1-0.1-0.1-0.2-0.1-0.3C484.2,584,484.2,584.1,484.2,584.2z M482,564.8C481.9,564.8,481.9,564.8,482,564.8 C482,564.8,482,564.8,482,564.8L482,564.8z M485.1,588.9c0,0,0-0.1,0-0.1C485.2,588.9,485.2,588.9,485.1,588.9 C485.2,588.9,485.2,588.9,485.1,588.9z M485.1,584.4C485.1,584.4,485.1,584.4,485.1,584.4c-0.1-0.1-0.1-0.1-0.1-0.2 c0,0,0.1,0,0.1,0C485.2,584.3,485.2,584.3,485.1,584.4z M491.6,636.3c0-0.1,0-0.1,0-0.2C491.6,636.2,491.6,636.2,491.6,636.3 C491.6,636.3,491.6,636.3,491.6,636.3z M485.5,581.4c-0.1-0.1-0.1-0.2-0.1-0.2c0.1,0,0.1,0,0.2,0 C485.5,581.2,485.5,581.3,485.5,581.4z M486,584.5c0-0.1,0-0.1,0-0.2c0.1,0,0.1,0,0.1,0.1C486.1,584.5,486,584.5,486,584.5z M483.6,560.5c0-0.1,0-0.1,0-0.2C483.6,560.4,483.6,560.4,483.6,560.5C483.6,560.5,483.6,560.5,483.6,560.5z M487.4,584.6 C487.4,584.6,487.4,584.6,487.4,584.6c-0.1,0.1-0.2,0.1-0.3,0.1c-0.1,0-0.1,0-0.2,0c-0.5-0.1-0.5-0.1-0.3-0.4 c0.1-0.1,0.1-0.1,0.2-0.1c0,0,0.1,0,0.2,0c0.1,0,0.1,0,0.2,0c0,0,0,0,0.1,0.1c0.1,0.1,0.1,0.1,0.2,0.2 C487.4,584.5,487.4,584.6,487.4,584.6z M487.5,581.4c0,0-0.1,0-0.1,0c0,0,0.1-0.1,0.1-0.1C487.5,581.3,487.5,581.3,487.5,581.4z M488.1,583.7c-0.1,0-0.1-0.1-0.1-0.2C488.1,583.5,488.2,583.6,488.1,583.7C488.2,583.7,488.1,583.7,488.1,583.7z M487.5,577.1 c0,0-0.1,0,0-0.1c0-0.1,0-0.1,0.1-0.1C487.5,576.9,487.5,577,487.5,577.1z M488.6,584.6c0-0.1,0-0.1,0-0.1c0.1-0.1,0.1-0.1,0.1,0 C488.6,584.4,488.6,584.5,488.6,584.6z M488.9,583.4c0,0.3-0.1,0.5-0.2,0.4c0-0.6,0-0.6,0.2-0.6 C488.9,583.2,488.9,583.3,488.9,583.4z M489.2,584.1C489.2,584,489.2,584,489.2,584.1C489.2,584,489.2,584,489.2,584.1z M489.1,582.5c0,0.1-0.1,0.2-0.1,0.3c-0.1,0-0.1,0-0.2-0.1c-0.1-0.1-0.1-0.1,0-0.2c0.1-0.1,0.1-0.2-0.1-0.3 c-0.1-0.1-0.1-0.2-0.1-0.3c0-0.1,0.3-0.2,0.4-0.1c0,0,0,0,0.1,0c0.1,0,0.2,0.1,0.2,0.1c0,0.1,0,0.3,0,0.4 C489.1,582.3,489.1,582.4,489.1,582.5z M489.4,583.3c0,0-0.1,0-0.1,0c0-0.1,0-0.2,0-0.2c0,0,0.1,0,0.1,0 C489.5,583.1,489.5,583.2,489.4,583.3z M490.3,579.7c0,0,0-0.1,0-0.1c0-0.1,0-0.1,0-0.2c0,0,0,0.1,0,0.1c0,0.1,0.1,0.1,0.1,0.1 C490.4,579.6,490.3,579.7,490.3,579.7z M490.1,578.8c0,0,0.1-0.1,0.1-0.1c0.1,0,0.1,0.1,0.1,0.3c0,0.1,0,0.2,0,0.3 c0-0.1,0-0.1-0.1-0.2C490.2,579,490.1,578.9,490.1,578.8z M490.3,578.3c-0.1,0-0.2,0-0.3,0c0,0,0,0,0.1-0.1 c0.1-0.1,0.2-0.1,0.2-0.2C490.3,578.2,490.3,578.2,490.3,578.3z M490.6,580.4C490.6,580.4,490.7,580.4,490.6,580.4 C490.7,580.4,490.6,580.4,490.6,580.4z M492,580.7c0.1,0,0.1,0.1,0.1,0.1C492.1,580.7,492.1,580.7,492,580.7z M493.1,586.1 c0-0.1,0-0.2,0-0.4c0-0.1,0-0.1,0-0.2c0-0.5,0.1-0.5,0.3-0.5c0,0,0.1,0,0.1,0c0,0,0,0,0,0.1c0,0.1,0,0.1,0.1,0.1c0,0,0,0,0,0.1 c0,0.2,0.1,0.4,0.3,0.4c0,0.1,0.2,0.4,0.2,0.5c-0.1,0-0.2,0.1-0.4,0.1C493.4,586.2,493.2,586.2,493.1,586.1z M495,587.8 c-0.2,0.2-0.2,0.2-0.2-0.1c0-0.1-0.1-0.2-0.1-0.2c0-0.2,0-0.3,0.1-0.3C494.9,587.2,495,587.4,495,587.8z M502.1,643.9 c-0.1-0.1-0.1-0.1-0.1-0.2c0-0.1,0-0.2,0.1-0.2C502.1,643.7,502.1,643.8,502.1,643.9z M495.9,585.5c0,0.1-0.1,0.2-0.1,0.5 c0,0.4-0.1,0.5-0.2,0.5c-0.1,0-0.2-0.2-0.1-0.3c0.2-0.1,0-0.2-0.2-0.1c-0.1,0-0.2,0.1-0.3,0.3c-0.1,0.4-0.1,0.4-0.3,0.4 c-0.1,0-0.2,0-0.2,0.1c0,0.1-0.2,0.2-0.3,0.3c0-0.1-0.1-0.1-0.1-0.2c0-0.1,0-0.1,0.2-0.2c0.2-0.1,0.3-0.2,0.2-0.3c0,0,0-0.1,0-0.1 c0.1-0.1,0.1-0.1,0-0.2c-0.1-0.1-0.1-0.1-0.2-0.2c0-0.1,0-0.1,0-0.2c0.1-0.1,0.1-0.2,0-0.2c-0.1,0-0.1,0-0.1,0 c-0.1-0.1-0.1-0.5,0.1-0.5c0.1,0,0.1-0.1,0.2-0.2c0.1-0.1,0.2-0.3,0.2-0.3c0.1,0,0.1-0.1,0.1-0.2c0.1,0,0.2,0,0.2,0 c0-0.1,0.4-0.2,0.5-0.2c0.1,0,0.2,0,0.3,0.1c0,0,0,0,0.1,0C495.9,584.8,495.9,585.2,495.9,585.5z M496,582.9 c-0.2,0.1-0.2,0.1,0,0.1c0,0.1,0,0.1,0,0.2c-0.2,0.1-0.3,0.2-0.3,0.4c0,0.2-0.1,0.3-0.3,0.2c0,0-0.1-0.1-0.1-0.1 c0-0.4,0-0.5-0.1-0.3c-0.1,0-0.2,0.1-0.3,0.2c0,0.1,0,0.1-0.1,0.1c0,0-0.1,0.1,0,0.1c0.1,0.2,0.1,0.3,0,0.4c0-0.1-0.1-0.3-0.2-0.4 c0.3-0.1,0.3-0.2,0.4-1.3c0.2,0.5,0.3,0.6,0.4,0.4c0-0.1,0.2-0.2,0.4-0.2C495.9,582.8,496,582.9,496,582.9L496,582.9z M495.6,578.2c0.1-0.3,0.1-0.3-0.2-0.3c0-0.1,0-0.1,0-0.1c0-0.1,0-0.4,0-0.4c0.1,0.1,0.2,0.1,0.3,0.1c0,0.2,0,0.4,0,0.5 c0,0.2,0.1,0.4,0.1,0.6c-0.1,0-0.2,0-0.2,0C495.6,578.5,495.6,578.4,495.6,578.2z M496.5,583.8 C496.5,583.9,496.5,583.9,496.5,583.8C496.5,583.9,496.5,583.9,496.5,583.8z M496.5,584.4c0-0.1,0-0.1,0-0.2c0,0,0.1,0,0.1,0 C496.6,584.3,496.6,584.3,496.5,584.4C496.6,584.4,496.5,584.4,496.5,584.4z M495.5,571.7c0,0.5-0.1,0.7-0.2,0.5 c0-0.1-0.1-0.2,0-0.4c0-0.3,0-0.3-0.2-0.3c0-0.1,0-0.3,0-0.4c0,0,0.1,0,0.1,0C495.5,571.2,495.5,571.2,495.5,571.7z M495.7,572.6 c0.1,0,0.1,0.1,0.1,0.1c0,0,0,0.1,0,0.2C495.6,572.9,495.6,572.7,495.7,572.6z M495.8,573.5C495.8,573.5,495.8,573.5,495.8,573.5 C495.8,573.4,495.8,573.4,495.8,573.5C495.8,573.4,495.8,573.4,495.8,573.5z M497.3,583.9c-0.1,0-0.1,0.1-0.1,0.2 c0,0.1,0,0.1-0.1,0.2c-0.1-0.2-0.1-0.5,0-0.5c0,0,0-0.1,0-0.2c0.1,0,0.1,0.1,0.2,0.1C497.3,583.7,497.3,583.8,497.3,583.9z M497.1,581.8c-0.1,0.1-0.1,0.1-0.1,0.1c0-0.1,0-0.3-0.1-0.5c0.1,0,0.1,0,0.2,0c0,0,0.1,0,0.2-0.1c0,0.1,0,0.2,0.1,0.3 C497.3,581.7,497.2,581.7,497.1,581.8z M497,579.4c0,0,0-0.3,0-0.6c0.2,0,0.2,0.1,0.2,0.2C497.1,579.3,497.1,579.5,497,579.4z M497,578.6c0-0.3,0-0.6,0.1-0.9C497.3,577.9,497.2,578.6,497,578.6z M497.7,581.7c0-0.1,0-0.2,0.1-0.3 C497.9,581.6,497.9,581.7,497.7,581.7z M498.8,582.3c-0.1,0-0.1,0-0.1,0.2c0,0.1,0,0.2,0.1,0.3c-0.1,0.1-0.3,0.3-0.5,0.4 c0-0.1,0-0.1,0-0.2c0-0.7,0-0.7,0.2-0.8c0.1,0,0.2-0.1,0.3-0.1C498.8,582.2,498.8,582.3,498.8,582.3z M499.2,582.4 c0,0-0.1,0-0.2,0c0-0.1,0-0.1,0-0.2c0-0.1,0-0.1,0-0.1c0,0,0.1,0,0.1,0.1C499.2,582.2,499.2,582.2,499.2,582.4 C499.2,582.3,499.2,582.3,499.2,582.4z M500.8,580c-0.1,0-0.1,0-0.2,0.1C500.5,580,500.7,579.9,500.8,580 C500.8,580,500.8,580,500.8,580z M503.3,582.7c-0.1,0-0.1,0-0.1-0.1c0,0,0.1,0,0.1-0.1C503.3,582.6,503.3,582.6,503.3,582.7 L503.3,582.7z M509.4,583.2c0,0,0.1-0.1,0.1-0.1c0.1,0-0.1,0.3-0.1,0.3C509.5,583.3,509.5,583.3,509.4,583.2z M514.8,628.7 c-0.1-0.2-0.1-0.4-0.1-0.6c0,0,0.1,0.1,0.1,0.2c0,0.1,0,0.1,0,0.1C514.9,628.5,514.9,628.7,514.8,628.7z M509.6,583.8l0.1-0.2 c0.1,0,0.1,0,0.1-0.1c0,0,0-0.1-0.1-0.1l0.1-0.4c0,0,0.1-0.1,0.2-0.1c0,0.5-0.1,0.9-0.1,1.3c-0.1,0-0.1-0.1-0.1-0.1 C509.7,584.1,509.7,584,509.6,583.8z M518.1,652.5c0,0.1,0,0.2,0,0.3c0,0-0.1,0-0.2,0c0-0.1,0-0.2,0-0.2 C518,652.5,518,652.5,518.1,652.5z M518.3,653.3c-0.1,0.1-0.1,0.1,0,0.1l-0.1,0.1c0-0.1,0-0.1-0.1-0.1c0,0,0,0.1-0.1,0.1 c0,0,0,0,0-0.1c0-0.1,0-0.1-0.3-0.1c0-0.1,0-0.1,0-0.2c0.1,0,0.1,0,0.1-0.1c0.1,0,0.2,0,0.2,0 C518.2,653.1,518.3,653.2,518.3,653.3C518.4,653.2,518.4,653.3,518.3,653.3z M518.4,652.6c0,0,0,0.1,0,0.1c0-0.1-0.1-0.1-0.1-0.3 c0,0,0.1,0,0.1-0.1C518.4,652.5,518.4,652.6,518.4,652.6z M510.1,581c-0.3-0.1-0.4-0.1-0.4-0.3c0-0.1,0.2-0.1,0.4,0 C510.2,580.8,510.1,580.9,510.1,581z M518.4,652c0-0.1,0-0.1,0-0.1c0,0,0-0.1,0-0.1C518.4,651.8,518.4,651.9,518.4,652L518.4,652z M510.7,583.5c-0.1,0-0.1-0.3-0.1-0.6c0,0,0.1,0,0.2,0c0.1,0,0.1,0,0.1,0C510.9,583,510.8,583.3,510.7,583.5z M510.3,576.7 C510.3,576.7,510.4,576.6,510.3,576.7c0.1,0,0.1,0.1,0.1,0.1c0,0,0,0.1,0,0.1C510.3,576.9,510.3,576.8,510.3,576.7z M517.4,631.8 c0,0,0,0.1,0,0.1C517.4,631.9,517.4,631.9,517.4,631.8z M519.9,653.1L519.9,653.1c0.1-0.1,0.1-0.1,0.2,0 C520,653.1,519.9,653.1,519.9,653.1z M511.6,580.2c-0.1,0.1-0.1,0.2,0,0.5c0,0.1,0.1,0.2,0.1,0.2c-0.1,0.3-0.2,0.6-0.4,1 c-0.1-0.1-0.1-0.1-0.2,0c-0.1-0.1-0.1-0.2-0.1-0.3c0,0,0-0.1,0-0.1c0,0,0.1,0,0.2,0c0.2,0.2,0.4,0.1,0.3-0.3c0-0.2,0-0.4,0-0.4 C511.5,580.6,511.6,580.3,511.6,580.2c0,0,0-0.1,0-0.2C511.7,580.1,511.7,580.1,511.6,580.2z M509.3,556c0,0,0,0.1,0,0.1 C509.4,556.1,509.4,556.1,509.3,556z M511.9,577.3L511.9,577.3c0.1-0.1,0.1-0.1,0.2,0C512,577.3,511.9,577.3,511.9,577.3z M521.7,654.7c0-0.1,0-0.1,0-0.2C521.8,654.6,521.8,654.6,521.7,654.7C521.8,654.7,521.7,654.7,521.7,654.7z M521.7,653.4 C521.7,653.3,521.6,653.3,521.7,653.4c0-0.1,0.1-0.1,0.1-0.2C521.8,653.4,521.8,653.4,521.7,653.4z M513.7,578.9 c0-0.1,0-0.1,0-0.2C513.8,578.8,513.8,578.8,513.7,578.9C513.7,578.9,513.7,578.9,513.7,578.9z M513.7,577.6 C513.6,577.5,513.6,577.5,513.7,577.6c0-0.1,0.1-0.1,0.1-0.2C513.8,577.6,513.8,577.6,513.7,577.6z M524.2,658.4 c-0.1,0-0.2,0-0.2,0c0-0.1,0-0.1,0-0.1c0.1,0,0.1,0,0.2-0.1c0,0,0,0,0-0.1C524.3,658.2,524.3,658.3,524.2,658.4z M545.4,670.6 c0-0.1-0.1-0.1-0.1-0.2c0,0,0.1-0.1,0.1-0.1C545.4,670.4,545.4,670.5,545.4,670.6z M546.6,667.7c0.1-0.2,0.1-0.3,0.2-0.4 c-0.1,0.5-0.1,0.8-0.2,1c-0.1-0.1-0.1-0.1-0.1-0.2C546.5,668,546.6,667.8,546.6,667.7z M546.3,668.5c0.1,0,0.6,0,0.6,0 c0,0.1-0.1,0.2-0.2,0.3c0-0.1-0.1-0.1-0.3-0.2C546.4,668.6,546.3,668.6,546.3,668.5C546.3,668.5,546.3,668.5,546.3,668.5z M546.3,670.1c0.1,0,0.2-0.1,0.3-0.1c0,0,0.1,0,0.1,0c0.1,0.2,0.2,0.2,0.2,0c0,0,0-0.1,0-0.1c0.1-0.1,0.3-0.2,0.4-0.3 c0.1,0.1,0.1,0.1,0.1,0.1c0,0.1,0,0.8,0,1c-0.1,0.1-0.2,0.1-0.3,0.2c0-0.3-0.1-0.5-0.2-0.5c-0.1,0-0.2-0.1-0.3-0.1 C546.4,670.2,546.3,670.1,546.3,670.1C546.3,670.1,546.3,670.1,546.3,670.1z M546.3,670.6c0.2,0,0.1,0,0,0.1 C546.3,670.7,546.3,670.7,546.3,670.6z M545,669c0.1,0,0.2,0,0.2-0.2c0-0.2,0.1-0.2,0.2-0.1c0,0.1,0,0.3,0,0.5c0,0-0.5,0-0.5,0 C544.9,669.2,545,669,545,669z M544.1,667.7c0.1,0,0.1,0,0.2,0c-0.1,0.1-0.2,0.1-0.3,0.1c-0.1-0.1-0.2-0.1-0.4-0.2 C543.6,667.6,544.1,667.7,544.1,667.7z M543.3,667.9c0.1,0.1,0.2,0.1,0.3,0.1c0,0,0.1,0.1,0.2,0c0.1,0,0.2-0.1,0.3,0 c0,0,0.1,0,0.2,0c0,0.2,0,1,0,1c-0.1,0-0.1,0-0.2,0c-0.1,0-0.2,0-0.2-0.1c0-0.1,0-0.1-0.1-0.1c0,0-0.1-0.1-0.1-0.2 c0-0.2-0.2-0.2-0.3-0.1c0,0.1-0.1,0.1-0.2,0.1l0-0.2c0-0.1,0-0.2-0.1-0.3c0-0.1-0.1-0.2-0.1-0.3 C543.2,667.9,543.3,667.9,543.3,667.9z M527.9,654.9c-0.1,0-0.1,0-0.2,0.1c-0.2,0-0.2-0.1,0-0.2c0.1-0.1,0.2-0.1,0.2-0.1 C528,654.8,527.9,654.8,527.9,654.9z M529.9,660.6C529.8,660.6,529.9,660.5,529.9,660.6c0.1-0.1,0.2-0.1,0.2-0.1 C530.1,660.6,530,660.6,529.9,660.6z M521.8,584.8C521.8,584.8,521.8,584.7,521.8,584.8c0.1-0.1,0.2-0.1,0.2-0.1 C522,584.8,522,584.9,521.8,584.8z M531.2,660.4C531.2,660.4,531.2,660.4,531.2,660.4L531.2,660.4z M523.2,584.6 C523.1,584.6,523.1,584.6,523.2,584.6L523.2,584.6z M534.1,663.7c-0.1,0-0.1,0-0.1-0.1c0-0.1,0-0.1,0.1-0.1c0.1,0,0.1,0,0.1,0.1 C534.2,663.7,534.1,663.7,534.1,663.7z M534,663.2c0,0,0-0.1,0-0.1c0.1-0.1,0.1-0.1,0.2,0C534.3,663.1,534.2,663.2,534,663.2z M534.3,662.5c-0.1,0-0.1,0-0.2,0c-0.2-0.1-0.1-0.2,0.2-0.1C534.3,662.4,534.3,662.5,534.3,662.5z M534,657.4c-0.1,0-0.2,0-0.2,0 c0,0-0.1,0-0.1,0c0,0,0-0.1,0-0.1c0-0.1,0.1-0.2,0.3-0.2c0.1,0,0.1,0,0.2,0.1L534,657.4z M531.3,624.1c0-0.1,0-0.3,0-0.4 C531.4,623.7,531.4,623.8,531.3,624.1z M531.5,621.8c-0.1,0.1-0.2,0-0.2,0c0,0,0,0,0-0.1c0,0,0-0.1,0-0.1c0,0,0-0.2,0-0.4 c0.1-0.1,0.3,0,0.4,0.2C531.6,621.4,531.5,621.6,531.5,621.8z M523.3,548.3c0-0.1,0-0.3,0-0.4C523.4,547.9,523.4,548,523.3,548.3z M523.5,546c-0.1,0.1-0.2,0-0.2,0c0,0,0,0,0-0.1c0,0,0-0.1,0-0.1c0,0,0-0.2,0-0.4c0.1-0.1,0.3,0,0.4,0.2 C523.6,545.7,523.5,545.8,523.5,546z M537.1,627.1c-0.1-0.1-0.2-0.2,0-0.3c0.1-0.1,0.3,0.1,0.3,0.2 C537.3,627.1,537.3,627.2,537.1,627.1z M537.8,627.1c-0.1,0-0.1-0.2,0-0.1C537.8,627,537.8,627,537.8,627.1z M529.1,551.3 c-0.1-0.1-0.2-0.2,0-0.3c0.1-0.1,0.3,0.1,0.3,0.2C529.3,551.3,529.2,551.4,529.1,551.3z M529.8,551.3c-0.1,0-0.1-0.2,0-0.1 C529.8,551.2,529.8,551.2,529.8,551.3z M550.8,619.4c0,0.2,0,0.3-0.1,0.2c0-0.1,0-0.3,0-0.5C550.8,619.1,550.8,619.2,550.8,619.4z M552.6,630c0-0.1,0-0.1,0-0.2c0-0.1,0.1-0.1,0.2-0.2C552.6,629.9,552.6,630.1,552.6,630z M542.8,543.6c0,0.2,0,0.3-0.1,0.2 c0-0.1,0-0.3,0-0.5C542.8,543.3,542.8,543.4,542.8,543.6z M544.5,554.2c0-0.1,0-0.1,0-0.2c0-0.1,0.1-0.1,0.2-0.2 C544.6,554.1,544.6,554.3,544.5,554.2z M554.5,634.3c-0.1,0-0.2,0.1-0.3,0c0.1-0.1,0.1-0.2,0.1-0.4c0,0,0.1,0,0.1,0 c0,0,0.1,0,0.1,0.1C554.6,634.1,554.5,634.1,554.5,634.3z M546.2,558.5c0-0.1,0.1-0.2,0.1-0.4c0,0,0.1,0,0.1,0c0,0,0.1,0,0.1,0.1 c0,0.1,0,0.2-0.1,0.3C546.4,558.5,546.3,558.5,546.2,558.5z M553.5,615.9c0,0.1,0,0.1,0,0.2c-0.1,0.1,0,0.3,0.1,0.4 c0,0.3,0,0.6-0.1,0.8c-0.2,0.4-0.3,0.2-0.3-0.5c0-0.2,0-0.5,0-0.7c0-0.2,0-0.4,0-0.5c0.1-0.1,0.1-0.2,0.2-0.2 c0.1,0,0.1,0.1,0.2,0.2C553.5,615.6,553.5,615.7,553.5,615.9z M545.5,540.1c0,0.1,0,0.1,0,0.2c-0.1,0.1,0,0.3,0.1,0.4 c0,0.3,0,0.6-0.1,0.8c-0.2,0.4-0.3,0.2-0.3-0.5c0-0.2,0-0.5,0-0.7c0-0.2,0-0.4,0-0.5c0.1-0.1,0.1-0.2,0.2-0.2 c0.1,0,0.1,0.1,0.2,0.2C545.5,539.8,545.5,540,545.5,540.1z M561.9,567.1c0-0.1,0.1-0.1,0.1-0.2c0,0,0-0.1,0-0.1 c0-0.1,0-0.2,0.1-0.2C562.1,566.7,562.1,566.9,561.9,567.1c0.1,0.1,0.1,0.1,0,0.1C561.9,567.2,561.9,567.1,561.9,567.1z M558,569.6c0-0.1,0-0.2,0-0.2c0.1,0,0.1,0,0.2,0l0.1,0.3C558.2,569.6,558.1,569.6,558,569.6z M559.7,557.3 c-0.1-0.1-0.1-0.2,0-0.2C559.7,557.1,559.7,557.2,559.7,557.3z M561.5,569.9c-0.2,0-0.2,0.1-0.2,0.2c0,0,0-0.1,0-0.2 c0-0.3,0.1-0.4,0.2-0.3c0,0,0.1,0.1,0,0.2C561.5,569.8,561.5,569.8,561.5,569.9z M559.8,553.8c0,0.1-0.1,0.1-0.2,0.2 c0-0.1,0-0.2,0-0.2C559.6,553.8,559.6,553.8,559.8,553.8C559.7,553.8,559.8,553.8,559.8,553.8 C559.8,553.8,559.8,553.8,559.8,553.8z M562,569.7c0,0-0.1,0.1-0.1,0.1c0.1-0.1,0.1-0.3,0.1-0.5c0,0,0-0.1,0-0.1 C562,569.3,562,569.5,562,569.7z M567.8,618.2c-0.1-0.1-0.1-0.1-0.1-0.2C567.9,617.9,567.9,618,567.8,618.2z M568.2,619.6 c-0.1-0.1-0.2-0.2-0.1-0.4c0-0.1,0.1-0.1,0.1-0.1C568.2,619.2,568.2,619.4,568.2,619.6z M562.2,565.2c0,0.2,0,0.3,0,0.4 c0,0,0,0.1,0,0.1c0-0.2,0-0.4,0.1-0.7C562.2,565.1,562.2,565.2,562.2,565.2z M563.1,557.6c-0.2,0-0.2,0.3,0,0.3 c-0.1,0.1-0.1,0-0.2-0.1c-0.1-0.1-0.1-0.3-0.1-0.5c0.1,0,0.3,0,0.4,0C563.1,557.4,563.1,557.5,563.1,557.6z M563.2,556.5 c0-0.1,0-0.2,0-0.3C563.2,556.4,563.2,556.5,563.2,556.5z M563.1,555.4c0,0-0.1,0.2-0.1,0.4c0-0.2,0-0.5,0.1-0.7c0,0,0,0,0,0.1 C563.2,555.2,563.2,555.3,563.1,555.4z M565.1,564.8c-0.1,0-0.1,0-0.2,0c0-0.1,0-0.2,0-0.3C565.2,564.4,565.3,564.6,565.1,564.8z M565.1,563.6c-0.1,0-0.1,0-0.1,0c0,0,0-0.1,0-0.1C565.1,563.4,565.2,563.5,565.1,563.6C565.2,563.5,565.2,563.5,565.1,563.6 C565.2,563.6,565.1,563.6,565.1,563.6z" class="st1"/><path d="M445.5,652.7c-0.1,0.1-0.1,0.1-0.1,0.2c0,0,0,0.1,0,0.1l0.4-0.1C445.7,652.7,445.6,652.6,445.5,652.7z" class="st0"/><path d="M319.8,624.1c0,0.2,0.1,0.4,0.1,0.6c0-0.1,0.1-0.2,0.1-0.3C319.9,624.3,319.9,624.2,319.8,624.1z" class="st0"/><path d="M508.4,519.9l-146,16.9c-34.7,4-59.7,34.5-55.8,68.1l2,17.7c1.3,11.3,5.7,21.5,12.3,29.9 c-8.1,14.3-21,25.7-37,32c6.4,0.9,13.1,1.1,19.8,0.3c14.3-1.7,27.2-7.2,37.7-15.4c11,5.7,23.8,8.3,37.1,6.7l146-16.9 c34.7-4,59.7-34.5,55.8-68.1l-2-17.7C574.4,539.9,543.1,515.9,508.4,519.9z" class="st2"/></g><path d="M377.5,567.3c-0.4-1.7-2.6-1.8-3.1,0c-2.6,9.5-1.5,20.6-1,30.6c-5.1-0.1-10.1,0.3-15.2,1.1 c-3.2,0.5-7,0.9-9.8,2.5c-0.6-5-1-10-1.4-15c-0.4-4.7,0.2-9.8-2.8-13.6c-0.3-0.4-1.1-0.5-1.4,0c-2.4,3.7-1.7,7.2-1.5,11.6 c0.3,5.8,0.8,11.6,1.3,17.5c1.2,12,2.7,24.1,5.2,36c0.7,3.6,6.6,3,5.9-0.7c-1.7-10.2-3.4-20.3-4.7-30.5c3.2,0.5,6.7-0.5,10-0.9 c4.9-0.5,9.8-0.7,14.7-0.9c0.6,10.3,1.4,20.5,2.6,30.7c0.4,3.9,6.7,3.2,6.3-0.7c-1.3-11.2-2.3-22.5-2.9-33.8 C379.1,590.2,380.3,577.9,377.5,567.3z" class="st0"/><path d="M353.1,595.3c-0.1,0-0.1,0.2,0,0.1C353.2,595.4,353.2,595.3,353.1,595.3z" class="st0"/><path d="M379.3,573.2c-0.1,0-0.1,0.2,0,0.1C379.4,573.3,379.4,573.1,379.3,573.2z" class="st0"/><path d="M384,604.7c-0.1,0-0.1,0.2,0,0.1C384.2,604.9,384.1,604.7,384,604.7z" class="st0"/><path d="M416.6,624.8c-3.2,0.6-7.8,2-11,1.3c-4.5-0.9-4.2-3.5-4.6-7.3c-0.6-5.9-1.7-17.7-1.7-17.8 c1.7,0,3.4-0.2,5.2-0.3c2.1-0.1,4.4,0.2,6.3-0.8c2.1-1.1,2.3-3.9,0.1-5c-2.1-1-4.4-0.6-6.7-0.4c-1.8,0.2-3.6,0.3-5.4,0.8 c-0.5-8.1-0.9-16.3-2-24.3c0.1-1.3,0.2-2.5,0.2-3.8c3.6-0.8,7.7-1.4,11.3-0.9c2.2,0.3,4.5-2.6,2.7-4.4c-2-2.1-4.6-1.6-7.3-1.3 c-3.5,0.4-6.9,1.2-10.3,2.3c-1.2,0.4-1.7,1.6-1.7,2.7c0.1,1.2,0.2,2.4,0.3,3.5c-0.5,14.8,1.9,30.2,3.3,44.8 c0.4,4.3-0.6,12.6,3.3,15.8c4.2,3.4,13.8,1.4,18.5,0.6C420.9,629.8,420.2,624.1,416.6,624.8z" class="st0"/><path d="M452.7,621.9c-5.1,0.9-10.2,1.7-15.4,2.5c-0.8-11-3.4-44.7-4-50.5c-0.5-5.5-0.5-11.4-2.9-16.4 c-0.5-1-2.5-1.4-2.9,0c-3.2,10.1-0.1,23,0.6,33.3c0.9,12.6,1.9,25.2,2.9,37.7c0.1,1.7,1.9,3.1,3.7,2.8c6.2-1.1,12.5-2.1,18.8-3.1 C457.6,627.6,456.9,621.2,452.7,621.9z" class="st0"/><path d="M486.9,617.8c-4.7,0.7-9.5,1.4-14.2,2c-1.2-10.7-2.4-21.4-3.7-32.2c-1.3-10.9-1.6-22.6-5.1-33 c-0.6-1.8-3.7-1.4-3.8,0.4c-1,11,1.3,22.4,2.5,33.3c1.3,11.8,2.7,23.6,4,35.4c0.2,1.7,1.9,3,3.6,2.8c5.8-0.8,11.6-1.6,17.5-2.4 C491.9,623.6,491.2,617.2,486.9,617.8z" class="st0"/><path d="M520.2,553c-3.5-5-11.1-10.4-17.1-5.4c-2,1.7-3.4,4.3-4.3,7.2c-5,11.4-2.4,35.5-1.7,40.8 c1.1,8.4,3.4,19,11.9,23.3c7.4,3.8,13.5-1.1,16-8c3.5-9.8,2.5-21.6,2.1-31.7C526.7,570.2,525.6,560.7,520.2,553z M519.3,601.3 c-0.3,2.6-0.4,6.9-2,9.1c-4.7,6.2-8.7-1.3-10.2-4.4c-2.5-5.5-2.9-11.8-3.4-17.7c-0.5-6.5-0.6-12.9-0.4-19.4 c0.9-3.7,1.8-7.5,2.8-11.2c2.9-10.5,10.3,3,11.6,7.4C520.9,576.1,520.6,590.1,519.3,601.3z" class="st0"/></g></svg>