<svg xmlns="http://www.w3.org/2000/svg" xmlns:xlink="http://www.w3.org/1999/xlink" id="Layer_1" x="0" y="0" version="1.1" viewBox="0 0 864.6 1204.7" xml:space="preserve" style="enable-background:new 0 0 864.6 1204.7"><style type="text/css">.st0{fill:none;stroke:#fff;stroke-width:4;stroke-miterlimit:10}.st1{fill:#1f3247}.st2{fill:#618e77}.st3{fill:#75aa8d}.st4{fill:#35685e}.st5{fill:#d19e66}.st6{fill:#2c3451}.st7{fill:#343a55}.st8{fill:#fffaf5}.st9{fill:#111}.st10{fill:#ad9277}.st11{fill:#dddcd3}.st12{fill:#5d5e37}.st13{fill:#fff}.st14{fill:#758fb3}.st15{fill:#91aece}.st16{fill:#829cbf}.st17,.st18{opacity:.69;fill:#ccc}.st18{opacity:.5}.st19{display:none}.st20{fill:#fff}.st20,.st21{display:inline}.st22{fill:#0f0904}.st23{fill:#fff;stroke:#000;stroke-width:8.4557;stroke-miterlimit:10}.st24{opacity:.5;fill:#e5ace5}.st25{fill:#091307}.st26,.st27{stroke:#000;stroke-miterlimit:10}.st26{fill:none;stroke-width:1.3459;stroke-linecap:round;stroke-linejoin:round}.st27{stroke-width:.5}.st28{fill:url(#SVGID_1_)}.st29{fill:url(#SVGID_2_)}.st30{fill:url(#SVGID_3_)}.st31{fill:url(#SVGID_4_)}.st32{fill:url(#SVGID_5_)}.st33{fill:url(#SVGID_6_)}.st34{fill:url(#SVGID_7_)}.st35{fill:url(#SVGID_8_)}.st36{opacity:.5;fill:url(#SVGID_9_)}.st37{opacity:.2;fill:url(#SVGID_10_)}.st38{fill:url(#SVGID_11_)}.st39{fill:url(#SVGID_12_)}.st40{fill:url(#SVGID_13_)}.st41{fill:url(#SVGID_14_)}.st42{fill:url(#SVGID_15_)}.st43{fill:url(#SVGID_16_)}.st44{fill:#fff99f}.st45{fill:url(#SVGID_17_)}.st46{opacity:.5;fill:url(#SVGID_18_)}.st47{display:inline;fill:#222221}.st48{fill:#50311d}.st48,.st49,.st50{display:inline}.st49{fill:#dac5b5}.st50{fill:#78676b}.st51{fill:#e0dece}.st52{fill:#7f7f7f}.st53{fill:#9f9e91}.st54{fill:#c1c8ce}.st55{fill:#4b391f}</style><polygon points="743.3 462.9 743.3 1025.4 121.4 1025.4 121.4 462.9 432.4 242.1" class="st0"/><rect width="621.9" height="155.6" x="121.4" y="869.8" class="st1"/><g><path d="M631.5,688.4c0,0,11.9-8.8,6.5-13.5c-12.6-10.5-45.3,25.5-44.5,29.3c0.8,3.8,40.5,11,47.3-7.2 C645.2,685.8,631.5,688.4,631.5,688.4z" class="st2"/><path d="M631.5,688.4c0,0-10,0.8-37.9,15.8c0.8,3.8,40.5,11,47.3-7.2C645.2,685.8,631.5,688.4,631.5,688.4z" class="st3"/><path d="M606.5,697.9l-0.3-0.7c29.9-14.5,48.8-14.7,56.3-0.6l-0.7,0.4C654.6,683.3,636,683.6,606.5,697.9z" class="st4"/><path d="M595.1,703.9l-0.4-0.7c2.4-1.3,4.7-2.6,6.9-3.7l0.3,0.7C599.8,701.3,597.5,702.6,595.1,703.9z" class="st4"/><path d="M677.4,694.8h-10.3h-10.3c0,0-14,58.3-12.8,66.6c1.3,8.3,6.4,12.8,6.4,12.8h16.7h16.7c0,0,5.1-4.4,6.4-12.8 C691.5,753.1,677.4,694.8,677.4,694.8z" class="st5"/><rect width="21.9" height=".8" x="656.2" y="697.2" class="st6"/><rect width="46.1" height=".8" x="644.1" y="760.4" class="st6"/><g><rect width="54.4" height="8.6" x="639.9" y="774.2" class="st7"/><g><rect width="114.9" height=".7" x="585.9" y="837.7" class="st6" transform="matrix(4.947206e-02 -0.9988 0.9988 4.947206e-02 -225.459 1439.1704)"/><rect width=".8" height="114.9" x="690.6" y="780.6" class="st6" transform="matrix(0.9987 -5.032912e-02 5.032912e-02 0.9987 -41.302 35.8365)"/></g><rect width="51" height=".8" x="641.7" y="871.9" class="st6"/><rect width="49.3" height=".8" x="642.5" y="855.3" class="st6"/></g><path d="M705.8,700.2c0,0-11.8-8.9-14.8-2.4c-6.5,15.1,28.5,42.3,31.9,40.4c3.4-1.9,7.8-48.1-11.5-49.4 C699.4,687.8,705.8,700.2,705.8,700.2z" class="st2"/><path d="M705.8,700.2c0,0-11.8-8.9-14.8-2.4c-6.5,15.1,28.5,42.3,31.9,40.4C721.9,729.4,711.8,703.9,705.8,700.2z" class="st3"/><path d="M659.9,661.4c0,0,0.6,11.9-8.9,10.7c-9.5-1.1-1.9-35.2-1.9-35.2s30.6,17.8,22.4,25.6 C665.6,668.8,659.9,661.4,659.9,661.4z" class="st3"/><path d="M659.9,661.4L649.1,637c0,0,30.6,17.8,22.4,25.6C665.6,668.8,659.9,661.4,659.9,661.4z" class="st2"/><path d="M680.6,671.8c8.4-10.9,23-17.4,39.9-23.1c0,0-7.9,26.6-18.3,30.3C692.1,681.9,680.6,671.8,680.6,671.8z" class="st2"/><path d="M644.6,661.6c0,0-14.9-16.7-25.8-24.7c0,0,2.1,19.6,8.7,24.7C634.2,666.1,644.6,661.6,644.6,661.6z" class="st2"/><path d="M675.8,678.3l-0.6-0.4c9.1-14.9,27.1-23,45.3-29.6l0.3,0.7C702.7,655.6,684.8,663.6,675.8,678.3z" class="st4"/><path d="M670.1,694.9l-0.7-0.1c0.6-4.8,2-9.4,4-13.5l0.7,0.3C672,685.6,670.7,690.1,670.1,694.9z" class="st4"/><path d="M666.8,694.9c-1.8-22.4-10.2-42.4-16.9-55.2l0.7-0.3c6.8,12.9,15.2,33,17,55.5L666.8,694.9z" class="st4"/><path d="M721.6,735.9c-0.5-2.5-1.1-5-1.8-7.4l0.7-0.2c0.7,2.4,1.3,4.9,1.8,7.5L721.6,735.9z" class="st4"/><path d="M717.9,722.3c-6.8-19.4-18.9-32.8-30.8-34.1c-5.8-0.6-10.7,1.8-13.9,6.8l-0.6-0.4c3.3-5.3,8.5-7.9,14.6-7.2 c12.3,1.4,24.6,15,31.5,34.6L717.9,722.3z" class="st4"/><path d="M650.1,708.3c0,0,2.5-9.8-3.9-8.3c-14.7,3.8-7.4,40.5-4.1,41.9s32.1-17.2,22.2-32.1 C658.3,700.5,650.1,708.3,650.1,708.3z" class="st2"/><path d="M650.1,708.3c0,0-6.5,20.7-8,33.6c3.3,1.4,32.1-17.2,22.2-32.1C658.3,700.5,650.1,708.3,650.1,708.3z" class="st3"/><path d="M664,695c-6.1-15-15-28.6-26.4-40.7l0.5-0.5c11.4,12.1,20.3,25.9,26.5,40.9L664,695z" class="st4"/><path d="M634,650.5c-4.7-4.6-9.9-9.1-15.4-13.3l0.5-0.6c5.5,4.2,10.7,8.7,15.4,13.3L634,650.5z" class="st4"/><path d="M643,737.9l-0.7-0.1c0.3-1.9,8.3-46,19.6-48.9c1.9-0.2,3.4,0.1,4.6,1.1c2.1,1.7,2.4,4.7,2.4,4.8l-0.7,0.1 c0,0-0.3-2.8-2.2-4.3c-1-0.8-2.4-1.2-4-0.9C651.3,692.4,643.1,737.4,643,737.9z" class="st4"/></g><g><g><path d="M323.9,474.3c-0.2-14.1,2.2-47.6-0.7-47.7c-14-0.2-29.7-0.4-43.7-0.7c-6.8-0.1-13.7-0.3-20.5-0.3 c-5.6,0-11.6-0.6-17.2,0.1c-1.3-1.6-4.4-0.5-4.7,1.8c-0.9,7.7,0.2,15.9,0.5,23.7c0.3,7.9,0.6,15.8,0.9,23.7 c0.2,7.9,0.5,15.8,0.7,23.7c0.2,7.4-0.2,15.1,1,22.3c0.3,1.7,1.8,2.1,3.1,1.5c12.7,0.6,25.4,0.4,38.1,0.5 c12.7,0.1,25.6,0.5,38.2-0.6c0.3,0,0.5-0.1,0.7-0.2c1.7,0.7,4-0.1,4-2.4C324.2,504.6,324.1,489.4,323.9,474.3z" class="st8"/><path d="M323.9,474.3c-0.2-14.1,2.2-47.6-0.7-47.7c-14-0.2-29.7-0.4-43.7-0.7c-6.8-0.1-13.7-0.3-20.5-0.3 c-5.6,0-18.3-0.6-18.9-0.6c-1.3,0-2.7,1-2.9,2.5c-0.9,7.7,1.8,63.1,2,71c0.2,7.4-0.2,15.1,1,22.3c0.3,1.7,1.8,2.1,3.1,1.5 c12.7,0.6,25.4,0.4,38.1,0.5c12.7,0.1,25.6,0.5,38.2-0.6c0.3,0,0.5-0.1,0.7-0.2c1.7,0.7,4-0.1,4-2.4 C324.2,504.6,324.1,489.4,323.9,474.3z M281.5,516.8c-12.1,0.1-24.2-0.1-36.3,0.4c0.3-6.8-0.5-13.8-0.7-20.5 c-0.2-7.9-0.5-15.8-0.7-23.7c-0.2-7.9-0.3-15.8-0.5-23.7c-0.1-6.1,0.2-12.4-0.4-18.6c5.3,0.6,10.9,0.4,16.1,0.5 c6.8,0.2,13.7,0.2,20.5,0.3c13.2,0.2,26.4,0.3,39.6,0.5c-1,14-0.3,28.2-0.5,42.2c-0.1,14.4,0,28.7,0,43.1 C306.3,516.3,293.8,516.7,281.5,516.8z" class="st9"/></g><g><path d="M359.1,495c-0.1-8.1,1.3-27.4-0.4-27.4c-8-0.1-17-0.3-25.1-0.4c-3.9-0.1-7.9-0.2-11.8-0.2 c-3.2,0-6.6-0.3-9.9,0.1c-0.7-0.9-2.5-0.3-2.7,1c-0.5,4.4,0.1,9.1,0.3,13.6c0.2,4.5,0.4,9.1,0.5,13.6c0.1,4.5,0.3,9.1,0.4,13.6 c0.1,4.2-0.1,8.7,0.6,12.8c0.2,1,1.1,1.2,1.8,0.9c7.3,0.3,14.6,0.2,21.9,0.3c7.3,0,14.7,0.3,21.9-0.4c0.1,0,0.3,0,0.4-0.1 c1,0.4,2.3,0,2.3-1.4C359.3,512.4,359.3,503.7,359.1,495z" class="st8"/><path d="M359.1,495c-0.1-8.1,1.3-27.4-0.4-27.4c-8-0.1-17-0.3-25.1-0.4c-3.9-0.1-7.9-0.2-11.8-0.2 c-3.2,0-6.6-0.3-9.9,0.1c-0.7-0.9-2.5-0.3-2.7,1c-0.5,4.4,0.1,9.1,0.3,13.6c0.2,4.5,0.4,9.1,0.5,13.6c0.1,4.5,0.3,9.1,0.4,13.6 c0.1,4.2-0.1,8.7,0.6,12.8c0.2,1,1.1,1.2,1.8,0.9c7.3,0.3,14.6,0.2,21.9,0.3c7.3,0,14.7,0.3,21.9-0.4c0.1,0,0.3,0,0.4-0.1 c1,0.4,2.3,0,2.3-1.4C359.3,512.4,359.3,503.7,359.1,495z M334.7,519.4c-6.9,0-13.9-0.1-20.9,0.2c0.2-3.9-0.3-7.9-0.4-11.8 c-0.1-4.5-0.3-9.1-0.4-13.6c-0.1-4.5-0.2-9.1-0.3-13.6c-0.1-3.5,0.1-7.1-0.3-10.7c3,0.4,6.2,0.2,9.3,0.3c3.9,0.1,7.9,0.1,11.8,0.2 c7.6,0.1,15.2,0.2,22.8,0.3c-0.6,8-0.2,16.2-0.3,24.3c-0.1,8.3,0,16.5,0,24.8C349,519.2,341.8,519.4,334.7,519.4z" class="st9"/></g><g><path d="M435,485.4c-0.2-10.9,1.7-36.8-0.5-36.8c-10.8-0.2-22.9-0.3-33.7-0.5c-5.3-0.1-10.6-0.2-15.8-0.2 c-4.3,0-8.9-0.4-13.3,0.1c-1-1.2-3.4-0.4-3.6,1.4c-0.7,6,0.1,12.3,0.4,18.3c0.2,6.1,0.5,12.2,0.7,18.3c0.2,6.1,0.4,12.2,0.5,18.3 c0.2,5.7-0.1,11.6,0.7,17.2c0.2,1.3,1.4,1.6,2.4,1.2c9.8,0.5,19.6,0.3,29.4,0.4c9.8,0.1,19.7,0.4,29.5-0.5c0.2,0,0.4-0.1,0.5-0.1 c1.3,0.5,3.1-0.1,3.1-1.9C435.2,508.8,435.2,497.1,435,485.4z" class="st8"/><path d="M435,485.4c-0.2-10.9,1.7-36.8-0.5-36.8c-10.8-0.2-22.9-0.3-33.7-0.5c-5.3-0.1-10.6-0.2-15.8-0.2 c-4.3,0-14.4-0.6-15.1-0.4c-0.9,0.2-1.6,0.9-1.8,1.9c-0.7,6,0.1,12.3,0.4,18.3c0.2,6.1,0.5,12.2,0.7,18.3 c0.2,6.1,0.4,12.2,0.5,18.3c0.2,5.7-0.1,11.6,0.7,17.2c0.2,1.3,1.4,1.6,2.4,1.2c9.8,0.5,19.6,0.3,29.4,0.4 c9.8,0.1,19.7,0.4,29.5-0.5c0.2,0,0.4-0.1,0.5-0.1c1.3,0.5,3.1-0.1,3.1-1.9C435.2,508.8,435.2,497.1,435,485.4z M402.3,518.2 c-9.3,0.1-18.7-0.1-28,0.3c0.2-5.2-0.4-10.6-0.5-15.8c-0.2-6.1-0.4-12.2-0.5-18.3c-0.2-6.1-0.3-12.2-0.4-18.3 c-0.1-4.7,0.1-9.6-0.3-14.3c4.1,0.5,8.4,0.3,12.4,0.4c5.3,0.1,10.6,0.1,15.8,0.2c10.2,0.1,20.4,0.3,30.5,0.4 c-0.8,10.8-0.3,21.8-0.4,32.6c-0.1,11.1,0,22.2,0,33.3C421.5,517.9,411.8,518.1,402.3,518.2z" class="st9"/></g><g><path d="M254.8,527.4c0,6.5,0.1,13,0.3,19.5c-0.1,2.1,1.5,3.1,3.1,3c1.6,0,3.1-0.9,3.1-3c0.2-6.5,0.2-13,0.3-19.5 C261.6,523.2,254.8,523.1,254.8,527.4z" class="st9"/><path d="M400.8,527.4c0,6.5,0.1,13,0.3,19.5c-0.1,2.1,1.5,3.1,3.1,3c1.6,0,3.1-0.9,3.1-3c0.2-6.5,0.2-13,0.3-19.5 C407.6,523.2,400.8,523.1,400.8,527.4z" class="st9"/><path d="M443.9,525.7C443.9,525.7,443.9,525.7,443.9,525.7C443.9,525.7,443.9,525.7,443.9,525.7 c0-2.1-1.3-4.3-4.1-4.2c-6,0-12,0-18,0c-5.5-0.2-11-0.1-16.5,0c-23.4,0-46.9,0-70.3,0c-23.4,0-46.9,0-70.3,0 c-5.5-0.1-11-0.2-16.5,0c-6,0-12,0-18,0c-2.7,0-4.1,2.1-4.1,4.2c0,0,0,0,0,0c0,0,0,0,0,0c0,0,0,0,0,0c0,0.2,0,0.3,0,0.5 c0.2,1.9,1.6,3.7,4.1,3.7c34.9,0.1,69.8,0,104.6,0c34.9,0,69.8,0.1,104.6,0c2.5,0,3.9-1.8,4.1-3.7 C443.8,526,443.9,525.9,443.9,525.7C443.9,525.7,443.9,525.7,443.9,525.7z" class="st10"/></g><g><path d="M357.7,521.2c-2.2-6.5-3.5-13.3-3.8-20.2c8-0.8,16.2-0.8,24.2,0c0,7-1,13.8-3.4,20.4 C369,521.4,363.4,521,357.7,521.2z" class="st11"/><path d="M366.6,493.9C366.6,493.9,366.6,493.9,366.6,493.9c-0.5-0.5-1.2-1-1.8-1.1c-0.7-0.2-1.5-0.2-2.2,0 c-1.6,0.4-2.7,1.8-2.9,3.3c-0.2,1.4,0.3,2.8,1.5,3.7c0.6,0.5,1.2,0.7,1.9,0.8c1,0.1,1.7-0.1,2.6-0.5c0,0,0,0,0.1,0 c1.1-0.5,1.8-1.8,1.9-2.9C367.9,496,367.5,494.9,366.6,493.9z" class="st12"/><path d="M373.9,496.7c-0.5-1-1.5-1.3-2.5-1.3c-0.7,0-1.4,0.6-1.4,1.4c0,1,0.2,2,1.2,2.5 C372.9,500.3,374.7,498.5,373.9,496.7z" class="st12"/><path d="M371.7,487.6c-0.4-0.4-0.9-0.7-1.4-1c-0.4-0.2-0.7-0.2-1.1-0.3c-0.9-0.1-1.6-0.2-2.4,0.3 c-0.7,0.4-1.3,1.1-1.5,1.9c-0.4,1.7,0.5,3.3,2.1,3.9c1,0.3,1.9,0.5,2.9,0.2C372.4,491.9,373.4,489.1,371.7,487.6z" class="st12"/><path d="M378.8,488.9c-0.5-0.5-0.9-0.8-1.6-1c-1.5-0.6-3.5,1.2-2.8,2.8c0.3,0.6,0.5,1.1,1,1.6c0.9,0.9,2.5,1,3.4,0 C379.6,491.4,379.7,489.9,378.8,488.9z" class="st12"/><path d="M384.4,497.3c0-1.9-2.5-3.1-3.8-1.6c-0.5,0.6-0.8,1.4-0.6,2.2c0.2,0.9,1.2,1.7,2.2,1.7c0.1,0,0.3,0,0.4,0 c1,0,1.9-0.8,1.9-1.9C384.4,497.5,384.4,497.4,384.4,497.3z" class="st12"/><path d="M385.5,503.3c-0.3-0.5-0.7-0.9-1-1.4c-0.4-0.6-0.8-1-1.5-1.2c-0.6-0.2-1.4-0.1-2,0.2 c-1.1,0.7-1.7,2.3-0.9,3.5c0.3,0.5,0.6,1,1,1.4c0.3,0.5,0.7,0.9,1.2,1.1c0.2,0.1,0.5,0.2,0.7,0.4c0.6,0.3,1.3,0.4,2,0 c0.5-0.3,1.1-1,1-1.7C385.9,504.9,385.9,504,385.5,503.3z" class="st12"/><path d="M381.8,511.8c-1,0-2,0.9-2,1.9c0,1.1,0.8,2,1.9,2c1,0,2-0.9,2-1.9C383.7,512.7,382.9,511.8,381.8,511.8z" class="st12"/><path d="M371,507.6c-0.8-0.7-1.8-0.6-2.7-0.2c-1.3,0.6-1.9,1.6-2.3,2.9c-0.6,2.1,1.8,4,3.7,2.9c1.1-0.7,2-1.6,2.3-3 C372.1,509.2,371.9,508.2,371,507.6z" class="st12"/><path d="M377.1,499.3c-0.5-1-1.9-1.6-3.1-1.3c-1.1,0.4-2,1.4-2,2.6c0,0.9,0.3,1.7,0.9,2.3c0.2,0.2,0.4,0.4,0.6,0.6 c1.2,1.2,3.3,0.7,3.8-0.9c0.1-0.3,0.2-0.5,0.2-0.8C377.6,500.9,377.5,500.1,377.1,499.3z" class="st12"/><path d="M375.8,508.3c-1.2,0-2.4,1-2.3,2.3c0,1.2,1,2.3,2.3,2.3c1.2,0,2.4-1,2.3-2.3 C378.1,509.4,377.1,508.3,375.8,508.3z" class="st12"/><path d="M369.8,521.5c-0.3-0.5-0.9-1-1.5-1.2c-1.2-0.3-2.9,0.3-3.1,1.7c0,0.3-0.1,0.5-0.1,0.8 c-0.1,0.6-0.1,1.4,0.2,2c0,0.1,0,0.1,0,0.2c0.1,0.8,1,1.4,1.7,1.5c0.8,0.1,1.7-0.2,2.1-1c0-0.1,0.1-0.1,0.1-0.2 c0.3-0.3,0.6-0.7,0.7-1.1c0-0.3,0.1-0.5,0.1-0.8C370.2,522.8,370.2,522.1,369.8,521.5z" class="st12"/><path d="M378.3,527.4c-0.1-0.9-0.3-1.6-0.8-2.4c-0.4-0.6-0.8-1.2-1.2-1.7c-0.7-1.1-1.9-1.6-3.2-1.1 c-1.1,0.5-1.9,1.8-1.5,3c0.2,0.7,0.4,1.4,0.7,2.1c0.4,1,0.9,1.8,1.6,2.6c0.8,0.8,2.2,1,3.2,0.4 C378.1,529.7,378.5,528.6,378.3,527.4z" class="st12"/><path d="M381.9,534.6c-0.3-0.5-0.9-1.1-1.5-1.2c-1.3-0.3-2.9,0.3-3.2,1.8c-0.1,0.5-0.2,1-0.2,1.4 c0,0.3,0.1,0.6,0.1,0.9c0.1,1,0.6,2,1.7,2.2c1,0.2,2.1-0.1,2.6-1c0.4-0.7,0.7-1.4,0.8-2.2C382.3,535.9,382.2,535.3,381.9,534.6z" class="st12"/><path d="M372.5,543.5c-1.1,0-2.1,0.9-2.1,2.1v0.6c0,1.1,0.9,2.2,2.1,2.1c1.1,0,2.1-0.9,2.1-2.1v-0.6 C374.5,544.6,373.6,543.5,372.5,543.5z" class="st12"/><path d="M373.9,557c-0.2-0.2-0.3-0.3-0.5-0.5c0,0,0,0,0-0.1c-0.1-0.1-0.1-0.2-0.2-0.3c-0.8-1.3-2.6-1.4-3.5-0.3 c-0.9,1.1-0.4,3,1.1,3.3c0.1,0,0.2,0.1,0.3,0.1c0,0,0.1,0,0.1,0c0,0,0,0,0,0c0.3,0.2,0.6,0.3,1,0.5c0.7,0.3,1.6-0.2,1.9-0.8 C374.5,558.4,374.4,557.7,373.9,557z" class="st12"/><path d="M381.7,563.3c-0.2-0.5-0.4-0.9-0.5-1.4c-0.5-1.4-1.9-2.3-3.4-1.7c-1.5,0.6-1.9,2.2-1.2,3.5 c0.2,0.5,0.4,0.9,0.6,1.4c0.3,0.7,0.9,1.2,1.6,1.5c1.2,0.5,2.4,0.1,2.9-1.1C381.9,564.8,381.9,564.1,381.7,563.3z" class="st12"/><path d="M385.2,557.6c-0.4-0.9-0.9-1.9-1.3-2.8c-0.5-1.1-2.3-0.6-2.2,0.6c0.1,1,0.1,2.1,0.2,3.1c0,0.5,0.2,1,0.4,1.5 c0.3,0.7,0.7,1,1.3,1.3c0.4,0.2,1.1,0,1.4-0.3c0.4-0.5,0.6-0.9,0.6-1.6C385.6,558.8,385.4,558.1,385.2,557.6z" class="st12"/><path d="M380.5,549.6l-0.2-0.9c-0.4-1.8-3.4-1.9-3.8,0c-0.1,0.3-0.1,0.6-0.2,0.9c-0.3,1.4,0.6,2.7,2,2.8 C379.8,552.3,380.8,550.9,380.5,549.6z" class="st12"/><path d="M386.1,540.9c-0.1-0.5-0.3-0.9-0.8-1.2c-0.5-0.3-1.1-0.3-1.7-0.1c-0.7,0.1-1.4,0.5-1.7,1.1 c-0.2,0.5-0.5,0.9-0.7,1.4c-0.6,1.1-0.4,2.7,0.8,3.3c1.1,0.6,2.7,0.4,3.3-0.8c0.2-0.5,0.5-0.9,0.7-1.4 C386.5,542.4,386.5,541.6,386.1,540.9z" class="st12"/><path d="M385.4,528.2c0-0.4-0.1-0.9-0.3-1.3c-0.2-0.6-0.7-1.1-1.1-1.5c-1-1.1-3.1-1.2-4.2,0c-1,1.1-1.3,3,0,4.2 c0.5,0.4,0.9,0.9,1.5,1.1c0.4,0.2,0.9,0.3,1.4,0.3C384.2,531.3,385.8,529.8,385.4,528.2z" class="st12"/><path d="M380.8,518.1c-0.9-0.4-1.8-0.5-2.6,0.2c-1.1,0.8-1.3,2.5-0.3,3.5c0.9,0.9,2.4,0.9,3.3,0 C382.2,520.9,382.1,518.7,380.8,518.1z" class="st12"/><path d="M373.4,535.2c-0.1-0.7-0.4-1.4-1-1.8c-0.7-0.7-1.5-0.7-2.4-0.3c-0.7,0.3-1.2,0.8-1.5,1.5 c-0.4,0.7-0.4,1.5-0.5,2.3c-0.1,1.3,1,2.4,2.3,2.6c1.3,0.2,2.6-0.6,2.9-1.9C373.4,536.8,373.6,536,373.4,535.2z" class="st12"/><path d="M378.6,541.1c-0.3-0.5-0.6-0.9-1-1.3c-0.6-0.6-1.2-0.8-2.1-1c-0.9-0.1-2,0.7-2.2,1.6 c-0.2,0.8-0.1,1.5,0.3,2.3c0.2,0.5,0.6,0.9,0.9,1.3c0.8,1,2.4,0.9,3.3,0.2C378.8,543.5,379.2,542.1,378.6,541.1z" class="st12"/><path d="M376.1,483.5c-0.4-1.3-1.7-2.1-3-1.8c-0.1,0-0.1,0-0.2,0c-1,0.2-1.9,1.3-1.8,2.3c0,1,0.7,2.1,1.8,2.4 c0.1,0,0.1,0,0.2,0c1.3,0.3,2.7-0.4,3.1-1.7C376.3,484.4,376.3,483.9,376.1,483.5z" class="st12"/><path d="M376.3,572.7c-0.1-1-0.6-2-1.7-2.2c-1-0.2-2.1,0.1-2.6,1c-0.2,0.4-0.5,0.8-0.6,1.2c-0.1,0.3-0.1,0.6-0.2,0.9 c-0.1,0.7-0.1,1.3,0.2,1.9c0.3,0.5,0.9,1,1.5,1.2c1.2,0.3,2.7-0.3,3.1-1.7C376.2,574.2,376.4,573.5,376.3,572.7z" class="st12"/><path d="M383.1,576.2c-0.1-0.2-0.2-0.5-0.4-0.6c0,0,0,0,0,0c-0.1-0.2-0.2-0.4-0.3-0.5c-0.4-0.7-1.1-1-1.9-0.9 c-0.7,0.1-1.4,0.6-1.6,1.3c0,0.1-0.1,0.7-0.2,0.7c0-0.1,0.1-0.2,0.1-0.2c-0.2,0.4-0.3,0.8-0.3,1.2c0,0.8,0.1,1.5,0.4,2.2 c0.4,0.9,1.7,1.4,2.7,1.1c0.4-0.1,0.8-0.3,1.1-0.6c0.5-0.5,0.6-1.1,0.7-1.7C383.6,577.5,383.3,576.8,383.1,576.2z" class="st12"/><path d="M376.2,583.6c-1.1,0-2.1,0.9-2.1,2.1c0,0.6,0,1.2,0.2,1.7c0.2,0.6,0.7,0.9,1.2,1.2c0.4,0.3,1,0.3,1.5,0 c0.5-0.3,0.9-0.6,1.2-1.2c0.2-0.6,0.2-1.1,0.2-1.7C378.3,584.7,377.4,583.6,376.2,583.6z" class="st12"/><path d="M378.9,596.2c-0.5-0.4-0.9-0.5-1.5-0.4c-0.7,0.1-1.1,0.4-1.5,1c-0.1,0.1-0.1,0.2-0.2,0.3 c-0.6,0.8-0.2,2.1,0.5,2.6c0.8,0.7,1.8,0.5,2.7-0.1c0.1-0.1,0.2-0.1,0.3-0.2C380.1,598.5,379.8,596.8,378.9,596.2z" class="st12"/><path d="M374.6,582.8c-0.4-2.5,0.2-4.8,1.4-7c3.1-5.9,8.9-10.9,6.3-18.1c-2.3-6.3-8.7-10.4-10.4-16.8 c-1.4-4.9,1.8-8.6,4-12.7c2-3.8,3-8.2,2.8-12.5c-0.4-9.1-6.2-17.2-14.6-20.7c-0.4-0.2-0.7,0.5-0.3,0.7 c8.4,3.9,14.1,12.2,13.9,21.7c-0.1,5.1-2.1,9.3-4.7,13.6c-1.6,2.7-2.9,5.6-2.3,8.8c1,6,6.4,10.2,9.4,15.2 c1.9,3.1,2.8,6.6,1.5,10.1c-1.3,3.5-3.9,6.3-5.7,9.4c-1.7,3-2.6,6.2-1.6,9.6c1.4,4.8,6.1,10.2,2.4,15.1c-0.3,0.3,0.3,0.7,0.6,0.3 c2.2-2.9,1.5-6.6,0.2-9.8C376.4,587.5,375,585.3,374.6,582.8z" class="st12"/><path d="M379.5,573.8c-4.1-4.3-9-7.6-7.6-14.4c1.3-6.1,6.1-10.5,8.5-16.1c1.6-3.9,2.1-8.8-0.8-12.3 c-2.8-3.4-9.2-4.3-10.3-9c-0.8-3.5,2.2-6.3,4.4-8.5c1.9-1.8,3.7-3.5,5.1-5.7c2.5-3.9,3.5-8.9,1.2-13.2c-2-3.7-6.4-6.5-10.6-4.7 c-3.7,1.6-6,6.2-3.9,9.8c0.3,0.4,0.9,0.1,0.7-0.4c-1.3-2.6-0.4-5.5,1.7-7.4c2.4-2.1,5.7-2.1,8.2-0.3c5.5,3.7,5,11,1.7,16.1 c-2.5,3.8-7.1,6.2-9,10.5c-1.5,3.3,0,6.3,2.7,8.3c4.1,3,9,4.5,9.2,10.5c0.2,5.9-3.8,10.5-6.7,15.2c-2.4,4-4.4,9-2.5,13.7 c1.4,3.4,4.6,5.7,7.1,8.3c2,2.1,3.6,4.4,3.2,7.4c-0.4,3.1-2.6,5.6-4.2,8.2c-2,3.2-3.5,7.9-0.3,10.8c0.1,0.1,0.2,0,0.1-0.1 c-5.2-5.2,2.5-11.8,4.4-16.6C383.6,580,382.2,576.7,379.5,573.8z" class="st12"/></g></g><g><path d="M431.9,286.6L431.9,286.6c-1.2,0-2.1-1-2.1-2.1v-6.4c0-1.2,1-2.1,2.1-2.1l0,0c1.2,0,2.1,1,2.1,2.1v6.4 C434,285.7,433.1,286.6,431.9,286.6z" class="st13"/><path d="M431.9,306.3c-6.3,0-11.3-5-11.3-11.3c0-2.9,1.1-5.7,3.2-7.8l0.2-0.2c0.6-0.6,1.5-1.5,1.5-3.4 c0-0.9,0-2.5,0-2.5c0-1.9,1.5-3.4,3.4-3.4l6.1,0c1.8,0,3.4,1.5,3.4,3.4c0,0,0,1.6,0,2.5c0,1.9,1,2.8,1.5,3.4l0.2,0.2 c2.1,2.1,3.2,4.9,3.2,7.8C443.2,301.2,438.1,306.3,431.9,306.3C432,306.3,431.9,306.3,431.9,306.3z M426.4,281.2c0,0,0,1.6,0,2.5 c0,2.3-1.2,3.4-1.8,4l-0.1,0.1c-1.9,1.9-2.9,4.5-2.9,7.2c0,5.7,4.6,10.3,10.3,10.3c5.7,0,10.3-4.7,10.3-10.3c0-2.7-1-5.3-2.9-7.2 l-0.1-0.1c-0.6-0.6-1.8-1.8-1.8-4c0-0.9,0-2.5,0-2.5c0-1.3-1.1-2.4-2.4-2.4l-6.1,0C427.5,278.7,426.4,279.8,426.4,281.2 L426.4,281.2z" class="st13"/><path d="M431.9,293l-0.3-0.2c-1.8-1.3-3.7-1.9-5.7-1.8l-1,0.1l5-6.6l0.7,0.6l-3.8,5c1.7,0.1,3.4,0.7,5,1.8 c1.4-1.2,3.1-1.8,5-1.8l-3.8-5l0.7-0.6l5,6.6l-1.1-0.1c-2.3-0.2-4.2,0.4-5.6,1.8L431.9,293z" class="st13"/><rect width=".9" height="7.5" x="431.4" y="284.9" class="st13"/><path d="M441.4,278.3c-1.8-3.5-5.4-5.8-9.5-5.8c-4.1,0-7.7,2.4-9.5,5.8H441.4z" class="st7"/><path d="M478.6,343.8h-93.3l-9.8-22.4l0.1-0.2c6.7-21.4,20.6-36,41.5-43.3l0.2,0l29.8,0c19.4,8.8,33.3,23.4,41.5,43.3 l0.1,0.2l-0.1,0.2L478.6,343.8z M385.8,342.8H478l9.5-21.5c-8-19.6-21.8-33.9-40.8-42.6h-29.4c-20.5,7.2-34.2,21.5-40.8,42.5 L385.8,342.8z" class="st13"/><path d="M455,343.8h-46.1l-4.8-22.4l0-0.1c1.6-15.5,8.5-30.1,20.3-43.3l0.1-0.2h14.9l0.1,0.2 c9.5,12.5,16.3,27,20.3,43.2l0,0.1l0,0.1L455,343.8z M409.6,342.8h44.6l4.6-21.5c-3.9-15.9-10.6-30.3-19.9-42.6h-14 c-11.6,13-18.3,27.3-19.9,42.5L409.6,342.8z" class="st13"/><rect width="112" height=".9" x="375.9" y="320.9" class="st13"/><rect width=".9" height="29.4" x="431.4" y="243.1" class="st6"/></g><g><g><g><path d="M478.2,893.4h-10.9l-9.4-41.7h15.2L478.2,893.4z M468,892.4h9l-4.9-39.7h-13.1L468,892.4z" class="st6"/><path d="M346.1,893.4h-10.9l5.1-41.7h15.2L346.1,893.4z M336.3,892.4h9l8.9-39.7h-13.1L336.3,892.4z" class="st6"/></g><g><path d="M447.9,893.4H437l-9.4-41.7h15.2L447.9,893.4z M437.8,892.4h9l-4.9-39.7h-13.1L437.8,892.4z" class="st13"/><path d="M376.4,893.4h-10.9l5.1-41.7h15.2L376.4,893.4z M366.6,892.4h9l8.9-39.7h-13.1L366.6,892.4z" class="st13"/></g><polygon points="368.5 787.5 444.6 787.5 456.7 786.5 478.2 792.5 485.3 805.1 490.6 831.3 483.8 844.6 383.3 847.9 320.5 836.8 322.8 812.2 337.1 791.6 354.2 783.2" class="st14"/><polygon points="485.3 805.1 485.3 805.1 478.2 792.5 456.7 786.5 444.6 787.5 368.5 787.5 354.2 783.2 337.1 791.6 327.7 805.1" class="st15"/><path d="M292.8,769l31.6-12c3.2-1.1,5.1-3.1,6-6.6l11.4-45.9c1.4-5.3,4.6-8.2,10-8.4h17.4l-8.9,49.4l-30.7,27.3 h-12.1h-14.3L292.8,769z" class="st16"/><path d="M520.7,769L489,757c-3.2-1.1-5.1-3.1-6-6.6l-11.4-45.9c-1.4-5.3-4.6-8.2-10-8.4h-17.4l8.9,49.4l30.7,27.3 H496h14.3L520.7,769z" class="st16"/><path d="M338.6,832.6v-26c0-3.7,1.5-7,4.9-8.7l24.9-3.8c4.5-19.6-9.6-37.3-26.1-35.9l-31,10.9l-8.2,23.9l5.5,18.5 l13.7,18.3l13.8,5L338.6,832.6z" class="st16"/><path d="M474.5,832.6v-26c0-3.7-1.5-7-4.9-8.7l-24.9-3.8c-4.5-19.6,9.6-37.3,26.1-35.9l31,10.9l4.1,12.4l-4.1,21.1 c0,0-5.5,22.8-5.5,23.4c0,0.7-3.8,15.8-3.8,15.8h-14.4L474.5,832.6z" class="st16"/><path d="M457,705.1c-1.7-5.8-5.8-9-12.2-9h-76.2c-6.4,0-10.5,3.2-12.2,9l-13.6,57.7l25.7,31.4h76.2l26-31.4 L457,705.1z" class="st14"/><path d="M519,768.7h-13.7c-2.7,0-4.4,0.1-5.8,3.6l-18.2,55c-2.2,3.8-5.1,5.9-10.6,6h1.8H342.7 c-5.6-0.1-8.5-2.2-10.6-6l-18.2-55c-1.4-3.5-3.1-3.6-5.8-3.6h-13.7c-2.9,0-4.1,2.2-3.3,4.5l22.5,77.6c1.6,4,6,7.6,12.1,7.6h146.7 h15.1c6.1,0,10.5-3.7,12.1-7.6l22.5-77.6C523,770.9,521.8,768.7,519,768.7z" class="st7"/><rect width="123.7" height="1" x="344.4" y="804.6" class="st6"/><rect width="24.7" height="1" x="310.6" y="764.4" class="st6" transform="matrix(0.9372 -0.3488 0.3488 0.9372 -246.5228 160.6926)"/><rect width="1" height="24.7" x="489.2" y="752.5" class="st6" transform="matrix(0.3491 -0.9371 0.9371 0.3491 -398.0209 956.7153)"/></g><g><g><path d="M400.5,830c0,6,3,9.1,6,11c8,5,20.3,1,17.4-6.3c-1.5-3.5-8-7.9-8-7.9S400.8,829,400.5,830z" class="st13"/><path d="M414.6,843.9c-3,0-6-0.8-8.4-2.3c-4.2-2.7-6.3-6.4-6.3-11.5l0-0.1l0-0.1c0.1-0.5,0.6-0.8,3-1.4c1.3-0.3,3.1-0.7,5.3-1.1 c3.8-0.7,7.6-1.3,7.6-1.3l0.3,0l0.2,0.1c0.3,0.2,6.7,4.6,8.2,8.2c1.1,2.7,0.4,5.2-2,7c-1.8,1.4-4.6,2.3-7.6,2.4 C414.9,843.9,414.7,843.9,414.6,843.9z M401.2,830.3c0.1,4.6,1.9,7.8,5.7,10.2c5.1,3.2,11.7,2.5,14.8,0c1.3-1,2.7-2.8,1.6-5.6 c-1.2-2.9-6.5-6.7-7.6-7.5C409.4,828.4,402.5,829.7,401.2,830.3z"/></g><path d="M412,833.3c4.1-1.2,6.9-2.4,6.1-4c-2.7-3-17.8,0.4-16.8,3C403.1,834.6,409.9,833.9,412,833.3z" class="st17"/><g><path d="M395.5,828.4l-15.3-1.9c0,0-4.9,7.4-3.1,11.5c2.3,5.2,14.4,7.1,18.3,2.9 C399.1,836.6,395.5,828.4,395.5,828.4z" class="st13"/><path d="M388.4,843.7c-1,0-1.9-0.1-2.8-0.2c-3.5-0.5-7.7-2.2-9.1-5.4c-1.9-4.3,3-11.7,3.2-12l0.2-0.3l16,2l0.1,0.3 c0.2,0.3,3.7,8.6-0.3,13.1C394.2,843.1,391.2,843.7,388.4,843.7z M380.6,827.1c-0.9,1.4-4.3,7.3-2.9,10.6c1,2.2,4.2,4,8.1,4.6 c3.9,0.6,7.5-0.1,9.1-1.9c3.1-3.4,0.8-9.9,0.2-11.5L380.6,827.1z"/></g><path d="M386.9,833.5c-3.1-1-6.8-4.1-6.7-5.9c1.1-2.4,16,3,15.8,4.4C394.5,834.3,388.5,834,386.9,833.5z" class="st17"/><g><path d="M397.8,790.6c0,0-8.9-1.1-13-1.8c-4.1-0.7-11.3-1.8-16-3.7c-4.8-1.9-6.5,1.8-7.2,5.5 c-0.9,4.7,2,5.9,9.2,8.1c7.1,2.2,28.3,4.4,28.3,4.4L397.8,790.6z" class="st13"/><path d="M399.8,803.6l-0.6-0.1c-0.9-0.1-21.4-2.3-28.4-4.4c-3.5-1.1-6.2-2-7.8-3.2c-1.7-1.3-2.2-3-1.8-5.5 c0.6-3.1,1.6-5.1,3.3-5.9c1.3-0.7,2.8-0.7,4.6,0c4.1,1.6,10,2.6,14.2,3.3c0.6,0.1,1.2,0.2,1.7,0.3c4,0.7,12.9,1.8,12.9,1.8 l0.4,0.1L399.8,803.6z M366.5,785.1c-0.6,0-1.1,0.1-1.6,0.4c-1.3,0.7-2.2,2.4-2.7,5.2c-0.8,4.2,1.5,5.3,8.9,7.5 c6.3,1.9,24,3.9,27.6,4.3l-1.3-11.5c-1.8-0.2-9-1.2-12.6-1.8c-0.5-0.1-1.1-0.2-1.7-0.3c-4.3-0.8-10.2-1.8-14.4-3.4 C367.8,785.2,367.1,785.1,366.5,785.1z"/></g><path d="M381.3,788.6l0.5,11.7l-2.8-0.4c-2.8-3.7-2.8-8-0.4-11.8L381.3,788.6z" class="st18"/><g><path d="M408.2,790.6c0,0,8.4-1.1,12.3-1.8c3.9-0.7,10.7-1.8,15.2-3.6c4.6-1.8,6.1,1.8,6.8,5.4 c0.8,4.6-1.9,5.8-8.7,7.9c-6.7,2.1-26.8,4.3-26.8,4.3L408.2,790.6z" class="st13"/><path d="M406.3,803.4l1.4-13.3l0.4-0.1c0.1,0,8.4-1.1,12.3-1.8c0.5-0.1,1-0.2,1.6-0.3c4-0.7,9.6-1.7,13.5-3.3 c1.7-0.7,3.2-0.7,4.4-0.1c1.6,0.8,2.6,2.8,3.2,5.9c0.4,2.4-0.1,4.1-1.7,5.4c-1.5,1.2-4,2.1-7.4,3.1c-6.7,2.1-26.1,4.3-26.9,4.4 L406.3,803.4z M408.7,791l-1.2,11.2c3.5-0.4,20.2-2.4,26.1-4.2c6.9-2.2,9.1-3.3,8.4-7.4c-0.5-2.7-1.4-4.5-2.6-5.1 c-0.9-0.5-2.1-0.4-3.4,0.1c-4,1.6-9.6,2.6-13.7,3.3c-0.6,0.1-1.1,0.2-1.6,0.3C417.2,789.9,410.4,790.8,408.7,791z"/></g><path d="M427,799.5c2-2.6,0.9-9.5-3.2-10.8l-2.1,0.4l2.7,10.9C424.3,800.1,423.2,800.2,427,799.5z" class="st18"/><g class="st19"><path d="M382.6,811.3c0,0-0.3-2.7-2.3-4.2c-1.5-1.1-4.5-2.3-7.7-1.7c-3.6,0.7-6.6,4.7-5.8,8.1 c0.8,3.1,2.4,4.3,4,5.3c1.6,1,4.2,2.1,6.7,1.4c3.8-1.1,5.1-4.6,5.1-4.6L382.6,811.3z" class="st20"/><path d="M375.7,820.8c-2.3,0-4.3-1.1-5.2-1.7c-1.8-1.1-3.4-2.4-4.2-5.6c-0.4-1.6,0-3.4,1.1-5.1 c1.2-1.8,3.1-3.1,5-3.5c3.1-0.6,6.3,0.5,8.1,1.8c2.2,1.6,2.5,4.4,2.5,4.5l0,0l0,4.3l0,0.1c-0.1,0.2-1.3,3.8-5.4,4.9 C377,820.7,376.4,820.8,375.7,820.8z M374.3,805.6c-0.6,0-1.1,0-1.7,0.2c-1.7,0.3-3.3,1.5-4.4,3.1c-1,1.4-1.3,3-1,4.4 c0.7,2.9,2.1,4,3.8,5c1,0.6,3.6,2.1,6.3,1.3c3.3-0.9,4.6-3.8,4.7-4.3l0-4c0-0.3-0.4-2.6-2.1-3.9 C378.7,806.5,376.6,805.6,374.3,805.6z" class="st21"/></g><path d="M379.6,807.1c2.7,1.5,2,4.5,0.5,7.3c-0.6,3.1-1.3,5.5-4.8,5.4c-5.3-0.3-1.7-6.1,0.1-8.7 C377,809,378.4,807.3,379.6,807.1z" class="st17"/><g><path d="M380.6,789.1c0.8,7.9,0.4,11.3,0,18.3c-0.6,8.9-6,11.2-3.1,16.4c3.5,5.5,12.7,7.6,22.3,7.7 c9.9,0.1,19.2-2,21-6.6c3.5-9.1,7.2-33.4-1.3-39.7C413.9,781,379.5,778.3,380.6,789.1z" class="st13"/><path d="M400.7,832c-0.3,0-0.6,0-0.8,0c-6.7-0.1-18.5-1.2-22.8-8l0,0c-1.8-3.1-0.7-5.2,0.5-8c1-2.1,2.2-4.8,2.5-8.7 c0-0.7,0.1-1.5,0.1-2.1c0.4-5.7,0.6-9.1-0.1-16.1c-0.2-2.3,0.9-4.2,3.5-5.6c5.5-3,15.6-2.7,19.6-2.4c7.6,0.5,14.3,1.9,16.6,3.7 c4.9,3.7,5.6,12.5,5.4,19.3c-0.3,8.3-2.2,16.7-3.9,21.1c-0.9,2.3-3.6,4.2-7.8,5.4C410.1,831.5,405.5,832,400.7,832z M378.1,823.5 c4,6.3,15.4,7.4,21.8,7.5c5,0.1,9.8-0.5,13.4-1.5c3.9-1.1,6.3-2.7,7.1-4.7c1.6-4.3,3.5-12.6,3.8-20.7c0.3-9.2-1.4-15.7-4.9-18.4 c-2.1-1.6-8.7-3-16-3.4c-8.3-0.5-15.4,0.4-19,2.3c-2.2,1.2-3.2,2.6-3,4.5c0.7,7.1,0.5,10.5,0.1,16.3c0,0.7-0.1,1.4-0.1,2.1 c-0.3,4.1-1.5,6.8-2.6,9C377.4,819.1,376.6,820.9,378.1,823.5z"/></g><path d="M381.3,787.4c4.5,3.6,12.1,5.9,19.5,5.9c14.3,0,20.9-4.9,19.9-5.8c-1.6-3.9-12.5-2.8-21-2.6 C389.4,785.2,382.8,782.9,381.3,787.4z" class="st18"/><g><path d="M439.3,775.7c1.5-0.8,8.2-6.8,8.7-8.8c-3.5,0.1-4.9-0.3-4.9-0.3c1.8-1.3,3.9-4.5,5.2-7.4 c0,0-3.3,0.5-4.9-1.6c-1.5-2.1-2.7-20.3-4.6-23.6c-0.9-3.1-5.3-7.3-4.6-9.9c3.2-4.5,7.1-28.8,0.2-47.1 c-6.9-18.3-22.9-42.6-31.7-41.4c-8.8,1.2-5.8,13.2-7.2,27.1c-1.4,13.9,12.6,48.3,12.6,48.3c-2.6,0.2-8.1,0-9.9-1 c-1.8-1-4.6-3.7-4.6-3.7c-0.7,1.9-0.8,3.7-0.3,5.4c-3.2-0.6-5-0.7-6.7-3.2c-1.3-3.6-29.9-64.2-33.1-66.9 c-3.2-2.7-5.8,3.1-6.4,4.1c-0.6,1-5.5,13.4-5.9,21.3s-3.3,29.8,9.7,44.5s15,14.7,15.4,15.2c0.4,0.5,0.2,0.5,0.9,1.4 c0.2,0.2-4.2,7.4-5.3,15.4c-0.8,6.1-4.7,20.3-7.7,22c1.5,0.6,2.8,1.3,3.9,2.1c-0.8,1-1.9,1.8-3.1,2.6c2.8,3.3,6.3,6.7,9.8,8.4 c12.9,6.5,21.3,10.6,37.2,10.1C427.9,788,439.3,775.7,439.3,775.7z" class="st13"/><path d="M399,789.5c-14.3,0-22.6-4.1-34.7-10.2l0,0c-3.8-1.9-7.5-5.7-10-8.5l-0.4-0.5l0.6-0.4c1-0.6,1.9-1.3,2.6-2 c-0.8-0.5-1.9-1-3.2-1.6l-1.1-0.5l1-0.6c1.1-0.7,2.8-4,4.4-9c1.3-4.2,2.6-9.4,3-12.6c0.8-6.2,3.6-11.9,4.8-14.3 c0.2-0.4,0.4-0.7,0.5-1c-0.3-0.4-0.4-0.7-0.5-0.8c-0.1-0.1-0.1-0.2-0.2-0.4c0,0-0.1-0.1-0.3-0.2c-1.1-0.7-4.3-2.9-15.1-15 c-12-13.5-10.6-33.1-10-42.5c0.1-0.9,0.1-1.7,0.2-2.4c0.4-8,5.4-20.5,6-21.6c0-0.1,0.1-0.2,0.2-0.3c0.7-1.3,2.3-4.3,4.5-4.7 c0.9-0.2,1.8,0.1,2.6,0.8c1.8,1.5,10.5,18.9,17.4,33.3c7.5,15.5,15,31.6,15.9,33.8c1.3,2,2.7,2.2,5.3,2.7c0,0,0,0,0,0 c-0.3-1.6-0.1-3.2,0.6-4.8l0.3-0.9l0.7,0.7c0,0,2.8,2.7,4.5,3.6c1.5,0.8,5.9,1,8.8,0.9c-0.9-2.3-3.8-9.7-6.5-18.2 c-4.4-13.8-6.4-23.7-5.8-29.6c0.4-3.7,0.4-7.4,0.5-10.6c0.2-9,0.3-16.1,7.2-17.1c2.3-0.3,5,0.9,8.2,3.5c2.8,2.3,5.8,5.7,9,10.1 c5.9,8.1,11.7,18.9,15.2,28.1c4.1,10.8,4.1,22.8,3.7,28.9c-0.5,8.1-2.1,15.9-4,18.6c-0.3,1.3,1,3.3,2.3,5.2 c0.9,1.4,1.9,2.9,2.3,4.2c1,1.8,1.8,7.5,2.5,13c0.6,4.5,1.3,9.6,2,10.5c1.3,1.8,4.2,1.3,4.3,1.3l1.1-0.2l-0.4,1 c-1,2.3-2.7,5-4.4,6.8c0.8,0.1,1.9,0.1,3.6,0.1l0.8,0l-0.2,0.8c-0.6,2.2-7.2,8.1-8.9,9.1c-0.5,0.5-3.3,3.3-9,6.3 c-5.6,2.9-15.2,6.5-28.8,7C400.8,789.5,399.9,789.5,399,789.5z M355.7,770.5c2.4,2.7,5.7,6,9.2,7.7l0,0c12,6,20.1,10.1,34.2,10.1 c0.9,0,1.8,0,2.7,0c13.4-0.5,22.7-4,28.2-6.8c6-3.1,8.8-6.1,8.8-6.2l0.1-0.1l0.1,0c1.3-0.7,6.5-5.4,8-7.7c-2.8,0-4.1-0.3-4.1-0.3 l-1.1-0.3l0.9-0.7c1.4-1.1,3.3-3.6,4.6-6.3c-1.2,0-3.2-0.3-4.4-1.9c-0.8-1.1-1.3-4.9-2.2-11c-0.7-5.2-1.5-11-2.4-12.6l0-0.1 l0-0.1c-0.4-1.2-1.3-2.6-2.2-3.9c-1.5-2.3-2.9-4.5-2.4-6.3l0-0.1l0.1-0.1c3-4.2,7.1-28.2,0.2-46.6c-7.3-19.4-23.1-42.1-31-41 c-5.9,0.8-6,7.2-6.2,16c-0.1,3.2-0.1,6.9-0.5,10.7c-1.4,13.6,12.4,47.7,12.5,48l0.3,0.7l-0.8,0.1c-2.6,0.2-8.3,0-10.2-1 c-1.3-0.7-3.1-2.3-4.1-3.2c-0.4,1.4-0.4,2.8,0,4.1l0.3,0.9l-1-0.2c-0.3-0.1-0.6-0.1-0.9-0.2c-2.7-0.5-4.5-0.8-6.1-3.3l0-0.1 l0-0.1c-0.6-1.7-8-17.5-15.8-33.8c-9.5-19.6-15.9-31.9-17.1-32.9c-0.6-0.5-1.1-0.6-1.6-0.5c-1.7,0.3-3.1,3.1-3.6,4.1 c-0.1,0.2-0.1,0.3-0.2,0.4c-0.6,1-5.5,13.2-5.9,21.1c0,0.7-0.1,1.5-0.2,2.5c-0.6,9.2-2,28.5,9.7,41.6 c10.7,12,13.8,14.1,14.9,14.8c0.3,0.2,0.4,0.3,0.6,0.5c0.2,0.3,0.3,0.4,0.3,0.6c0.1,0.2,0.2,0.4,0.5,0.8c0.3,0.3,0.2,0.5-0.5,1.9 c-1.2,2.4-3.9,8-4.7,13.9c-0.7,5.5-4.1,18.3-7.2,21.8c1.3,0.6,2.3,1.1,3.2,1.7l0.5,0.4l-0.4,0.5 C357.7,769,356.8,769.8,355.7,770.5z"/></g><path d="M367.8,728.6L367,728c2.9-3.5,6.2-6.6,9.7-9.4l0.7,0.8C373.9,722.1,370.7,725.2,367.8,728.6z"/><path d="M377.2,719.4l-0.4-0.9l1.9-0.7c-0.4-0.5-1-1.2-1.1-1.7c-0.3-0.8-0.2-2.2-0.2-2.2l0-0.7l0.7,0.2c2.5,0.8,6.2,1.8,6.9,1.8 c0.4,0,0.6-0.1,0.7-0.2c-0.4-0.6-1.1-2-1.2-2.9c-0.1-1-0.1-1.6,0.3-2.4l0.2-0.5l0.5,0.2c1.3,0.6,5.1,1.3,6.4,1.5l-0.2,1 c0,0-4.1-0.7-6.2-1.4c-0.1,0.4-0.1,0.7,0,1.5c0.1,0.7,0.9,2.3,1.3,2.8l0.2,0.2l-0.1,0.3c0,0.1-0.5,0.7-1.8,0.9 c-1,0.1-4.9-1.1-6.6-1.6c0,0.4,0.1,0.9,0.2,1.2c0.1,0.5,0.9,1.4,1.4,1.9l0.5,0.5L377.2,719.4z"/><path d="M431.3,720c1,0.9,1.9,1.9,2.9,2.8c0.5,0.6,0.9,1.1,1.4,1.7c-0.2,0.6-0.4,1.1-0.6,1.7c-0.3-0.3-0.5-0.7-0.8-1 c-2.7-3.3-5.5-6.4-9.3-8.5c-0.6-0.4-1.3-0.8-1.9-1.1c0-0.1,0-0.2,0.1-0.3c0.6,0.1,1.2,0.1,2,0.2c0-1.3,0.2-2.7,0.1-4 c-0.3-6.3-2.6-12-5.4-17.6c-3.7-7.3-7.5-14.6-10.8-22.1c-3.1-7-5.2-14.3-5.4-22c0-1.9,0.2-3.8,0.7-5.8c0.1,0.5,0.3,1,0.4,1.4 c-0.1,0.3-0.2,0.5-0.2,0.8c0.1,5,1,9.8,2.2,14.6c1.5,5.6,3.5,10.9,6.2,16.1c2.8,5.4,5.4,10.9,8.1,16.3c3.5,6.9,5.9,14,5.5,21.9 c0,0.5,0.4,1.1,0.8,1.5C428.5,717.8,429.9,718.9,431.3,720z" class="st22"/><path d="M375,717.4c-3.3-3.4-6.2-7-8.5-11.1c-3.4-6.1-4.5-12.8-5.9-19.5c-1.9-8.4-4-16.8-5.9-25.2 c-0.6-2.6-0.9-5.3-1.3-8c0.2-0.1,0.4-0.1,0.6-0.2c0.3,1.1,0.5,2.2,0.8,3.4c2,8.3,4.1,16.5,6.1,24.8c1.1,4.7,2,9.5,3.1,14.2 c1.2,5.3,3.5,10.2,6.9,14.6c2,2.5,4.8,5.6,6.8,8.1c-0.4,0.3-1.5,1.4-1.7,0.3C376,718.8,375.4,717.5,375,717.4z" class="st22"/><path d="M404.4,647" class="st22"/><g><path d="M382,841.6c-0.4-2.4-0.5-4.5,0.8-5.5" class="st13"/><path d="M382,842.2c-0.3,0-0.6-0.2-0.6-0.5c-0.4-2.4-0.6-4.8,1-6.1c0.3-0.2,0.7-0.2,0.9,0.1c0.2,0.3,0.2,0.6-0.1,0.9 c-1.1,0.9-0.9,3-0.6,5c0.1,0.3-0.2,0.6-0.5,0.7C382.1,842.2,382.1,842.2,382,842.2z"/></g><g><path d="M388.3,843.1c1.1-0.8,1.9-4.5,0.4-6.3" class="st13"/><path d="M388.3,843.7c-0.2,0-0.4-0.1-0.5-0.2c-0.2-0.3-0.2-0.7,0.1-0.9c0.3-0.2,0.7-1.1,0.9-2.2c0.2-1.3,0-2.5-0.6-3.2 c-0.2-0.3-0.2-0.6,0.1-0.9c0.3-0.2,0.7-0.2,0.9,0.1c0.8,1,1.1,2.5,0.9,4.1c-0.2,1.1-0.6,2.5-1.4,3.1 C388.6,843.7,388.5,843.7,388.3,843.7z"/></g><g><path d="M415.3,842.4c0.3-2-0.7-4.4-1.7-5.5" class="st13"/><path d="M415.3,843c0,0-0.1,0-0.1,0c-0.4-0.1-0.6-0.4-0.6-0.7c0.3-1.9-0.7-4.1-1.5-5c-0.2-0.3-0.2-0.7,0.1-0.9 c0.3-0.2,0.7-0.2,1,0c1.2,1.3,2.2,3.9,1.8,6C415.9,842.8,415.6,843,415.3,843z"/></g><g><path d="M420.9,841.8c1.2-1.2,0.5-5.7-1.9-6.2" class="st13"/><path d="M420.9,842.4c-0.2,0-0.3-0.1-0.4-0.2c-0.2-0.2-0.2-0.6,0-0.9c0.4-0.4,0.6-1.7,0.2-3.1c-0.3-1.1-1-1.9-1.7-2.1 c-0.3-0.1-0.6-0.4-0.5-0.7c0.1-0.3,0.4-0.5,0.8-0.5c1.2,0.3,2.2,1.3,2.7,2.9c0.4,1.4,0.5,3.4-0.5,4.3 C421.2,842.4,421.1,842.4,420.9,842.4z"/></g><g><path d="M440.9,787c-1.5-0.1-2,0.5-3.6,1.1" class="st13"/><path d="M437.2,788.6c-0.2,0-0.4-0.1-0.5-0.3c-0.1-0.3,0-0.6,0.3-0.7c0.4-0.2,0.8-0.3,1.1-0.5c0.9-0.4,1.6-0.7,2.8-0.7 c0.3,0,0.5,0.3,0.5,0.6c0,0.3-0.3,0.5-0.6,0.5c-1,0-1.4,0.2-2.3,0.6c-0.3,0.1-0.7,0.3-1.1,0.5 C437.4,788.6,437.3,788.6,437.2,788.6z"/></g><g><path d="M442.5,790.7c-0.5,1.3-2.1,1.4-3.3,1.8" class="st13"/><path d="M439.1,793c-0.2,0-0.5-0.1-0.5-0.4c-0.1-0.3,0.1-0.6,0.4-0.7c0.3-0.1,0.5-0.2,0.8-0.2c1-0.3,1.9-0.5,2.2-1.3 c0.1-0.3,0.4-0.4,0.7-0.3c0.3,0.1,0.4,0.4,0.3,0.7c-0.5,1.3-1.9,1.6-3,1.9c-0.3,0.1-0.5,0.1-0.7,0.2 C439.2,793,439.2,793,439.1,793z"/></g><g><path d="M361.7,790.5c1,1.4,2.9,1.7,4,1.9" class="st13"/><path d="M365.7,793c0,0-0.1,0-0.1,0c-0.1,0-0.2,0-0.2,0c-1.2-0.2-3-0.6-4.1-2.1c-0.2-0.2-0.1-0.6,0.1-0.8 c0.3-0.2,0.6-0.1,0.8,0.1c0.8,1.2,2.3,1.4,3.4,1.7c0.1,0,0.2,0,0.3,0c0.3,0.1,0.5,0.3,0.4,0.6C366.2,792.8,366,793,365.7,793z"/></g><g><path d="M362.9,787.1c1.7-0.5,3.6,1,4,1.3" class="st13"/><path d="M366.9,789c-0.1,0-0.3-0.1-0.4-0.2c-0.3-0.3-2-1.6-3.4-1.2c-0.3,0.1-0.6-0.1-0.7-0.4c-0.1-0.3,0.1-0.6,0.4-0.7 c2-0.6,4.1,1,4.5,1.5c0.2,0.2,0.2,0.6,0,0.8C367.2,789,367,789,366.9,789z"/></g><path d="M440,811" class="st23"/><path d="M404.5,645.5c0,0,14.2,21.8,16,25.4c1.9,3.6,5.3,10.9,7.9,16.5c2.5,5.5,4.5,25.9-0.5,29.9 c-0.6,0.5-1.2-1-1.6-1.8c0.4-6-0.8-11.7-3.2-17.4c-2.8-6.6-7.6-15.1-12.4-25.5C405.7,661.6,403.7,649.4,404.5,645.5z" class="st24"/><path d="M353.3,653.7c0,0,2.1,11.6,3.2,15.7c1.1,4.1,3,12.3,3.7,15.9c0.8,3.7,2.4,11.4,3.7,15 c1.9,6.1,7.2,12.6,7.2,12.6c2.2,2.9,4.9,4.8,5.1,6l-2.5,2.2c0.4,0.6-11.7-5.2-16.6-15.3c-1.9-4.6-4.2-13.5-5.6-23.8 c-1.2-8.8,0.1-13,0.5-17.5C352.3,660.8,353.3,653.7,353.3,653.7z" class="st24"/><g><path d="M422.1,741.2" class="st25"/><g><g><g><g><g><ellipse cx="385.6" cy="748.7" rx="9.8" ry="9.3"/></g><ellipse cx="388.8" cy="745.4" class="st13" rx="2.4" ry="2.1"/><ellipse cx="388.8" cy="745.4" class="st13" rx="2.4" ry="2.1" transform="matrix(0.9793 -0.2026 0.2026 0.9793 -142.9841 94.2623)"/><ellipse cx="386" cy="749" class="st13" rx="1.2" ry="1" transform="matrix(0.9793 -0.2026 0.2026 0.9793 -143.7691 93.756)"/></g></g></g></g><g><path d="M383.8,739.7c-0.1,0-0.2,0.1-0.3,0.1C383.6,739.8,383.7,739.8,383.8,739.7z" class="st22"/><path d="M383,740.1c-0.1,0-0.2,0.1-0.3,0.1C382.8,740.2,382.9,740.2,383,740.1z" class="st22"/><g><path d="M403.1,769.7c-5,0-7.7-2-9-3.7c-1.5-1.8-1.7-3.6-1.7-3.7c0-0.2,0.1-0.5,0.4-0.5c0.2,0,0.5,0.1,0.5,0.4l0,0 c0,0,0.3,1.7,1.6,3.3c1.8,2.2,4.6,3.3,8.3,3.3c3.7,0,6.5-1.1,8.3-3.3c1.3-1.6,1.6-3.3,1.6-3.3c0-0.2,0.3-0.4,0.5-0.4 c0.2,0,0.4,0.2,0.4,0.5c0,0.1-0.3,1.9-1.7,3.7C410.8,767.7,408.1,769.7,403.1,769.7z"/><path d="M403.1,775.4" class="st26"/><path d="M403.1,772.5c-0.2,0-0.4-0.2-0.4-0.4v-9.6c-0.4-0.3-0.9-0.9-1.3-1.4c-0.8-1-0.8-1.4-0.6-1.6c0.1-0.2,0.3-0.5,2.4-0.5 c2.1,0,2.3,0.3,2.4,0.5c0.2,0.3,0,0.8-0.6,1.6c-0.4,0.5-0.9,1-1.3,1.4v9.6C403.6,772.3,403.4,772.5,403.1,772.5z M401.7,759.9 c0.2,0.4,0.8,1.2,1.5,1.8c0.6-0.6,1.3-1.4,1.5-1.8C403.9,759.8,402.3,759.8,401.7,759.9z M404.8,760L404.8,760L404.8,760z M401.4,760L401.4,760L401.4,760z"/><path d="M403.1,772.5c0,0-0.1,0-0.1,0c-0.5,0-2-0.1-2.3-1c-0.2-0.6-0.1-1.5,0-2.3l0-0.1c0-0.1,0.1-0.2,0.2-0.3 c0.1-0.1,0.2-0.1,0.3-0.1c1.3,0.1,2.6,0.1,3.9,0c0.1,0,0.2,0,0.3,0.1c0.1,0.1,0.2,0.2,0.2,0.3c0,0.2,0,0.3,0,0.5 c0.1,0.6,0.1,1.3-0.1,1.9c0,0,0,0,0,0C405.3,772.3,404.1,772.5,403.1,772.5z M401.6,769.7c-0.1,0.6-0.1,1.3,0,1.6 c0,0.1,0.5,0.4,1.5,0.4c0.9,0,1.6-0.2,1.7-0.4c0.1-0.5,0.1-1,0-1.6c0,0,0,0,0,0C403.7,769.8,402.6,769.8,401.6,769.7z"/><path d="M416.8,763.4C416.8,763.4,416.8,763.4,416.8,763.4c-2.6-0.1-4.7-1-6.3-2.8c-0.2-0.2-0.1-0.5,0.1-0.6 c0.2-0.2,0.5-0.1,0.6,0.1c1.4,1.6,3.2,2.4,5.6,2.4c0.2,0,0.4,0.2,0.4,0.4C417.2,763.2,417,763.4,416.8,763.4z"/><path d="M389.4,764c-0.2,0-0.4-0.2-0.4-0.4c0-0.2,0.1-0.5,0.4-0.5c2.1-0.3,3.8-1.4,5-3.4c0.1-0.2,0.4-0.3,0.6-0.1 s0.3,0.4,0.1,0.6C393.7,762.4,391.8,763.7,389.4,764C389.5,764,389.4,764,389.4,764z"/></g><g><g><g><g><g><ellipse cx="419.5" cy="748.4" rx="9.8" ry="9.3"/></g><ellipse cx="422.8" cy="745" class="st13" rx="2.4" ry="2.1"/><ellipse cx="422.8" cy="745" class="st13" rx="2.4" ry="2.1" transform="matrix(0.9793 -0.2026 0.2026 0.9793 -142.2012 101.1333)"/><ellipse cx="419.9" cy="748.6" class="st13" rx="1.2" ry="1" transform="matrix(0.9793 -0.2026 0.2026 0.9793 -142.9862 100.6269)"/></g></g></g></g><g><path d="M378,756.7c-0.1,0-0.2,0-0.3-0.1c-0.1-0.2-0.1-0.4,0.1-0.5c2.2-1.7,6.5-3.4,10.5-3.3c3.7,0.1,5.1,0.7,6.2,1.2 c0.2,0.1,0.3,0.3,0.2,0.5c-0.1,0.2-0.3,0.3-0.5,0.2c-1-0.5-2.4-1-5.9-1.1c-3.8-0.1-7.8,1.5-9.9,3.1 C378.2,756.7,378.1,756.7,378,756.7z"/><path d="M393.7,754.5c-1.7,1.6-3.4,2.9-5.1,3.7c-2.4,0.4-4.7,0.4-6.9,0.1c-1.1-0.2-2.3-0.9-3.2-1.9 C383,753.2,389.9,752.8,393.7,754.5z" class="st13"/></g><g><path d="M427.2,756.7c-0.1,0-0.2,0-0.2-0.1c-2.1-1.6-6.2-3.2-9.9-3.1c-3.5,0.1-4.9,0.6-5.9,1.1c-0.2,0.1-0.4,0-0.5-0.2 c-0.1-0.2,0-0.4,0.2-0.5c1.1-0.5,2.5-1.1,6.2-1.2c4-0.1,8.3,1.6,10.5,3.3c0.2,0.1,0.2,0.4,0.1,0.5 C427.4,756.6,427.3,756.7,427.2,756.7z"/><path d="M411.4,754.5c1.7,1.6,3.4,2.9,5.1,3.7c2.4,0.4,4.7,0.4,6.9,0.1c1.1-0.2,2.3-0.9,3.2-1.9 C422.2,753.2,415.3,752.8,411.4,754.5z" class="st13"/></g></g></g><g><path d="M381.4,786.5c2.9,1,9.1,2.4,11.7,2.6c0,0,1.6,7,11.7,5.9c7.6-0.9,7.6-6.7,7.6-6.7c0.5,0,8.5-2.1,8.7-2.1 c1.4,0,1.8-0.1,2.7-0.1c1.3,0,2.3-0.5,3.3,0.4c3.4,3,4.3,11.3,2.1,13.5c-0.4,0.4-2.8,0.8-3.6,0.9c1.2,5.5-0.6,13.3-1,14.2 c-0.5,2.2-11.4,5.7-21.9,5c-10.7-0.7-21-4.4-23.2-6.9c-0.1-0.2-0.3-0.3-0.4-0.5c-0.6-2.2,2-6.6,1.7-11.8 c-1.2,0.1-2.8-0.2-3.5-0.4c-0.1,0-0.2-0.2-0.1-0.3c3.3-4.8,1.1-10.1-1.2-13.6c-0.4-0.6,1.9-0.1,3.1,0 C380.3,786.6,380.7,786.2,381.4,786.5" class="st27"/></g></g><linearGradient id="SVGID_1_" x1="403.586" x2="403.586" y1="797.209" y2="775.437" gradientTransform="matrix(0.9994 3.389786e-02 -3.389786e-02 0.9994 26.5778 11.6264)" gradientUnits="userSpaceOnUse"><stop offset="0" style="stop-color:#9f2f3f"/><stop offset="1" style="stop-color:#e05a2c"/></linearGradient><path d="M387.1,820.5c0,0,1.2-15.4,2.8-20.7l26.9,3.8l2,15.5C418.8,819.1,396.5,824.1,387.1,820.5z" class="st28"/><linearGradient id="SVGID_2_" x1="403.363" x2="403.363" y1="778.449" y2="775.032" gradientTransform="matrix(0.9994 3.389786e-02 -3.389786e-02 0.9994 26.5778 11.6264)" gradientUnits="userSpaceOnUse"><stop offset="0" style="stop-color:#ff774a"/><stop offset="1" style="stop-color:#ff9836"/></linearGradient><path d="M389.9,799.8l15,0.1l11.9,3.7C416.8,803.6,397.9,804.1,389.9,799.8z" class="st29"/><linearGradient id="SVGID_3_" x1="403.506" x2="403.506" y1="788.399" y2="782.786" gradientTransform="matrix(0.9994 3.389786e-02 -3.389786e-02 0.9994 26.5778 11.6264)" gradientUnits="userSpaceOnUse"><stop offset="0" style="stop-color:#ffb69a"/><stop offset="1" style="stop-color:#ffd2ba"/></linearGradient><path d="M388.6,807.1c0,0,18,4.7,29.3,4.5l0.3,2.1l-29.9-3.8L388.6,807.1z" class="st30"/><linearGradient id="SVGID_4_" x1="403.652" x2="403.652" y1="793.692" y2="789.081" gradientTransform="matrix(0.9994 3.389786e-02 -3.389786e-02 0.9994 26.5778 11.6264)" gradientUnits="userSpaceOnUse"><stop offset="0" style="stop-color:#8d0a00"/><stop offset="1" style="stop-color:#631f3b"/></linearGradient><polygon points="387.8 813.4 418.5 816.9 418.8 819.1 387.4 818" class="st31"/><linearGradient id="SVGID_5_" x1="404.871" x2="404.871" y1="798.155" y2="791.036" gradientTransform="matrix(0.9994 3.389786e-02 -3.389786e-02 0.9994 26.5778 11.6264)" gradientUnits="userSpaceOnUse"><stop offset="0" style="stop-color:#d8cfee"/><stop offset="1" style="stop-color:#d9d9e3"/></linearGradient><path d="M378.9,817.2c0,0,2.7,5.1,16.6,5.5c4,0.1,17.3,0.2,20.3-0.3c11.6-1.6,14-5.7,14-5.7L378.9,817.2z" class="st32"/><linearGradient id="SVGID_6_" x1="399.388" x2="399.388" y1="789.099" y2="785.719" gradientTransform="matrix(0.9994 3.389786e-02 -3.389786e-02 0.9994 26.5778 11.6264)" gradientUnits="userSpaceOnUse"><stop offset="0" style="stop-color:#ffdbcd"/><stop offset="1" style="stop-color:#ffe1d1"/></linearGradient><path d="M389.6,810.1c0,0,4.6,0.8,5,1.2c0.4,0.4,0.9,2.1,2.5,2.4c1.6,0.3,2-1.4,2.8-1.6c0.8-0.2,1.6,0.9,2.7,1.1 c1.1,0.2,3.2-0.9,5.9-0.7L389.6,810.1z" class="st33"/><linearGradient id="SVGID_7_" x1="403.54" x2="404.433" y1="777.391" y2="771.622" gradientTransform="matrix(0.9994 3.389786e-02 -3.389786e-02 0.9994 26.5778 11.6264)" gradientUnits="userSpaceOnUse"><stop offset="0" style="stop-color:#ff5459"/><stop offset=".996" style="stop-color:#ff2c51"/></linearGradient><path d="M398.6,800.1c0,0,0.8-3.9,4.9-3.8c4.1,0.1,5.4,5.2,5.4,5.2S401.1,803.6,398.6,800.1z" class="st34"/><linearGradient id="SVGID_8_" x1="399.673" x2="401.084" y1="771.26" y2="762.141" gradientTransform="matrix(0.9994 3.389786e-02 -3.389786e-02 0.9994 26.5778 11.6264)" gradientUnits="userSpaceOnUse"><stop offset="0" style="stop-color:#736300"/><stop offset="1" style="stop-color:#504f00"/></linearGradient><path d="M402.6,796.4c0,0-0.5-5.5-5-8.1l1.5-1.9c0,0,3.1,6.4,4.5,9.9C403.6,796.4,403,796.8,402.6,796.4z" class="st35"/><linearGradient id="SVGID_9_" x1="390.515" x2="390.515" y1="798.155" y2="793.06" gradientTransform="matrix(0.9994 3.389786e-02 -3.389786e-02 0.9994 26.5778 11.6264)" gradientUnits="userSpaceOnUse"><stop offset="0" style="stop-color:#000"/><stop offset="1" style="stop-color:#f9e5e3"/></linearGradient><path d="M381.9,817.2c0,0,6.1,4,13.6,5.6l2.3-0.1c0,0-4.7-1.4-5.2-5.1L381.9,817.2z" class="st36"/><linearGradient id="SVGID_10_" x1="405.796" x2="405.796" y1="798.155" y2="795.567" gradientTransform="matrix(0.9994 3.389786e-02 -3.389786e-02 0.9994 26.5778 11.6264)" gradientUnits="userSpaceOnUse"><stop offset="0" style="stop-color:#84002a"/><stop offset="1" style="stop-color:#fff"/></linearGradient><path d="M395.5,822.8c0,0,7.5-1.9,14.3-2.1c6.8-0.1,4.5,1.9,4.5,1.9L395.5,822.8z" class="st37"/><g><linearGradient id="SVGID_11_" x1="348.174" x2="348.174" y1="813.171" y2="793.734" gradientTransform="matrix(-1 0 0 1 797.3768 0)" gradientUnits="userSpaceOnUse"><stop offset="0" style="stop-color:#a6f0ca"/><stop offset="1" style="stop-color:#bbd3e6"/></linearGradient><path d="M452.7,793.7c0,0-0.6,16.3-6.9,19.4v-19.4H452.7z" class="st38"/><linearGradient id="SVGID_12_" x1="-95.858" x2="-95.858" y1="813.171" y2="793.734" gradientTransform="matrix(1 0 0 1 538.2541 0)" gradientUnits="userSpaceOnUse"><stop offset="0" style="stop-color:#a6f0ca"/><stop offset="1" style="stop-color:#bbd3e6"/></linearGradient><path d="M438.8,793.7c0,0,0.6,16.3,6.9,19.4l0.3-19.4H438.8z" class="st39"/><linearGradient id="SVGID_13_" x1="351.51" x2="351.51" y1="809.824" y2="793.734" gradientTransform="matrix(-1 0 0 1 797.3768 0)" gradientUnits="userSpaceOnUse"><stop offset="0" style="stop-color:#8ba6b3"/><stop offset="1" style="stop-color:#697fcc"/></linearGradient><path d="M452.1,793.7c0,0-2,16.1-6.3,16.1c-4.3,0-6.2-16.1-6.2-16.1H452.1z" class="st40"/><linearGradient id="SVGID_14_" x1="351.638" x2="351.638" y1="822.727" y2="812.696" gradientTransform="matrix(-1 0 0 1 797.3768 0)" gradientUnits="userSpaceOnUse"><stop offset="0" style="stop-color:#93a4e6"/><stop offset="1" style="stop-color:#a6f0ca"/></linearGradient><polygon points="446.5 812.7 446.1 820 451.6 822.3 452 822.7 439.5 822.7 439.5 822.1 445.3 820.1 445 812.7" class="st41"/><linearGradient id="SVGID_15_" x1="351.791" x2="351.791" y1="822.45" y2="820.036" gradientTransform="matrix(-1 0 0 1 797.3768 0)" gradientUnits="userSpaceOnUse"><stop offset="0" style="stop-color:#534a71"/><stop offset="1" style="stop-color:#a4bfe3"/></linearGradient><path d="M451.6,822.3c0,0-7.5,0.5-12.1-0.2l5.8-2l0.8,0L451.6,822.3z" class="st42"/><path d="M451.3,799.2c0,0-0.3,5.4-2.1,8.8C449.2,808,450.2,801.2,451.3,799.2z" class="st13"/><path d="M444.8,811.4c0,0-0.3-0.8-1-1.3C443.8,810.1,443.7,811.2,444.8,811.4z" class="st13"/><path d="M450.7,822.5l-4.1-1.7h-1l1.1,1.7C446.7,822.4,449.8,822.6,450.7,822.5z" class="st13"/><linearGradient id="SVGID_16_" x1="351.626" x2="351.626" y1="809.825" y2="802.191" gradientTransform="matrix(-1 0 0 1 797.3768 0)" gradientUnits="userSpaceOnUse"><stop offset="0" style="stop-color:#ffbe80"/><stop offset="1" style="stop-color:#ff9857"/></linearGradient><path d="M450.2,802.9c0,0-5.1,0.3-9-0.8c0,0,2,7.7,4.5,7.6C448.3,809.7,450.2,802.9,450.2,802.9z" class="st43"/><path d="M450.2,802.9c0,0-1.6,0-3.1-0.2c-2.8-0.3-5.1-1.1-5.9-0.6C441.5,803.2,448,803.8,450.2,802.9z" class="st44"/><linearGradient id="SVGID_17_" x1="348.173" x2="348.173" y1="811.823" y2="793.734" gradientTransform="matrix(-1 0 0 1 797.3768 0)" gradientUnits="userSpaceOnUse"><stop offset="0" style="stop-color:#000"/><stop offset="1" style="stop-color:#ceba8b"/></linearGradient><path d="M451.3,793.7c0,0-0.9,13-3.8,17.7l-0.3,0.4c0,0,1.2-13.1,0.7-18.1H451.3z" class="st45"/><linearGradient id="SVGID_18_" x1="356.302" x2="356.302" y1="809.824" y2="793.734" gradientTransform="matrix(-1 0 0 1 797.3768 0)" gradientUnits="userSpaceOnUse"><stop offset="0" style="stop-color:#000"/><stop offset="1" style="stop-color:#f9e5e3"/></linearGradient><path d="M440.7,793.7c0,0,0.6,10.9,2.3,16.1c0,0-3.5-6.4-3.9-16.1H440.7z" class="st46"/></g><g><g class="st19"><path d="M391.3,799.7c-8.5-0.2-16.9,0.6-25.6,0.3c-0.1,1-0.2,2.1-0.3,3.1c8.6,0,17.2,0.6,25.9,1 C391.3,802.6,391.3,801.2,391.3,799.7z" class="st47"/><path d="M363.9,802.8c-0.6,6.3-0.4,12.8,0.6,19.1c8.9,2.8,19.3,2.9,28.3,0.3c-0.1-5.4,0-12.2,0-18.4 C383.1,803.3,373.5,802.8,363.9,802.8z" class="st48"/><path d="M392.8,800c0-1.5,0-2.9-0.1-4.2c-8.1-3.4-19.2-2-27.7-0.6c-0.3,1.7-0.6,3.4-0.8,5.2 C373.9,800.6,383.3,799.9,392.8,800z" class="st48"/></g><g class="st19"><path d="M446.8,802.1c-6.2-0.2-12.4,0.6-18.7,0.3c-0.1,1-0.2,1.9-0.2,2.9c6.3,0,12.6,0.5,18.9,0.9 C446.8,804.7,446.8,803.4,446.8,802.1z" class="st47"/><path d="M426.7,804.9c-0.4,5.8-0.3,11.8,0.4,17.6c6.6,2.6,14.1,2.7,20.7,0.3c-0.1-5,0-11.2,0-17 C440.9,805.4,433.8,804.9,426.7,804.9z" class="st49"/><path d="M447.9,802.3c0-1.4,0-2.7,0-3.9c-5.9-3.2-14.1-1.9-20.3-0.6c-0.3,1.6-0.4,3.2-0.6,4.8 C434.1,802.9,441,802.2,447.9,802.3z" class="st49"/></g><g class="st19"><path d="M425,796.6c-9.6-0.2-19.1,0.7-28.9,0.3c-0.1,1.2-0.3,2.4-0.3,3.5c9.7,0,19.5,0.6,29.2,1.1 C425,799.9,425,798.2,425,796.6z" class="st47"/><path d="M394.1,800c-0.7,7.2-0.4,14.4,0.7,21.5c10.1,3.2,21.8,3.3,31.9,0.4c-0.2-6.1,0-13.7,0-20.8 C415.9,800.6,405,800,394.1,800z" class="st50"/><path d="M426.8,796.9c0-1.7,0-3.3-0.1-4.8c-9.1-3.9-21.7-2.3-31.3-0.7c-0.4,1.9-0.7,3.9-1,5.8 C405.4,797.6,416,796.7,426.8,796.9z" class="st50"/></g><g><g><g><path d="M554.6,832.4c0-2.3-1.4-4.6-4.4-4.6c-73.5,0-146.9-0.2-220.4-0.2c-10.5,0-21.1,0-31.6,0 c-9.8,0-19.6-0.2-29.3,0.8c-1.1,0-2.1,0.1-3.2,0.1c-2.5-0.1-3.8,1.9-3.7,3.9c-0.1,1.9,1.1,3.9,3.7,3.8c1,0,191.8,0.8,230,0.8 c18.2,0,36.3,0,54.5,0C553,837,554.5,834.7,554.6,832.4z" class="st9"/><path d="M554.6,825.9c0-2.3-1.4-4.6-4.4-4.6c-73.5,0-146.9-0.2-220.4-0.2c-10.5,0-21.1,0-31.6,0 c-9.8,0-19.6-0.2-29.3,0.8c-1.1,0-2.1,0.1-3.2,0.1c-2.5-0.1-3.8,1.9-3.7,3.9c-0.1,1.9,1.1,3.9,3.7,3.8c1,0,96.5,0.9,115.4,0.9 c38.2,0,76.4-0.1,114.6-0.2c18.2,0,36.3,0,54.5,0C553,830.5,554.5,828.2,554.6,825.9z" class="st10"/></g><path d="M276,882.4c0-8.6-0.1-17.2-0.1-25.7c0-4.3,0-8.6-0.1-12.9c-0.1-3.6,0.8-6.7-2-9.3c-0.4-0.3-0.9-0.4-1.3,0 c-2.6,2.3-1.9,4.7-2,8.1c-0.1,4.3-0.1,8.6-0.2,12.9c-0.1,8.9-0.1,17.9-0.1,26.8c0,17.8-0.7,35.8,0.2,53.6 c0.2,3.4,5.2,3.5,5.4,0.1C276.7,918.2,276,900.2,276,882.4z" class="st9"/><path d="M543.2,882.4c0-8.6-0.1-17.2-0.1-25.7c0-4.3,0-8.6-0.1-12.9c-0.1-3.6,0.8-6.7-2-9.3c-0.4-0.3-0.9-0.4-1.3,0 c-2.6,2.3-1.9,4.7-2,8.1c-0.1,4.3-0.1,8.6-0.2,12.9c-0.1,8.9-0.1,17.9-0.1,26.8c0,10-0.2,20.1-0.2,30.2 c-43.7-0.3-87.4-0.7-131.1-1c-44-0.3-88-1.3-132-0.6c-3.9,0.1-4,5.9-0.1,6.1c44,1.3,88,1,132,1.3l131.2,0.9 c0,5.6,0.2,11.2,0.4,16.8c0.2,3.4,5.2,3.5,5.4,0.1C543.9,918.2,543.1,900.2,543.2,882.4z" class="st9"/></g><g><g><path d="M453.3,903.4h-83.9c0,1.8,0.3,3.6,0.8,5.4h83.3C453.1,907,453.1,905.2,453.3,903.4z" class="st51"/><path d="M454.4,908.8h-84.3c-0.5-1.8-0.7-3.6-0.8-5.4h85c0.1-0.9,0.3-1.8,0.5-2.7c-14.4-0.5-28.9-0.7-43.3-0.9 c-13.7-0.2-28.3-1.7-41.9,0c-0.3,0-0.7,0.1-1,0.1c-2,0.3-3.3,1.7-3.8,3.5c-0.6,1.8-0.4,3.8,0.5,5.4c0.7,1.1,1.7,2,3.2,2.2 c0.9,0.1,1.7,0.3,2.6,0.4c13.2,1.8,27.2,0.7,40.4,0.8c14.5,0.2,29.1,0.3,43.6,0.2c0.1,0,0.1,0,0.2,0 C454.8,911.2,454.6,910,454.4,908.8z" class="st52"/></g><g><path d="M456.3,891.7h-83.9c0,1.8,0.3,3.6,0.8,5.4h83.3C456.1,895.3,456.1,893.5,456.3,891.7z" class="st51"/><path d="M457.4,897h-84.3c-0.5-1.8-0.7-3.6-0.8-5.4h85c0.1-0.9,0.3-1.8,0.5-2.7c-14.4-0.5-28.9-0.7-43.3-0.9 c-13.7-0.2-28.3-1.7-41.9,0c-0.3,0-0.7,0.1-1,0.1c-2,0.3-3.3,1.7-3.8,3.5c-0.6,1.8-0.4,3.8,0.5,5.4c0.7,1.1,1.7,2,3.2,2.2 c0.9,0.1,1.7,0.3,2.6,0.4c13.2,1.8,27.2,0.7,40.4,0.8c14.5,0.2,29.1,0.3,43.6,0.2c0.1,0,0.1,0,0.2,0 C457.8,899.5,457.6,898.3,457.4,897z" class="st53"/></g><g><path d="M434,882.2h-59.2c0,1.3,0.2,2.6,0.5,3.8h58.7C433.9,884.8,433.9,883.5,434,882.2z" class="st51"/><path d="M434.8,886h-59.5c-0.3-1.2-0.5-2.5-0.5-3.8h60c0.1-0.6,0.2-1.3,0.3-1.9c-10.2-0.4-20.4-0.5-30.5-0.6 c-9.7-0.1-20-1.2-29.6,0c-0.2,0-0.5,0.1-0.7,0.1c-1.4,0.2-2.3,1.2-2.7,2.4c-0.4,1.2-0.3,2.7,0.4,3.8c0.5,0.8,1.2,1.4,2.3,1.6 c0.6,0.1,1.2,0.2,1.8,0.3c9.3,1.2,19.2,0.5,28.5,0.6c10.3,0.1,20.5,0.2,30.8,0.1c0,0,0.1,0,0.1,0 C435.1,887.7,434.9,886.9,434.8,886z" class="st54"/></g><g><path d="M427.5,875.4h-49.4c0,1.1,0.2,2.1,0.5,3.2h49C427.4,877.5,427.4,876.4,427.5,875.4z" class="st51"/><path d="M428.2,878.6h-49.6c-0.3-1-0.4-2.1-0.5-3.2h50c0.1-0.5,0.2-1.1,0.3-1.6c-8.5-0.3-17-0.4-25.5-0.5 c-8.1-0.1-16.6-1-24.7,0c-0.2,0-0.4,0-0.6,0.1c-1.2,0.2-1.9,1-2.3,2c-0.3,1-0.2,2.2,0.3,3.2c0.4,0.7,1,1.2,1.9,1.3 c0.5,0.1,1,0.2,1.5,0.2c7.7,1,16,0.4,23.7,0.5c8.6,0.1,17.1,0.2,25.7,0.1c0,0,0.1,0,0.1,0C428.4,880,428.3,879.3,428.2,878.6z" class="st55"/></g></g></g></g></g></svg>