<svg xmlns="http://www.w3.org/2000/svg" id="Layer_1" data-name="Layer 1" viewBox="0 0 841.89 595.28"><defs><style>.cls-1{fill:#fff}</style></defs><title>linkdin</title><path d="M651,12H185.36a51.42,51.42,0,0,0-51.42,51.42V529.09a51.43,51.43,0,0,0,51.42,51.43H651a51.44,51.44,0,0,0,51.43-51.43V63.45A51.43,51.43,0,0,0,651,12ZM309.85,502.9a15,15,0,0,1-15,15H231.18a15,15,0,0,1-15-15v-267a15,15,0,0,1,15-15h63.71a15,15,0,0,1,15,15ZM263,195.72a60.52,60.52,0,1,1,60.51-60.52A60.52,60.52,0,0,1,263,195.72ZM642.76,504.1A13.76,13.76,0,0,1,629,517.86H560.65a13.76,13.76,0,0,1-13.76-13.76V378.85c0-18.69,5.48-81.88-48.84-81.88-42.12,0-50.67,43.25-52.39,62.66V504.1a13.75,13.75,0,0,1-13.76,13.76H365.79A13.76,13.76,0,0,1,352,504.1V234.65a13.76,13.76,0,0,1,13.76-13.76H431.9a13.76,13.76,0,0,1,13.76,13.76V258c15.63-23.44,38.84-41.54,88.27-41.54,109.46,0,108.83,102.26,108.83,158.45V504.1Z" class="cls-1"/></svg>