<svg xmlns="http://www.w3.org/2000/svg" id="Layer_1" data-name="Layer 1" viewBox="0 0 841.89 595.28"><defs><style>.cls-1{fill:#fff}</style></defs><title>mail</title><path d="M67.09,62.18C170,149.29,350.44,302.55,403.49,350.34c7.12,6.45,14.76,9.73,22.69,9.73s15.54-3.25,22.65-9.67c53.09-47.83,233.58-201.11,336.45-288.22a15.61,15.61,0,0,0,2.19-21.55,62,62,0,0,0-49-24.06H113.9a62,62,0,0,0-49,24.07A15.6,15.6,0,0,0,67.09,62.18Z" class="cls-1"/><path d="M791.86,109.39a15.53,15.53,0,0,0-16.65,2.26C661.14,208.35,515.55,332.3,469.75,373.58c-25.71,23.2-61.39,23.2-87.16,0-48.83-44-212.32-183-305.44-261.91a15.62,15.62,0,0,0-25.71,11.91V516.22a62.52,62.52,0,0,0,62.46,62.46H738.47a62.52,62.52,0,0,0,62.45-62.46V123.55A15.59,15.59,0,0,0,791.86,109.39Z" class="cls-1"/></svg>