<?xml version="1.0" encoding="utf-8"?>
<!-- Generator: Adobe Illustrator 22.1.0, SVG Export Plug-In . SVG Version: 6.00 Build 0)  -->
<svg version="1.1" id="Layer_1" xmlns="http://www.w3.org/2000/svg" xmlns:xlink="http://www.w3.org/1999/xlink" x="0px" y="0px"
	 viewBox="0 0 864.6 1204.7" style="enable-background:new 0 0 864.6 1204.7;" xml:space="preserve">
<style type="text/css">
	.st0{display:none;}
	.st1{display:inline;fill:#FFFFFF;}
	.st2{display:inline;}
	.st3{display:none;opacity:0.69;fill:#CCCCCC;}
	.st4{fill:#FFFFFF;}
	.st5{display:none;opacity:0.5;fill:#CCCCCC;}
	.st6{opacity:0.5;fill:#CCCCCC;}
	.st7{fill:#0F0904;}
	.st8{display:none;fill:#FFFFFF;stroke:#000000;stroke-width:8.4557;stroke-miterlimit:10;}
	.st9{opacity:0.5;fill:#E5ACE5;}
	.st10{fill:#091307;}
	.st11{fill:none;stroke:#000000;stroke-width:1.3459;stroke-linecap:round;stroke-linejoin:round;stroke-miterlimit:10;}
	.st12{stroke:#000000;stroke-width:0.5;stroke-miterlimit:10;}
</style>
<g>
	<g class="st0">
		<path class="st1" d="M435,930.4c1.9,23.6,14.5,35,27.1,41.7c33,17.4,80-2.2,66.2-30.3c-6.8-13.3-33.9-28.9-33.9-28.9
			S435.7,926.6,435,930.4z"/>
		<path class="st2" d="M494.6,981c-11.9,0.9-23.8-1.4-33.8-6.7c-17.5-9.2-26.8-23.5-28.4-43.6l0-0.3l0.1-0.3c0.3-1.9,2-3.3,11.3-6.3
			c5-1.6,11.9-3.6,20.5-5.9c14.6-3.9,29.4-7.3,29.5-7.3l1-0.2l0.9,0.5c1.1,0.7,27.8,16.1,34.9,29.9c5,10.2,3,20.6-5.5,28.4
			c-6.8,6.3-17.4,10.6-29,11.7C495.6,980.9,495.1,980.9,494.6,981z M437.7,931.4c1.8,18,9.9,30.3,25.7,38.5
			c21,11.1,46.6,6.3,58.2-4.4c4.9-4.5,9.6-12.1,4.4-22.6c-5.7-11.2-27.4-24.5-32-27.3C469.3,921.4,442.6,928.6,437.7,931.4z"/>
	</g>
	<path class="st3" d="M481.2,939.9c15.9-5.9,26.5-11.8,22.9-17.7c-11.4-10.9-69.6,7-65.1,16.9C446.5,947.7,473.1,942.8,481.2,939.9z
		"/>
	<g class="st0">
		<path class="st1" d="M414.9,925.6l-60.6-2.9c0,0-17,30.7-8.8,46.3c10.5,19.9,58.8,23.8,72.6,5.8
			C431.7,957,414.9,925.6,414.9,925.6z"/>
		<path class="st2" d="M391.9,988.5c-3.8,0.3-7.6,0.3-11.1,0c-13.9-1.1-31.1-6.5-37.4-18.4c-8.8-16.5,8.1-47.2,8.8-48.5l0.7-1.4
			l63.6,3.1l0.7,1.2c0.7,1.3,17.4,33,3,51.7C414.1,984.1,402.9,987.6,391.9,988.5z M355.8,925.2c-3.1,6-14.7,30.1-8,42.7
			c4.5,8.4,17.6,14.6,33.4,15.9c15.6,1.2,29.3-2.9,35-10.4c11-14.5,0-39.6-2.9-45.4L355.8,925.2z"/>
	</g>
	<path class="st3" d="M382.7,948.6c-12.5-3-28-14.2-28-21.4c3.4-10,63.8,6.8,63.2,12.5C412.9,949.3,389.2,950.1,382.7,948.6z"/>
	<g>
		<path class="st4" d="M412.3,775.3c0,0-35.2-1.6-51.5-3.3s-44.8-3.8-64.2-9.6c-19.5-5.9-24.9,9.3-26.5,24
			c-2,18.8,9.9,22.6,38.7,29.1c28.4,6.4,112.7,8.7,112.7,8.7L412.3,775.3z"/>
		<path d="M424,826.3l-2.5-0.1c-3.4-0.1-84.7-2.4-113.1-8.8c-14.2-3.2-24.8-5.8-31.6-10.3c-7-4.6-9.7-11.1-8.7-21
			c1.3-12.5,4.9-20.5,11-24.4c4.7-3,10.8-3.5,18.1-1.3c16.7,5,40,7.2,57,8.9c2.4,0.2,4.7,0.5,6.8,0.7c16.1,1.6,51.1,3.3,51.4,3.3
			l1.6,0.1L424,826.3z M287.4,763.1c-2.3,0.2-4.3,0.8-6,1.9c-5,3.2-8,10.2-9.2,21.5c-1.8,16.8,7.6,20.3,37.1,27
			c25.2,5.7,95.5,8.2,109.7,8.6l-8.5-45c-7.1-0.3-35.8-1.8-50-3.2c-2.1-0.2-4.3-0.4-6.8-0.7c-17.2-1.6-40.7-3.9-57.8-9
			C292.9,763.3,290,762.9,287.4,763.1z"/>
	</g>
	<path class="st5" d="M346.8,772.5l5.7,46.2l-11.1-0.7c-12.2-13.9-13.5-30.7-5.2-46.7L346.8,772.5z"/>
	<g>
		<path class="st4" d="M453.1,772.2c0,0,32.7-6.9,47.7-10.9c15-4,41.3-10.4,58.6-18.9c17.4-8.6,24.7,5.2,28.3,19.3
			c4.7,17.9-5.8,23.4-31.8,34.1c-25.6,10.5-104,25.4-104,25.4L453.1,772.2z"/>
		<path d="M449.7,823.5l1.4-53l1.6-0.3c0.3-0.1,32.8-6.9,47.6-10.9c1.9-0.5,4-1.1,6.2-1.7c15.7-4.1,37.1-9.8,51.9-17.1
			c6.5-3.2,12.2-3.7,17.1-1.6c6.4,2.8,11.1,10.1,14.2,22.2c2.5,9.5,0.9,16.2-5,21.7c-5.7,5.3-15.2,9.5-28,14.7
			c-25.5,10.5-101.2,24.9-104.4,25.5L449.7,823.5z M455.1,773.8l-1.2,44.8c13.6-2.6,78.5-15.5,101.1-24.7
			c26.5-10.9,34.8-15.7,30.6-31.7c-2.8-10.7-6.8-17.3-11.9-19.5c-3.7-1.6-8.2-1.1-13.5,1.5c-15.2,7.5-36.9,13.3-52.7,17.4
			c-2.2,0.6-4.3,1.1-6.2,1.7C488.3,766.7,461.9,772.4,455.1,773.8z"/>
	</g>
	<path class="st6" d="M529.5,801.8c7.1-10.8,0.7-38-15.9-41.8l-8.3,2.2l13.9,42.5C519.2,804.7,515,805.5,529.5,801.8z"/>
	<g class="st0">
		<path class="st1" d="M358.9,861.9c0,0-2-10.6-10.4-16c-6.4-4-18.6-7.8-30.7-4.4c-13.9,3.9-24.4,20.7-20.2,33.6
			c3.9,12.1,10.6,16.2,17.2,19.8c6.6,3.6,17,6.9,26.7,3.3c14.8-5.5,18.5-19.9,18.5-19.9L358.9,861.9z"/>
		<path class="st2" d="M334.9,901.5c-9.1,0.7-17.4-3-21-5c-7.2-3.9-14-8.5-18.1-20.8c-2-6.2-1-13.6,2.8-20.4
			c4.2-7.6,11.2-13.4,18.6-15.5c11.9-3.4,24.8-0.1,32.2,4.6c9,5.7,11.1,16.7,11.2,17.1l0,0.1l1.2,16.8l-0.1,0.3
			c-0.2,0.6-4.1,15.4-19.6,21.2C339.7,900.8,337.3,901.3,334.9,901.5z M324.7,842.1c-2.2,0.2-4.3,0.5-6.5,1.1
			c-6.5,1.8-12.7,7-16.4,13.7c-3.3,6-4.2,12.4-2.5,17.6c3.6,11.1,9.6,15.1,16.4,18.8c4.1,2.2,14.8,7,25.1,3.2
			c12.6-4.7,16.7-16.6,17.3-18.4l-1.1-16c-0.2-1-2.3-10.1-9.6-14.7C342.1,844,333.5,841.4,324.7,842.1z"/>
	</g>
	<path class="st3" d="M345.7,846.4c11,5.3,9.1,17.3,4.4,28.9c-1.6,12.3-3.5,22.3-17.2,22.9c-21.1,0.4-8.5-23.7-2.2-34.3
		C336.1,854.5,341.1,847.3,345.7,846.4z"/>
	<g>
		<path class="st4" d="M344,770.3c5.3,26.5,4.7,38,4.8,62c0.2,30.2-3.2,31.5-0.7,50.8c24.5,12.9,45.9,19.7,83.7,23.5
			c38.7,3.9,73.9-11.1,79.5-27.2c11.2-32,19.5-115.1-15.6-134C472.3,732.8,336.7,734.2,344,770.3z"/>
		<path class="st0" d="M436.4,938.4c-1.1,0.1-2.2,0.2-3.3,0.2c-26.3,1.7-73.2,0.8-91.9-24.6l-0.1-0.1c-7.8-11.6-4.5-20.5-0.4-31.8
			c3.2-8.7,7.2-19.6,7-35c0-3-0.1-5.8-0.1-8.5c-0.3-22.5-0.5-36.1-5.5-63.6c-1.7-9.1,2.4-16.9,12.2-23.2
			c20.8-13.4,60.3-15.5,76.4-15.7c30.1-0.5,56.7,3.3,66.4,9.4c20.4,12.9,26,47.7,27,74.5c1.3,32.9-3.6,66.9-8.7,84.5
			c-2.7,9.4-12.8,17.6-29,23.7C473,933.4,455.4,936.9,436.4,938.4z M344.9,911.5c17.5,23.7,62.6,24.4,88,22.8
			c19.8-1.3,38.2-4.8,52-10c14.8-5.6,23.9-12.8,26.3-20.8c5-17.3,9.8-50.8,8.5-83.2c-1.5-36.5-10.4-61.7-25-71.1
			c-8.8-5.6-35.1-9.2-63.9-8.7c-32.6,0.5-60.2,6.1-74,15c-8.2,5.3-11.6,11.4-10.2,18.8c5.1,27.8,5.3,41.6,5.6,64.3
			c0,2.7,0.1,5.5,0.1,8.4c0.3,16.2-3.9,27.5-7.2,36.5C340.9,894.5,338.3,901.7,344.9,911.5z"/>
	</g>
	<path class="st6" d="M346.5,768c18.9,12.9,49.5,19.7,78.4,17.4c56.1-4.4,80.5-25.7,76.3-29c-7.5-14.8-49.9-7.2-83.1-3.8
		C377.6,756.8,350.8,749.7,346.5,768z"/>
	<g>
		<path class="st4" d="M570.4,703.7c5.6-3.8,29.9-29.3,31.4-37.5c-13.5,1.6-19.3,0.3-19.3,0.3c6.5-5.9,13.8-18.9,18.1-30.8
			c0,0-12.9,3.1-19.5-4.7c-6.6-7.8-16.9-79.5-25.3-91.9c-4.7-12-23.1-27.4-20.9-37.7c11.2-18.8,19.2-116.2-13.6-186.4
			s-103-161.6-137.2-154s-18.6,54.2-20,109.6S428.3,458,428.3,458c-10.1,1.5-31.8,2.4-39.2-0.8s-19.4-13.4-19.4-13.4
			c-2.3,7.7-2.1,14.8,0.4,21.3c-13-1.4-19.9-1.2-27.1-10.5c-6.3-13.9-137.3-244.9-150.8-254.5c-13.5-9.6-21.9,14.2-23.8,18.3
			c-1.9,4.1-17.6,54.6-16.8,86.1c0.8,31.5-3.9,119.1,51.7,173s63.4,53.6,65.1,55.6s0.8,2,3.9,5.4c0.8,0.9-14.4,30.6-16.2,62.7
			c-1.4,24.3-12.2,81.8-23.4,89.4c6.2,2.1,11.5,4.2,16,6.9c-3,4.1-6.9,7.8-11.6,11.2c12,12.1,27,24.5,41,30.2
			c52.7,21.6,86.8,35.6,149.2,28.5C529.7,755.8,570.4,703.7,570.4,703.7z"/>
		<path d="M416.6,770.8c-56.2,4.4-89.9-9.4-139.4-29.7l-0.1,0c-15.5-6.4-31.3-20.2-41.8-30.7l-1.9-1.9l2.2-1.6
			c3.8-2.7,6.9-5.6,9.5-8.6c-3.5-1.8-7.7-3.6-13.3-5.4l-4.4-1.5l3.8-2.6c4.3-2.9,9.7-16.8,14.4-37.1c4-17.1,7.3-37.9,8-50.6
			c1.4-24.6,10.6-48,14.5-58c0.6-1.5,1.2-3,1.5-3.9c-1.4-1.6-1.8-2.5-2.2-3.2c-0.3-0.5-0.4-0.8-0.9-1.4c-0.1-0.1-0.6-0.4-1.1-0.6
			c-4.4-2.5-17.9-10.1-63.9-54.8c-51.3-49.8-52-127.5-52.3-164.9c0-3.7-0.1-6.9-0.1-9.7c-0.8-31.8,15-82.7,17-87.1
			c0.2-0.3,0.4-0.8,0.6-1.4c2.3-5.3,7.5-17.7,16.2-20.1c3.5-1,7.1-0.2,10.6,2.3c7.6,5.4,47,71.7,78.7,126.3
			C306.5,383.5,341,445,345,453.4c5.8,7.4,11.1,7.9,21.6,9c0,0,0.1,0,0.1,0c-1.6-6.1-1.3-12.6,0.7-19.3l1.1-3.5l2.8,2.4
			c0.1,0.1,11.7,10,18.8,13c5.9,2.6,23.5,2.3,34.7,1.1c-4.3-8.9-18-37.3-31.3-70.1c-21.7-53.2-32.4-92-31.8-115.3
			c0.4-14.8-0.5-29.3-1.3-42c-2.2-35.6-3.9-63.8,23.1-69.8c8.8-2,20,1.9,33.2,11.4c11.6,8.4,24.5,20.9,38.3,37.2
			c25.6,30.3,51.8,71.2,68.4,106.7c19.3,41.4,23,88.8,23.5,113.4c0.6,32.4-3.5,63.6-9.8,74.7c-0.8,5.1,5,12.7,10.6,20
			c4,5.3,8.2,10.8,10.2,15.8c4.5,7,9.3,29.1,14,50.4c3.8,17.7,8.2,37.7,11,41c5.6,6.6,17,4,17.1,4l4.2-1l-1.4,4
			c-3.3,9.3-9,20.8-15.3,28.2c3,0.1,7.6,0,14-0.8l3.2-0.4l-0.5,3c-1.6,8.8-25.7,34.2-32,38.7c-1.7,2-12,14.2-33.5,27.8
			c-21.2,13.3-57.6,30.5-111.1,36.6C423.8,770.1,420.1,770.5,416.6,770.8z M240.6,709c10.1,9.9,24.4,22.1,38.4,27.8l0.1,0
			c48.9,20,82.1,33.6,137.3,29.3c3.4-0.3,6.9-0.6,10.6-1c52.4-5.9,88.1-22.7,108.8-35.7c22.5-14.1,32.7-27,32.8-27.1l0.2-0.3
			l0.3-0.2c4.9-3.3,24-23.4,29.1-32.9c-11.1,1-16.1,0-16.3-0.1l-4.4-1l3.3-3c5.3-4.8,11.7-15.2,16.1-26.2
			c-4.8,0.4-12.8-0.1-17.8-6.1c-3.4-4-6.7-18.9-12-43c-4.4-20.2-9.4-43.1-13.5-49.1l-0.1-0.2l-0.1-0.2c-1.8-4.5-5.8-9.8-9.7-14.9
			c-6.6-8.7-12.8-16.9-11.3-24l0.1-0.4l0.2-0.3c10.4-17.5,19.3-113.6-13.7-184.3c-34.7-74.5-103.6-159.6-134.5-152.7
			c-23,5.1-21.5,30.2-19.4,65c0.8,12.8,1.7,27.4,1.3,42.4c-1.3,54.3,63.4,184.8,64.1,186.1l1.4,2.8l-3.2,0.5
			c-10.2,1.5-32.5,2.5-40.6-1c-5.4-2.4-12.9-8-17-11.3c-1.2,5.8-0.7,11.2,1.2,16.3l1.4,3.5l-3.9-0.4c-1.3-0.1-2.5-0.3-3.7-0.4
			c-10.8-1.1-18-1.8-25-11l-0.2-0.2l-0.1-0.2c-3-6.5-36.7-66.7-72.6-128.7C224.9,252.4,196,205.7,190.7,202
			c-2.3-1.6-4.4-2.2-6.5-1.6c-6.4,1.8-11.2,13.1-13.1,17.4c-0.3,0.6-0.5,1.2-0.7,1.5c-2,4.3-17.4,54-16.6,85.1
			c0.1,2.8,0.1,6.1,0.1,9.8c0.3,36.7,1,113.2,50.9,161.7c45.6,44.2,58.6,51.6,62.9,54.1c1.1,0.6,1.7,1,2.3,1.7
			c0.8,1,1.2,1.6,1.5,2.2c0.4,0.7,0.7,1.4,2.4,3.2c1.1,1.3,0.8,2-1.4,7.7c-3.8,9.8-12.9,32.7-14.2,56.6
			c-1.2,21.8-10.3,73.7-21.6,88.3c5.4,2,9.5,3.8,13,5.9l2.1,1.3l-1.4,2C247.9,702.4,244.6,705.8,240.6,709z"/>
	</g>
	<path d="M275.1,539.3l-3.3-2.3c10.5-14.6,22.3-28.1,35.2-40.2l2.8,2.8C297.1,511.7,285.4,525,275.1,539.3z"/>
	<path d="M309.3,500.1l-1.7-3.6l7.1-3.3c-1.8-1.8-4.2-4.5-5-6.6c-1.3-3.3-1.5-8.5-1.5-8.7l-0.1-2.6l2.6,0.6c9.9,2.3,25,5.3,27.6,4.8
		c1.4-0.2,2.3-0.6,2.8-1c-1.7-2.4-5-7.5-5.6-10.9c-0.7-3.9-1-6.3,0.3-9.6l0.7-1.9l1.9,0.7c5.4,1.9,20.4,3.7,25.7,4.2l-0.4,3.9
		c-0.2,0-16.4-1.6-24.6-3.7c-0.2,1.4,0,3,0.4,5.8c0.5,2.9,4.4,8.6,5.9,10.6l0.7,0.9l-0.5,1c-0.1,0.3-1.6,3.1-6.6,3.9
		c-3.7,0.6-19.5-2.7-26.5-4.3c0.2,1.6,0.5,3.5,1,4.8c0.7,1.9,4.1,5.3,6.1,7.1l2.2,2L309.3,500.1z"/>
	<path class="st7" d="M521.9,486c4,3.4,8.1,6.9,12.1,10.3c2,2.1,4,4.1,5.9,6.2c-0.6,2.2-1.2,4.5-1.8,6.7c-1.1-1.2-2.3-2.5-3.4-3.7
		c-11.5-12.2-23.7-23.5-39.3-30.7c-2.7-1.3-5.3-2.6-8-3.9c0.1-0.4,0.1-0.8,0.2-1.2c2.3,0,4.7,0.1,7.9,0.1c-0.2-5.3-0.1-10.7-0.8-16
		c-3.2-24.7-13.8-46.6-26.5-67.8c-16.7-27.9-33.8-55.5-49.3-84c-14.4-26.6-25-54.9-28.1-85.3c-0.8-7.6-0.2-15.3,0.9-23
		c0.7,1.9,1.4,3.7,2,5.6c-0.2,1.1-0.5,2.2-0.4,3.3c1.9,19.6,6.8,38.5,13.2,57.1c7.5,21.5,17.3,42,29.2,61.6
		c12.5,20.5,24.5,41.4,36.9,62c15.9,26.2,27.7,53.7,28.3,84.8c0,1.9,2,4.3,3.7,5.7C510.3,477.9,516.1,481.9,521.9,486z"/>
	<path class="st7" d="M300.2,492.8c-13.9-12.3-26.6-25.7-36.8-41.1c-15.3-23.1-21.5-49.4-29.4-75.3c-9.9-32.7-20.8-65.2-30.8-97.8
		c-3.2-10.2-5.2-20.8-7.7-31.1c0.8-0.3,1.7-0.6,2.5-0.8c1.3,4.3,2.6,8.7,4,13c10.5,32.1,21.3,64.2,31.6,96.4
		c5.9,18.3,10.9,37,16.6,55.4c6.4,20.7,16.8,39.3,31.6,55.5c8.6,9.4,20.5,20.9,29.4,30c-1.5,1.5-5.5,5.9-6.7,1.8
		C304.2,498,301.6,493.1,300.2,492.8z"/>
	<path class="st7" d="M393.7,205.5"/>
	<g class="st0">
		<path class="st1" d="M366.1,981.9c-2.5-9.4-3.5-17.7,1.4-22.1"/>
		<path class="st2" d="M366.3,984.3c-1.2,0.1-2.3-0.6-2.6-1.8c-2.5-9.5-3.9-19,2.1-24.5c1-0.9,2.6-0.9,3.5,0.1
			c0.9,1,0.9,2.5-0.1,3.4c-4.2,3.8-2.7,12.1-0.7,19.8c0.3,1.3-0.5,2.6-1.8,2.9C366.6,984.3,366.4,984.3,366.3,984.3z"/>
	</g>
	<g class="st0">
		<path class="st1" d="M391.2,986.1c4-3.4,5.9-18.4-0.4-25.1"/>
		<path class="st2" d="M391.4,988.5c-0.8,0.1-1.5-0.2-2.1-0.8c-0.9-1-0.8-2.5,0.2-3.4c1.2-1,2.5-4.5,2.8-9.1c0.3-5.3-1-9.9-3.4-12.5
			c-0.9-1-0.9-2.5,0.2-3.4c1-0.9,2.6-0.8,3.5,0.1c3.3,3.5,5,9.4,4.7,16c-0.2,4.4-1.6,10-4.5,12.5
			C392.4,988.3,391.9,988.5,391.4,988.5z"/>
	</g>
	<g class="st0">
		<path class="st1" d="M496.9,974.9c0.7-8.1-4-17.3-8.3-21.2"/>
		<path class="st2" d="M497.1,977.5c-0.1,0-0.3,0-0.4,0c-1.5-0.1-2.6-1.3-2.4-2.8c0.6-7.4-3.9-15.9-7.5-19.2c-1.1-1-1.1-2.6-0.1-3.7
			c1-1,2.7-1.1,3.8-0.1c5,4.6,9.8,14.6,9.1,23.3C499.4,976.4,498.4,977.4,497.1,977.5z"/>
	</g>
	<g class="st0">
		<path class="st1" d="M518.7,971c4.4-5,0.3-22.6-9.2-23.9"/>
		<path class="st2" d="M518.9,973.4c-0.6,0-1.3-0.1-1.8-0.6c-1-0.9-1.2-2.4-0.3-3.4c1.5-1.7,1.7-7-0.3-12.2
			c-1.7-4.4-4.5-7.3-7.4-7.7c-1.4-0.2-2.3-1.4-2.1-2.7c0.2-1.3,1.5-2.2,2.8-2.1c4.8,0.7,9,4.6,11.4,10.7c2.1,5.5,2.9,13.2-0.6,17.1
			C520.2,973.1,519.5,973.4,518.9,973.4z"/>
	</g>
	<g>
		<path class="st4" d="M580.3,747.8c-5.9,0.2-7.9,2.4-14,5.5"/>
		<path d="M566.5,755.5c-0.9,0.1-1.7-0.4-2.1-1.2c-0.5-1-0.1-2.3,1-2.9c1.6-0.8,2.9-1.5,4-2.2c3.3-1.9,6-3.4,10.9-3.6
			c1.2-0.1,2.2,0.9,2.3,2c0,1.2-0.9,2.2-2.1,2.2c-3.8,0.2-5.6,1.2-8.9,3c-1.2,0.7-2.5,1.4-4.2,2.3
			C567,755.4,566.8,755.4,566.5,755.5z"/>
	</g>
	<g>
		<path class="st4" d="M587.6,761.9c-1.7,5.3-7.9,6.3-12.5,8.2"/>
		<path d="M575.2,772.2c-0.9,0.1-1.8-0.4-2.2-1.3c-0.5-1.1,0.1-2.4,1.2-2.8c1-0.4,2-0.8,3-1.1c3.7-1.3,7.2-2.5,8.2-5.7
			c0.4-1.1,1.6-1.8,2.8-1.4c1.2,0.4,1.8,1.6,1.5,2.7c-1.7,5.2-6.9,7-11,8.5c-1,0.3-1.9,0.7-2.8,1
			C575.6,772.2,575.4,772.2,575.2,772.2z"/>
	</g>
	<g>
		<path class="st4" d="M270.4,786.2c4.5,5.4,11.7,5.9,16.3,6.4"/>
		<path d="M286.9,794.8c-0.1,0-0.3,0-0.5,0c-0.3,0-0.7-0.1-1-0.1c-4.8-0.5-12-1.4-16.8-7.1c-0.8-0.9-0.6-2.3,0.3-3
			c1-0.8,2.4-0.6,3.1,0.3c3.6,4.3,9.5,5,13.9,5.5c0.4,0,0.7,0.1,1,0.1c1.2,0.1,2.1,1.2,1.9,2.4C288.8,793.9,287.9,794.7,286.9,794.8
			z"/>
	</g>
	<g>
		<path class="st4" d="M274.2,772.4c6.5-2.4,14.5,2.7,16,4"/>
		<path d="M290.3,778.6c-0.6,0-1.2-0.1-1.7-0.5c-1.1-0.9-8.3-5.6-13.7-3.6c-1.1,0.4-2.4-0.1-2.9-1.2c-0.4-1.1,0.1-2.4,1.3-2.8
			c7.6-2.8,16.5,2.9,18.3,4.4c0.9,0.8,1,2.2,0.2,3.1C291.4,778.3,290.9,778.6,290.3,778.6z"/>
	</g>
	<path class="st8" d="M584,843.1"/>
	<path class="st9" d="M393.8,199.2c0,0,62.3,82,70.8,95.7c8.5,13.7,24.3,41.6,36,62.8c11.7,21.1,25.8,101,7.2,118.4
		c-2.3,2.2-5.2-3.5-6.9-6.6c-0.1-24-6.8-46.2-18-67.9c-13.1-25.1-34.6-57.3-56.7-97.2C403.5,262.6,391.9,215.3,393.8,199.2z"/>
	<path class="st9" d="M195.3,247.6c0,0,11.8,45.2,17.3,61.2c5.4,15.8,15.5,47.7,19.6,61.9c4.2,14.3,12.8,44.4,19,58.3
		c9.3,23.4,32,47.5,32,47.5c9.7,10.8,20.6,17.6,22,22.2l-9.3,9.4c1.6,2.4-47.6-16.8-70.1-55.6c-8.8-17.8-20.6-52-29.4-92.5
		c-7.4-34.3-3.5-51.5-3.3-69.4C193.3,276.1,195.3,247.6,195.3,247.6z"/>
	<g>
		<path class="st10" d="M492.5,572.7"/>
		<g>
			<g>
				<g>
					<g>
						<g>
							
								<ellipse transform="matrix(0.997 -7.791882e-02 7.791882e-02 0.997 -46.7437 29.232)" cx="351.2" cy="613.6" rx="38.5" ry="36.9"/>
						</g>
						
							<ellipse transform="matrix(0.997 -7.791882e-02 7.791882e-02 0.997 -45.6005 30.1097)" class="st4" cx="363" cy="599.4" rx="9.4" ry="8.4"/>
						
							<ellipse transform="matrix(0.9578 -0.2875 0.2875 0.9578 -156.9826 129.6609)" class="st4" cx="363" cy="599.4" rx="9.6" ry="8.3"/>
						
							<ellipse transform="matrix(0.9578 -0.2875 0.2875 0.9578 -161.7353 127.3794)" class="st4" cx="352.9" cy="614.4" rx="4.6" ry="3.9"/>
					</g>
				</g>
			</g>
		</g>
		<g>
			<path class="st7" d="M341.3,578.4c-0.4,0.2-0.8,0.4-1.2,0.6C340.5,578.9,340.9,578.6,341.3,578.4z"/>
			<path class="st7" d="M338.5,580.4c-0.4,0.2-0.8,0.4-1.1,0.7C337.7,580.8,338.1,580.6,338.5,580.4z"/>
			<g>
				<path d="M426.7,691.1c-19.7,1.5-30.7-5.6-36.5-11.8c-6.3-6.8-7.9-13.9-8-14.2c-0.2-0.9,0.4-1.8,1.4-2c1-0.2,1.9,0.4,2.1,1.3l0,0
					c0,0.1,1.5,6.6,7.3,12.7c7.7,8.1,18.9,11.7,33.5,10.6c14.6-1.1,25.1-6.4,31.4-15.6c4.7-6.9,5.2-13.6,5.2-13.7
					c0.1-0.9,0.9-1.7,1.9-1.6c1,0.1,1.7,0.9,1.7,1.8c0,0.3-0.5,7.6-5.7,15.2C456.2,680.9,446.4,689.6,426.7,691.1z"/>
				<path class="st11" d="M428.5,713.8"/>
				<path d="M427.6,702.1c-1,0.1-1.8-0.6-1.9-1.6l-3-37.9c-1.8-1.3-3.8-3.1-5.5-5c-3.4-3.7-3.4-5.3-3-6.3c0.3-0.7,0.9-2.1,9.2-2.7
					c8.3-0.7,9.1,0.6,9.5,1.2c0.8,1.3,0.2,3.2-2,6.6c-1.3,2-3.1,4.2-4.6,5.8l3,38C429.3,701.2,428.5,702,427.6,702.1z M417.9,652.9
					c1,1.6,3.7,4.5,6.3,6.5c2.3-2.6,4.5-5.8,5.3-7.4C426.8,651.7,420.4,652.2,417.9,652.9z M430.3,652.1L430.3,652.1L430.3,652.1z
					 M417,653.2L417,653.2L417,653.2z"/>
				<path d="M427.6,702.2c-0.1,0-0.3,0-0.4,0c-1.8,0.1-7.7,0.2-9.3-3.1c-1-2.1-0.9-5.8-0.9-9l0-0.5c0-0.5,0.2-0.9,0.6-1.2
					c0.3-0.3,0.8-0.5,1.3-0.5c5.1,0.2,10.3-0.2,15.3-1.2c0.5-0.1,1,0,1.4,0.3c0.4,0.3,0.7,0.7,0.7,1.1c0.1,0.6,0.2,1.2,0.3,1.8
					c0.5,2.4,0.9,4.9,0.4,7.6c0,0.1,0,0.1-0.1,0.2C435.8,700.6,431.5,701.9,427.6,702.2z M420.5,691.5c0,2.3,0,5.1,0.6,6.3
					c0.2,0.4,2.3,1.3,5.9,1.1c3.7-0.2,6.1-1.3,6.4-2.1c0.4-2,0-4-0.4-6.1c0,0,0-0.1,0-0.1C428.9,691.2,424.7,691.5,420.5,691.5z"/>
				<path d="M478.4,661.9C478.4,661.9,478.3,661.9,478.4,661.9c-10.4,0.6-18.9-2.5-25.5-9c-0.7-0.7-0.7-1.8,0-2.4
					c0.7-0.7,1.8-0.7,2.5,0c5.9,5.9,13.3,8.5,22.7,8c1-0.1,1.8,0.7,1.9,1.6C480,661,479.3,661.8,478.4,661.9z"/>
				<path d="M371,672.9c-0.9,0.1-1.6-0.5-1.9-1.3c-0.2-0.9,0.4-1.9,1.3-2.1c8.2-1.9,14.4-6.8,18.8-14.9c0.5-0.8,1.5-1.2,2.4-0.7
					c0.9,0.4,1.2,1.5,0.7,2.3c-4.8,8.9-11.9,14.5-21.1,16.6C371.2,672.9,371.1,672.9,371,672.9z"/>
			</g>
			<g>
				<g>
					<g>
						<g>
							<g>
								
									<ellipse transform="matrix(0.997 -7.791882e-02 7.791882e-02 0.997 -45.4074 39.5737)" cx="484.4" cy="601.7" rx="38.5" ry="36.9"/>
							</g>
							
								<ellipse transform="matrix(0.997 -7.791882e-02 7.791882e-02 0.997 -44.2642 40.4513)" class="st4" cx="496.2" cy="587.4" rx="9.4" ry="8.4"/>
							
								<ellipse transform="matrix(0.9578 -0.2875 0.2875 0.9578 -147.9246 167.4438)" class="st4" cx="496.2" cy="587.4" rx="9.6" ry="8.3"/>
							
								<ellipse transform="matrix(0.9578 -0.2875 0.2875 0.9578 -152.6774 165.1623)" class="st4" cx="486.1" cy="602.5" rx="4.6" ry="3.9"/>
						</g>
					</g>
				</g>
			</g>
			<g>
				<path d="M323.9,647.4c-0.5,0-0.9-0.1-1.3-0.5c-0.6-0.6-0.6-1.6,0.1-2.2c8.2-7.4,24.5-15.3,40.1-16.1c14.4-0.7,20.3,1,24.8,2.7
					c0.8,0.3,1.2,1.2,0.9,2c-0.3,0.8-1.2,1.2-2,0.9c-4.1-1.6-9.6-3.2-23.4-2.5c-14.8,0.7-30.4,8.2-38.1,15.3
					C324.5,647.2,324.2,647.4,323.9,647.4z"/>
				<path class="st4" d="M385,633.8c-6.3,6.8-12.6,12.6-18.8,16.3c-9.3,2.3-18.4,3-27.2,2.6c-4.3-0.5-9.3-2.7-13.2-6.7
					C342.6,631.9,369.3,628.3,385,633.8z"/>
			</g>
			<g>
				<path d="M517.2,632.3c-0.3,0-0.7-0.1-1-0.3c-8.7-5.8-25.3-10.7-40-9.2c-13.7,1.5-19,3.9-22.8,6.1c-0.8,0.4-1.7,0.2-2.2-0.5
					c-0.4-0.7-0.2-1.7,0.6-2.1c4.1-2.4,9.7-5,24-6.6c15.5-1.7,32.9,3.6,42.1,9.7c0.7,0.5,0.9,1.4,0.4,2.1
					C518.1,632,517.6,632.3,517.2,632.3z"/>
				<path class="st4" d="M454.6,628.3c7.3,5.8,14.4,10.5,21.1,13.2c9.6,0.8,18.6,0.1,27.3-1.6c4.2-1.1,8.7-4.1,12-8.6
					C496.3,619.9,469.3,620.5,454.6,628.3z"/>
			</g>
		</g>
	</g>
	<g>
		<path class="st12" d="M346.5,764.5c11.6,3.7,36.7,8,47,8.3c0,0,8.6,31.2,48.1,23c29.7-6.2,27.3-32.3,27.3-32.3
			c2-0.2,32.6-12.2,33.5-12.3c5.6-0.4,7.1-1.1,10.7-1.4c5.1-0.4,8.8-2.9,12.9,0.7c14.4,12.6,21,49.5,12.9,60
			c-1.4,1.8-10.7,4.2-14,5.1c6.5,24.6,2.4,59.9,0.9,64.3c-1.3,10-42.7,29.3-84.2,29.4c-42.2,0.1-84.2-13.4-93.6-24.2
			c-0.6-0.7-1.3-1.3-1.6-2.2c-3-9.9,2.5-31.2,2.4-53.6c-4.5,0.7-11.3-0.1-13.8-0.8c-0.6-0.2-0.9-0.9-0.6-1.5
			c11.2-22.8,0.7-46-9.5-60.9c-1.8-2.7,7.6-0.9,12.3-1C342.2,765.1,343.8,763.5,346.5,764.5"/>
	</g>
</g>
</svg>
