<svg xmlns="http://www.w3.org/2000/svg" width="386.799" height="90" viewBox="0 0 386.799 90">
  <g id="Group_3" data-name="Group 3" transform="translate(-1151 -950)">
    <g id="Group_2" data-name="Group 2" transform="translate(7)">
      <g id="svgg" transform="translate(1144 950)">
        <path id="path0" d="M53.543,41.792c.061,14.977-.026,13.932,1.4,16.839C60.77,70.5,78.881,66.67,79.615,53.417A13.088,13.088,0,0,0,58.743,42.262l-.993.743-.043-7.253L57.663,28.5H53.489l.054,13.292M33.1,29.168a13.188,13.188,0,0,0-9,7.082c-1.365,2.8-1.429,3.6-1.432,18.042l0,11.875h4.166v-7.25c0-3.988.041-7.25.091-7.25a6.979,6.979,0,0,1,.958.644A13.072,13.072,0,1,0,33.1,29.168m4.818,4.086A8.907,8.907,0,1,1,26.942,42a8.872,8.872,0,0,1,10.981-8.746M68.893,44.1a8.915,8.915,0,1,1-11.181,8.055A8.88,8.88,0,0,1,68.893,44.1" fill="#fbfbfb" fill-rule="evenodd"/>
        <path id="path1" d="M111,42.592c0,18.415-.044,17.561.929,18.081a4.1,4.1,0,0,0,2.934-.065c.755-.5.8-.934.8-7.133V47.667l5.541,0c8.632,0,9.945-.45,11.657-3.952l.552-1.128v-12l-.543-1.109a7.637,7.637,0,0,0-2.926-3.05c-1.629-.763-1.551-.757-10.469-.757H111V42.592m130.333.753V61.024l7.542-.062,7.542-.062,1.312-.455c4.248-1.473,6.1-4.346,6.1-9.445,0-3.185-.549-5.007-2.073-6.878l-.716-.879.7-.775c3.126-3.452,2.758-11.314-.676-14.452-2.345-2.144-3.439-2.349-12.5-2.349h-7.24V43.345M312.672,29.2c-1.025.542-1.172,1.073-1.172,4.237v2.892l-1.125.009c-2.17.018-3.292.81-3.292,2.325,0,1.572.8,2.16,2.959,2.164l1.458,0v7.35c0,8.941.017,9.042,1.845,10.837A6.288,6.288,0,0,0,316,60.636a28.87,28.87,0,0,0,7.917.048c4.511-1.258,6.471-7.851,2.333-7.851a2.435,2.435,0,0,0-2.417,2.207c0,1.082-2.22,1.669-5.2,1.375-2.684-.263-2.629-.083-2.629-8.671V40.833h4.375c5.308,0,5.958-.243,5.958-2.217,0-1.874-1.073-2.262-6.291-2.274L316,36.333V33.708c0-2.9-.13-3.627-.747-4.207a2.89,2.89,0,0,0-2.58-.3m-185.156,1.4c1.221.489,1.309.892,1.314,6.013.005,6.755.563,6.274-7.372,6.35l-5.791.054V30.333h5.58c4.805,0,5.675.039,6.269.276m128.531-.03c3.847,1.167,4.387,7.942.786,9.86-.526.28-1.086.316-5.708.362l-5.125.05V30.333l4.625,0c3.559,0,4.809.058,5.422.244m-110.659,6c-1.186.515-1.132-.009-1.188,11.5-.063,12.822-.093,12.61,1.805,12.86,2.418.318,2.566-.117,2.635-7.769l.057-6.25,3.244-2.667c4.032-3.316,4.068-3.336,5.9-3.324,2.349.016,3.156.616,3.161,2.352.006,2.261,1.655,3.631,3.383,2.811,1.848-.877,1.544-5.433-.515-7.7-1.421-1.568-2.9-2.052-6.263-2.052-3.186,0-3.626.19-7.137,3.089l-1.716,1.416-.1-1.421c-.18-2.564-1.419-3.643-3.262-2.84m37.765.007a13.892,13.892,0,0,0-5.869,4.833c-.571,1.046-.661,13.3-.106,14.535A16.822,16.822,0,0,0,182,60.6c.942.505,14.3.479,15.166-.03a2.351,2.351,0,0,0,.747-3.082c-.471-.909-.8-.955-7.521-1.025-7.05-.074-6.7,0-8.184-1.656-.85-.947-.875-1-.875-1.976v-1h7.709c10.045,0,9.2.533,9.095-5.742-.081-4.854-.163-5.046-3.22-7.506a7.972,7.972,0,0,0-3.717-2.064,41,41,0,0,0-8.047.063m27.43-.017c-1.268.56-1.161-.889-1.211,16.46-.05,17.152-.1,16.341,1.011,16.915a3.062,3.062,0,0,0,2.634-.205c.676-.61.729-1,.816-6.07l.084-4.917,1.265,1.191c1.9,1.787,2.173,1.892,4.952,1.892,2.935,0,2.6.15,6.366-2.809,4.135-3.246,4.333-3.695,4.333-9.813s-.255-6.8-3.541-9.313c-.94-.717-1.81-1.4-1.935-1.524a6.909,6.909,0,0,0-5.19-2.041c-2.392,0-3.252.413-5.75,2.76l-.5.47-.092-.74c-.245-1.984-1.647-2.96-3.242-2.256m65.085.067c-.953.466-1.151,1.1-1.16,3.7-.009,2.449.042,2.664,1.237,5.25.323.7.588,1.3.588,1.331,0,.057.878,1.991,1.59,3.5.215.458.584,1.264.818,1.791s.617,1.39.852,1.917.6,1.333.819,1.792.544,1.187.729,1.619c.464,1.088.874,1.475,1.676,1.583.84.113.9-.194-.5,2.689-.651,1.343-1.334,2.761-1.518,3.15l-.334.709h-1.824c-3.168,0-4.139.528-4.139,2.25,0,1.866.839,2.247,4.947,2.249,4.257,0,3.881.352,6.97-6.5.671-1.489,1.036-2.288,2.25-4.917l1-2.167c1.276-2.766,1.563-3.389,1.914-4.166.533-1.177,1.36-2.968,2-4.334.3-.641.949-2.029,1.438-3.083l.889-1.917,0-2.59c0-3.167-.5-4.157-2.127-4.159-1.681,0-2.285.915-2.285,3.472a5.194,5.194,0,0,1-.5,2.97c-.275.594-.5,1.107-.5,1.139s-.375.858-.833,1.835-.834,1.8-.834,1.835c0,.06-.668,1.547-1.5,3.332-1,2.151-1.344,2.916-1.5,3.325a.559.559,0,0,1-.564.425c-.417,0-.46-.068-1.563-2.5-.228-.5-.678-1.479-1-2.167-.922-1.977-1.524-3.291-2.33-5.083-.412-.917-.891-1.962-1.065-2.323A5.313,5.313,0,0,1,279,40.139c0-3.213-1.247-4.525-3.332-3.505m70.5-.069a9.117,9.117,0,0,0-3.565,2.267c-2.928,2.538-2.988,2.764-2.907,10.881.068,6.875-.113,6.339,3.112,9.225,2.379,2.13,1.636,1.979,9.693,1.979,8.394,0,8.674-.074,8.664-2.287-.009-1.986-.376-2.088-7.707-2.159-7.023-.068-6.747-.018-8.1-1.452a3.429,3.429,0,0,1-1.191-2.514v-.672h7.758c10.1,0,9.158.547,9.158-5.321V42.576l-.536-1.09c-.591-1.2-.9-1.517-3.185-3.281-2.175-1.679-2.482-1.76-6.862-1.811a21.439,21.439,0,0,0-4.333.171m31.09.025c-1.8.495-3.587,1.923-3.841,3.079a1.205,1.205,0,0,1-.262.589c-.817.505.052,4.473,1.23,5.619.7.681,1.246,1,3.616,2.086.6.274,1.608.742,2.25,1.04s1.467.671,1.833.832c6.93,3.028,7.615,3.57,6.847,5.409-.468,1.119-.752,1.173-6.18,1.17-5.253,0-5.574-.056-6.485-1.064a2.439,2.439,0,0,0-3.6.409c-.951,1.539.27,3.369,3.143,4.713l.946.442h5.75c6.025,0,6.583-.053,8.058-.786,3.523-1.752,4.38-7.388,1.547-10.173a6.622,6.622,0,0,0-2.691-1.8l-2.847-1.325c-.788-.366-1.458-.666-1.488-.666s-.623-.263-1.317-.584l-2.543-1.175c-.7-.326-1.661-.751-2.125-.944-1.117-.466-1.594-.912-1.594-1.489,0-.946.451-1.052,4.722-1.111,4.891-.068,5.735.061,6.957,1.063,2.57,2.108,5.64-.875,3.264-3.172-2.408-2.326-2.78-2.421-9.443-2.4a33.3,33.3,0,0,0-5.743.239M190.846,41.2a4.25,4.25,0,0,1,2.813,4.426l.008,1.708H181.333V45.317c0-2.3-.033-2.231,1.865-3.538,1.387-.956,5.989-1.305,7.648-.58m30.228-.13a3.465,3.465,0,0,1,.883.541c.356.342.74.663,1.957,1.64,2.4,1.93,2.474,2.114,2.391,6.325-.072,3.644,0,3.45-1.963,5.066-.407.335-1.007.841-1.333,1.125-2.718,2.37-3.217,2.292-6.759-1.058-2.48-2.346-2.4-2.162-2.409-5.516-.009-3.172.066-3.424,1.382-4.628.473-.433,1.423-1.326,2.11-1.984,1.832-1.755,2.506-2.027,3.741-1.511m132.759.13a8.436,8.436,0,0,1,1.646,1.239l1.062.987.086,1.954.086,1.954H344.12l.085-1.912c.1-2.189.211-2.454,1.417-3.275a6.759,6.759,0,0,0,.884-.671c.437-.635,6.019-.845,7.327-.276m-96.894,5.025c2.815,1.561,3.069,7.5.393,9.193-1.207.763-2.352.911-7.04.914l-4.292,0V45.645l5.042.052,5.041.053.856.474" transform="translate(-7)" fill="#4c8cec" fill-rule="evenodd"/>
        <path id="path2" fill="#a4c4f4" fill-rule="evenodd"/>
        <path id="path3" d="M53.412,40.5c0,6.646.021,9.365.046,6.042s.026-8.761,0-12.084-.046-.6-.046,6.042M35.375,33.119a3.608,3.608,0,0,0,.917,0c.252-.038.045-.069-.459-.069s-.71.031-.458.069m9.334,8.8c0,.366.036.5.076.289a1.829,1.829,0,0,0,0-.666c-.042-.16-.074.01-.072.377m8.663,11.25c0,.32.034.452.076.291a1.365,1.365,0,0,0,0-.583c-.042-.16-.076-.029-.076.292M35.544,55.12a2.968,2.968,0,0,0,.833,0c.205-.039,0-.071-.46-.069s-.626.033-.373.072" fill="#89b3f0" fill-rule="evenodd"/>
        <path id="path4" d="M26.879,42c0,.412.032.581.072.375a2.359,2.359,0,0,0,0-.75c-.04-.206-.072-.038-.072.375m.031,16.917c0,4.033.022,5.659.048,3.613s.027-5.345,0-7.333-.048-.314-.048,3.72m29.923,2.635a4.123,4.123,0,0,0,.542.542l.542.489-.49-.541c-.456-.505-.594-.619-.594-.49" fill="#b4ccf4" fill-rule="evenodd"/>
      </g>
      <g id="prepbytes_logo" data-name="prepbytes logo" transform="translate(1144 950)">
        <g id="Ellipse_1" data-name="Ellipse 1" fill="#4b8ce8" stroke="#4b8ce8" stroke-width="1">
          <circle cx="45" cy="45" r="45" stroke="none"/>
          <circle cx="45" cy="45" r="44.5" fill="none"/>
        </g>
        <g id="Ellipse_2" data-name="Ellipse 2" transform="translate(21 26)" fill="none" stroke="#fff" stroke-width="3">
          <circle cx="12" cy="12" r="12" stroke="none"/>
          <circle cx="12" cy="12" r="10.5" fill="none"/>
        </g>
        <g id="Ellipse_3" data-name="Ellipse 3" transform="translate(72 61) rotate(180)" fill="none" stroke="#fff" stroke-width="3">
          <circle cx="12" cy="12" r="12" stroke="none"/>
          <circle cx="12" cy="12" r="10.5" fill="none"/>
        </g>
        <path id="Rectangle_1" data-name="Rectangle 1" d="M0,0H3A0,0,0,0,1,3,0V22a1,1,0,0,1-1,1H1a1,1,0,0,1-1-1V0A0,0,0,0,1,0,0Z" transform="translate(21 38)" fill="#fff"/>
        <path id="Rectangle_2" data-name="Rectangle 2" d="M0,0H3A0,0,0,0,1,3,0V22a1,1,0,0,1-1,1H1a1,1,0,0,1-1-1V0A0,0,0,0,1,0,0Z" transform="translate(51 49) rotate(180)" fill="#fff"/>
      </g>
    </g>
  </g>
</svg>
