<svg width="116" height="116" xmlns="http://www.w3.org/2000/svg"><g fill="none" fill-rule="evenodd"><path d="M58 2c30.928 0 56 25.072 56 56 0 30.929-25.072 56-56 56S2 88.929 2 58C2 27.072 27.072 2 58 2zm-8 32v48h16V34H50z" fill="#FFF"/><path d="M58 13c24.853 0 45 20.147 45 45 0 24.854-20.147 45-45 45S13 82.854 13 58c0-24.853 20.147-45 45-45zm-8 21v48h16V34H50z" fill="#1A8CFF"/><path d="M0 58c0 32.034 25.967 58 58 58s58-25.966 58-58c0-32.033-25.967-58-58-58S0 25.967 0 58zm2 0C2 27.075 27.069 2 58 2s56 25.075 56 56-25.068 56-56 56S2 88.925 2 58z" fill="#000" fill-rule="nonzero" opacity=".5"/><path d="M113.921 55c.052.993.079 1.994.079 3 0 30.928-25.072 56-56 56S2 88.928 2 58c0-1.006.027-2.007.079-3 1.559 29.533 26 53 55.921 53 29.69 0 53.985-23.106 55.88-52.318l.041-.682zM58 8c27.062 0 49 21.938 49 49 0 15.13-6.857 28.657-17.632 37.646C98.37 86.249 104 74.282 104 61c0-25.405-20.595-46-46-46S12 35.595 12 61c0 13.282 5.629 25.249 14.631 33.646C15.857 85.657 9 72.129 9 57 9 29.938 30.938 8 58 8z" fill-opacity=".052" fill="#000"/><path d="M58 13c24.856 0 45 20.15 45 45s-20.144 45-45 45c-24.608 0-44.597-19.75-44.994-44.256L13 58c0-24.85 20.144-45 45-45zm0 2c-23.748 0-43 19.252-43 43 0 23.749 19.252 43 43 43s43-19.251 43-43c0-23.748-19.252-43-43-43z" fill="#000" fill-rule="nonzero" opacity=".256"/><path d="M58.223 23A35.096 35.096 0 0023 58.223C23 77.403 38.743 93 58.223 93 77.33 93 93 77.33 93 58.223 93 38.743 77.402 23 58.223 23zm-.002 2C76.225 25 91 39.775 91 58.221 91 76.226 76.225 91 58.221 91 39.775 91 25 76.226 25 58.221A33.096 33.096 0 0158.221 25z" fill-opacity=".25" fill="#000" fill-rule="nonzero"/><path d="M58.221 25C76.225 25 91 39.775 91 58.221 91 76.226 76.225 91 58.221 91 39.775 91 25 76.226 25 58.221A33.096 33.096 0 0158.221 25zm5.229 8h-10.9c-1.356 0-2.465 1.202-2.545 2.718l-.005.176v11.727c0 .448.137.88.385 1.223l.113.142 1.594 1.809c.625.709.662 1.833.11 2.59l-.11.138-1.594 1.81a2.047 2.047 0 00-.49 1.173l-.008.19v23.41c0 1.539 1.059 2.798 2.395 2.889l.155.005h10.9c1.356 0 2.465-1.202 2.545-2.718l.005-.176V68.379c0-.448-.137-.88-.385-1.223l-.113-.142-1.594-1.809c-.625-.709-.662-1.833-.11-2.59l.11-.138 1.594-1.81c.279-.316.451-.731.49-1.173l.008-.19v-23.41c0-1.539-1.059-2.798-2.395-2.889L63.45 33z" fill="#F7F7F7"/><g><path d="M50 45.31v2.311c0 .448.137.88.385 1.223l.113.142 1.594 1.809c.625.709.662 1.833.11 2.59l-.11.138-1.594 1.81a2.047 2.047 0 00-.49 1.173l-.008.19v13.995c-4.206-2.657-7-7.348-7-12.691 0-5.343 2.794-10.034 7-12.69zM73 58c0 5.343-2.793 10.033-6.999 12.69L66 68.38c0-.448-.137-.88-.385-1.223l-.113-.142-1.594-1.809c-.625-.709-.662-1.833-.11-2.59l.11-.138 1.594-1.81c.279-.316.451-.731.49-1.173l.008-.19.001-13.994C70.207 47.967 73 52.657 73 58z" fill-opacity=".05" fill="#000"/><path d="M50 42.996v2.313c-4.206 2.657-7 7.348-7 12.691 0 5.343 2.794 10.034 7 12.69v2.314c-5.356-2.862-9-8.507-9-15.004 0-6.372 3.505-11.925 8.693-14.836l.307-.168zM75 58c0 6.496-3.644 12.141-8.999 15.003V70.69C70.207 68.033 73 63.343 73 58c0-5.343-2.793-10.033-6.999-12.69v-2.313C71.356 45.859 75 51.504 75 58z" fill="#FFF" fill-rule="nonzero"/><path d="M50 45.31v2.311c0 .043.001.086.004.128A12.978 12.978 0 0045 58c0 4.163 1.957 7.868 5 10.248v2.443c-4.206-2.657-7-7.348-7-12.691 0-5.343 2.794-10.034 7-12.69zM73 58c0 5.343-2.793 10.033-6.999 12.69L66 68.38a2.19 2.19 0 00-.004-.128A12.977 12.977 0 0071 58c0-4.162-1.956-7.867-4.999-10.247V45.31C70.207 47.967 73 52.657 73 58z" fill-opacity=".15" fill="#000" fill-rule="nonzero"/></g><g fill-rule="nonzero"><path d="M63.577 32H52.423C49.951 32 48 34.165 48 36.772v10.792c0 .982.354 1.93.996 2.642l1.64 1.819c.037.042.037.161 0 .204l-1.64 1.818A3.95 3.95 0 0048 56.69v22.539C48 81.835 49.951 84 52.423 84h11.154C66.049 84 68 81.835 68 79.228V68.436a3.95 3.95 0 00-.996-2.642l-1.64-1.819c-.037-.042-.037-.161 0-.204l1.64-1.818A3.95 3.95 0 0068 59.31V36.772C68 34.165 66.049 32 63.577 32zm-.127 2.038c1.408 0 2.55 1.294 2.55 2.89v22.374c0 .51-.18 1-.498 1.362l-1.594 1.806c-.664.752-.664 1.972 0 2.725L65.502 67c.319.361.498.851.498 1.362v10.71c0 1.595-1.142 2.89-2.55 2.89h-10.9c-1.408 0-2.55-1.295-2.55-2.89V56.697c0-.51.18-1 .498-1.362l1.594-1.806c.664-.752.664-1.972 0-2.725L50.498 49A2.064 2.064 0 0150 47.637v-10.71c0-1.595 1.142-2.89 2.55-2.89h10.9z" fill="#FFF"/><path d="M63.45 34c1.408 0 2.55 1.296 2.55 2.894v22.41c0 .511-.18 1.002-.498 1.364l-1.594 1.809c-.664.753-.664 1.975 0 2.728l1.594 1.81c.319.361.498.852.498 1.364v10.727C66 80.704 64.858 82 63.45 82h-10.9C51.142 82 50 80.704 50 79.106v-22.41c0-.511.18-1.002.498-1.364l1.594-1.809c.664-.753.664-1.975 0-2.728l-1.594-1.81A2.069 2.069 0 0150 47.622V36.894C50 35.296 51.142 34 52.55 34h10.9zm-.288 2.054l-10.324-.013c-.404 0-.784.379-.833.916l-.005.118v10.631c0 .031.007.059.015.078l.014.023L53.7 49.6c1.306 1.403 1.35 3.6.135 5.058l-.135.153-1.67 1.794c-.01.01-.02.031-.025.058l-.004.043v22.218c0 .559.353.975.752 1.028l.086.006 10.324.014c.404 0 .784-.38.833-.917L64 78.94V68.307a.196.196 0 00-.015-.078l-.014-.022-1.67-1.794c-1.306-1.403-1.35-3.601-.135-5.059l.135-.153 1.67-1.794c.01-.01.02-.03.025-.057l.004-.044V37.088c0-.559-.353-.975-.752-1.028l-.086-.006z" fill-opacity=".4" fill="#000"/></g></g></svg>