<svg width="123" height="32" viewBox="0 0 123 32" xmlns="http://www.w3.org/2000/svg"><title>Logo</title><path d="M59.897 0L54.75 2.194v14.07c.184 5.378 4.582 9.633 9.923 9.6v-5.128a4.73 4.73 0 0 1-3.367-1.379 4.804 4.804 0 0 1-1.414-3.374v-4.834h4.781V6.034h-4.776V0zm-17.08 6.034c-5.396.072-9.718 4.525-9.67 9.962.048 5.437 4.448 9.812 9.844 9.788 5.396-.025 9.757-4.44 9.756-9.877-.037-5.489-4.483-9.909-9.93-9.873zm0 14.629c-2.598-.035-4.68-2.178-4.657-4.796.022-2.617 2.14-4.724 4.737-4.714 2.598.01 4.699 2.133 4.701 4.75a4.804 4.804 0 0 1-1.412 3.379 4.73 4.73 0 0 1-3.37 1.38zm33.035-14.63c-5.395.074-9.717 4.528-9.668 9.964.048 5.437 4.449 9.811 9.844 9.787 5.396-.025 9.757-4.44 9.756-9.877-.037-5.49-4.484-9.91-9.932-9.873zm0 14.63c-2.598-.033-4.681-2.176-4.66-4.793.02-2.618 2.138-4.727 4.736-4.717 2.598.01 4.7 2.133 4.702 4.75-.016 2.644-2.155 4.774-4.778 4.76zm-65.45-14.63C4.954 5.999.51 10.419.472 15.908c0 .13 0 .26.01.389h-.01v13.51L5.62 32v-7.437a9.935 9.935 0 0 0 4.781 1.22A9.786 9.786 0 0 0 19 20.884a9.94 9.94 0 0 0 0-9.952 9.786 9.786 0 0 0-8.598-4.898zm0 14.63c-2.597-.035-4.678-2.178-4.656-4.796.022-2.617 2.14-4.724 4.737-4.714 2.597.01 4.699 2.133 4.7 4.75a4.806 4.806 0 0 1-1.412 3.378 4.733 4.733 0 0 1-3.369 1.382zm11.8-5.036v10.22h5.149v-9.943a4.804 4.804 0 0 1 1.414-3.375 4.73 4.73 0 0 1 3.367-1.379V6.034c-5.343-.037-9.746 4.218-9.93 9.6v-.007zm90.339-9.6c-5.396.072-9.718 4.525-9.67 9.962.048 5.437 4.448 9.812 9.844 9.787 5.396-.024 9.757-4.439 9.756-9.876-.04-5.487-4.485-9.903-9.93-9.866v-.007zm0 14.628c-2.598-.034-4.68-2.178-4.657-4.796.023-2.618 2.142-4.725 4.74-4.713 2.598.01 4.698 2.136 4.698 4.754a4.804 4.804 0 0 1-1.41 3.38 4.73 4.73 0 0 1-3.371 1.383v-.008zm-17.097 5.128h5.149V6.033h-5.15v19.75zm-5.496-6.642c-1.814.024-3.267 1.52-3.252 3.348.016 1.828 1.495 3.3 3.31 3.292 1.813-.008 3.28-1.492 3.28-3.32-.013-1.845-1.507-3.331-3.338-3.32z" fill="#161637" fill-rule="evenodd"/></svg>